<svg width="392" height="153" viewBox="0 0 392 153" fill="none" xmlns="http://www.w3.org/2000/svg">
<path d="M31.4036 63.1586H78.7723V64.6826C78.7723 85.3013 60.6502 101.527 40.3749 101.527C19.5614 101.527 1.34961 85.5702 1.34961 63.7861C1.34961 42.4502 19.4717 26.0449 39.9264 26.0449C58.1382 26.0449 71.4158 38.4161 75.094 48.7255H59.0353C55.8954 43.8846 49.2566 38.5058 39.6572 38.5058C23.2397 38.6851 14.7169 52.5803 14.7169 63.9654C14.7169 74.9919 23.0603 89.0664 40.2852 89.0664C49.1669 89.0664 57.5102 84.1359 61.7267 75.7091H31.4036V63.1586Z" fill="#055AAB"/>
<path d="M208.769 76.2442C208.769 68.0864 212.088 60.825 217.561 55.6255V25.6836C217.561 25.6836 207.961 26.3111 207.872 37.6066C207.692 48.8124 207.872 57.777 207.872 57.777V57.8667C203.206 53.2947 196.837 50.426 189.66 50.426C175.395 50.426 163.822 61.9904 163.822 76.2442C163.822 90.498 175.395 102.062 189.66 102.062C196.837 102.062 203.386 99.1041 208.141 94.3528C208.769 96.1457 210.742 99.5523 217.65 99.5523V96.8629C212.088 91.6634 208.769 84.3124 208.769 76.2442ZM189.749 89.9601C182.124 89.9601 175.934 83.7745 175.934 76.1546C175.934 68.5346 182.124 62.349 189.749 62.349C197.375 62.349 203.565 68.5346 203.565 76.1546C203.476 83.8642 197.285 89.9601 189.749 89.9601Z" fill="#096DBF"/>
<mask id="mask0_805_915" style="mask-type:luminance" maskUnits="userSpaceOnUse" x="211" y="25" width="55" height="78">
<path d="M255.776 37.6066C255.596 48.8124 255.776 57.777 255.776 57.777V57.8667C251.111 53.2947 244.741 50.426 237.564 50.426C223.3 50.426 211.727 61.9904 211.727 76.2442C211.727 90.498 223.3 102.062 237.564 102.062C244.741 102.062 251.29 99.1041 256.045 94.3528C256.673 96.1457 258.647 99.5523 265.555 99.5523V25.6836C265.465 25.6836 255.866 26.3111 255.776 37.6066ZM237.564 89.9601C229.938 89.9601 223.748 83.7745 223.748 76.1546C223.748 68.5346 229.938 62.349 237.564 62.349C245.19 62.349 251.38 68.5346 251.38 76.1546C251.38 83.8642 245.19 89.9601 237.564 89.9601Z" fill="white"/>
</mask>
<g mask="url(#mask0_805_915)">
<path d="M251.379 62.3496H251.109V90.0504H251.379V62.3496Z" fill="#0C7BCD"/>
</g>
<mask id="mask1_805_915" style="mask-type:luminance" maskUnits="userSpaceOnUse" x="211" y="25" width="55" height="78">
<path d="M255.776 37.6066C255.596 48.8124 255.776 57.777 255.776 57.777V57.8667C251.111 53.2947 244.741 50.426 237.564 50.426C223.3 50.426 211.727 61.9904 211.727 76.2442C211.727 90.498 223.3 102.062 237.564 102.062C244.741 102.062 251.29 99.1041 256.045 94.3528C256.673 96.1457 258.647 99.5523 265.555 99.5523V25.6836C265.465 25.6836 255.866 26.3111 255.776 37.6066ZM237.564 89.9601C229.938 89.9601 223.748 83.7745 223.748 76.1546C223.748 68.5346 229.938 62.349 237.564 62.349C245.19 62.349 251.38 68.5346 251.38 76.1546C251.38 83.8642 245.19 89.9601 237.564 89.9601Z" fill="white"/>
</mask>
<g mask="url(#mask1_805_915)">
<path d="M251.11 62.3496H249.943V90.0504H251.11V62.3496Z" fill="#0C7ACC"/>
</g>
<mask id="mask2_805_915" style="mask-type:luminance" maskUnits="userSpaceOnUse" x="211" y="25" width="55" height="78">
<path d="M255.776 37.6066C255.596 48.8124 255.776 57.777 255.776 57.777V57.8667C251.111 53.2947 244.741 50.426 237.564 50.426C223.3 50.426 211.727 61.9904 211.727 76.2442C211.727 90.498 223.3 102.062 237.564 102.062C244.741 102.062 251.29 99.1041 256.045 94.3528C256.673 96.1457 258.647 99.5523 265.555 99.5523V25.6836C265.465 25.6836 255.866 26.3111 255.776 37.6066ZM237.564 89.9601C229.938 89.9601 223.748 83.7745 223.748 76.1546C223.748 68.5346 229.938 62.349 237.564 62.349C245.19 62.349 251.38 68.5346 251.38 76.1546C251.38 83.8642 245.19 89.9601 237.564 89.9601Z" fill="white"/>
</mask>
<g mask="url(#mask2_805_915)">
<path d="M249.944 62.3496H248.777V90.0504H249.944V62.3496Z" fill="#0B79CB"/>
</g>
<mask id="mask3_805_915" style="mask-type:luminance" maskUnits="userSpaceOnUse" x="211" y="25" width="55" height="78">
<path d="M255.776 37.6066C255.596 48.8124 255.776 57.777 255.776 57.777V57.8667C251.111 53.2947 244.741 50.426 237.564 50.426C223.3 50.426 211.727 61.9904 211.727 76.2442C211.727 90.498 223.3 102.062 237.564 102.062C244.741 102.062 251.29 99.1041 256.045 94.3528C256.673 96.1457 258.647 99.5523 265.555 99.5523V25.6836C265.465 25.6836 255.866 26.3111 255.776 37.6066ZM237.564 89.9601C229.938 89.9601 223.748 83.7745 223.748 76.1546C223.748 68.5346 229.938 62.349 237.564 62.349C245.19 62.349 251.38 68.5346 251.38 76.1546C251.38 83.8642 245.19 89.9601 237.564 89.9601Z" fill="white"/>
</mask>
<g mask="url(#mask3_805_915)">
<path d="M248.688 62.3496H247.521V90.0504H248.688V62.3496Z" fill="#0B78CA"/>
</g>
<mask id="mask4_805_915" style="mask-type:luminance" maskUnits="userSpaceOnUse" x="211" y="25" width="55" height="78">
<path d="M255.776 37.6066C255.596 48.8124 255.776 57.777 255.776 57.777V57.8667C251.111 53.2947 244.741 50.426 237.564 50.426C223.3 50.426 211.727 61.9904 211.727 76.2442C211.727 90.498 223.3 102.062 237.564 102.062C244.741 102.062 251.29 99.1041 256.045 94.3528C256.673 96.1457 258.647 99.5523 265.555 99.5523V25.6836C265.465 25.6836 255.866 26.3111 255.776 37.6066ZM237.564 89.9601C229.938 89.9601 223.748 83.7745 223.748 76.1546C223.748 68.5346 229.938 62.349 237.564 62.349C245.19 62.349 251.38 68.5346 251.38 76.1546C251.38 83.8642 245.19 89.9601 237.564 89.9601Z" fill="white"/>
</mask>
<g mask="url(#mask4_805_915)">
<path d="M247.522 62.3496H246.355V90.0504H247.522V62.3496Z" fill="#0B77C9"/>
</g>
<mask id="mask5_805_915" style="mask-type:luminance" maskUnits="userSpaceOnUse" x="211" y="25" width="55" height="78">
<path d="M255.776 37.6066C255.596 48.8124 255.776 57.777 255.776 57.777V57.8667C251.111 53.2947 244.741 50.426 237.564 50.426C223.3 50.426 211.727 61.9904 211.727 76.2442C211.727 90.498 223.3 102.062 237.564 102.062C244.741 102.062 251.29 99.1041 256.045 94.3528C256.673 96.1457 258.647 99.5523 265.555 99.5523V25.6836C265.465 25.6836 255.866 26.3111 255.776 37.6066ZM237.564 89.9601C229.938 89.9601 223.748 83.7745 223.748 76.1546C223.748 68.5346 229.938 62.349 237.564 62.349C245.19 62.349 251.38 68.5346 251.38 76.1546C251.38 83.8642 245.19 89.9601 237.564 89.9601Z" fill="white"/>
</mask>
<g mask="url(#mask5_805_915)">
<path d="M246.356 62.3496H245.189V90.0504H246.356V62.3496Z" fill="#0B76C8"/>
</g>
<mask id="mask6_805_915" style="mask-type:luminance" maskUnits="userSpaceOnUse" x="211" y="25" width="55" height="78">
<path d="M255.776 37.6066C255.596 48.8124 255.776 57.777 255.776 57.777V57.8667C251.111 53.2947 244.741 50.426 237.564 50.426C223.3 50.426 211.727 61.9904 211.727 76.2442C211.727 90.498 223.3 102.062 237.564 102.062C244.741 102.062 251.29 99.1041 256.045 94.3528C256.673 96.1457 258.647 99.5523 265.555 99.5523V25.6836C265.465 25.6836 255.866 26.3111 255.776 37.6066ZM237.564 89.9601C229.938 89.9601 223.748 83.7745 223.748 76.1546C223.748 68.5346 229.938 62.349 237.564 62.349C245.19 62.349 251.38 68.5346 251.38 76.1546C251.38 83.8642 245.19 89.9601 237.564 89.9601Z" fill="white"/>
</mask>
<g mask="url(#mask6_805_915)">
<path d="M245.1 62.3496H243.934V90.0504H245.1V62.3496Z" fill="#0B75C7"/>
</g>
<mask id="mask7_805_915" style="mask-type:luminance" maskUnits="userSpaceOnUse" x="211" y="25" width="55" height="78">
<path d="M255.776 37.6066C255.596 48.8124 255.776 57.777 255.776 57.777V57.8667C251.111 53.2947 244.741 50.426 237.564 50.426C223.3 50.426 211.727 61.9904 211.727 76.2442C211.727 90.498 223.3 102.062 237.564 102.062C244.741 102.062 251.29 99.1041 256.045 94.3528C256.673 96.1457 258.647 99.5523 265.555 99.5523V25.6836C265.465 25.6836 255.866 26.3111 255.776 37.6066ZM237.564 89.9601C229.938 89.9601 223.748 83.7745 223.748 76.1546C223.748 68.5346 229.938 62.349 237.564 62.349C245.19 62.349 251.38 68.5346 251.38 76.1546C251.38 83.8642 245.19 89.9601 237.564 89.9601Z" fill="white"/>
</mask>
<g mask="url(#mask7_805_915)">
<path d="M243.934 62.3496H242.768V90.0504H243.934V62.3496Z" fill="#0A74C6"/>
</g>
<mask id="mask8_805_915" style="mask-type:luminance" maskUnits="userSpaceOnUse" x="211" y="25" width="55" height="78">
<path d="M255.776 37.6066C255.596 48.8124 255.776 57.777 255.776 57.777V57.8667C251.111 53.2947 244.741 50.426 237.564 50.426C223.3 50.426 211.727 61.9904 211.727 76.2442C211.727 90.498 223.3 102.062 237.564 102.062C244.741 102.062 251.29 99.1041 256.045 94.3528C256.673 96.1457 258.647 99.5523 265.555 99.5523V25.6836C265.465 25.6836 255.866 26.3111 255.776 37.6066ZM237.564 89.9601C229.938 89.9601 223.748 83.7745 223.748 76.1546C223.748 68.5346 229.938 62.349 237.564 62.349C245.19 62.349 251.38 68.5346 251.38 76.1546C251.38 83.8642 245.19 89.9601 237.564 89.9601Z" fill="white"/>
</mask>
<g mask="url(#mask8_805_915)">
<path d="M242.768 62.3496H241.602V90.0504H242.768V62.3496Z" fill="#0A73C5"/>
</g>
<mask id="mask9_805_915" style="mask-type:luminance" maskUnits="userSpaceOnUse" x="211" y="25" width="55" height="78">
<path d="M255.776 37.6066C255.596 48.8124 255.776 57.777 255.776 57.777V57.8667C251.111 53.2947 244.741 50.426 237.564 50.426C223.3 50.426 211.727 61.9904 211.727 76.2442C211.727 90.498 223.3 102.062 237.564 102.062C244.741 102.062 251.29 99.1041 256.045 94.3528C256.673 96.1457 258.647 99.5523 265.555 99.5523V25.6836C265.465 25.6836 255.866 26.3111 255.776 37.6066ZM237.564 89.9601C229.938 89.9601 223.748 83.7745 223.748 76.1546C223.748 68.5346 229.938 62.349 237.564 62.349C245.19 62.349 251.38 68.5346 251.38 76.1546C251.38 83.8642 245.19 89.9601 237.564 89.9601Z" fill="white"/>
</mask>
<g mask="url(#mask9_805_915)">
<path d="M241.51 62.3496H240.344V90.0504H241.51V62.3496Z" fill="#0A72C4"/>
</g>
<mask id="mask10_805_915" style="mask-type:luminance" maskUnits="userSpaceOnUse" x="211" y="25" width="55" height="78">
<path d="M255.776 37.6066C255.596 48.8124 255.776 57.777 255.776 57.777V57.8667C251.111 53.2947 244.741 50.426 237.564 50.426C223.3 50.426 211.727 61.9904 211.727 76.2442C211.727 90.498 223.3 102.062 237.564 102.062C244.741 102.062 251.29 99.1041 256.045 94.3528C256.673 96.1457 258.647 99.5523 265.555 99.5523V25.6836C265.465 25.6836 255.866 26.3111 255.776 37.6066ZM237.564 89.9601C229.938 89.9601 223.748 83.7745 223.748 76.1546C223.748 68.5346 229.938 62.349 237.564 62.349C245.19 62.349 251.38 68.5346 251.38 76.1546C251.38 83.8642 245.19 89.9601 237.564 89.9601Z" fill="white"/>
</mask>
<g mask="url(#mask10_805_915)">
<path d="M240.342 62.3496H239.176V90.0504H240.342V62.3496Z" fill="#0A71C3"/>
</g>
<mask id="mask11_805_915" style="mask-type:luminance" maskUnits="userSpaceOnUse" x="211" y="25" width="55" height="78">
<path d="M255.776 37.6066C255.596 48.8124 255.776 57.777 255.776 57.777V57.8667C251.111 53.2947 244.741 50.426 237.564 50.426C223.3 50.426 211.727 61.9904 211.727 76.2442C211.727 90.498 223.3 102.062 237.564 102.062C244.741 102.062 251.29 99.1041 256.045 94.3528C256.673 96.1457 258.647 99.5523 265.555 99.5523V25.6836C265.465 25.6836 255.866 26.3111 255.776 37.6066ZM237.564 89.9601C229.938 89.9601 223.748 83.7745 223.748 76.1546C223.748 68.5346 229.938 62.349 237.564 62.349C245.19 62.349 251.38 68.5346 251.38 76.1546C251.38 83.8642 245.19 89.9601 237.564 89.9601Z" fill="white"/>
</mask>
<g mask="url(#mask11_805_915)">
<path d="M239.176 62.3496H238.01V90.0504H239.176V62.3496Z" fill="#0A70C2"/>
</g>
<mask id="mask12_805_915" style="mask-type:luminance" maskUnits="userSpaceOnUse" x="211" y="25" width="55" height="78">
<path d="M255.776 37.6066C255.596 48.8124 255.776 57.777 255.776 57.777V57.8667C251.111 53.2947 244.741 50.426 237.564 50.426C223.3 50.426 211.727 61.9904 211.727 76.2442C211.727 90.498 223.3 102.062 237.564 102.062C244.741 102.062 251.29 99.1041 256.045 94.3528C256.673 96.1457 258.647 99.5523 265.555 99.5523V25.6836C265.465 25.6836 255.866 26.3111 255.776 37.6066ZM237.564 89.9601C229.938 89.9601 223.748 83.7745 223.748 76.1546C223.748 68.5346 229.938 62.349 237.564 62.349C245.19 62.349 251.38 68.5346 251.38 76.1546C251.38 83.8642 245.19 89.9601 237.564 89.9601Z" fill="white"/>
</mask>
<g mask="url(#mask12_805_915)">
<path d="M237.922 62.3496H236.756V90.0504H237.922V62.3496Z" fill="#096FC0"/>
</g>
<mask id="mask13_805_915" style="mask-type:luminance" maskUnits="userSpaceOnUse" x="211" y="25" width="55" height="78">
<path d="M255.776 37.6066C255.596 48.8124 255.776 57.777 255.776 57.777V57.8667C251.111 53.2947 244.741 50.426 237.564 50.426C223.3 50.426 211.727 61.9904 211.727 76.2442C211.727 90.498 223.3 102.062 237.564 102.062C244.741 102.062 251.29 99.1041 256.045 94.3528C256.673 96.1457 258.647 99.5523 265.555 99.5523V25.6836C265.465 25.6836 255.866 26.3111 255.776 37.6066ZM237.564 89.9601C229.938 89.9601 223.748 83.7745 223.748 76.1546C223.748 68.5346 229.938 62.349 237.564 62.349C245.19 62.349 251.38 68.5346 251.38 76.1546C251.38 83.8642 245.19 89.9601 237.564 89.9601Z" fill="white"/>
</mask>
<g mask="url(#mask13_805_915)">
<path d="M236.756 62.3496H235.59V90.0504H236.756V62.3496Z" fill="#096EBF"/>
</g>
<mask id="mask14_805_915" style="mask-type:luminance" maskUnits="userSpaceOnUse" x="211" y="25" width="55" height="78">
<path d="M255.776 37.6066C255.596 48.8124 255.776 57.777 255.776 57.777V57.8667C251.111 53.2947 244.741 50.426 237.564 50.426C223.3 50.426 211.727 61.9904 211.727 76.2442C211.727 90.498 223.3 102.062 237.564 102.062C244.741 102.062 251.29 99.1041 256.045 94.3528C256.673 96.1457 258.647 99.5523 265.555 99.5523V25.6836C265.465 25.6836 255.866 26.3111 255.776 37.6066ZM237.564 89.9601C229.938 89.9601 223.748 83.7745 223.748 76.1546C223.748 68.5346 229.938 62.349 237.564 62.349C245.19 62.349 251.38 68.5346 251.38 76.1546C251.38 83.8642 245.19 89.9601 237.564 89.9601Z" fill="white"/>
</mask>
<g mask="url(#mask14_805_915)">
<path d="M235.59 62.3496H234.424V90.0504H235.59V62.3496Z" fill="#096DBE"/>
</g>
<mask id="mask15_805_915" style="mask-type:luminance" maskUnits="userSpaceOnUse" x="211" y="25" width="55" height="78">
<path d="M255.776 37.6066C255.596 48.8124 255.776 57.777 255.776 57.777V57.8667C251.111 53.2947 244.741 50.426 237.564 50.426C223.3 50.426 211.727 61.9904 211.727 76.2442C211.727 90.498 223.3 102.062 237.564 102.062C244.741 102.062 251.29 99.1041 256.045 94.3528C256.673 96.1457 258.647 99.5523 265.555 99.5523V25.6836C265.465 25.6836 255.866 26.3111 255.776 37.6066ZM237.564 89.9601C229.938 89.9601 223.748 83.7745 223.748 76.1546C223.748 68.5346 229.938 62.349 237.564 62.349C245.19 62.349 251.38 68.5346 251.38 76.1546C251.38 83.8642 245.19 89.9601 237.564 89.9601Z" fill="white"/>
</mask>
<g mask="url(#mask15_805_915)">
<path d="M234.334 62.3496H233.168V90.0504H234.334V62.3496Z" fill="#096CBD"/>
</g>
<mask id="mask16_805_915" style="mask-type:luminance" maskUnits="userSpaceOnUse" x="211" y="25" width="55" height="78">
<path d="M255.776 37.6066C255.596 48.8124 255.776 57.777 255.776 57.777V57.8667C251.111 53.2947 244.741 50.426 237.564 50.426C223.3 50.426 211.727 61.9904 211.727 76.2442C211.727 90.498 223.3 102.062 237.564 102.062C244.741 102.062 251.29 99.1041 256.045 94.3528C256.673 96.1457 258.647 99.5523 265.555 99.5523V25.6836C265.465 25.6836 255.866 26.3111 255.776 37.6066ZM237.564 89.9601C229.938 89.9601 223.748 83.7745 223.748 76.1546C223.748 68.5346 229.938 62.349 237.564 62.349C245.19 62.349 251.38 68.5346 251.38 76.1546C251.38 83.8642 245.19 89.9601 237.564 89.9601Z" fill="white"/>
</mask>
<g mask="url(#mask16_805_915)">
<path d="M233.168 62.3496H232.002V90.0504H233.168V62.3496Z" fill="#086BBC"/>
</g>
<mask id="mask17_805_915" style="mask-type:luminance" maskUnits="userSpaceOnUse" x="211" y="25" width="55" height="78">
<path d="M255.776 37.6066C255.596 48.8124 255.776 57.777 255.776 57.777V57.8667C251.111 53.2947 244.741 50.426 237.564 50.426C223.3 50.426 211.727 61.9904 211.727 76.2442C211.727 90.498 223.3 102.062 237.564 102.062C244.741 102.062 251.29 99.1041 256.045 94.3528C256.673 96.1457 258.647 99.5523 265.555 99.5523V25.6836C265.465 25.6836 255.866 26.3111 255.776 37.6066ZM237.564 89.9601C229.938 89.9601 223.748 83.7745 223.748 76.1546C223.748 68.5346 229.938 62.349 237.564 62.349C245.19 62.349 251.38 68.5346 251.38 76.1546C251.38 83.8642 245.19 89.9601 237.564 89.9601Z" fill="white"/>
</mask>
<g mask="url(#mask17_805_915)">
<path d="M232.002 62.3496H230.836V90.0504H232.002V62.3496Z" fill="#086ABB"/>
</g>
<mask id="mask18_805_915" style="mask-type:luminance" maskUnits="userSpaceOnUse" x="211" y="25" width="55" height="78">
<path d="M255.776 37.6066C255.596 48.8124 255.776 57.777 255.776 57.777V57.8667C251.111 53.2947 244.741 50.426 237.564 50.426C223.3 50.426 211.727 61.9904 211.727 76.2442C211.727 90.498 223.3 102.062 237.564 102.062C244.741 102.062 251.29 99.1041 256.045 94.3528C256.673 96.1457 258.647 99.5523 265.555 99.5523V25.6836C265.465 25.6836 255.866 26.3111 255.776 37.6066ZM237.564 89.9601C229.938 89.9601 223.748 83.7745 223.748 76.1546C223.748 68.5346 229.938 62.349 237.564 62.349C245.19 62.349 251.38 68.5346 251.38 76.1546C251.38 83.8642 245.19 89.9601 237.564 89.9601Z" fill="white"/>
</mask>
<g mask="url(#mask18_805_915)">
<path d="M230.746 62.3496H229.58V90.0504H230.746V62.3496Z" fill="#0869BA"/>
</g>
<mask id="mask19_805_915" style="mask-type:luminance" maskUnits="userSpaceOnUse" x="211" y="25" width="55" height="78">
<path d="M255.776 37.6066C255.596 48.8124 255.776 57.777 255.776 57.777V57.8667C251.111 53.2947 244.741 50.426 237.564 50.426C223.3 50.426 211.727 61.9904 211.727 76.2442C211.727 90.498 223.3 102.062 237.564 102.062C244.741 102.062 251.29 99.1041 256.045 94.3528C256.673 96.1457 258.647 99.5523 265.555 99.5523V25.6836C265.465 25.6836 255.866 26.3111 255.776 37.6066ZM237.564 89.9601C229.938 89.9601 223.748 83.7745 223.748 76.1546C223.748 68.5346 229.938 62.349 237.564 62.349C245.19 62.349 251.38 68.5346 251.38 76.1546C251.38 83.8642 245.19 89.9601 237.564 89.9601Z" fill="white"/>
</mask>
<g mask="url(#mask19_805_915)">
<path d="M229.58 62.3496H228.414V90.0504H229.58V62.3496Z" fill="#0868B9"/>
</g>
<mask id="mask20_805_915" style="mask-type:luminance" maskUnits="userSpaceOnUse" x="211" y="25" width="55" height="78">
<path d="M255.776 37.6066C255.596 48.8124 255.776 57.777 255.776 57.777V57.8667C251.111 53.2947 244.741 50.426 237.564 50.426C223.3 50.426 211.727 61.9904 211.727 76.2442C211.727 90.498 223.3 102.062 237.564 102.062C244.741 102.062 251.29 99.1041 256.045 94.3528C256.673 96.1457 258.647 99.5523 265.555 99.5523V25.6836C265.465 25.6836 255.866 26.3111 255.776 37.6066ZM237.564 89.9601C229.938 89.9601 223.748 83.7745 223.748 76.1546C223.748 68.5346 229.938 62.349 237.564 62.349C245.19 62.349 251.38 68.5346 251.38 76.1546C251.38 83.8642 245.19 89.9601 237.564 89.9601Z" fill="white"/>
</mask>
<g mask="url(#mask20_805_915)">
<path d="M228.414 62.3496H227.248V90.0504H228.414V62.3496Z" fill="#0867B8"/>
</g>
<mask id="mask21_805_915" style="mask-type:luminance" maskUnits="userSpaceOnUse" x="211" y="25" width="55" height="78">
<path d="M255.776 37.6066C255.596 48.8124 255.776 57.777 255.776 57.777V57.8667C251.111 53.2947 244.741 50.426 237.564 50.426C223.3 50.426 211.727 61.9904 211.727 76.2442C211.727 90.498 223.3 102.062 237.564 102.062C244.741 102.062 251.29 99.1041 256.045 94.3528C256.673 96.1457 258.647 99.5523 265.555 99.5523V25.6836C265.465 25.6836 255.866 26.3111 255.776 37.6066ZM237.564 89.9601C229.938 89.9601 223.748 83.7745 223.748 76.1546C223.748 68.5346 229.938 62.349 237.564 62.349C245.19 62.349 251.38 68.5346 251.38 76.1546C251.38 83.8642 245.19 89.9601 237.564 89.9601Z" fill="white"/>
</mask>
<g mask="url(#mask21_805_915)">
<path d="M227.158 62.3496H225.992V90.0504H227.158V62.3496Z" fill="#0766B7"/>
</g>
<mask id="mask22_805_915" style="mask-type:luminance" maskUnits="userSpaceOnUse" x="211" y="25" width="55" height="78">
<path d="M255.776 37.6066C255.596 48.8124 255.776 57.777 255.776 57.777V57.8667C251.111 53.2947 244.741 50.426 237.564 50.426C223.3 50.426 211.727 61.9904 211.727 76.2442C211.727 90.498 223.3 102.062 237.564 102.062C244.741 102.062 251.29 99.1041 256.045 94.3528C256.673 96.1457 258.647 99.5523 265.555 99.5523V25.6836C265.465 25.6836 255.866 26.3111 255.776 37.6066ZM237.564 89.9601C229.938 89.9601 223.748 83.7745 223.748 76.1546C223.748 68.5346 229.938 62.349 237.564 62.349C245.19 62.349 251.38 68.5346 251.38 76.1546C251.38 83.8642 245.19 89.9601 237.564 89.9601Z" fill="white"/>
</mask>
<g mask="url(#mask22_805_915)">
<path d="M225.992 62.3496H224.826V90.0504H225.992V62.3496Z" fill="#0765B6"/>
</g>
<mask id="mask23_805_915" style="mask-type:luminance" maskUnits="userSpaceOnUse" x="211" y="25" width="55" height="78">
<path d="M255.776 37.6066C255.596 48.8124 255.776 57.777 255.776 57.777V57.8667C251.111 53.2947 244.741 50.426 237.564 50.426C223.3 50.426 211.727 61.9904 211.727 76.2442C211.727 90.498 223.3 102.062 237.564 102.062C244.741 102.062 251.29 99.1041 256.045 94.3528C256.673 96.1457 258.647 99.5523 265.555 99.5523V25.6836C265.465 25.6836 255.866 26.3111 255.776 37.6066ZM237.564 89.9601C229.938 89.9601 223.748 83.7745 223.748 76.1546C223.748 68.5346 229.938 62.349 237.564 62.349C245.19 62.349 251.38 68.5346 251.38 76.1546C251.38 83.8642 245.19 89.9601 237.564 89.9601Z" fill="white"/>
</mask>
<g mask="url(#mask23_805_915)">
<path d="M224.823 62.3496H223.656V90.0504H224.823V62.3496Z" fill="#0764B5"/>
</g>
<mask id="mask24_805_915" style="mask-type:luminance" maskUnits="userSpaceOnUse" x="211" y="25" width="55" height="78">
<path d="M255.776 37.6066C255.596 48.8124 255.776 57.777 255.776 57.777V57.8667C251.111 53.2947 244.741 50.426 237.564 50.426C223.3 50.426 211.727 61.9904 211.727 76.2442C211.727 90.498 223.3 102.062 237.564 102.062C244.741 102.062 251.29 99.1041 256.045 94.3528C256.673 96.1457 258.647 99.5523 265.555 99.5523V25.6836C265.465 25.6836 255.866 26.3111 255.776 37.6066ZM237.564 89.9601C229.938 89.9601 223.748 83.7745 223.748 76.1546C223.748 68.5346 229.938 62.349 237.564 62.349C245.19 62.349 251.38 68.5346 251.38 76.1546C251.38 83.8642 245.19 89.9601 237.564 89.9601Z" fill="white"/>
</mask>
<g mask="url(#mask24_805_915)">
<path d="M265.465 25.6836H264.299V102.062H265.465V25.6836Z" fill="#0E86D8"/>
</g>
<mask id="mask25_805_915" style="mask-type:luminance" maskUnits="userSpaceOnUse" x="211" y="25" width="55" height="78">
<path d="M255.776 37.6066C255.596 48.8124 255.776 57.777 255.776 57.777V57.8667C251.111 53.2947 244.741 50.426 237.564 50.426C223.3 50.426 211.727 61.9904 211.727 76.2442C211.727 90.498 223.3 102.062 237.564 102.062C244.741 102.062 251.29 99.1041 256.045 94.3528C256.673 96.1457 258.647 99.5523 265.555 99.5523V25.6836C265.465 25.6836 255.866 26.3111 255.776 37.6066ZM237.564 89.9601C229.938 89.9601 223.748 83.7745 223.748 76.1546C223.748 68.5346 229.938 62.349 237.564 62.349C245.19 62.349 251.38 68.5346 251.38 76.1546C251.38 83.8642 245.19 89.9601 237.564 89.9601Z" fill="white"/>
</mask>
<g mask="url(#mask25_805_915)">
<path d="M264.209 25.6836H263.043V102.062H264.209V25.6836Z" fill="#0E85D7"/>
</g>
<mask id="mask26_805_915" style="mask-type:luminance" maskUnits="userSpaceOnUse" x="211" y="25" width="55" height="78">
<path d="M255.776 37.6066C255.596 48.8124 255.776 57.777 255.776 57.777V57.8667C251.111 53.2947 244.741 50.426 237.564 50.426C223.3 50.426 211.727 61.9904 211.727 76.2442C211.727 90.498 223.3 102.062 237.564 102.062C244.741 102.062 251.29 99.1041 256.045 94.3528C256.673 96.1457 258.647 99.5523 265.555 99.5523V25.6836C265.465 25.6836 255.866 26.3111 255.776 37.6066ZM237.564 89.9601C229.938 89.9601 223.748 83.7745 223.748 76.1546C223.748 68.5346 229.938 62.349 237.564 62.349C245.19 62.349 251.38 68.5346 251.38 76.1546C251.38 83.8642 245.19 89.9601 237.564 89.9601Z" fill="white"/>
</mask>
<g mask="url(#mask26_805_915)">
<path d="M263.043 25.6836H261.877V102.062H263.043V25.6836Z" fill="#0E84D6"/>
</g>
<mask id="mask27_805_915" style="mask-type:luminance" maskUnits="userSpaceOnUse" x="211" y="25" width="55" height="78">
<path d="M255.776 37.6066C255.596 48.8124 255.776 57.777 255.776 57.777V57.8667C251.111 53.2947 244.741 50.426 237.564 50.426C223.3 50.426 211.727 61.9904 211.727 76.2442C211.727 90.498 223.3 102.062 237.564 102.062C244.741 102.062 251.29 99.1041 256.045 94.3528C256.673 96.1457 258.647 99.5523 265.555 99.5523V25.6836C265.465 25.6836 255.866 26.3111 255.776 37.6066ZM237.564 89.9601C229.938 89.9601 223.748 83.7745 223.748 76.1546C223.748 68.5346 229.938 62.349 237.564 62.349C245.19 62.349 251.38 68.5346 251.38 76.1546C251.38 83.8642 245.19 89.9601 237.564 89.9601Z" fill="white"/>
</mask>
<g mask="url(#mask27_805_915)">
<path d="M261.877 25.6836H260.711V102.062H261.877V25.6836Z" fill="#0D83D5"/>
</g>
<mask id="mask28_805_915" style="mask-type:luminance" maskUnits="userSpaceOnUse" x="211" y="25" width="55" height="78">
<path d="M255.776 37.6066C255.596 48.8124 255.776 57.777 255.776 57.777V57.8667C251.111 53.2947 244.741 50.426 237.564 50.426C223.3 50.426 211.727 61.9904 211.727 76.2442C211.727 90.498 223.3 102.062 237.564 102.062C244.741 102.062 251.29 99.1041 256.045 94.3528C256.673 96.1457 258.647 99.5523 265.555 99.5523V25.6836C265.465 25.6836 255.866 26.3111 255.776 37.6066ZM237.564 89.9601C229.938 89.9601 223.748 83.7745 223.748 76.1546C223.748 68.5346 229.938 62.349 237.564 62.349C245.19 62.349 251.38 68.5346 251.38 76.1546C251.38 83.8642 245.19 89.9601 237.564 89.9601Z" fill="white"/>
</mask>
<g mask="url(#mask28_805_915)">
<path d="M260.621 25.6836H259.455V102.062H260.621V25.6836Z" fill="#0D82D4"/>
</g>
<mask id="mask29_805_915" style="mask-type:luminance" maskUnits="userSpaceOnUse" x="211" y="25" width="55" height="78">
<path d="M255.776 37.6066C255.596 48.8124 255.776 57.777 255.776 57.777V57.8667C251.111 53.2947 244.741 50.426 237.564 50.426C223.3 50.426 211.727 61.9904 211.727 76.2442C211.727 90.498 223.3 102.062 237.564 102.062C244.741 102.062 251.29 99.1041 256.045 94.3528C256.673 96.1457 258.647 99.5523 265.555 99.5523V25.6836C265.465 25.6836 255.866 26.3111 255.776 37.6066ZM237.564 89.9601C229.938 89.9601 223.748 83.7745 223.748 76.1546C223.748 68.5346 229.938 62.349 237.564 62.349C245.19 62.349 251.38 68.5346 251.38 76.1546C251.38 83.8642 245.19 89.9601 237.564 89.9601Z" fill="white"/>
</mask>
<g mask="url(#mask29_805_915)">
<path d="M259.451 25.6836H258.285V102.062H259.451V25.6836Z" fill="#0D81D3"/>
</g>
<mask id="mask30_805_915" style="mask-type:luminance" maskUnits="userSpaceOnUse" x="211" y="25" width="55" height="78">
<path d="M255.776 37.6066C255.596 48.8124 255.776 57.777 255.776 57.777V57.8667C251.111 53.2947 244.741 50.426 237.564 50.426C223.3 50.426 211.727 61.9904 211.727 76.2442C211.727 90.498 223.3 102.062 237.564 102.062C244.741 102.062 251.29 99.1041 256.045 94.3528C256.673 96.1457 258.647 99.5523 265.555 99.5523V25.6836C265.465 25.6836 255.866 26.3111 255.776 37.6066ZM237.564 89.9601C229.938 89.9601 223.748 83.7745 223.748 76.1546C223.748 68.5346 229.938 62.349 237.564 62.349C245.19 62.349 251.38 68.5346 251.38 76.1546C251.38 83.8642 245.19 89.9601 237.564 89.9601Z" fill="white"/>
</mask>
<g mask="url(#mask30_805_915)">
<path d="M258.285 25.6836H257.119V102.062H258.285V25.6836Z" fill="#0D80D2"/>
</g>
<mask id="mask31_805_915" style="mask-type:luminance" maskUnits="userSpaceOnUse" x="211" y="25" width="55" height="78">
<path d="M255.776 37.6066C255.596 48.8124 255.776 57.777 255.776 57.777V57.8667C251.111 53.2947 244.741 50.426 237.564 50.426C223.3 50.426 211.727 61.9904 211.727 76.2442C211.727 90.498 223.3 102.062 237.564 102.062C244.741 102.062 251.29 99.1041 256.045 94.3528C256.673 96.1457 258.647 99.5523 265.555 99.5523V25.6836C265.465 25.6836 255.866 26.3111 255.776 37.6066ZM237.564 89.9601C229.938 89.9601 223.748 83.7745 223.748 76.1546C223.748 68.5346 229.938 62.349 237.564 62.349C245.19 62.349 251.38 68.5346 251.38 76.1546C251.38 83.8642 245.19 89.9601 237.564 89.9601Z" fill="white"/>
</mask>
<g mask="url(#mask31_805_915)">
<path d="M257.03 25.6836H255.863V102.062H257.03V25.6836Z" fill="#0D7FD1"/>
</g>
<mask id="mask32_805_915" style="mask-type:luminance" maskUnits="userSpaceOnUse" x="211" y="25" width="55" height="78">
<path d="M255.776 37.6066C255.596 48.8124 255.776 57.777 255.776 57.777V57.8667C251.111 53.2947 244.741 50.426 237.564 50.426C223.3 50.426 211.727 61.9904 211.727 76.2442C211.727 90.498 223.3 102.062 237.564 102.062C244.741 102.062 251.29 99.1041 256.045 94.3528C256.673 96.1457 258.647 99.5523 265.555 99.5523V25.6836C265.465 25.6836 255.866 26.3111 255.776 37.6066ZM237.564 89.9601C229.938 89.9601 223.748 83.7745 223.748 76.1546C223.748 68.5346 229.938 62.349 237.564 62.349C245.19 62.349 251.38 68.5346 251.38 76.1546C251.38 83.8642 245.19 89.9601 237.564 89.9601Z" fill="white"/>
</mask>
<g mask="url(#mask32_805_915)">
<path d="M255.864 25.6836H254.697V102.062H255.864V25.6836Z" fill="#0C7ED0"/>
</g>
<mask id="mask33_805_915" style="mask-type:luminance" maskUnits="userSpaceOnUse" x="211" y="25" width="55" height="78">
<path d="M255.776 37.6066C255.596 48.8124 255.776 57.777 255.776 57.777V57.8667C251.111 53.2947 244.741 50.426 237.564 50.426C223.3 50.426 211.727 61.9904 211.727 76.2442C211.727 90.498 223.3 102.062 237.564 102.062C244.741 102.062 251.29 99.1041 256.045 94.3528C256.673 96.1457 258.647 99.5523 265.555 99.5523V25.6836C265.465 25.6836 255.866 26.3111 255.776 37.6066ZM237.564 89.9601C229.938 89.9601 223.748 83.7745 223.748 76.1546C223.748 68.5346 229.938 62.349 237.564 62.349C245.19 62.349 251.38 68.5346 251.38 76.1546C251.38 83.8642 245.19 89.9601 237.564 89.9601Z" fill="white"/>
</mask>
<g mask="url(#mask33_805_915)">
<path d="M254.698 25.6836H253.531V102.062H254.698V25.6836Z" fill="#0C7DCF"/>
</g>
<mask id="mask34_805_915" style="mask-type:luminance" maskUnits="userSpaceOnUse" x="211" y="25" width="55" height="78">
<path d="M255.776 37.6066C255.596 48.8124 255.776 57.777 255.776 57.777V57.8667C251.111 53.2947 244.741 50.426 237.564 50.426C223.3 50.426 211.727 61.9904 211.727 76.2442C211.727 90.498 223.3 102.062 237.564 102.062C244.741 102.062 251.29 99.1041 256.045 94.3528C256.673 96.1457 258.647 99.5523 265.555 99.5523V25.6836C265.465 25.6836 255.866 26.3111 255.776 37.6066ZM237.564 89.9601C229.938 89.9601 223.748 83.7745 223.748 76.1546C223.748 68.5346 229.938 62.349 237.564 62.349C245.19 62.349 251.38 68.5346 251.38 76.1546C251.38 83.8642 245.19 89.9601 237.564 89.9601Z" fill="white"/>
</mask>
<g mask="url(#mask34_805_915)">
<path d="M253.442 25.6836H252.275V102.062H253.442V25.6836Z" fill="#0C7CCE"/>
</g>
<mask id="mask35_805_915" style="mask-type:luminance" maskUnits="userSpaceOnUse" x="211" y="25" width="55" height="78">
<path d="M255.776 37.6066C255.596 48.8124 255.776 57.777 255.776 57.777V57.8667C251.111 53.2947 244.741 50.426 237.564 50.426C223.3 50.426 211.727 61.9904 211.727 76.2442C211.727 90.498 223.3 102.062 237.564 102.062C244.741 102.062 251.29 99.1041 256.045 94.3528C256.673 96.1457 258.647 99.5523 265.555 99.5523V25.6836C265.465 25.6836 255.866 26.3111 255.776 37.6066ZM237.564 89.9601C229.938 89.9601 223.748 83.7745 223.748 76.1546C223.748 68.5346 229.938 62.349 237.564 62.349C245.19 62.349 251.38 68.5346 251.38 76.1546C251.38 83.8642 245.19 89.9601 237.564 89.9601Z" fill="white"/>
</mask>
<g mask="url(#mask35_805_915)">
<path d="M252.276 25.6836H251.109V102.062H252.276V25.6836Z" fill="#0C7BCD"/>
</g>
<mask id="mask36_805_915" style="mask-type:luminance" maskUnits="userSpaceOnUse" x="211" y="25" width="55" height="78">
<path d="M255.776 37.6066C255.596 48.8124 255.776 57.777 255.776 57.777V57.8667C251.111 53.2947 244.741 50.426 237.564 50.426C223.3 50.426 211.727 61.9904 211.727 76.2442C211.727 90.498 223.3 102.062 237.564 102.062C244.741 102.062 251.29 99.1041 256.045 94.3528C256.673 96.1457 258.647 99.5523 265.555 99.5523V25.6836C265.465 25.6836 255.866 26.3111 255.776 37.6066ZM237.564 89.9601C229.938 89.9601 223.748 83.7745 223.748 76.1546C223.748 68.5346 229.938 62.349 237.564 62.349C245.19 62.349 251.38 68.5346 251.38 76.1546C251.38 83.8642 245.19 89.9601 237.564 89.9601Z" fill="white"/>
</mask>
<g mask="url(#mask36_805_915)">
<path d="M251.11 25.6836H249.943V102.062H251.11V25.6836Z" fill="#0C7ACC"/>
</g>
<mask id="mask37_805_915" style="mask-type:luminance" maskUnits="userSpaceOnUse" x="211" y="25" width="55" height="78">
<path d="M255.776 37.6066C255.596 48.8124 255.776 57.777 255.776 57.777V57.8667C251.111 53.2947 244.741 50.426 237.564 50.426C223.3 50.426 211.727 61.9904 211.727 76.2442C211.727 90.498 223.3 102.062 237.564 102.062C244.741 102.062 251.29 99.1041 256.045 94.3528C256.673 96.1457 258.647 99.5523 265.555 99.5523V25.6836C265.465 25.6836 255.866 26.3111 255.776 37.6066ZM237.564 89.9601C229.938 89.9601 223.748 83.7745 223.748 76.1546C223.748 68.5346 229.938 62.349 237.564 62.349C245.19 62.349 251.38 68.5346 251.38 76.1546C251.38 83.8642 245.19 89.9601 237.564 89.9601Z" fill="white"/>
</mask>
<g mask="url(#mask37_805_915)">
<path d="M249.944 25.6836H248.777V102.062H249.944V25.6836Z" fill="#0B79CB"/>
</g>
<mask id="mask38_805_915" style="mask-type:luminance" maskUnits="userSpaceOnUse" x="211" y="25" width="55" height="78">
<path d="M255.776 37.6066C255.596 48.8124 255.776 57.777 255.776 57.777V57.8667C251.111 53.2947 244.741 50.426 237.564 50.426C223.3 50.426 211.727 61.9904 211.727 76.2442C211.727 90.498 223.3 102.062 237.564 102.062C244.741 102.062 251.29 99.1041 256.045 94.3528C256.673 96.1457 258.647 99.5523 265.555 99.5523V25.6836C265.465 25.6836 255.866 26.3111 255.776 37.6066ZM237.564 89.9601C229.938 89.9601 223.748 83.7745 223.748 76.1546C223.748 68.5346 229.938 62.349 237.564 62.349C245.19 62.349 251.38 68.5346 251.38 76.1546C251.38 83.8642 245.19 89.9601 237.564 89.9601Z" fill="white"/>
</mask>
<g mask="url(#mask38_805_915)">
<path d="M248.688 25.6836H247.521V102.062H248.688V25.6836Z" fill="#0B78CA"/>
</g>
<mask id="mask39_805_915" style="mask-type:luminance" maskUnits="userSpaceOnUse" x="211" y="25" width="55" height="78">
<path d="M255.776 37.6066C255.596 48.8124 255.776 57.777 255.776 57.777V57.8667C251.111 53.2947 244.741 50.426 237.564 50.426C223.3 50.426 211.727 61.9904 211.727 76.2442C211.727 90.498 223.3 102.062 237.564 102.062C244.741 102.062 251.29 99.1041 256.045 94.3528C256.673 96.1457 258.647 99.5523 265.555 99.5523V25.6836C265.465 25.6836 255.866 26.3111 255.776 37.6066ZM237.564 89.9601C229.938 89.9601 223.748 83.7745 223.748 76.1546C223.748 68.5346 229.938 62.349 237.564 62.349C245.19 62.349 251.38 68.5346 251.38 76.1546C251.38 83.8642 245.19 89.9601 237.564 89.9601Z" fill="white"/>
</mask>
<g mask="url(#mask39_805_915)">
<path d="M247.522 25.6836H246.355V102.062H247.522V25.6836Z" fill="#0B77C9"/>
</g>
<mask id="mask40_805_915" style="mask-type:luminance" maskUnits="userSpaceOnUse" x="211" y="25" width="55" height="78">
<path d="M255.776 37.6066C255.596 48.8124 255.776 57.777 255.776 57.777V57.8667C251.111 53.2947 244.741 50.426 237.564 50.426C223.3 50.426 211.727 61.9904 211.727 76.2442C211.727 90.498 223.3 102.062 237.564 102.062C244.741 102.062 251.29 99.1041 256.045 94.3528C256.673 96.1457 258.647 99.5523 265.555 99.5523V25.6836C265.465 25.6836 255.866 26.3111 255.776 37.6066ZM237.564 89.9601C229.938 89.9601 223.748 83.7745 223.748 76.1546C223.748 68.5346 229.938 62.349 237.564 62.349C245.19 62.349 251.38 68.5346 251.38 76.1546C251.38 83.8642 245.19 89.9601 237.564 89.9601Z" fill="white"/>
</mask>
<g mask="url(#mask40_805_915)">
<path d="M246.356 25.6836H245.189V102.062H246.356V25.6836Z" fill="#0B76C8"/>
</g>
<mask id="mask41_805_915" style="mask-type:luminance" maskUnits="userSpaceOnUse" x="211" y="25" width="55" height="78">
<path d="M255.776 37.6066C255.596 48.8124 255.776 57.777 255.776 57.777V57.8667C251.111 53.2947 244.741 50.426 237.564 50.426C223.3 50.426 211.727 61.9904 211.727 76.2442C211.727 90.498 223.3 102.062 237.564 102.062C244.741 102.062 251.29 99.1041 256.045 94.3528C256.673 96.1457 258.647 99.5523 265.555 99.5523V25.6836C265.465 25.6836 255.866 26.3111 255.776 37.6066ZM237.564 89.9601C229.938 89.9601 223.748 83.7745 223.748 76.1546C223.748 68.5346 229.938 62.349 237.564 62.349C245.19 62.349 251.38 68.5346 251.38 76.1546C251.38 83.8642 245.19 89.9601 237.564 89.9601Z" fill="white"/>
</mask>
<g mask="url(#mask41_805_915)">
<path d="M245.1 25.6836H243.934V102.062H245.1V25.6836Z" fill="#0B75C7"/>
</g>
<mask id="mask42_805_915" style="mask-type:luminance" maskUnits="userSpaceOnUse" x="211" y="25" width="55" height="78">
<path d="M255.776 37.6066C255.596 48.8124 255.776 57.777 255.776 57.777V57.8667C251.111 53.2947 244.741 50.426 237.564 50.426C223.3 50.426 211.727 61.9904 211.727 76.2442C211.727 90.498 223.3 102.062 237.564 102.062C244.741 102.062 251.29 99.1041 256.045 94.3528C256.673 96.1457 258.647 99.5523 265.555 99.5523V25.6836C265.465 25.6836 255.866 26.3111 255.776 37.6066ZM237.564 89.9601C229.938 89.9601 223.748 83.7745 223.748 76.1546C223.748 68.5346 229.938 62.349 237.564 62.349C245.19 62.349 251.38 68.5346 251.38 76.1546C251.38 83.8642 245.19 89.9601 237.564 89.9601Z" fill="white"/>
</mask>
<g mask="url(#mask42_805_915)">
<path d="M243.934 25.6836H242.768V102.062H243.934V25.6836Z" fill="#0A74C6"/>
</g>
<mask id="mask43_805_915" style="mask-type:luminance" maskUnits="userSpaceOnUse" x="211" y="25" width="55" height="78">
<path d="M255.776 37.6066C255.596 48.8124 255.776 57.777 255.776 57.777V57.8667C251.111 53.2947 244.741 50.426 237.564 50.426C223.3 50.426 211.727 61.9904 211.727 76.2442C211.727 90.498 223.3 102.062 237.564 102.062C244.741 102.062 251.29 99.1041 256.045 94.3528C256.673 96.1457 258.647 99.5523 265.555 99.5523V25.6836C265.465 25.6836 255.866 26.3111 255.776 37.6066ZM237.564 89.9601C229.938 89.9601 223.748 83.7745 223.748 76.1546C223.748 68.5346 229.938 62.349 237.564 62.349C245.19 62.349 251.38 68.5346 251.38 76.1546C251.38 83.8642 245.19 89.9601 237.564 89.9601Z" fill="white"/>
</mask>
<g mask="url(#mask43_805_915)">
<path d="M242.768 25.6836H241.602V102.062H242.768V25.6836Z" fill="#0A73C5"/>
</g>
<mask id="mask44_805_915" style="mask-type:luminance" maskUnits="userSpaceOnUse" x="211" y="25" width="55" height="78">
<path d="M255.776 37.6066C255.596 48.8124 255.776 57.777 255.776 57.777V57.8667C251.111 53.2947 244.741 50.426 237.564 50.426C223.3 50.426 211.727 61.9904 211.727 76.2442C211.727 90.498 223.3 102.062 237.564 102.062C244.741 102.062 251.29 99.1041 256.045 94.3528C256.673 96.1457 258.647 99.5523 265.555 99.5523V25.6836C265.465 25.6836 255.866 26.3111 255.776 37.6066ZM237.564 89.9601C229.938 89.9601 223.748 83.7745 223.748 76.1546C223.748 68.5346 229.938 62.349 237.564 62.349C245.19 62.349 251.38 68.5346 251.38 76.1546C251.38 83.8642 245.19 89.9601 237.564 89.9601Z" fill="white"/>
</mask>
<g mask="url(#mask44_805_915)">
<path d="M241.51 25.6836H240.344V102.062H241.51V25.6836Z" fill="#0A72C4"/>
</g>
<mask id="mask45_805_915" style="mask-type:luminance" maskUnits="userSpaceOnUse" x="211" y="25" width="55" height="78">
<path d="M255.776 37.6066C255.596 48.8124 255.776 57.777 255.776 57.777V57.8667C251.111 53.2947 244.741 50.426 237.564 50.426C223.3 50.426 211.727 61.9904 211.727 76.2442C211.727 90.498 223.3 102.062 237.564 102.062C244.741 102.062 251.29 99.1041 256.045 94.3528C256.673 96.1457 258.647 99.5523 265.555 99.5523V25.6836C265.465 25.6836 255.866 26.3111 255.776 37.6066ZM237.564 89.9601C229.938 89.9601 223.748 83.7745 223.748 76.1546C223.748 68.5346 229.938 62.349 237.564 62.349C245.19 62.349 251.38 68.5346 251.38 76.1546C251.38 83.8642 245.19 89.9601 237.564 89.9601Z" fill="white"/>
</mask>
<g mask="url(#mask45_805_915)">
<path d="M240.342 25.6836H239.176V102.062H240.342V25.6836Z" fill="#0A71C3"/>
</g>
<mask id="mask46_805_915" style="mask-type:luminance" maskUnits="userSpaceOnUse" x="211" y="25" width="55" height="78">
<path d="M255.776 37.6066C255.596 48.8124 255.776 57.777 255.776 57.777V57.8667C251.111 53.2947 244.741 50.426 237.564 50.426C223.3 50.426 211.727 61.9904 211.727 76.2442C211.727 90.498 223.3 102.062 237.564 102.062C244.741 102.062 251.29 99.1041 256.045 94.3528C256.673 96.1457 258.647 99.5523 265.555 99.5523V25.6836C265.465 25.6836 255.866 26.3111 255.776 37.6066ZM237.564 89.9601C229.938 89.9601 223.748 83.7745 223.748 76.1546C223.748 68.5346 229.938 62.349 237.564 62.349C245.19 62.349 251.38 68.5346 251.38 76.1546C251.38 83.8642 245.19 89.9601 237.564 89.9601Z" fill="white"/>
</mask>
<g mask="url(#mask46_805_915)">
<path d="M239.176 25.6836H238.01V102.062H239.176V25.6836Z" fill="#0A70C2"/>
</g>
<mask id="mask47_805_915" style="mask-type:luminance" maskUnits="userSpaceOnUse" x="211" y="25" width="55" height="78">
<path d="M255.776 37.6066C255.596 48.8124 255.776 57.777 255.776 57.777V57.8667C251.111 53.2947 244.741 50.426 237.564 50.426C223.3 50.426 211.727 61.9904 211.727 76.2442C211.727 90.498 223.3 102.062 237.564 102.062C244.741 102.062 251.29 99.1041 256.045 94.3528C256.673 96.1457 258.647 99.5523 265.555 99.5523V25.6836C265.465 25.6836 255.866 26.3111 255.776 37.6066ZM237.564 89.9601C229.938 89.9601 223.748 83.7745 223.748 76.1546C223.748 68.5346 229.938 62.349 237.564 62.349C245.19 62.349 251.38 68.5346 251.38 76.1546C251.38 83.8642 245.19 89.9601 237.564 89.9601Z" fill="white"/>
</mask>
<g mask="url(#mask47_805_915)">
<path d="M237.922 25.6836H236.756V102.062H237.922V25.6836Z" fill="#096FC0"/>
</g>
<mask id="mask48_805_915" style="mask-type:luminance" maskUnits="userSpaceOnUse" x="211" y="25" width="55" height="78">
<path d="M255.776 37.6066C255.596 48.8124 255.776 57.777 255.776 57.777V57.8667C251.111 53.2947 244.741 50.426 237.564 50.426C223.3 50.426 211.727 61.9904 211.727 76.2442C211.727 90.498 223.3 102.062 237.564 102.062C244.741 102.062 251.29 99.1041 256.045 94.3528C256.673 96.1457 258.647 99.5523 265.555 99.5523V25.6836C265.465 25.6836 255.866 26.3111 255.776 37.6066ZM237.564 89.9601C229.938 89.9601 223.748 83.7745 223.748 76.1546C223.748 68.5346 229.938 62.349 237.564 62.349C245.19 62.349 251.38 68.5346 251.38 76.1546C251.38 83.8642 245.19 89.9601 237.564 89.9601Z" fill="white"/>
</mask>
<g mask="url(#mask48_805_915)">
<path d="M236.756 25.6836H235.59V102.062H236.756V25.6836Z" fill="#096EBF"/>
</g>
<mask id="mask49_805_915" style="mask-type:luminance" maskUnits="userSpaceOnUse" x="211" y="25" width="55" height="78">
<path d="M255.776 37.6066C255.596 48.8124 255.776 57.777 255.776 57.777V57.8667C251.111 53.2947 244.741 50.426 237.564 50.426C223.3 50.426 211.727 61.9904 211.727 76.2442C211.727 90.498 223.3 102.062 237.564 102.062C244.741 102.062 251.29 99.1041 256.045 94.3528C256.673 96.1457 258.647 99.5523 265.555 99.5523V25.6836C265.465 25.6836 255.866 26.3111 255.776 37.6066ZM237.564 89.9601C229.938 89.9601 223.748 83.7745 223.748 76.1546C223.748 68.5346 229.938 62.349 237.564 62.349C245.19 62.349 251.38 68.5346 251.38 76.1546C251.38 83.8642 245.19 89.9601 237.564 89.9601Z" fill="white"/>
</mask>
<g mask="url(#mask49_805_915)">
<path d="M235.59 25.6836H234.424V102.062H235.59V25.6836Z" fill="#096DBE"/>
</g>
<mask id="mask50_805_915" style="mask-type:luminance" maskUnits="userSpaceOnUse" x="211" y="25" width="55" height="78">
<path d="M255.776 37.6066C255.596 48.8124 255.776 57.777 255.776 57.777V57.8667C251.111 53.2947 244.741 50.426 237.564 50.426C223.3 50.426 211.727 61.9904 211.727 76.2442C211.727 90.498 223.3 102.062 237.564 102.062C244.741 102.062 251.29 99.1041 256.045 94.3528C256.673 96.1457 258.647 99.5523 265.555 99.5523V25.6836C265.465 25.6836 255.866 26.3111 255.776 37.6066ZM237.564 89.9601C229.938 89.9601 223.748 83.7745 223.748 76.1546C223.748 68.5346 229.938 62.349 237.564 62.349C245.19 62.349 251.38 68.5346 251.38 76.1546C251.38 83.8642 245.19 89.9601 237.564 89.9601Z" fill="white"/>
</mask>
<g mask="url(#mask50_805_915)">
<path d="M234.334 25.6836H233.168V102.062H234.334V25.6836Z" fill="#096CBD"/>
</g>
<mask id="mask51_805_915" style="mask-type:luminance" maskUnits="userSpaceOnUse" x="211" y="25" width="55" height="78">
<path d="M255.776 37.6066C255.596 48.8124 255.776 57.777 255.776 57.777V57.8667C251.111 53.2947 244.741 50.426 237.564 50.426C223.3 50.426 211.727 61.9904 211.727 76.2442C211.727 90.498 223.3 102.062 237.564 102.062C244.741 102.062 251.29 99.1041 256.045 94.3528C256.673 96.1457 258.647 99.5523 265.555 99.5523V25.6836C265.465 25.6836 255.866 26.3111 255.776 37.6066ZM237.564 89.9601C229.938 89.9601 223.748 83.7745 223.748 76.1546C223.748 68.5346 229.938 62.349 237.564 62.349C245.19 62.349 251.38 68.5346 251.38 76.1546C251.38 83.8642 245.19 89.9601 237.564 89.9601Z" fill="white"/>
</mask>
<g mask="url(#mask51_805_915)">
<path d="M233.168 25.6836H232.002V102.062H233.168V25.6836Z" fill="#086BBC"/>
</g>
<mask id="mask52_805_915" style="mask-type:luminance" maskUnits="userSpaceOnUse" x="211" y="25" width="55" height="78">
<path d="M255.776 37.6066C255.596 48.8124 255.776 57.777 255.776 57.777V57.8667C251.111 53.2947 244.741 50.426 237.564 50.426C223.3 50.426 211.727 61.9904 211.727 76.2442C211.727 90.498 223.3 102.062 237.564 102.062C244.741 102.062 251.29 99.1041 256.045 94.3528C256.673 96.1457 258.647 99.5523 265.555 99.5523V25.6836C265.465 25.6836 255.866 26.3111 255.776 37.6066ZM237.564 89.9601C229.938 89.9601 223.748 83.7745 223.748 76.1546C223.748 68.5346 229.938 62.349 237.564 62.349C245.19 62.349 251.38 68.5346 251.38 76.1546C251.38 83.8642 245.19 89.9601 237.564 89.9601Z" fill="white"/>
</mask>
<g mask="url(#mask52_805_915)">
<path d="M232.002 25.6836H230.836V102.062H232.002V25.6836Z" fill="#086ABB"/>
</g>
<mask id="mask53_805_915" style="mask-type:luminance" maskUnits="userSpaceOnUse" x="211" y="25" width="55" height="78">
<path d="M255.776 37.6066C255.596 48.8124 255.776 57.777 255.776 57.777V57.8667C251.111 53.2947 244.741 50.426 237.564 50.426C223.3 50.426 211.727 61.9904 211.727 76.2442C211.727 90.498 223.3 102.062 237.564 102.062C244.741 102.062 251.29 99.1041 256.045 94.3528C256.673 96.1457 258.647 99.5523 265.555 99.5523V25.6836C265.465 25.6836 255.866 26.3111 255.776 37.6066ZM237.564 89.9601C229.938 89.9601 223.748 83.7745 223.748 76.1546C223.748 68.5346 229.938 62.349 237.564 62.349C245.19 62.349 251.38 68.5346 251.38 76.1546C251.38 83.8642 245.19 89.9601 237.564 89.9601Z" fill="white"/>
</mask>
<g mask="url(#mask53_805_915)">
<path d="M230.746 25.6836H229.58V102.062H230.746V25.6836Z" fill="#0869BA"/>
</g>
<mask id="mask54_805_915" style="mask-type:luminance" maskUnits="userSpaceOnUse" x="211" y="25" width="55" height="78">
<path d="M255.776 37.6066C255.596 48.8124 255.776 57.777 255.776 57.777V57.8667C251.111 53.2947 244.741 50.426 237.564 50.426C223.3 50.426 211.727 61.9904 211.727 76.2442C211.727 90.498 223.3 102.062 237.564 102.062C244.741 102.062 251.29 99.1041 256.045 94.3528C256.673 96.1457 258.647 99.5523 265.555 99.5523V25.6836C265.465 25.6836 255.866 26.3111 255.776 37.6066ZM237.564 89.9601C229.938 89.9601 223.748 83.7745 223.748 76.1546C223.748 68.5346 229.938 62.349 237.564 62.349C245.19 62.349 251.38 68.5346 251.38 76.1546C251.38 83.8642 245.19 89.9601 237.564 89.9601Z" fill="white"/>
</mask>
<g mask="url(#mask54_805_915)">
<path d="M229.58 25.6836H228.414V102.062H229.58V25.6836Z" fill="#0868B9"/>
</g>
<mask id="mask55_805_915" style="mask-type:luminance" maskUnits="userSpaceOnUse" x="211" y="25" width="55" height="78">
<path d="M255.776 37.6066C255.596 48.8124 255.776 57.777 255.776 57.777V57.8667C251.111 53.2947 244.741 50.426 237.564 50.426C223.3 50.426 211.727 61.9904 211.727 76.2442C211.727 90.498 223.3 102.062 237.564 102.062C244.741 102.062 251.29 99.1041 256.045 94.3528C256.673 96.1457 258.647 99.5523 265.555 99.5523V25.6836C265.465 25.6836 255.866 26.3111 255.776 37.6066ZM237.564 89.9601C229.938 89.9601 223.748 83.7745 223.748 76.1546C223.748 68.5346 229.938 62.349 237.564 62.349C245.19 62.349 251.38 68.5346 251.38 76.1546C251.38 83.8642 245.19 89.9601 237.564 89.9601Z" fill="white"/>
</mask>
<g mask="url(#mask55_805_915)">
<path d="M228.414 25.6836H227.248V102.062H228.414V25.6836Z" fill="#0867B8"/>
</g>
<mask id="mask56_805_915" style="mask-type:luminance" maskUnits="userSpaceOnUse" x="211" y="25" width="55" height="78">
<path d="M255.776 37.6066C255.596 48.8124 255.776 57.777 255.776 57.777V57.8667C251.111 53.2947 244.741 50.426 237.564 50.426C223.3 50.426 211.727 61.9904 211.727 76.2442C211.727 90.498 223.3 102.062 237.564 102.062C244.741 102.062 251.29 99.1041 256.045 94.3528C256.673 96.1457 258.647 99.5523 265.555 99.5523V25.6836C265.465 25.6836 255.866 26.3111 255.776 37.6066ZM237.564 89.9601C229.938 89.9601 223.748 83.7745 223.748 76.1546C223.748 68.5346 229.938 62.349 237.564 62.349C245.19 62.349 251.38 68.5346 251.38 76.1546C251.38 83.8642 245.19 89.9601 237.564 89.9601Z" fill="white"/>
</mask>
<g mask="url(#mask56_805_915)">
<path d="M227.158 25.6836H225.992V102.062H227.158V25.6836Z" fill="#0766B7"/>
</g>
<mask id="mask57_805_915" style="mask-type:luminance" maskUnits="userSpaceOnUse" x="211" y="25" width="55" height="78">
<path d="M255.776 37.6066C255.596 48.8124 255.776 57.777 255.776 57.777V57.8667C251.111 53.2947 244.741 50.426 237.564 50.426C223.3 50.426 211.727 61.9904 211.727 76.2442C211.727 90.498 223.3 102.062 237.564 102.062C244.741 102.062 251.29 99.1041 256.045 94.3528C256.673 96.1457 258.647 99.5523 265.555 99.5523V25.6836C265.465 25.6836 255.866 26.3111 255.776 37.6066ZM237.564 89.9601C229.938 89.9601 223.748 83.7745 223.748 76.1546C223.748 68.5346 229.938 62.349 237.564 62.349C245.19 62.349 251.38 68.5346 251.38 76.1546C251.38 83.8642 245.19 89.9601 237.564 89.9601Z" fill="white"/>
</mask>
<g mask="url(#mask57_805_915)">
<path d="M225.992 25.6836H224.826V102.062H225.992V25.6836Z" fill="#0765B6"/>
</g>
<mask id="mask58_805_915" style="mask-type:luminance" maskUnits="userSpaceOnUse" x="211" y="25" width="55" height="78">
<path d="M255.776 37.6066C255.596 48.8124 255.776 57.777 255.776 57.777V57.8667C251.111 53.2947 244.741 50.426 237.564 50.426C223.3 50.426 211.727 61.9904 211.727 76.2442C211.727 90.498 223.3 102.062 237.564 102.062C244.741 102.062 251.29 99.1041 256.045 94.3528C256.673 96.1457 258.647 99.5523 265.555 99.5523V25.6836C265.465 25.6836 255.866 26.3111 255.776 37.6066ZM237.564 89.9601C229.938 89.9601 223.748 83.7745 223.748 76.1546C223.748 68.5346 229.938 62.349 237.564 62.349C245.19 62.349 251.38 68.5346 251.38 76.1546C251.38 83.8642 245.19 89.9601 237.564 89.9601Z" fill="white"/>
</mask>
<g mask="url(#mask58_805_915)">
<path d="M224.823 25.6836H223.656V102.062H224.823V25.6836Z" fill="#0764B5"/>
</g>
<mask id="mask59_805_915" style="mask-type:luminance" maskUnits="userSpaceOnUse" x="211" y="25" width="55" height="78">
<path d="M255.776 37.6066C255.596 48.8124 255.776 57.777 255.776 57.777V57.8667C251.111 53.2947 244.741 50.426 237.564 50.426C223.3 50.426 211.727 61.9904 211.727 76.2442C211.727 90.498 223.3 102.062 237.564 102.062C244.741 102.062 251.29 99.1041 256.045 94.3528C256.673 96.1457 258.647 99.5523 265.555 99.5523V25.6836C265.465 25.6836 255.866 26.3111 255.776 37.6066ZM237.564 89.9601C229.938 89.9601 223.748 83.7745 223.748 76.1546C223.748 68.5346 229.938 62.349 237.564 62.349C245.19 62.349 251.38 68.5346 251.38 76.1546C251.38 83.8642 245.19 89.9601 237.564 89.9601Z" fill="white"/>
</mask>
<g mask="url(#mask59_805_915)">
<path d="M223.567 25.6836H222.4V102.062H223.567V25.6836Z" fill="#0763B4"/>
</g>
<mask id="mask60_805_915" style="mask-type:luminance" maskUnits="userSpaceOnUse" x="211" y="25" width="55" height="78">
<path d="M255.776 37.6066C255.596 48.8124 255.776 57.777 255.776 57.777V57.8667C251.111 53.2947 244.741 50.426 237.564 50.426C223.3 50.426 211.727 61.9904 211.727 76.2442C211.727 90.498 223.3 102.062 237.564 102.062C244.741 102.062 251.29 99.1041 256.045 94.3528C256.673 96.1457 258.647 99.5523 265.555 99.5523V25.6836C265.465 25.6836 255.866 26.3111 255.776 37.6066ZM237.564 89.9601C229.938 89.9601 223.748 83.7745 223.748 76.1546C223.748 68.5346 229.938 62.349 237.564 62.349C245.19 62.349 251.38 68.5346 251.38 76.1546C251.38 83.8642 245.19 89.9601 237.564 89.9601Z" fill="white"/>
</mask>
<g mask="url(#mask60_805_915)">
<path d="M222.401 25.6836H221.234V102.062H222.401V25.6836Z" fill="#0762B3"/>
</g>
<mask id="mask61_805_915" style="mask-type:luminance" maskUnits="userSpaceOnUse" x="211" y="25" width="55" height="78">
<path d="M255.776 37.6066C255.596 48.8124 255.776 57.777 255.776 57.777V57.8667C251.111 53.2947 244.741 50.426 237.564 50.426C223.3 50.426 211.727 61.9904 211.727 76.2442C211.727 90.498 223.3 102.062 237.564 102.062C244.741 102.062 251.29 99.1041 256.045 94.3528C256.673 96.1457 258.647 99.5523 265.555 99.5523V25.6836C265.465 25.6836 255.866 26.3111 255.776 37.6066ZM237.564 89.9601C229.938 89.9601 223.748 83.7745 223.748 76.1546C223.748 68.5346 229.938 62.349 237.564 62.349C245.19 62.349 251.38 68.5346 251.38 76.1546C251.38 83.8642 245.19 89.9601 237.564 89.9601Z" fill="white"/>
</mask>
<g mask="url(#mask61_805_915)">
<path d="M221.235 25.6836H220.068V102.062H221.235V25.6836Z" fill="#0661B2"/>
</g>
<mask id="mask62_805_915" style="mask-type:luminance" maskUnits="userSpaceOnUse" x="211" y="25" width="55" height="78">
<path d="M255.776 37.6066C255.596 48.8124 255.776 57.777 255.776 57.777V57.8667C251.111 53.2947 244.741 50.426 237.564 50.426C223.3 50.426 211.727 61.9904 211.727 76.2442C211.727 90.498 223.3 102.062 237.564 102.062C244.741 102.062 251.29 99.1041 256.045 94.3528C256.673 96.1457 258.647 99.5523 265.555 99.5523V25.6836C265.465 25.6836 255.866 26.3111 255.776 37.6066ZM237.564 89.9601C229.938 89.9601 223.748 83.7745 223.748 76.1546C223.748 68.5346 229.938 62.349 237.564 62.349C245.19 62.349 251.38 68.5346 251.38 76.1546C251.38 83.8642 245.19 89.9601 237.564 89.9601Z" fill="white"/>
</mask>
<g mask="url(#mask62_805_915)">
<path d="M219.979 25.6836H218.812V102.062H219.979V25.6836Z" fill="#0660B1"/>
</g>
<mask id="mask63_805_915" style="mask-type:luminance" maskUnits="userSpaceOnUse" x="211" y="25" width="55" height="78">
<path d="M255.776 37.6066C255.596 48.8124 255.776 57.777 255.776 57.777V57.8667C251.111 53.2947 244.741 50.426 237.564 50.426C223.3 50.426 211.727 61.9904 211.727 76.2442C211.727 90.498 223.3 102.062 237.564 102.062C244.741 102.062 251.29 99.1041 256.045 94.3528C256.673 96.1457 258.647 99.5523 265.555 99.5523V25.6836C265.465 25.6836 255.866 26.3111 255.776 37.6066ZM237.564 89.9601C229.938 89.9601 223.748 83.7745 223.748 76.1546C223.748 68.5346 229.938 62.349 237.564 62.349C245.19 62.349 251.38 68.5346 251.38 76.1546C251.38 83.8642 245.19 89.9601 237.564 89.9601Z" fill="white"/>
</mask>
<g mask="url(#mask63_805_915)">
<path d="M218.813 25.6836H217.646V102.062H218.813V25.6836Z" fill="#065FB0"/>
</g>
<mask id="mask64_805_915" style="mask-type:luminance" maskUnits="userSpaceOnUse" x="211" y="25" width="55" height="78">
<path d="M255.776 37.6066C255.596 48.8124 255.776 57.777 255.776 57.777V57.8667C251.111 53.2947 244.741 50.426 237.564 50.426C223.3 50.426 211.727 61.9904 211.727 76.2442C211.727 90.498 223.3 102.062 237.564 102.062C244.741 102.062 251.29 99.1041 256.045 94.3528C256.673 96.1457 258.647 99.5523 265.555 99.5523V25.6836C265.465 25.6836 255.866 26.3111 255.776 37.6066ZM237.564 89.9601C229.938 89.9601 223.748 83.7745 223.748 76.1546C223.748 68.5346 229.938 62.349 237.564 62.349C245.19 62.349 251.38 68.5346 251.38 76.1546C251.38 83.8642 245.19 89.9601 237.564 89.9601Z" fill="white"/>
</mask>
<g mask="url(#mask64_805_915)">
<path d="M217.647 25.6836H216.48V102.062H217.647V25.6836Z" fill="#065EAF"/>
</g>
<mask id="mask65_805_915" style="mask-type:luminance" maskUnits="userSpaceOnUse" x="211" y="25" width="55" height="78">
<path d="M255.776 37.6066C255.596 48.8124 255.776 57.777 255.776 57.777V57.8667C251.111 53.2947 244.741 50.426 237.564 50.426C223.3 50.426 211.727 61.9904 211.727 76.2442C211.727 90.498 223.3 102.062 237.564 102.062C244.741 102.062 251.29 99.1041 256.045 94.3528C256.673 96.1457 258.647 99.5523 265.555 99.5523V25.6836C265.465 25.6836 255.866 26.3111 255.776 37.6066ZM237.564 89.9601C229.938 89.9601 223.748 83.7745 223.748 76.1546C223.748 68.5346 229.938 62.349 237.564 62.349C245.19 62.349 251.38 68.5346 251.38 76.1546C251.38 83.8642 245.19 89.9601 237.564 89.9601Z" fill="white"/>
</mask>
<g mask="url(#mask65_805_915)">
<path d="M216.481 25.6836H215.314V102.062H216.481V25.6836Z" fill="#065DAE"/>
</g>
<mask id="mask66_805_915" style="mask-type:luminance" maskUnits="userSpaceOnUse" x="211" y="25" width="55" height="78">
<path d="M255.776 37.6066C255.596 48.8124 255.776 57.777 255.776 57.777V57.8667C251.111 53.2947 244.741 50.426 237.564 50.426C223.3 50.426 211.727 61.9904 211.727 76.2442C211.727 90.498 223.3 102.062 237.564 102.062C244.741 102.062 251.29 99.1041 256.045 94.3528C256.673 96.1457 258.647 99.5523 265.555 99.5523V25.6836C265.465 25.6836 255.866 26.3111 255.776 37.6066ZM237.564 89.9601C229.938 89.9601 223.748 83.7745 223.748 76.1546C223.748 68.5346 229.938 62.349 237.564 62.349C245.19 62.349 251.38 68.5346 251.38 76.1546C251.38 83.8642 245.19 89.9601 237.564 89.9601Z" fill="white"/>
</mask>
<g mask="url(#mask66_805_915)">
<path d="M215.225 25.6836H214.059V102.062H215.225V25.6836Z" fill="#055CAD"/>
</g>
<mask id="mask67_805_915" style="mask-type:luminance" maskUnits="userSpaceOnUse" x="211" y="25" width="55" height="78">
<path d="M255.776 37.6066C255.596 48.8124 255.776 57.777 255.776 57.777V57.8667C251.111 53.2947 244.741 50.426 237.564 50.426C223.3 50.426 211.727 61.9904 211.727 76.2442C211.727 90.498 223.3 102.062 237.564 102.062C244.741 102.062 251.29 99.1041 256.045 94.3528C256.673 96.1457 258.647 99.5523 265.555 99.5523V25.6836C265.465 25.6836 255.866 26.3111 255.776 37.6066ZM237.564 89.9601C229.938 89.9601 223.748 83.7745 223.748 76.1546C223.748 68.5346 229.938 62.349 237.564 62.349C245.19 62.349 251.38 68.5346 251.38 76.1546C251.38 83.8642 245.19 89.9601 237.564 89.9601Z" fill="white"/>
</mask>
<g mask="url(#mask67_805_915)">
<path d="M214.059 25.6836H212.893V102.062H214.059V25.6836Z" fill="#055BAC"/>
</g>
<mask id="mask68_805_915" style="mask-type:luminance" maskUnits="userSpaceOnUse" x="211" y="25" width="55" height="78">
<path d="M255.776 37.6066C255.596 48.8124 255.776 57.777 255.776 57.777V57.8667C251.111 53.2947 244.741 50.426 237.564 50.426C223.3 50.426 211.727 61.9904 211.727 76.2442C211.727 90.498 223.3 102.062 237.564 102.062C244.741 102.062 251.29 99.1041 256.045 94.3528C256.673 96.1457 258.647 99.5523 265.555 99.5523V25.6836C265.465 25.6836 255.866 26.3111 255.776 37.6066ZM237.564 89.9601C229.938 89.9601 223.748 83.7745 223.748 76.1546C223.748 68.5346 229.938 62.349 237.564 62.349C245.19 62.349 251.38 68.5346 251.38 76.1546C251.38 83.8642 245.19 89.9601 237.564 89.9601Z" fill="white"/>
</mask>
<g mask="url(#mask68_805_915)">
<path d="M212.893 25.6836H211.727V102.062H212.893V25.6836Z" fill="#055AAB"/>
</g>
<path d="M87.6522 54.1039H97.7001V58.138H97.8795C99.943 55.1796 102.006 52.4902 107.658 52.4902H108.555V63.1582C98.5973 63.6064 98.5973 71.4057 98.5973 74.1847V99.8236H87.5625V54.1039H87.6522Z" fill="#0762B3"/>
<path d="M159.244 99.8214H149.196V94.0841C145.787 98.2078 138.969 101.166 133.227 101.166C121.475 101.166 110.979 91.7533 110.979 76.5134C110.979 62.5285 121.206 52.3984 133.855 52.3984C143.186 52.3984 148.748 59.1219 149.017 59.6598H149.196V53.8328H159.244V99.8214ZM135.56 62.6181C126.589 62.6181 121.924 70.3277 121.924 77.2305C121.924 84.9401 127.755 91.305 135.56 91.305C143.096 91.305 148.927 85.3884 148.927 76.8719C148.838 67.3694 142.109 62.6181 135.56 62.6181Z" fill="#0867B9"/>
<path d="M275.781 38.9512H286.816V48.9916H275.781V38.9512ZM275.781 54.1014H286.816V99.8212H275.781V54.1014Z" fill="#0B7ACB"/>
<path d="M295.699 54.1039H305.837V58.0483C307.721 56.2554 311.489 52.4902 318.307 52.4902C322.254 52.4902 328.265 54.2832 332.033 58.8551C336.249 63.8753 336.249 71.4953 336.249 74.9915V99.6443H325.215V77.3223C325.215 73.5572 325.215 62.6203 315.974 62.6203C314 62.6203 310.412 63.6064 308.528 66.6544C306.554 69.4334 306.554 74.1847 306.554 78.0395V99.734H295.52L295.699 54.1039Z" fill="#0D7FD1"/>
<path d="M391.869 54.1039V91.3968C391.869 113.36 375.631 118.38 366.928 118.38C357.508 118.38 347.909 113.45 343.962 103.23H356.522C360.828 108.34 366.121 108.34 367.736 108.34C373.926 108.34 381.193 104.037 381.731 94.0862L381.552 93.9069C380.026 95.9688 375.81 101.168 366.569 101.168C355.445 101.168 343.154 91.6658 343.154 76.4259C343.154 62.0824 354.817 52.4902 366.48 52.4902C375.9 52.4902 379.847 57.869 381.103 59.5723H381.282V53.9246L391.869 54.1039ZM367.556 62.6203C360.918 62.6203 354.189 67.9991 354.189 76.6051C354.189 85.9284 361.187 91.3072 367.825 91.3072C374.464 91.3072 380.924 85.6594 380.924 76.5155C381.013 70.061 375.72 62.6203 367.556 62.6203Z" fill="#0E85D7"/>
<path d="M8.88163 25.5942C8.88163 25.5942 24.4918 5.60302 46.7407 15.8227L54.1869 8.56136L22.9666 0.941406L0 25.5942H8.88163Z" fill="#055AAB"/>
<path d="M15.341 30.7954L13.457 24.8787C13.457 24.8787 20.1855 15.1072 42.3448 16.0934L45.395 23.4444C45.395 23.4444 30.2334 20.9343 15.341 30.7954Z" fill="#055AAB"/>
<path d="M6.01223 39.6714C7.30047 39.6714 8.34479 38.6278 8.34479 37.3406C8.34479 36.0533 7.30047 35.0098 6.01223 35.0098C4.724 35.0098 3.67969 36.0533 3.67969 37.3406C3.67969 38.6278 4.724 39.6714 6.01223 39.6714Z" fill="#055AAB"/>
<path d="M6.27604 24.6074H5.37891V37.0683H6.27604V24.6074Z" fill="#055AAB"/>
<rect x="105" y="117" width="181" height="35.0775" rx="8.4186" fill="#066AC9"/>
<path d="M116.113 135.05C116.113 133.966 116.363 132.994 116.862 132.133C117.372 131.272 118.058 130.603 118.919 130.125C119.79 129.636 120.741 129.391 121.772 129.391C122.952 129.391 123.998 129.684 124.912 130.268C125.837 130.842 126.506 131.66 126.921 132.723H124.737C124.45 132.138 124.051 131.703 123.541 131.416C123.031 131.129 122.441 130.985 121.772 130.985C121.039 130.985 120.385 131.15 119.811 131.48C119.237 131.809 118.786 132.282 118.456 132.898C118.138 133.515 117.978 134.232 117.978 135.05C117.978 135.868 118.138 136.586 118.456 137.202C118.786 137.818 119.237 138.297 119.811 138.637C120.385 138.966 121.039 139.131 121.772 139.131C122.441 139.131 123.031 138.987 123.541 138.7C124.051 138.414 124.45 137.978 124.737 137.393H126.921C126.506 138.456 125.837 139.274 124.912 139.848C123.998 140.422 122.952 140.709 121.772 140.709C120.731 140.709 119.779 140.47 118.919 139.992C118.058 139.503 117.372 138.828 116.862 137.967C116.363 137.106 116.113 136.134 116.113 135.05ZM137.289 140.725C136.258 140.725 135.307 140.486 134.435 140.008C133.575 139.519 132.889 138.844 132.379 137.983C131.88 137.112 131.63 136.134 131.63 135.05C131.63 133.966 131.88 132.994 132.379 132.133C132.889 131.272 133.575 130.603 134.435 130.125C135.307 129.636 136.258 129.391 137.289 129.391C138.33 129.391 139.281 129.636 140.142 130.125C141.013 130.603 141.699 131.272 142.198 132.133C142.698 132.994 142.947 133.966 142.947 135.05C142.947 136.134 142.698 137.112 142.198 137.983C141.699 138.844 141.013 139.519 140.142 140.008C139.281 140.486 138.33 140.725 137.289 140.725ZM137.289 139.147C138.022 139.147 138.676 138.982 139.249 138.653C139.823 138.313 140.27 137.834 140.588 137.218C140.918 136.591 141.082 135.868 141.082 135.05C141.082 134.232 140.918 133.515 140.588 132.898C140.27 132.282 139.823 131.809 139.249 131.48C138.676 131.15 138.022 130.985 137.289 130.985C136.555 130.985 135.902 131.15 135.328 131.48C134.754 131.809 134.303 132.282 133.973 132.898C133.654 133.515 133.495 134.232 133.495 135.05C133.495 135.868 133.654 136.591 133.973 137.218C134.303 137.834 134.754 138.313 135.328 138.653C135.902 138.982 136.555 139.147 137.289 139.147ZM149.725 129.535V136.596C149.725 137.436 149.943 138.068 150.378 138.493C150.825 138.918 151.441 139.131 152.227 139.131C153.024 139.131 153.641 138.918 154.077 138.493C154.523 138.068 154.746 137.436 154.746 136.596V129.535H156.563V136.564C156.563 137.468 156.367 138.233 155.973 138.86C155.58 139.487 155.054 139.954 154.395 140.263C153.736 140.571 153.009 140.725 152.212 140.725C151.415 140.725 150.687 140.571 150.028 140.263C149.38 139.954 148.864 139.487 148.482 138.86C148.099 138.233 147.908 137.468 147.908 136.564V129.535H149.725ZM167.872 140.613L165.321 136.182H163.934V140.613H162.117V129.535H165.943C166.793 129.535 167.51 129.684 168.095 129.981C168.69 130.279 169.131 130.677 169.418 131.177C169.715 131.676 169.864 132.234 169.864 132.85C169.864 133.573 169.652 134.232 169.227 134.827C168.812 135.411 168.169 135.81 167.298 136.023L170.039 140.613H167.872ZM163.934 134.731H165.943C166.623 134.731 167.133 134.561 167.473 134.221C167.824 133.881 167.999 133.424 167.999 132.85C167.999 132.277 167.829 131.83 167.489 131.511C167.149 131.182 166.634 131.017 165.943 131.017H163.934V134.731ZM179.027 140.725C178.283 140.725 177.614 140.597 177.019 140.342C176.424 140.077 175.956 139.705 175.616 139.226C175.276 138.748 175.106 138.19 175.106 137.553H177.051C177.093 138.031 177.279 138.424 177.608 138.732C177.948 139.041 178.421 139.195 179.027 139.195C179.654 139.195 180.143 139.046 180.494 138.748C180.844 138.44 181.02 138.047 181.02 137.569C181.02 137.197 180.908 136.894 180.685 136.66C180.472 136.426 180.201 136.246 179.872 136.118C179.553 135.991 179.107 135.852 178.533 135.704C177.81 135.512 177.221 135.321 176.764 135.13C176.317 134.928 175.935 134.62 175.616 134.205C175.297 133.791 175.138 133.238 175.138 132.548C175.138 131.91 175.297 131.352 175.616 130.874C175.935 130.396 176.381 130.029 176.955 129.774C177.529 129.519 178.193 129.391 178.947 129.391C180.021 129.391 180.897 129.662 181.578 130.204C182.268 130.736 182.651 131.469 182.725 132.404H180.717C180.685 132 180.494 131.655 180.143 131.368C179.792 131.081 179.33 130.938 178.756 130.938C178.235 130.938 177.81 131.07 177.481 131.336C177.151 131.602 176.987 131.984 176.987 132.484C176.987 132.824 177.088 133.105 177.29 133.329C177.502 133.541 177.768 133.711 178.087 133.839C178.405 133.966 178.841 134.104 179.394 134.253C180.127 134.455 180.722 134.657 181.179 134.859C181.647 135.061 182.04 135.374 182.359 135.799C182.688 136.214 182.853 136.772 182.853 137.473C182.853 138.036 182.699 138.568 182.39 139.067C182.093 139.567 181.652 139.97 181.067 140.279C180.494 140.576 179.813 140.725 179.027 140.725ZM190.002 131.001V134.253H193.828V135.736H190.002V139.131H194.306V140.613H188.185V129.519H194.306V131.001H190.002ZM213.58 129.535V131.017H208.878V134.285H212.544V135.767H208.878V140.613H207.061V129.535H213.58ZM220.27 129.535V140.613H218.453V129.535H220.27ZM234.945 140.613H233.128L227.661 132.34V140.613H225.844V129.519H227.661L233.128 137.776V129.519H234.945V140.613ZM244.138 129.535C245.318 129.535 246.348 129.763 247.231 130.22C248.123 130.667 248.809 131.315 249.287 132.165C249.776 133.005 250.02 133.987 250.02 135.114C250.02 136.24 249.776 137.218 249.287 138.047C248.809 138.876 248.123 139.513 247.231 139.96C246.348 140.395 245.318 140.613 244.138 140.613H240.52V129.535H244.138ZM244.138 139.131C245.435 139.131 246.428 138.78 247.119 138.079C247.81 137.377 248.155 136.389 248.155 135.114C248.155 133.828 247.81 132.824 247.119 132.101C246.428 131.379 245.435 131.017 244.138 131.017H242.337V139.131H244.138ZM256.826 131.001V134.253H260.652V135.736H256.826V139.131H261.13V140.613H255.009V129.519H261.13V131.001H256.826ZM272.311 140.613L269.76 136.182H268.373V140.613H266.556V129.535H270.382C271.232 129.535 271.949 129.684 272.534 129.981C273.129 130.279 273.57 130.677 273.857 131.177C274.154 131.676 274.303 132.234 274.303 132.85C274.303 133.573 274.091 134.232 273.666 134.827C273.251 135.411 272.608 135.81 271.737 136.023L274.479 140.613H272.311ZM268.373 134.731H270.382C271.062 134.731 271.572 134.561 271.912 134.221C272.263 133.881 272.438 133.424 272.438 132.85C272.438 132.277 272.268 131.83 271.928 131.511C271.588 131.182 271.073 131.017 270.382 131.017H268.373V134.731Z" fill="white"/>
</svg>
