<svg width="392" height="151" viewBox="0 0 392 151" fill="none" xmlns="http://www.w3.org/2000/svg">
<path d="M31.4029 62.2177H78.7716V63.7416C78.7716 84.3603 60.6494 100.586 40.3742 100.586C19.5607 100.586 1.34888 84.6293 1.34888 62.8452C1.34888 41.5093 19.471 25.104 39.9256 25.104C58.1375 25.104 71.4151 37.4752 75.0933 47.7846H59.0346C55.8946 42.9437 49.2558 37.5649 39.6565 37.5649C23.239 37.7442 14.7162 51.6394 14.7162 63.0245C14.7162 74.051 23.0595 88.1255 40.2845 88.1255C49.1661 88.1255 57.5095 83.1949 61.726 74.7682H31.4029V62.2177Z" fill="#055AAB"/>
<path d="M208.768 75.3035C208.768 67.1457 212.087 59.8843 217.56 54.6848V24.7429C217.56 24.7429 207.96 25.3704 207.871 36.6659C207.691 47.8717 207.871 56.8364 207.871 56.8364V56.926C203.205 52.354 196.836 49.4854 189.659 49.4854C175.394 49.4854 163.821 61.0498 163.821 75.3035C163.821 89.5573 175.394 101.122 189.659 101.122C196.836 101.122 203.385 98.1634 208.14 93.4121C208.768 95.2051 210.741 98.6116 217.649 98.6116V95.9222C212.087 90.7227 208.768 83.3717 208.768 75.3035ZM189.748 89.0195C182.123 89.0195 175.933 82.8339 175.933 75.2139C175.933 67.5939 182.123 61.4083 189.748 61.4083C197.374 61.4083 203.564 67.5939 203.564 75.2139C203.475 82.9235 197.284 89.0195 189.748 89.0195Z" fill="#096DBF"/>
<mask id="mask0_678_932" style="mask-type:luminance" maskUnits="userSpaceOnUse" x="211" y="24" width="55" height="78">
<path d="M255.777 36.6648C255.597 47.8706 255.777 56.8353 255.777 56.8353V56.9249C251.111 52.3529 244.742 49.4843 237.565 49.4843C223.3 49.4843 211.727 61.0487 211.727 75.3024C211.727 89.5562 223.3 101.121 237.565 101.121C244.742 101.121 251.291 98.1623 256.046 93.411C256.674 95.204 258.647 98.6105 265.555 98.6105V24.7418C265.466 24.7418 255.866 25.3693 255.777 36.6648ZM237.565 89.0184C229.939 89.0184 223.749 82.8328 223.749 75.2128C223.749 67.5928 229.939 61.4072 237.565 61.4072C245.19 61.4072 251.381 67.5928 251.381 75.2128C251.381 82.9224 245.19 89.0184 237.565 89.0184Z" fill="white"/>
</mask>
<g mask="url(#mask0_678_932)">
<path d="M251.379 61.408H251.11V89.1087H251.379V61.408Z" fill="#0C7BCD"/>
</g>
<mask id="mask1_678_932" style="mask-type:luminance" maskUnits="userSpaceOnUse" x="211" y="24" width="55" height="78">
<path d="M255.777 36.6648C255.597 47.8706 255.777 56.8353 255.777 56.8353V56.9249C251.111 52.3529 244.742 49.4843 237.565 49.4843C223.3 49.4843 211.727 61.0487 211.727 75.3024C211.727 89.5562 223.3 101.121 237.565 101.121C244.742 101.121 251.291 98.1623 256.046 93.411C256.674 95.204 258.647 98.6105 265.555 98.6105V24.7418C265.466 24.7418 255.866 25.3693 255.777 36.6648ZM237.565 89.0184C229.939 89.0184 223.749 82.8328 223.749 75.2128C223.749 67.5928 229.939 61.4072 237.565 61.4072C245.19 61.4072 251.381 67.5928 251.381 75.2128C251.381 82.9224 245.19 89.0184 237.565 89.0184Z" fill="white"/>
</mask>
<g mask="url(#mask1_678_932)">
<path d="M251.11 61.408H249.944V89.1087H251.11V61.408Z" fill="#0C7ACC"/>
</g>
<mask id="mask2_678_932" style="mask-type:luminance" maskUnits="userSpaceOnUse" x="211" y="24" width="55" height="78">
<path d="M255.777 36.6648C255.597 47.8706 255.777 56.8353 255.777 56.8353V56.9249C251.111 52.3529 244.742 49.4843 237.565 49.4843C223.3 49.4843 211.727 61.0487 211.727 75.3024C211.727 89.5562 223.3 101.121 237.565 101.121C244.742 101.121 251.291 98.1623 256.046 93.411C256.674 95.204 258.647 98.6105 265.555 98.6105V24.7418C265.466 24.7418 255.866 25.3693 255.777 36.6648ZM237.565 89.0184C229.939 89.0184 223.749 82.8328 223.749 75.2128C223.749 67.5928 229.939 61.4072 237.565 61.4072C245.19 61.4072 251.381 67.5928 251.381 75.2128C251.381 82.9224 245.19 89.0184 237.565 89.0184Z" fill="white"/>
</mask>
<g mask="url(#mask2_678_932)">
<path d="M249.944 61.408H248.778V89.1087H249.944V61.408Z" fill="#0B79CB"/>
</g>
<mask id="mask3_678_932" style="mask-type:luminance" maskUnits="userSpaceOnUse" x="211" y="24" width="55" height="78">
<path d="M255.777 36.6648C255.597 47.8706 255.777 56.8353 255.777 56.8353V56.9249C251.111 52.3529 244.742 49.4843 237.565 49.4843C223.3 49.4843 211.727 61.0487 211.727 75.3024C211.727 89.5562 223.3 101.121 237.565 101.121C244.742 101.121 251.291 98.1623 256.046 93.411C256.674 95.204 258.647 98.6105 265.555 98.6105V24.7418C265.466 24.7418 255.866 25.3693 255.777 36.6648ZM237.565 89.0184C229.939 89.0184 223.749 82.8328 223.749 75.2128C223.749 67.5928 229.939 61.4072 237.565 61.4072C245.19 61.4072 251.381 67.5928 251.381 75.2128C251.381 82.9224 245.19 89.0184 237.565 89.0184Z" fill="white"/>
</mask>
<g mask="url(#mask3_678_932)">
<path d="M248.688 61.408H247.522V89.1087H248.688V61.408Z" fill="#0B78CA"/>
</g>
<mask id="mask4_678_932" style="mask-type:luminance" maskUnits="userSpaceOnUse" x="211" y="24" width="55" height="78">
<path d="M255.777 36.6648C255.597 47.8706 255.777 56.8353 255.777 56.8353V56.9249C251.111 52.3529 244.742 49.4843 237.565 49.4843C223.3 49.4843 211.727 61.0487 211.727 75.3024C211.727 89.5562 223.3 101.121 237.565 101.121C244.742 101.121 251.291 98.1623 256.046 93.411C256.674 95.204 258.647 98.6105 265.555 98.6105V24.7418C265.466 24.7418 255.866 25.3693 255.777 36.6648ZM237.565 89.0184C229.939 89.0184 223.749 82.8328 223.749 75.2128C223.749 67.5928 229.939 61.4072 237.565 61.4072C245.19 61.4072 251.381 67.5928 251.381 75.2128C251.381 82.9224 245.19 89.0184 237.565 89.0184Z" fill="white"/>
</mask>
<g mask="url(#mask4_678_932)">
<path d="M247.522 61.408H246.356V89.1087H247.522V61.408Z" fill="#0B77C9"/>
</g>
<mask id="mask5_678_932" style="mask-type:luminance" maskUnits="userSpaceOnUse" x="211" y="24" width="55" height="78">
<path d="M255.777 36.6648C255.597 47.8706 255.777 56.8353 255.777 56.8353V56.9249C251.111 52.3529 244.742 49.4843 237.565 49.4843C223.3 49.4843 211.727 61.0487 211.727 75.3024C211.727 89.5562 223.3 101.121 237.565 101.121C244.742 101.121 251.291 98.1623 256.046 93.411C256.674 95.204 258.647 98.6105 265.555 98.6105V24.7418C265.466 24.7418 255.866 25.3693 255.777 36.6648ZM237.565 89.0184C229.939 89.0184 223.749 82.8328 223.749 75.2128C223.749 67.5928 229.939 61.4072 237.565 61.4072C245.19 61.4072 251.381 67.5928 251.381 75.2128C251.381 82.9224 245.19 89.0184 237.565 89.0184Z" fill="white"/>
</mask>
<g mask="url(#mask5_678_932)">
<path d="M246.356 61.408H245.19V89.1087H246.356V61.408Z" fill="#0B76C8"/>
</g>
<mask id="mask6_678_932" style="mask-type:luminance" maskUnits="userSpaceOnUse" x="211" y="24" width="55" height="78">
<path d="M255.777 36.6648C255.597 47.8706 255.777 56.8353 255.777 56.8353V56.9249C251.111 52.3529 244.742 49.4843 237.565 49.4843C223.3 49.4843 211.727 61.0487 211.727 75.3024C211.727 89.5562 223.3 101.121 237.565 101.121C244.742 101.121 251.291 98.1623 256.046 93.411C256.674 95.204 258.647 98.6105 265.555 98.6105V24.7418C265.466 24.7418 255.866 25.3693 255.777 36.6648ZM237.565 89.0184C229.939 89.0184 223.749 82.8328 223.749 75.2128C223.749 67.5928 229.939 61.4072 237.565 61.4072C245.19 61.4072 251.381 67.5928 251.381 75.2128C251.381 82.9224 245.19 89.0184 237.565 89.0184Z" fill="white"/>
</mask>
<g mask="url(#mask6_678_932)">
<path d="M245.1 61.408H243.934V89.1087H245.1V61.408Z" fill="#0B75C7"/>
</g>
<mask id="mask7_678_932" style="mask-type:luminance" maskUnits="userSpaceOnUse" x="211" y="24" width="55" height="78">
<path d="M255.777 36.6648C255.597 47.8706 255.777 56.8353 255.777 56.8353V56.9249C251.111 52.3529 244.742 49.4843 237.565 49.4843C223.3 49.4843 211.727 61.0487 211.727 75.3024C211.727 89.5562 223.3 101.121 237.565 101.121C244.742 101.121 251.291 98.1623 256.046 93.411C256.674 95.204 258.647 98.6105 265.555 98.6105V24.7418C265.466 24.7418 255.866 25.3693 255.777 36.6648ZM237.565 89.0184C229.939 89.0184 223.749 82.8328 223.749 75.2128C223.749 67.5928 229.939 61.4072 237.565 61.4072C245.19 61.4072 251.381 67.5928 251.381 75.2128C251.381 82.9224 245.19 89.0184 237.565 89.0184Z" fill="white"/>
</mask>
<g mask="url(#mask7_678_932)">
<path d="M243.934 61.408H242.768V89.1087H243.934V61.408Z" fill="#0A74C6"/>
</g>
<mask id="mask8_678_932" style="mask-type:luminance" maskUnits="userSpaceOnUse" x="211" y="24" width="55" height="78">
<path d="M255.777 36.6648C255.597 47.8706 255.777 56.8353 255.777 56.8353V56.9249C251.111 52.3529 244.742 49.4843 237.565 49.4843C223.3 49.4843 211.727 61.0487 211.727 75.3024C211.727 89.5562 223.3 101.121 237.565 101.121C244.742 101.121 251.291 98.1623 256.046 93.411C256.674 95.204 258.647 98.6105 265.555 98.6105V24.7418C265.466 24.7418 255.866 25.3693 255.777 36.6648ZM237.565 89.0184C229.939 89.0184 223.749 82.8328 223.749 75.2128C223.749 67.5928 229.939 61.4072 237.565 61.4072C245.19 61.4072 251.381 67.5928 251.381 75.2128C251.381 82.9224 245.19 89.0184 237.565 89.0184Z" fill="white"/>
</mask>
<g mask="url(#mask8_678_932)">
<path d="M242.768 61.408H241.601V89.1087H242.768V61.408Z" fill="#0A73C5"/>
</g>
<mask id="mask9_678_932" style="mask-type:luminance" maskUnits="userSpaceOnUse" x="211" y="24" width="55" height="78">
<path d="M255.777 36.6648C255.597 47.8706 255.777 56.8353 255.777 56.8353V56.9249C251.111 52.3529 244.742 49.4843 237.565 49.4843C223.3 49.4843 211.727 61.0487 211.727 75.3024C211.727 89.5562 223.3 101.121 237.565 101.121C244.742 101.121 251.291 98.1623 256.046 93.411C256.674 95.204 258.647 98.6105 265.555 98.6105V24.7418C265.466 24.7418 255.866 25.3693 255.777 36.6648ZM237.565 89.0184C229.939 89.0184 223.749 82.8328 223.749 75.2128C223.749 67.5928 229.939 61.4072 237.565 61.4072C245.19 61.4072 251.381 67.5928 251.381 75.2128C251.381 82.9224 245.19 89.0184 237.565 89.0184Z" fill="white"/>
</mask>
<g mask="url(#mask9_678_932)">
<path d="M241.511 61.408H240.345V89.1087H241.511V61.408Z" fill="#0A72C4"/>
</g>
<mask id="mask10_678_932" style="mask-type:luminance" maskUnits="userSpaceOnUse" x="211" y="24" width="55" height="78">
<path d="M255.777 36.6648C255.597 47.8706 255.777 56.8353 255.777 56.8353V56.9249C251.111 52.3529 244.742 49.4843 237.565 49.4843C223.3 49.4843 211.727 61.0487 211.727 75.3024C211.727 89.5562 223.3 101.121 237.565 101.121C244.742 101.121 251.291 98.1623 256.046 93.411C256.674 95.204 258.647 98.6105 265.555 98.6105V24.7418C265.466 24.7418 255.866 25.3693 255.777 36.6648ZM237.565 89.0184C229.939 89.0184 223.749 82.8328 223.749 75.2128C223.749 67.5928 229.939 61.4072 237.565 61.4072C245.19 61.4072 251.381 67.5928 251.381 75.2128C251.381 82.9224 245.19 89.0184 237.565 89.0184Z" fill="white"/>
</mask>
<g mask="url(#mask10_678_932)">
<path d="M240.344 61.408H239.177V89.1087H240.344V61.408Z" fill="#0A71C3"/>
</g>
<mask id="mask11_678_932" style="mask-type:luminance" maskUnits="userSpaceOnUse" x="211" y="24" width="55" height="78">
<path d="M255.777 36.6648C255.597 47.8706 255.777 56.8353 255.777 56.8353V56.9249C251.111 52.3529 244.742 49.4843 237.565 49.4843C223.3 49.4843 211.727 61.0487 211.727 75.3024C211.727 89.5562 223.3 101.121 237.565 101.121C244.742 101.121 251.291 98.1623 256.046 93.411C256.674 95.204 258.647 98.6105 265.555 98.6105V24.7418C265.466 24.7418 255.866 25.3693 255.777 36.6648ZM237.565 89.0184C229.939 89.0184 223.749 82.8328 223.749 75.2128C223.749 67.5928 229.939 61.4072 237.565 61.4072C245.19 61.4072 251.381 67.5928 251.381 75.2128C251.381 82.9224 245.19 89.0184 237.565 89.0184Z" fill="white"/>
</mask>
<g mask="url(#mask11_678_932)">
<path d="M239.178 61.408H238.011V89.1087H239.178V61.408Z" fill="#0A70C2"/>
</g>
<mask id="mask12_678_932" style="mask-type:luminance" maskUnits="userSpaceOnUse" x="211" y="24" width="55" height="78">
<path d="M255.777 36.6648C255.597 47.8706 255.777 56.8353 255.777 56.8353V56.9249C251.111 52.3529 244.742 49.4843 237.565 49.4843C223.3 49.4843 211.727 61.0487 211.727 75.3024C211.727 89.5562 223.3 101.121 237.565 101.121C244.742 101.121 251.291 98.1623 256.046 93.411C256.674 95.204 258.647 98.6105 265.555 98.6105V24.7418C265.466 24.7418 255.866 25.3693 255.777 36.6648ZM237.565 89.0184C229.939 89.0184 223.749 82.8328 223.749 75.2128C223.749 67.5928 229.939 61.4072 237.565 61.4072C245.19 61.4072 251.381 67.5928 251.381 75.2128C251.381 82.9224 245.19 89.0184 237.565 89.0184Z" fill="white"/>
</mask>
<g mask="url(#mask12_678_932)">
<path d="M237.923 61.408H236.757V89.1087H237.923V61.408Z" fill="#096FC0"/>
</g>
<mask id="mask13_678_932" style="mask-type:luminance" maskUnits="userSpaceOnUse" x="211" y="24" width="55" height="78">
<path d="M255.777 36.6648C255.597 47.8706 255.777 56.8353 255.777 56.8353V56.9249C251.111 52.3529 244.742 49.4843 237.565 49.4843C223.3 49.4843 211.727 61.0487 211.727 75.3024C211.727 89.5562 223.3 101.121 237.565 101.121C244.742 101.121 251.291 98.1623 256.046 93.411C256.674 95.204 258.647 98.6105 265.555 98.6105V24.7418C265.466 24.7418 255.866 25.3693 255.777 36.6648ZM237.565 89.0184C229.939 89.0184 223.749 82.8328 223.749 75.2128C223.749 67.5928 229.939 61.4072 237.565 61.4072C245.19 61.4072 251.381 67.5928 251.381 75.2128C251.381 82.9224 245.19 89.0184 237.565 89.0184Z" fill="white"/>
</mask>
<g mask="url(#mask13_678_932)">
<path d="M236.757 61.408H235.591V89.1087H236.757V61.408Z" fill="#096EBF"/>
</g>
<mask id="mask14_678_932" style="mask-type:luminance" maskUnits="userSpaceOnUse" x="211" y="24" width="55" height="78">
<path d="M255.777 36.6648C255.597 47.8706 255.777 56.8353 255.777 56.8353V56.9249C251.111 52.3529 244.742 49.4843 237.565 49.4843C223.3 49.4843 211.727 61.0487 211.727 75.3024C211.727 89.5562 223.3 101.121 237.565 101.121C244.742 101.121 251.291 98.1623 256.046 93.411C256.674 95.204 258.647 98.6105 265.555 98.6105V24.7418C265.466 24.7418 255.866 25.3693 255.777 36.6648ZM237.565 89.0184C229.939 89.0184 223.749 82.8328 223.749 75.2128C223.749 67.5928 229.939 61.4072 237.565 61.4072C245.19 61.4072 251.381 67.5928 251.381 75.2128C251.381 82.9224 245.19 89.0184 237.565 89.0184Z" fill="white"/>
</mask>
<g mask="url(#mask14_678_932)">
<path d="M235.591 61.408H234.425V89.1087H235.591V61.408Z" fill="#096DBE"/>
</g>
<mask id="mask15_678_932" style="mask-type:luminance" maskUnits="userSpaceOnUse" x="211" y="24" width="55" height="78">
<path d="M255.777 36.6648C255.597 47.8706 255.777 56.8353 255.777 56.8353V56.9249C251.111 52.3529 244.742 49.4843 237.565 49.4843C223.3 49.4843 211.727 61.0487 211.727 75.3024C211.727 89.5562 223.3 101.121 237.565 101.121C244.742 101.121 251.291 98.1623 256.046 93.411C256.674 95.204 258.647 98.6105 265.555 98.6105V24.7418C265.466 24.7418 255.866 25.3693 255.777 36.6648ZM237.565 89.0184C229.939 89.0184 223.749 82.8328 223.749 75.2128C223.749 67.5928 229.939 61.4072 237.565 61.4072C245.19 61.4072 251.381 67.5928 251.381 75.2128C251.381 82.9224 245.19 89.0184 237.565 89.0184Z" fill="white"/>
</mask>
<g mask="url(#mask15_678_932)">
<path d="M234.335 61.408H233.169V89.1087H234.335V61.408Z" fill="#096CBD"/>
</g>
<mask id="mask16_678_932" style="mask-type:luminance" maskUnits="userSpaceOnUse" x="211" y="24" width="55" height="78">
<path d="M255.777 36.6648C255.597 47.8706 255.777 56.8353 255.777 56.8353V56.9249C251.111 52.3529 244.742 49.4843 237.565 49.4843C223.3 49.4843 211.727 61.0487 211.727 75.3024C211.727 89.5562 223.3 101.121 237.565 101.121C244.742 101.121 251.291 98.1623 256.046 93.411C256.674 95.204 258.647 98.6105 265.555 98.6105V24.7418C265.466 24.7418 255.866 25.3693 255.777 36.6648ZM237.565 89.0184C229.939 89.0184 223.749 82.8328 223.749 75.2128C223.749 67.5928 229.939 61.4072 237.565 61.4072C245.19 61.4072 251.381 67.5928 251.381 75.2128C251.381 82.9224 245.19 89.0184 237.565 89.0184Z" fill="white"/>
</mask>
<g mask="url(#mask16_678_932)">
<path d="M233.169 61.408H232.003V89.1087H233.169V61.408Z" fill="#086BBC"/>
</g>
<mask id="mask17_678_932" style="mask-type:luminance" maskUnits="userSpaceOnUse" x="211" y="24" width="55" height="78">
<path d="M255.777 36.6648C255.597 47.8706 255.777 56.8353 255.777 56.8353V56.9249C251.111 52.3529 244.742 49.4843 237.565 49.4843C223.3 49.4843 211.727 61.0487 211.727 75.3024C211.727 89.5562 223.3 101.121 237.565 101.121C244.742 101.121 251.291 98.1623 256.046 93.411C256.674 95.204 258.647 98.6105 265.555 98.6105V24.7418C265.466 24.7418 255.866 25.3693 255.777 36.6648ZM237.565 89.0184C229.939 89.0184 223.749 82.8328 223.749 75.2128C223.749 67.5928 229.939 61.4072 237.565 61.4072C245.19 61.4072 251.381 67.5928 251.381 75.2128C251.381 82.9224 245.19 89.0184 237.565 89.0184Z" fill="white"/>
</mask>
<g mask="url(#mask17_678_932)">
<path d="M232.003 61.408H230.836V89.1087H232.003V61.408Z" fill="#086ABB"/>
</g>
<mask id="mask18_678_932" style="mask-type:luminance" maskUnits="userSpaceOnUse" x="211" y="24" width="55" height="78">
<path d="M255.777 36.6648C255.597 47.8706 255.777 56.8353 255.777 56.8353V56.9249C251.111 52.3529 244.742 49.4843 237.565 49.4843C223.3 49.4843 211.727 61.0487 211.727 75.3024C211.727 89.5562 223.3 101.121 237.565 101.121C244.742 101.121 251.291 98.1623 256.046 93.411C256.674 95.204 258.647 98.6105 265.555 98.6105V24.7418C265.466 24.7418 255.866 25.3693 255.777 36.6648ZM237.565 89.0184C229.939 89.0184 223.749 82.8328 223.749 75.2128C223.749 67.5928 229.939 61.4072 237.565 61.4072C245.19 61.4072 251.381 67.5928 251.381 75.2128C251.381 82.9224 245.19 89.0184 237.565 89.0184Z" fill="white"/>
</mask>
<g mask="url(#mask18_678_932)">
<path d="M230.747 61.408H229.58V89.1087H230.747V61.408Z" fill="#0869BA"/>
</g>
<mask id="mask19_678_932" style="mask-type:luminance" maskUnits="userSpaceOnUse" x="211" y="24" width="55" height="78">
<path d="M255.777 36.6648C255.597 47.8706 255.777 56.8353 255.777 56.8353V56.9249C251.111 52.3529 244.742 49.4843 237.565 49.4843C223.3 49.4843 211.727 61.0487 211.727 75.3024C211.727 89.5562 223.3 101.121 237.565 101.121C244.742 101.121 251.291 98.1623 256.046 93.411C256.674 95.204 258.647 98.6105 265.555 98.6105V24.7418C265.466 24.7418 255.866 25.3693 255.777 36.6648ZM237.565 89.0184C229.939 89.0184 223.749 82.8328 223.749 75.2128C223.749 67.5928 229.939 61.4072 237.565 61.4072C245.19 61.4072 251.381 67.5928 251.381 75.2128C251.381 82.9224 245.19 89.0184 237.565 89.0184Z" fill="white"/>
</mask>
<g mask="url(#mask19_678_932)">
<path d="M229.581 61.408H228.414V89.1087H229.581V61.408Z" fill="#0868B9"/>
</g>
<mask id="mask20_678_932" style="mask-type:luminance" maskUnits="userSpaceOnUse" x="211" y="24" width="55" height="78">
<path d="M255.777 36.6648C255.597 47.8706 255.777 56.8353 255.777 56.8353V56.9249C251.111 52.3529 244.742 49.4843 237.565 49.4843C223.3 49.4843 211.727 61.0487 211.727 75.3024C211.727 89.5562 223.3 101.121 237.565 101.121C244.742 101.121 251.291 98.1623 256.046 93.411C256.674 95.204 258.647 98.6105 265.555 98.6105V24.7418C265.466 24.7418 255.866 25.3693 255.777 36.6648ZM237.565 89.0184C229.939 89.0184 223.749 82.8328 223.749 75.2128C223.749 67.5928 229.939 61.4072 237.565 61.4072C245.19 61.4072 251.381 67.5928 251.381 75.2128C251.381 82.9224 245.19 89.0184 237.565 89.0184Z" fill="white"/>
</mask>
<g mask="url(#mask20_678_932)">
<path d="M228.415 61.408H227.248V89.1087H228.415V61.408Z" fill="#0867B8"/>
</g>
<mask id="mask21_678_932" style="mask-type:luminance" maskUnits="userSpaceOnUse" x="211" y="24" width="55" height="78">
<path d="M255.777 36.6648C255.597 47.8706 255.777 56.8353 255.777 56.8353V56.9249C251.111 52.3529 244.742 49.4843 237.565 49.4843C223.3 49.4843 211.727 61.0487 211.727 75.3024C211.727 89.5562 223.3 101.121 237.565 101.121C244.742 101.121 251.291 98.1623 256.046 93.411C256.674 95.204 258.647 98.6105 265.555 98.6105V24.7418C265.466 24.7418 255.866 25.3693 255.777 36.6648ZM237.565 89.0184C229.939 89.0184 223.749 82.8328 223.749 75.2128C223.749 67.5928 229.939 61.4072 237.565 61.4072C245.19 61.4072 251.381 67.5928 251.381 75.2128C251.381 82.9224 245.19 89.0184 237.565 89.0184Z" fill="white"/>
</mask>
<g mask="url(#mask21_678_932)">
<path d="M227.158 61.408H225.992V89.1087H227.158V61.408Z" fill="#0766B7"/>
</g>
<mask id="mask22_678_932" style="mask-type:luminance" maskUnits="userSpaceOnUse" x="211" y="24" width="55" height="78">
<path d="M255.777 36.6648C255.597 47.8706 255.777 56.8353 255.777 56.8353V56.9249C251.111 52.3529 244.742 49.4843 237.565 49.4843C223.3 49.4843 211.727 61.0487 211.727 75.3024C211.727 89.5562 223.3 101.121 237.565 101.121C244.742 101.121 251.291 98.1623 256.046 93.411C256.674 95.204 258.647 98.6105 265.555 98.6105V24.7418C265.466 24.7418 255.866 25.3693 255.777 36.6648ZM237.565 89.0184C229.939 89.0184 223.749 82.8328 223.749 75.2128C223.749 67.5928 229.939 61.4072 237.565 61.4072C245.19 61.4072 251.381 67.5928 251.381 75.2128C251.381 82.9224 245.19 89.0184 237.565 89.0184Z" fill="white"/>
</mask>
<g mask="url(#mask22_678_932)">
<path d="M225.992 61.408H224.826V89.1087H225.992V61.408Z" fill="#0765B6"/>
</g>
<mask id="mask23_678_932" style="mask-type:luminance" maskUnits="userSpaceOnUse" x="211" y="24" width="55" height="78">
<path d="M255.777 36.6648C255.597 47.8706 255.777 56.8353 255.777 56.8353V56.9249C251.111 52.3529 244.742 49.4843 237.565 49.4843C223.3 49.4843 211.727 61.0487 211.727 75.3024C211.727 89.5562 223.3 101.121 237.565 101.121C244.742 101.121 251.291 98.1623 256.046 93.411C256.674 95.204 258.647 98.6105 265.555 98.6105V24.7418C265.466 24.7418 255.866 25.3693 255.777 36.6648ZM237.565 89.0184C229.939 89.0184 223.749 82.8328 223.749 75.2128C223.749 67.5928 229.939 61.4072 237.565 61.4072C245.19 61.4072 251.381 67.5928 251.381 75.2128C251.381 82.9224 245.19 89.0184 237.565 89.0184Z" fill="white"/>
</mask>
<g mask="url(#mask23_678_932)">
<path d="M224.824 61.408H223.658V89.1087H224.824V61.408Z" fill="#0764B5"/>
</g>
<mask id="mask24_678_932" style="mask-type:luminance" maskUnits="userSpaceOnUse" x="211" y="24" width="55" height="78">
<path d="M255.777 36.6648C255.597 47.8706 255.777 56.8353 255.777 56.8353V56.9249C251.111 52.3529 244.742 49.4843 237.565 49.4843C223.3 49.4843 211.727 61.0487 211.727 75.3024C211.727 89.5562 223.3 101.121 237.565 101.121C244.742 101.121 251.291 98.1623 256.046 93.411C256.674 95.204 258.647 98.6105 265.555 98.6105V24.7418C265.466 24.7418 255.866 25.3693 255.777 36.6648ZM237.565 89.0184C229.939 89.0184 223.749 82.8328 223.749 75.2128C223.749 67.5928 229.939 61.4072 237.565 61.4072C245.19 61.4072 251.381 67.5928 251.381 75.2128C251.381 82.9224 245.19 89.0184 237.565 89.0184Z" fill="white"/>
</mask>
<g mask="url(#mask24_678_932)">
<path d="M265.466 24.7423H264.299V101.121H265.466V24.7423Z" fill="#0E86D8"/>
</g>
<mask id="mask25_678_932" style="mask-type:luminance" maskUnits="userSpaceOnUse" x="211" y="24" width="55" height="78">
<path d="M255.777 36.6648C255.597 47.8706 255.777 56.8353 255.777 56.8353V56.9249C251.111 52.3529 244.742 49.4843 237.565 49.4843C223.3 49.4843 211.727 61.0487 211.727 75.3024C211.727 89.5562 223.3 101.121 237.565 101.121C244.742 101.121 251.291 98.1623 256.046 93.411C256.674 95.204 258.647 98.6105 265.555 98.6105V24.7418C265.466 24.7418 255.866 25.3693 255.777 36.6648ZM237.565 89.0184C229.939 89.0184 223.749 82.8328 223.749 75.2128C223.749 67.5928 229.939 61.4072 237.565 61.4072C245.19 61.4072 251.381 67.5928 251.381 75.2128C251.381 82.9224 245.19 89.0184 237.565 89.0184Z" fill="white"/>
</mask>
<g mask="url(#mask25_678_932)">
<path d="M264.21 24.7423H263.043V101.121H264.21V24.7423Z" fill="#0E85D7"/>
</g>
<mask id="mask26_678_932" style="mask-type:luminance" maskUnits="userSpaceOnUse" x="211" y="24" width="55" height="78">
<path d="M255.777 36.6648C255.597 47.8706 255.777 56.8353 255.777 56.8353V56.9249C251.111 52.3529 244.742 49.4843 237.565 49.4843C223.3 49.4843 211.727 61.0487 211.727 75.3024C211.727 89.5562 223.3 101.121 237.565 101.121C244.742 101.121 251.291 98.1623 256.046 93.411C256.674 95.204 258.647 98.6105 265.555 98.6105V24.7418C265.466 24.7418 255.866 25.3693 255.777 36.6648ZM237.565 89.0184C229.939 89.0184 223.749 82.8328 223.749 75.2128C223.749 67.5928 229.939 61.4072 237.565 61.4072C245.19 61.4072 251.381 67.5928 251.381 75.2128C251.381 82.9224 245.19 89.0184 237.565 89.0184Z" fill="white"/>
</mask>
<g mask="url(#mask26_678_932)">
<path d="M263.043 24.7423H261.877V101.121H263.043V24.7423Z" fill="#0E84D6"/>
</g>
<mask id="mask27_678_932" style="mask-type:luminance" maskUnits="userSpaceOnUse" x="211" y="24" width="55" height="78">
<path d="M255.777 36.6648C255.597 47.8706 255.777 56.8353 255.777 56.8353V56.9249C251.111 52.3529 244.742 49.4843 237.565 49.4843C223.3 49.4843 211.727 61.0487 211.727 75.3024C211.727 89.5562 223.3 101.121 237.565 101.121C244.742 101.121 251.291 98.1623 256.046 93.411C256.674 95.204 258.647 98.6105 265.555 98.6105V24.7418C265.466 24.7418 255.866 25.3693 255.777 36.6648ZM237.565 89.0184C229.939 89.0184 223.749 82.8328 223.749 75.2128C223.749 67.5928 229.939 61.4072 237.565 61.4072C245.19 61.4072 251.381 67.5928 251.381 75.2128C251.381 82.9224 245.19 89.0184 237.565 89.0184Z" fill="white"/>
</mask>
<g mask="url(#mask27_678_932)">
<path d="M261.877 24.7423H260.711V101.121H261.877V24.7423Z" fill="#0D83D5"/>
</g>
<mask id="mask28_678_932" style="mask-type:luminance" maskUnits="userSpaceOnUse" x="211" y="24" width="55" height="78">
<path d="M255.777 36.6648C255.597 47.8706 255.777 56.8353 255.777 56.8353V56.9249C251.111 52.3529 244.742 49.4843 237.565 49.4843C223.3 49.4843 211.727 61.0487 211.727 75.3024C211.727 89.5562 223.3 101.121 237.565 101.121C244.742 101.121 251.291 98.1623 256.046 93.411C256.674 95.204 258.647 98.6105 265.555 98.6105V24.7418C265.466 24.7418 255.866 25.3693 255.777 36.6648ZM237.565 89.0184C229.939 89.0184 223.749 82.8328 223.749 75.2128C223.749 67.5928 229.939 61.4072 237.565 61.4072C245.19 61.4072 251.381 67.5928 251.381 75.2128C251.381 82.9224 245.19 89.0184 237.565 89.0184Z" fill="white"/>
</mask>
<g mask="url(#mask28_678_932)">
<path d="M260.621 24.7423H259.455V101.121H260.621V24.7423Z" fill="#0D82D4"/>
</g>
<mask id="mask29_678_932" style="mask-type:luminance" maskUnits="userSpaceOnUse" x="211" y="24" width="55" height="78">
<path d="M255.777 36.6648C255.597 47.8706 255.777 56.8353 255.777 56.8353V56.9249C251.111 52.3529 244.742 49.4843 237.565 49.4843C223.3 49.4843 211.727 61.0487 211.727 75.3024C211.727 89.5562 223.3 101.121 237.565 101.121C244.742 101.121 251.291 98.1623 256.046 93.411C256.674 95.204 258.647 98.6105 265.555 98.6105V24.7418C265.466 24.7418 255.866 25.3693 255.777 36.6648ZM237.565 89.0184C229.939 89.0184 223.749 82.8328 223.749 75.2128C223.749 67.5928 229.939 61.4072 237.565 61.4072C245.19 61.4072 251.381 67.5928 251.381 75.2128C251.381 82.9224 245.19 89.0184 237.565 89.0184Z" fill="white"/>
</mask>
<g mask="url(#mask29_678_932)">
<path d="M259.453 24.7423H258.287V101.121H259.453V24.7423Z" fill="#0D81D3"/>
</g>
<mask id="mask30_678_932" style="mask-type:luminance" maskUnits="userSpaceOnUse" x="211" y="24" width="55" height="78">
<path d="M255.777 36.6648C255.597 47.8706 255.777 56.8353 255.777 56.8353V56.9249C251.111 52.3529 244.742 49.4843 237.565 49.4843C223.3 49.4843 211.727 61.0487 211.727 75.3024C211.727 89.5562 223.3 101.121 237.565 101.121C244.742 101.121 251.291 98.1623 256.046 93.411C256.674 95.204 258.647 98.6105 265.555 98.6105V24.7418C265.466 24.7418 255.866 25.3693 255.777 36.6648ZM237.565 89.0184C229.939 89.0184 223.749 82.8328 223.749 75.2128C223.749 67.5928 229.939 61.4072 237.565 61.4072C245.19 61.4072 251.381 67.5928 251.381 75.2128C251.381 82.9224 245.19 89.0184 237.565 89.0184Z" fill="white"/>
</mask>
<g mask="url(#mask30_678_932)">
<path d="M258.287 24.7423H257.121V101.121H258.287V24.7423Z" fill="#0D80D2"/>
</g>
<mask id="mask31_678_932" style="mask-type:luminance" maskUnits="userSpaceOnUse" x="211" y="24" width="55" height="78">
<path d="M255.777 36.6648C255.597 47.8706 255.777 56.8353 255.777 56.8353V56.9249C251.111 52.3529 244.742 49.4843 237.565 49.4843C223.3 49.4843 211.727 61.0487 211.727 75.3024C211.727 89.5562 223.3 101.121 237.565 101.121C244.742 101.121 251.291 98.1623 256.046 93.411C256.674 95.204 258.647 98.6105 265.555 98.6105V24.7418C265.466 24.7418 255.866 25.3693 255.777 36.6648ZM237.565 89.0184C229.939 89.0184 223.749 82.8328 223.749 75.2128C223.749 67.5928 229.939 61.4072 237.565 61.4072C245.19 61.4072 251.381 67.5928 251.381 75.2128C251.381 82.9224 245.19 89.0184 237.565 89.0184Z" fill="white"/>
</mask>
<g mask="url(#mask31_678_932)">
<path d="M257.031 24.7423H255.865V101.121H257.031V24.7423Z" fill="#0D7FD1"/>
</g>
<mask id="mask32_678_932" style="mask-type:luminance" maskUnits="userSpaceOnUse" x="211" y="24" width="55" height="78">
<path d="M255.777 36.6648C255.597 47.8706 255.777 56.8353 255.777 56.8353V56.9249C251.111 52.3529 244.742 49.4843 237.565 49.4843C223.3 49.4843 211.727 61.0487 211.727 75.3024C211.727 89.5562 223.3 101.121 237.565 101.121C244.742 101.121 251.291 98.1623 256.046 93.411C256.674 95.204 258.647 98.6105 265.555 98.6105V24.7418C265.466 24.7418 255.866 25.3693 255.777 36.6648ZM237.565 89.0184C229.939 89.0184 223.749 82.8328 223.749 75.2128C223.749 67.5928 229.939 61.4072 237.565 61.4072C245.19 61.4072 251.381 67.5928 251.381 75.2128C251.381 82.9224 245.19 89.0184 237.565 89.0184Z" fill="white"/>
</mask>
<g mask="url(#mask32_678_932)">
<path d="M255.865 24.7423H254.698V101.121H255.865V24.7423Z" fill="#0C7ED0"/>
</g>
<mask id="mask33_678_932" style="mask-type:luminance" maskUnits="userSpaceOnUse" x="211" y="24" width="55" height="78">
<path d="M255.777 36.6648C255.597 47.8706 255.777 56.8353 255.777 56.8353V56.9249C251.111 52.3529 244.742 49.4843 237.565 49.4843C223.3 49.4843 211.727 61.0487 211.727 75.3024C211.727 89.5562 223.3 101.121 237.565 101.121C244.742 101.121 251.291 98.1623 256.046 93.411C256.674 95.204 258.647 98.6105 265.555 98.6105V24.7418C265.466 24.7418 255.866 25.3693 255.777 36.6648ZM237.565 89.0184C229.939 89.0184 223.749 82.8328 223.749 75.2128C223.749 67.5928 229.939 61.4072 237.565 61.4072C245.19 61.4072 251.381 67.5928 251.381 75.2128C251.381 82.9224 245.19 89.0184 237.565 89.0184Z" fill="white"/>
</mask>
<g mask="url(#mask33_678_932)">
<path d="M254.699 24.7423H253.532V101.121H254.699V24.7423Z" fill="#0C7DCF"/>
</g>
<mask id="mask34_678_932" style="mask-type:luminance" maskUnits="userSpaceOnUse" x="211" y="24" width="55" height="78">
<path d="M255.777 36.6648C255.597 47.8706 255.777 56.8353 255.777 56.8353V56.9249C251.111 52.3529 244.742 49.4843 237.565 49.4843C223.3 49.4843 211.727 61.0487 211.727 75.3024C211.727 89.5562 223.3 101.121 237.565 101.121C244.742 101.121 251.291 98.1623 256.046 93.411C256.674 95.204 258.647 98.6105 265.555 98.6105V24.7418C265.466 24.7418 255.866 25.3693 255.777 36.6648ZM237.565 89.0184C229.939 89.0184 223.749 82.8328 223.749 75.2128C223.749 67.5928 229.939 61.4072 237.565 61.4072C245.19 61.4072 251.381 67.5928 251.381 75.2128C251.381 82.9224 245.19 89.0184 237.565 89.0184Z" fill="white"/>
</mask>
<g mask="url(#mask34_678_932)">
<path d="M253.443 24.7423H252.276V101.121H253.443V24.7423Z" fill="#0C7CCE"/>
</g>
<mask id="mask35_678_932" style="mask-type:luminance" maskUnits="userSpaceOnUse" x="211" y="24" width="55" height="78">
<path d="M255.777 36.6648C255.597 47.8706 255.777 56.8353 255.777 56.8353V56.9249C251.111 52.3529 244.742 49.4843 237.565 49.4843C223.3 49.4843 211.727 61.0487 211.727 75.3024C211.727 89.5562 223.3 101.121 237.565 101.121C244.742 101.121 251.291 98.1623 256.046 93.411C256.674 95.204 258.647 98.6105 265.555 98.6105V24.7418C265.466 24.7418 255.866 25.3693 255.777 36.6648ZM237.565 89.0184C229.939 89.0184 223.749 82.8328 223.749 75.2128C223.749 67.5928 229.939 61.4072 237.565 61.4072C245.19 61.4072 251.381 67.5928 251.381 75.2128C251.381 82.9224 245.19 89.0184 237.565 89.0184Z" fill="white"/>
</mask>
<g mask="url(#mask35_678_932)">
<path d="M252.276 24.7423H251.11V101.121H252.276V24.7423Z" fill="#0C7BCD"/>
</g>
<mask id="mask36_678_932" style="mask-type:luminance" maskUnits="userSpaceOnUse" x="211" y="24" width="55" height="78">
<path d="M255.777 36.6648C255.597 47.8706 255.777 56.8353 255.777 56.8353V56.9249C251.111 52.3529 244.742 49.4843 237.565 49.4843C223.3 49.4843 211.727 61.0487 211.727 75.3024C211.727 89.5562 223.3 101.121 237.565 101.121C244.742 101.121 251.291 98.1623 256.046 93.411C256.674 95.204 258.647 98.6105 265.555 98.6105V24.7418C265.466 24.7418 255.866 25.3693 255.777 36.6648ZM237.565 89.0184C229.939 89.0184 223.749 82.8328 223.749 75.2128C223.749 67.5928 229.939 61.4072 237.565 61.4072C245.19 61.4072 251.381 67.5928 251.381 75.2128C251.381 82.9224 245.19 89.0184 237.565 89.0184Z" fill="white"/>
</mask>
<g mask="url(#mask36_678_932)">
<path d="M251.11 24.7423H249.944V101.121H251.11V24.7423Z" fill="#0C7ACC"/>
</g>
<mask id="mask37_678_932" style="mask-type:luminance" maskUnits="userSpaceOnUse" x="211" y="24" width="55" height="78">
<path d="M255.777 36.6648C255.597 47.8706 255.777 56.8353 255.777 56.8353V56.9249C251.111 52.3529 244.742 49.4843 237.565 49.4843C223.3 49.4843 211.727 61.0487 211.727 75.3024C211.727 89.5562 223.3 101.121 237.565 101.121C244.742 101.121 251.291 98.1623 256.046 93.411C256.674 95.204 258.647 98.6105 265.555 98.6105V24.7418C265.466 24.7418 255.866 25.3693 255.777 36.6648ZM237.565 89.0184C229.939 89.0184 223.749 82.8328 223.749 75.2128C223.749 67.5928 229.939 61.4072 237.565 61.4072C245.19 61.4072 251.381 67.5928 251.381 75.2128C251.381 82.9224 245.19 89.0184 237.565 89.0184Z" fill="white"/>
</mask>
<g mask="url(#mask37_678_932)">
<path d="M249.944 24.7423H248.778V101.121H249.944V24.7423Z" fill="#0B79CB"/>
</g>
<mask id="mask38_678_932" style="mask-type:luminance" maskUnits="userSpaceOnUse" x="211" y="24" width="55" height="78">
<path d="M255.777 36.6648C255.597 47.8706 255.777 56.8353 255.777 56.8353V56.9249C251.111 52.3529 244.742 49.4843 237.565 49.4843C223.3 49.4843 211.727 61.0487 211.727 75.3024C211.727 89.5562 223.3 101.121 237.565 101.121C244.742 101.121 251.291 98.1623 256.046 93.411C256.674 95.204 258.647 98.6105 265.555 98.6105V24.7418C265.466 24.7418 255.866 25.3693 255.777 36.6648ZM237.565 89.0184C229.939 89.0184 223.749 82.8328 223.749 75.2128C223.749 67.5928 229.939 61.4072 237.565 61.4072C245.19 61.4072 251.381 67.5928 251.381 75.2128C251.381 82.9224 245.19 89.0184 237.565 89.0184Z" fill="white"/>
</mask>
<g mask="url(#mask38_678_932)">
<path d="M248.688 24.7423H247.522V101.121H248.688V24.7423Z" fill="#0B78CA"/>
</g>
<mask id="mask39_678_932" style="mask-type:luminance" maskUnits="userSpaceOnUse" x="211" y="24" width="55" height="78">
<path d="M255.777 36.6648C255.597 47.8706 255.777 56.8353 255.777 56.8353V56.9249C251.111 52.3529 244.742 49.4843 237.565 49.4843C223.3 49.4843 211.727 61.0487 211.727 75.3024C211.727 89.5562 223.3 101.121 237.565 101.121C244.742 101.121 251.291 98.1623 256.046 93.411C256.674 95.204 258.647 98.6105 265.555 98.6105V24.7418C265.466 24.7418 255.866 25.3693 255.777 36.6648ZM237.565 89.0184C229.939 89.0184 223.749 82.8328 223.749 75.2128C223.749 67.5928 229.939 61.4072 237.565 61.4072C245.19 61.4072 251.381 67.5928 251.381 75.2128C251.381 82.9224 245.19 89.0184 237.565 89.0184Z" fill="white"/>
</mask>
<g mask="url(#mask39_678_932)">
<path d="M247.522 24.7423H246.356V101.121H247.522V24.7423Z" fill="#0B77C9"/>
</g>
<mask id="mask40_678_932" style="mask-type:luminance" maskUnits="userSpaceOnUse" x="211" y="24" width="55" height="78">
<path d="M255.777 36.6648C255.597 47.8706 255.777 56.8353 255.777 56.8353V56.9249C251.111 52.3529 244.742 49.4843 237.565 49.4843C223.3 49.4843 211.727 61.0487 211.727 75.3024C211.727 89.5562 223.3 101.121 237.565 101.121C244.742 101.121 251.291 98.1623 256.046 93.411C256.674 95.204 258.647 98.6105 265.555 98.6105V24.7418C265.466 24.7418 255.866 25.3693 255.777 36.6648ZM237.565 89.0184C229.939 89.0184 223.749 82.8328 223.749 75.2128C223.749 67.5928 229.939 61.4072 237.565 61.4072C245.19 61.4072 251.381 67.5928 251.381 75.2128C251.381 82.9224 245.19 89.0184 237.565 89.0184Z" fill="white"/>
</mask>
<g mask="url(#mask40_678_932)">
<path d="M246.356 24.7423H245.19V101.121H246.356V24.7423Z" fill="#0B76C8"/>
</g>
<mask id="mask41_678_932" style="mask-type:luminance" maskUnits="userSpaceOnUse" x="211" y="24" width="55" height="78">
<path d="M255.777 36.6648C255.597 47.8706 255.777 56.8353 255.777 56.8353V56.9249C251.111 52.3529 244.742 49.4843 237.565 49.4843C223.3 49.4843 211.727 61.0487 211.727 75.3024C211.727 89.5562 223.3 101.121 237.565 101.121C244.742 101.121 251.291 98.1623 256.046 93.411C256.674 95.204 258.647 98.6105 265.555 98.6105V24.7418C265.466 24.7418 255.866 25.3693 255.777 36.6648ZM237.565 89.0184C229.939 89.0184 223.749 82.8328 223.749 75.2128C223.749 67.5928 229.939 61.4072 237.565 61.4072C245.19 61.4072 251.381 67.5928 251.381 75.2128C251.381 82.9224 245.19 89.0184 237.565 89.0184Z" fill="white"/>
</mask>
<g mask="url(#mask41_678_932)">
<path d="M245.1 24.7423H243.934V101.121H245.1V24.7423Z" fill="#0B75C7"/>
</g>
<mask id="mask42_678_932" style="mask-type:luminance" maskUnits="userSpaceOnUse" x="211" y="24" width="55" height="78">
<path d="M255.777 36.6648C255.597 47.8706 255.777 56.8353 255.777 56.8353V56.9249C251.111 52.3529 244.742 49.4843 237.565 49.4843C223.3 49.4843 211.727 61.0487 211.727 75.3024C211.727 89.5562 223.3 101.121 237.565 101.121C244.742 101.121 251.291 98.1623 256.046 93.411C256.674 95.204 258.647 98.6105 265.555 98.6105V24.7418C265.466 24.7418 255.866 25.3693 255.777 36.6648ZM237.565 89.0184C229.939 89.0184 223.749 82.8328 223.749 75.2128C223.749 67.5928 229.939 61.4072 237.565 61.4072C245.19 61.4072 251.381 67.5928 251.381 75.2128C251.381 82.9224 245.19 89.0184 237.565 89.0184Z" fill="white"/>
</mask>
<g mask="url(#mask42_678_932)">
<path d="M243.934 24.7423H242.768V101.121H243.934V24.7423Z" fill="#0A74C6"/>
</g>
<mask id="mask43_678_932" style="mask-type:luminance" maskUnits="userSpaceOnUse" x="211" y="24" width="55" height="78">
<path d="M255.777 36.6648C255.597 47.8706 255.777 56.8353 255.777 56.8353V56.9249C251.111 52.3529 244.742 49.4843 237.565 49.4843C223.3 49.4843 211.727 61.0487 211.727 75.3024C211.727 89.5562 223.3 101.121 237.565 101.121C244.742 101.121 251.291 98.1623 256.046 93.411C256.674 95.204 258.647 98.6105 265.555 98.6105V24.7418C265.466 24.7418 255.866 25.3693 255.777 36.6648ZM237.565 89.0184C229.939 89.0184 223.749 82.8328 223.749 75.2128C223.749 67.5928 229.939 61.4072 237.565 61.4072C245.19 61.4072 251.381 67.5928 251.381 75.2128C251.381 82.9224 245.19 89.0184 237.565 89.0184Z" fill="white"/>
</mask>
<g mask="url(#mask43_678_932)">
<path d="M242.768 24.7423H241.601V101.121H242.768V24.7423Z" fill="#0A73C5"/>
</g>
<mask id="mask44_678_932" style="mask-type:luminance" maskUnits="userSpaceOnUse" x="211" y="24" width="55" height="78">
<path d="M255.777 36.6648C255.597 47.8706 255.777 56.8353 255.777 56.8353V56.9249C251.111 52.3529 244.742 49.4843 237.565 49.4843C223.3 49.4843 211.727 61.0487 211.727 75.3024C211.727 89.5562 223.3 101.121 237.565 101.121C244.742 101.121 251.291 98.1623 256.046 93.411C256.674 95.204 258.647 98.6105 265.555 98.6105V24.7418C265.466 24.7418 255.866 25.3693 255.777 36.6648ZM237.565 89.0184C229.939 89.0184 223.749 82.8328 223.749 75.2128C223.749 67.5928 229.939 61.4072 237.565 61.4072C245.19 61.4072 251.381 67.5928 251.381 75.2128C251.381 82.9224 245.19 89.0184 237.565 89.0184Z" fill="white"/>
</mask>
<g mask="url(#mask44_678_932)">
<path d="M241.511 24.7423H240.345V101.121H241.511V24.7423Z" fill="#0A72C4"/>
</g>
<mask id="mask45_678_932" style="mask-type:luminance" maskUnits="userSpaceOnUse" x="211" y="24" width="55" height="78">
<path d="M255.777 36.6648C255.597 47.8706 255.777 56.8353 255.777 56.8353V56.9249C251.111 52.3529 244.742 49.4843 237.565 49.4843C223.3 49.4843 211.727 61.0487 211.727 75.3024C211.727 89.5562 223.3 101.121 237.565 101.121C244.742 101.121 251.291 98.1623 256.046 93.411C256.674 95.204 258.647 98.6105 265.555 98.6105V24.7418C265.466 24.7418 255.866 25.3693 255.777 36.6648ZM237.565 89.0184C229.939 89.0184 223.749 82.8328 223.749 75.2128C223.749 67.5928 229.939 61.4072 237.565 61.4072C245.19 61.4072 251.381 67.5928 251.381 75.2128C251.381 82.9224 245.19 89.0184 237.565 89.0184Z" fill="white"/>
</mask>
<g mask="url(#mask45_678_932)">
<path d="M240.344 24.7423H239.177V101.121H240.344V24.7423Z" fill="#0A71C3"/>
</g>
<mask id="mask46_678_932" style="mask-type:luminance" maskUnits="userSpaceOnUse" x="211" y="24" width="55" height="78">
<path d="M255.777 36.6648C255.597 47.8706 255.777 56.8353 255.777 56.8353V56.9249C251.111 52.3529 244.742 49.4843 237.565 49.4843C223.3 49.4843 211.727 61.0487 211.727 75.3024C211.727 89.5562 223.3 101.121 237.565 101.121C244.742 101.121 251.291 98.1623 256.046 93.411C256.674 95.204 258.647 98.6105 265.555 98.6105V24.7418C265.466 24.7418 255.866 25.3693 255.777 36.6648ZM237.565 89.0184C229.939 89.0184 223.749 82.8328 223.749 75.2128C223.749 67.5928 229.939 61.4072 237.565 61.4072C245.19 61.4072 251.381 67.5928 251.381 75.2128C251.381 82.9224 245.19 89.0184 237.565 89.0184Z" fill="white"/>
</mask>
<g mask="url(#mask46_678_932)">
<path d="M239.178 24.7423H238.011V101.121H239.178V24.7423Z" fill="#0A70C2"/>
</g>
<mask id="mask47_678_932" style="mask-type:luminance" maskUnits="userSpaceOnUse" x="211" y="24" width="55" height="78">
<path d="M255.777 36.6648C255.597 47.8706 255.777 56.8353 255.777 56.8353V56.9249C251.111 52.3529 244.742 49.4843 237.565 49.4843C223.3 49.4843 211.727 61.0487 211.727 75.3024C211.727 89.5562 223.3 101.121 237.565 101.121C244.742 101.121 251.291 98.1623 256.046 93.411C256.674 95.204 258.647 98.6105 265.555 98.6105V24.7418C265.466 24.7418 255.866 25.3693 255.777 36.6648ZM237.565 89.0184C229.939 89.0184 223.749 82.8328 223.749 75.2128C223.749 67.5928 229.939 61.4072 237.565 61.4072C245.19 61.4072 251.381 67.5928 251.381 75.2128C251.381 82.9224 245.19 89.0184 237.565 89.0184Z" fill="white"/>
</mask>
<g mask="url(#mask47_678_932)">
<path d="M237.923 24.7423H236.757V101.121H237.923V24.7423Z" fill="#096FC0"/>
</g>
<mask id="mask48_678_932" style="mask-type:luminance" maskUnits="userSpaceOnUse" x="211" y="24" width="55" height="78">
<path d="M255.777 36.6648C255.597 47.8706 255.777 56.8353 255.777 56.8353V56.9249C251.111 52.3529 244.742 49.4843 237.565 49.4843C223.3 49.4843 211.727 61.0487 211.727 75.3024C211.727 89.5562 223.3 101.121 237.565 101.121C244.742 101.121 251.291 98.1623 256.046 93.411C256.674 95.204 258.647 98.6105 265.555 98.6105V24.7418C265.466 24.7418 255.866 25.3693 255.777 36.6648ZM237.565 89.0184C229.939 89.0184 223.749 82.8328 223.749 75.2128C223.749 67.5928 229.939 61.4072 237.565 61.4072C245.19 61.4072 251.381 67.5928 251.381 75.2128C251.381 82.9224 245.19 89.0184 237.565 89.0184Z" fill="white"/>
</mask>
<g mask="url(#mask48_678_932)">
<path d="M236.757 24.7423H235.591V101.121H236.757V24.7423Z" fill="#096EBF"/>
</g>
<mask id="mask49_678_932" style="mask-type:luminance" maskUnits="userSpaceOnUse" x="211" y="24" width="55" height="78">
<path d="M255.777 36.6648C255.597 47.8706 255.777 56.8353 255.777 56.8353V56.9249C251.111 52.3529 244.742 49.4843 237.565 49.4843C223.3 49.4843 211.727 61.0487 211.727 75.3024C211.727 89.5562 223.3 101.121 237.565 101.121C244.742 101.121 251.291 98.1623 256.046 93.411C256.674 95.204 258.647 98.6105 265.555 98.6105V24.7418C265.466 24.7418 255.866 25.3693 255.777 36.6648ZM237.565 89.0184C229.939 89.0184 223.749 82.8328 223.749 75.2128C223.749 67.5928 229.939 61.4072 237.565 61.4072C245.19 61.4072 251.381 67.5928 251.381 75.2128C251.381 82.9224 245.19 89.0184 237.565 89.0184Z" fill="white"/>
</mask>
<g mask="url(#mask49_678_932)">
<path d="M235.591 24.7423H234.425V101.121H235.591V24.7423Z" fill="#096DBE"/>
</g>
<mask id="mask50_678_932" style="mask-type:luminance" maskUnits="userSpaceOnUse" x="211" y="24" width="55" height="78">
<path d="M255.777 36.6648C255.597 47.8706 255.777 56.8353 255.777 56.8353V56.9249C251.111 52.3529 244.742 49.4843 237.565 49.4843C223.3 49.4843 211.727 61.0487 211.727 75.3024C211.727 89.5562 223.3 101.121 237.565 101.121C244.742 101.121 251.291 98.1623 256.046 93.411C256.674 95.204 258.647 98.6105 265.555 98.6105V24.7418C265.466 24.7418 255.866 25.3693 255.777 36.6648ZM237.565 89.0184C229.939 89.0184 223.749 82.8328 223.749 75.2128C223.749 67.5928 229.939 61.4072 237.565 61.4072C245.19 61.4072 251.381 67.5928 251.381 75.2128C251.381 82.9224 245.19 89.0184 237.565 89.0184Z" fill="white"/>
</mask>
<g mask="url(#mask50_678_932)">
<path d="M234.335 24.7423H233.169V101.121H234.335V24.7423Z" fill="#096CBD"/>
</g>
<mask id="mask51_678_932" style="mask-type:luminance" maskUnits="userSpaceOnUse" x="211" y="24" width="55" height="78">
<path d="M255.777 36.6648C255.597 47.8706 255.777 56.8353 255.777 56.8353V56.9249C251.111 52.3529 244.742 49.4843 237.565 49.4843C223.3 49.4843 211.727 61.0487 211.727 75.3024C211.727 89.5562 223.3 101.121 237.565 101.121C244.742 101.121 251.291 98.1623 256.046 93.411C256.674 95.204 258.647 98.6105 265.555 98.6105V24.7418C265.466 24.7418 255.866 25.3693 255.777 36.6648ZM237.565 89.0184C229.939 89.0184 223.749 82.8328 223.749 75.2128C223.749 67.5928 229.939 61.4072 237.565 61.4072C245.19 61.4072 251.381 67.5928 251.381 75.2128C251.381 82.9224 245.19 89.0184 237.565 89.0184Z" fill="white"/>
</mask>
<g mask="url(#mask51_678_932)">
<path d="M233.169 24.7423H232.003V101.121H233.169V24.7423Z" fill="#086BBC"/>
</g>
<mask id="mask52_678_932" style="mask-type:luminance" maskUnits="userSpaceOnUse" x="211" y="24" width="55" height="78">
<path d="M255.777 36.6648C255.597 47.8706 255.777 56.8353 255.777 56.8353V56.9249C251.111 52.3529 244.742 49.4843 237.565 49.4843C223.3 49.4843 211.727 61.0487 211.727 75.3024C211.727 89.5562 223.3 101.121 237.565 101.121C244.742 101.121 251.291 98.1623 256.046 93.411C256.674 95.204 258.647 98.6105 265.555 98.6105V24.7418C265.466 24.7418 255.866 25.3693 255.777 36.6648ZM237.565 89.0184C229.939 89.0184 223.749 82.8328 223.749 75.2128C223.749 67.5928 229.939 61.4072 237.565 61.4072C245.19 61.4072 251.381 67.5928 251.381 75.2128C251.381 82.9224 245.19 89.0184 237.565 89.0184Z" fill="white"/>
</mask>
<g mask="url(#mask52_678_932)">
<path d="M232.003 24.7423H230.836V101.121H232.003V24.7423Z" fill="#086ABB"/>
</g>
<mask id="mask53_678_932" style="mask-type:luminance" maskUnits="userSpaceOnUse" x="211" y="24" width="55" height="78">
<path d="M255.777 36.6648C255.597 47.8706 255.777 56.8353 255.777 56.8353V56.9249C251.111 52.3529 244.742 49.4843 237.565 49.4843C223.3 49.4843 211.727 61.0487 211.727 75.3024C211.727 89.5562 223.3 101.121 237.565 101.121C244.742 101.121 251.291 98.1623 256.046 93.411C256.674 95.204 258.647 98.6105 265.555 98.6105V24.7418C265.466 24.7418 255.866 25.3693 255.777 36.6648ZM237.565 89.0184C229.939 89.0184 223.749 82.8328 223.749 75.2128C223.749 67.5928 229.939 61.4072 237.565 61.4072C245.19 61.4072 251.381 67.5928 251.381 75.2128C251.381 82.9224 245.19 89.0184 237.565 89.0184Z" fill="white"/>
</mask>
<g mask="url(#mask53_678_932)">
<path d="M230.747 24.7423H229.58V101.121H230.747V24.7423Z" fill="#0869BA"/>
</g>
<mask id="mask54_678_932" style="mask-type:luminance" maskUnits="userSpaceOnUse" x="211" y="24" width="55" height="78">
<path d="M255.777 36.6648C255.597 47.8706 255.777 56.8353 255.777 56.8353V56.9249C251.111 52.3529 244.742 49.4843 237.565 49.4843C223.3 49.4843 211.727 61.0487 211.727 75.3024C211.727 89.5562 223.3 101.121 237.565 101.121C244.742 101.121 251.291 98.1623 256.046 93.411C256.674 95.204 258.647 98.6105 265.555 98.6105V24.7418C265.466 24.7418 255.866 25.3693 255.777 36.6648ZM237.565 89.0184C229.939 89.0184 223.749 82.8328 223.749 75.2128C223.749 67.5928 229.939 61.4072 237.565 61.4072C245.19 61.4072 251.381 67.5928 251.381 75.2128C251.381 82.9224 245.19 89.0184 237.565 89.0184Z" fill="white"/>
</mask>
<g mask="url(#mask54_678_932)">
<path d="M229.581 24.7423H228.414V101.121H229.581V24.7423Z" fill="#0868B9"/>
</g>
<mask id="mask55_678_932" style="mask-type:luminance" maskUnits="userSpaceOnUse" x="211" y="24" width="55" height="78">
<path d="M255.777 36.6648C255.597 47.8706 255.777 56.8353 255.777 56.8353V56.9249C251.111 52.3529 244.742 49.4843 237.565 49.4843C223.3 49.4843 211.727 61.0487 211.727 75.3024C211.727 89.5562 223.3 101.121 237.565 101.121C244.742 101.121 251.291 98.1623 256.046 93.411C256.674 95.204 258.647 98.6105 265.555 98.6105V24.7418C265.466 24.7418 255.866 25.3693 255.777 36.6648ZM237.565 89.0184C229.939 89.0184 223.749 82.8328 223.749 75.2128C223.749 67.5928 229.939 61.4072 237.565 61.4072C245.19 61.4072 251.381 67.5928 251.381 75.2128C251.381 82.9224 245.19 89.0184 237.565 89.0184Z" fill="white"/>
</mask>
<g mask="url(#mask55_678_932)">
<path d="M228.415 24.7423H227.248V101.121H228.415V24.7423Z" fill="#0867B8"/>
</g>
<mask id="mask56_678_932" style="mask-type:luminance" maskUnits="userSpaceOnUse" x="211" y="24" width="55" height="78">
<path d="M255.777 36.6648C255.597 47.8706 255.777 56.8353 255.777 56.8353V56.9249C251.111 52.3529 244.742 49.4843 237.565 49.4843C223.3 49.4843 211.727 61.0487 211.727 75.3024C211.727 89.5562 223.3 101.121 237.565 101.121C244.742 101.121 251.291 98.1623 256.046 93.411C256.674 95.204 258.647 98.6105 265.555 98.6105V24.7418C265.466 24.7418 255.866 25.3693 255.777 36.6648ZM237.565 89.0184C229.939 89.0184 223.749 82.8328 223.749 75.2128C223.749 67.5928 229.939 61.4072 237.565 61.4072C245.19 61.4072 251.381 67.5928 251.381 75.2128C251.381 82.9224 245.19 89.0184 237.565 89.0184Z" fill="white"/>
</mask>
<g mask="url(#mask56_678_932)">
<path d="M227.158 24.7423H225.992V101.121H227.158V24.7423Z" fill="#0766B7"/>
</g>
<mask id="mask57_678_932" style="mask-type:luminance" maskUnits="userSpaceOnUse" x="211" y="24" width="55" height="78">
<path d="M255.777 36.6648C255.597 47.8706 255.777 56.8353 255.777 56.8353V56.9249C251.111 52.3529 244.742 49.4843 237.565 49.4843C223.3 49.4843 211.727 61.0487 211.727 75.3024C211.727 89.5562 223.3 101.121 237.565 101.121C244.742 101.121 251.291 98.1623 256.046 93.411C256.674 95.204 258.647 98.6105 265.555 98.6105V24.7418C265.466 24.7418 255.866 25.3693 255.777 36.6648ZM237.565 89.0184C229.939 89.0184 223.749 82.8328 223.749 75.2128C223.749 67.5928 229.939 61.4072 237.565 61.4072C245.19 61.4072 251.381 67.5928 251.381 75.2128C251.381 82.9224 245.19 89.0184 237.565 89.0184Z" fill="white"/>
</mask>
<g mask="url(#mask57_678_932)">
<path d="M225.992 24.7423H224.826V101.121H225.992V24.7423Z" fill="#0765B6"/>
</g>
<mask id="mask58_678_932" style="mask-type:luminance" maskUnits="userSpaceOnUse" x="211" y="24" width="55" height="78">
<path d="M255.777 36.6648C255.597 47.8706 255.777 56.8353 255.777 56.8353V56.9249C251.111 52.3529 244.742 49.4843 237.565 49.4843C223.3 49.4843 211.727 61.0487 211.727 75.3024C211.727 89.5562 223.3 101.121 237.565 101.121C244.742 101.121 251.291 98.1623 256.046 93.411C256.674 95.204 258.647 98.6105 265.555 98.6105V24.7418C265.466 24.7418 255.866 25.3693 255.777 36.6648ZM237.565 89.0184C229.939 89.0184 223.749 82.8328 223.749 75.2128C223.749 67.5928 229.939 61.4072 237.565 61.4072C245.19 61.4072 251.381 67.5928 251.381 75.2128C251.381 82.9224 245.19 89.0184 237.565 89.0184Z" fill="white"/>
</mask>
<g mask="url(#mask58_678_932)">
<path d="M224.824 24.7423H223.658V101.121H224.824V24.7423Z" fill="#0764B5"/>
</g>
<mask id="mask59_678_932" style="mask-type:luminance" maskUnits="userSpaceOnUse" x="211" y="24" width="55" height="78">
<path d="M255.777 36.6648C255.597 47.8706 255.777 56.8353 255.777 56.8353V56.9249C251.111 52.3529 244.742 49.4843 237.565 49.4843C223.3 49.4843 211.727 61.0487 211.727 75.3024C211.727 89.5562 223.3 101.121 237.565 101.121C244.742 101.121 251.291 98.1623 256.046 93.411C256.674 95.204 258.647 98.6105 265.555 98.6105V24.7418C265.466 24.7418 255.866 25.3693 255.777 36.6648ZM237.565 89.0184C229.939 89.0184 223.749 82.8328 223.749 75.2128C223.749 67.5928 229.939 61.4072 237.565 61.4072C245.19 61.4072 251.381 67.5928 251.381 75.2128C251.381 82.9224 245.19 89.0184 237.565 89.0184Z" fill="white"/>
</mask>
<g mask="url(#mask59_678_932)">
<path d="M223.568 24.7423H222.402V101.121H223.568V24.7423Z" fill="#0763B4"/>
</g>
<mask id="mask60_678_932" style="mask-type:luminance" maskUnits="userSpaceOnUse" x="211" y="24" width="55" height="78">
<path d="M255.777 36.6648C255.597 47.8706 255.777 56.8353 255.777 56.8353V56.9249C251.111 52.3529 244.742 49.4843 237.565 49.4843C223.3 49.4843 211.727 61.0487 211.727 75.3024C211.727 89.5562 223.3 101.121 237.565 101.121C244.742 101.121 251.291 98.1623 256.046 93.411C256.674 95.204 258.647 98.6105 265.555 98.6105V24.7418C265.466 24.7418 255.866 25.3693 255.777 36.6648ZM237.565 89.0184C229.939 89.0184 223.749 82.8328 223.749 75.2128C223.749 67.5928 229.939 61.4072 237.565 61.4072C245.19 61.4072 251.381 67.5928 251.381 75.2128C251.381 82.9224 245.19 89.0184 237.565 89.0184Z" fill="white"/>
</mask>
<g mask="url(#mask60_678_932)">
<path d="M222.402 24.7423H221.236V101.121H222.402V24.7423Z" fill="#0762B3"/>
</g>
<mask id="mask61_678_932" style="mask-type:luminance" maskUnits="userSpaceOnUse" x="211" y="24" width="55" height="78">
<path d="M255.777 36.6648C255.597 47.8706 255.777 56.8353 255.777 56.8353V56.9249C251.111 52.3529 244.742 49.4843 237.565 49.4843C223.3 49.4843 211.727 61.0487 211.727 75.3024C211.727 89.5562 223.3 101.121 237.565 101.121C244.742 101.121 251.291 98.1623 256.046 93.411C256.674 95.204 258.647 98.6105 265.555 98.6105V24.7418C265.466 24.7418 255.866 25.3693 255.777 36.6648ZM237.565 89.0184C229.939 89.0184 223.749 82.8328 223.749 75.2128C223.749 67.5928 229.939 61.4072 237.565 61.4072C245.19 61.4072 251.381 67.5928 251.381 75.2128C251.381 82.9224 245.19 89.0184 237.565 89.0184Z" fill="white"/>
</mask>
<g mask="url(#mask61_678_932)">
<path d="M221.236 24.7423H220.07V101.121H221.236V24.7423Z" fill="#0661B2"/>
</g>
<mask id="mask62_678_932" style="mask-type:luminance" maskUnits="userSpaceOnUse" x="211" y="24" width="55" height="78">
<path d="M255.777 36.6648C255.597 47.8706 255.777 56.8353 255.777 56.8353V56.9249C251.111 52.3529 244.742 49.4843 237.565 49.4843C223.3 49.4843 211.727 61.0487 211.727 75.3024C211.727 89.5562 223.3 101.121 237.565 101.121C244.742 101.121 251.291 98.1623 256.046 93.411C256.674 95.204 258.647 98.6105 265.555 98.6105V24.7418C265.466 24.7418 255.866 25.3693 255.777 36.6648ZM237.565 89.0184C229.939 89.0184 223.749 82.8328 223.749 75.2128C223.749 67.5928 229.939 61.4072 237.565 61.4072C245.19 61.4072 251.381 67.5928 251.381 75.2128C251.381 82.9224 245.19 89.0184 237.565 89.0184Z" fill="white"/>
</mask>
<g mask="url(#mask62_678_932)">
<path d="M219.98 24.7423H218.813V101.121H219.98V24.7423Z" fill="#0660B1"/>
</g>
<mask id="mask63_678_932" style="mask-type:luminance" maskUnits="userSpaceOnUse" x="211" y="24" width="55" height="78">
<path d="M255.777 36.6648C255.597 47.8706 255.777 56.8353 255.777 56.8353V56.9249C251.111 52.3529 244.742 49.4843 237.565 49.4843C223.3 49.4843 211.727 61.0487 211.727 75.3024C211.727 89.5562 223.3 101.121 237.565 101.121C244.742 101.121 251.291 98.1623 256.046 93.411C256.674 95.204 258.647 98.6105 265.555 98.6105V24.7418C265.466 24.7418 255.866 25.3693 255.777 36.6648ZM237.565 89.0184C229.939 89.0184 223.749 82.8328 223.749 75.2128C223.749 67.5928 229.939 61.4072 237.565 61.4072C245.19 61.4072 251.381 67.5928 251.381 75.2128C251.381 82.9224 245.19 89.0184 237.565 89.0184Z" fill="white"/>
</mask>
<g mask="url(#mask63_678_932)">
<path d="M218.814 24.7423H217.647V101.121H218.814V24.7423Z" fill="#065FB0"/>
</g>
<mask id="mask64_678_932" style="mask-type:luminance" maskUnits="userSpaceOnUse" x="211" y="24" width="55" height="78">
<path d="M255.777 36.6648C255.597 47.8706 255.777 56.8353 255.777 56.8353V56.9249C251.111 52.3529 244.742 49.4843 237.565 49.4843C223.3 49.4843 211.727 61.0487 211.727 75.3024C211.727 89.5562 223.3 101.121 237.565 101.121C244.742 101.121 251.291 98.1623 256.046 93.411C256.674 95.204 258.647 98.6105 265.555 98.6105V24.7418C265.466 24.7418 255.866 25.3693 255.777 36.6648ZM237.565 89.0184C229.939 89.0184 223.749 82.8328 223.749 75.2128C223.749 67.5928 229.939 61.4072 237.565 61.4072C245.19 61.4072 251.381 67.5928 251.381 75.2128C251.381 82.9224 245.19 89.0184 237.565 89.0184Z" fill="white"/>
</mask>
<g mask="url(#mask64_678_932)">
<path d="M217.648 24.7423H216.481V101.121H217.648V24.7423Z" fill="#065EAF"/>
</g>
<mask id="mask65_678_932" style="mask-type:luminance" maskUnits="userSpaceOnUse" x="211" y="24" width="55" height="78">
<path d="M255.777 36.6648C255.597 47.8706 255.777 56.8353 255.777 56.8353V56.9249C251.111 52.3529 244.742 49.4843 237.565 49.4843C223.3 49.4843 211.727 61.0487 211.727 75.3024C211.727 89.5562 223.3 101.121 237.565 101.121C244.742 101.121 251.291 98.1623 256.046 93.411C256.674 95.204 258.647 98.6105 265.555 98.6105V24.7418C265.466 24.7418 255.866 25.3693 255.777 36.6648ZM237.565 89.0184C229.939 89.0184 223.749 82.8328 223.749 75.2128C223.749 67.5928 229.939 61.4072 237.565 61.4072C245.19 61.4072 251.381 67.5928 251.381 75.2128C251.381 82.9224 245.19 89.0184 237.565 89.0184Z" fill="white"/>
</mask>
<g mask="url(#mask65_678_932)">
<path d="M216.481 24.7423H215.315V101.121H216.481V24.7423Z" fill="#065DAE"/>
</g>
<mask id="mask66_678_932" style="mask-type:luminance" maskUnits="userSpaceOnUse" x="211" y="24" width="55" height="78">
<path d="M255.777 36.6648C255.597 47.8706 255.777 56.8353 255.777 56.8353V56.9249C251.111 52.3529 244.742 49.4843 237.565 49.4843C223.3 49.4843 211.727 61.0487 211.727 75.3024C211.727 89.5562 223.3 101.121 237.565 101.121C244.742 101.121 251.291 98.1623 256.046 93.411C256.674 95.204 258.647 98.6105 265.555 98.6105V24.7418C265.466 24.7418 255.866 25.3693 255.777 36.6648ZM237.565 89.0184C229.939 89.0184 223.749 82.8328 223.749 75.2128C223.749 67.5928 229.939 61.4072 237.565 61.4072C245.19 61.4072 251.381 67.5928 251.381 75.2128C251.381 82.9224 245.19 89.0184 237.565 89.0184Z" fill="white"/>
</mask>
<g mask="url(#mask66_678_932)">
<path d="M215.225 24.7423H214.059V101.121H215.225V24.7423Z" fill="#055CAD"/>
</g>
<mask id="mask67_678_932" style="mask-type:luminance" maskUnits="userSpaceOnUse" x="211" y="24" width="55" height="78">
<path d="M255.777 36.6648C255.597 47.8706 255.777 56.8353 255.777 56.8353V56.9249C251.111 52.3529 244.742 49.4843 237.565 49.4843C223.3 49.4843 211.727 61.0487 211.727 75.3024C211.727 89.5562 223.3 101.121 237.565 101.121C244.742 101.121 251.291 98.1623 256.046 93.411C256.674 95.204 258.647 98.6105 265.555 98.6105V24.7418C265.466 24.7418 255.866 25.3693 255.777 36.6648ZM237.565 89.0184C229.939 89.0184 223.749 82.8328 223.749 75.2128C223.749 67.5928 229.939 61.4072 237.565 61.4072C245.19 61.4072 251.381 67.5928 251.381 75.2128C251.381 82.9224 245.19 89.0184 237.565 89.0184Z" fill="white"/>
</mask>
<g mask="url(#mask67_678_932)">
<path d="M214.059 24.7423H212.893V101.121H214.059V24.7423Z" fill="#055BAC"/>
</g>
<mask id="mask68_678_932" style="mask-type:luminance" maskUnits="userSpaceOnUse" x="211" y="24" width="55" height="78">
<path d="M255.777 36.6648C255.597 47.8706 255.777 56.8353 255.777 56.8353V56.9249C251.111 52.3529 244.742 49.4843 237.565 49.4843C223.3 49.4843 211.727 61.0487 211.727 75.3024C211.727 89.5562 223.3 101.121 237.565 101.121C244.742 101.121 251.291 98.1623 256.046 93.411C256.674 95.204 258.647 98.6105 265.555 98.6105V24.7418C265.466 24.7418 255.866 25.3693 255.777 36.6648ZM237.565 89.0184C229.939 89.0184 223.749 82.8328 223.749 75.2128C223.749 67.5928 229.939 61.4072 237.565 61.4072C245.19 61.4072 251.381 67.5928 251.381 75.2128C251.381 82.9224 245.19 89.0184 237.565 89.0184Z" fill="white"/>
</mask>
<g mask="url(#mask68_678_932)">
<path d="M212.893 24.7423H211.727V101.121H212.893V24.7423Z" fill="#055AAB"/>
</g>
<path d="M87.6517 53.1617H97.6996V57.1958H97.8791C99.9425 54.2375 102.006 51.5481 107.658 51.5481H108.555V62.216C98.5968 62.6643 98.5968 70.4635 98.5968 73.2426V98.8815H87.562V53.1617H87.6517Z" fill="#0762B3"/>
<path d="M159.244 98.8809H149.196V93.1435C145.787 97.2673 138.968 100.226 133.227 100.226C121.474 100.226 110.978 90.8127 110.978 75.5728C110.978 61.5879 121.205 51.4579 133.855 51.4579C143.185 51.4579 148.747 58.1814 149.016 58.7193H149.196V52.8922H159.244V98.8809ZM135.559 61.6776C126.588 61.6776 121.923 69.3872 121.923 76.29C121.923 83.9996 127.754 90.3645 135.559 90.3645C143.095 90.3645 148.927 84.4478 148.927 75.9314C148.837 66.4289 142.108 61.6776 135.559 61.6776Z" fill="#0867B9"/>
<path d="M275.782 38.0105H286.817V48.0509H275.782V38.0105ZM275.782 53.1608H286.817V98.8805H275.782V53.1608Z" fill="#0B7ACB"/>
<path d="M295.698 53.1617H305.836V57.1062C307.72 55.3133 311.488 51.5481 318.306 51.5481C322.254 51.5481 328.264 53.341 332.032 57.913C336.249 62.9332 336.249 70.5532 336.249 74.0494V98.7022H325.214V76.3802C325.214 72.615 325.214 61.6782 315.974 61.6782C314 61.6782 310.411 62.6643 308.527 65.7122C306.554 68.4913 306.554 73.2426 306.554 77.0974V98.7918H295.519L295.698 53.1617Z" fill="#0D7FD1"/>
<path d="M391.869 53.1617V90.4547C391.869 112.418 375.631 117.438 366.928 117.438C357.508 117.438 347.909 112.508 343.962 102.288H356.522C360.828 107.398 366.121 107.398 367.736 107.398C373.926 107.398 381.193 103.095 381.731 93.1441L381.552 92.9648C380.026 95.0267 375.81 100.226 366.569 100.226C355.445 100.226 343.154 90.7236 343.154 75.4837C343.154 61.1403 354.817 51.5481 366.48 51.5481C375.9 51.5481 379.847 56.9269 381.103 58.6302H381.282V52.9824L391.869 53.1617ZM367.556 61.6782C360.918 61.6782 354.189 67.0569 354.189 75.663C354.189 84.9862 361.187 90.365 367.825 90.365C374.464 90.365 380.924 84.7173 380.924 75.5734C381.013 69.1188 375.72 61.6782 367.556 61.6782Z" fill="#0E85D7"/>
<path d="M8.88163 24.6528C8.88163 24.6528 24.4918 4.66162 46.7407 14.8813L54.1869 7.61995L22.9666 0L0 24.6528H8.88163Z" fill="#055AAB"/>
<path d="M15.3413 29.854L13.4573 23.9373C13.4573 23.9373 20.1858 14.1658 42.345 15.1519L45.3952 22.503C45.3952 22.503 30.2337 19.9929 15.3413 29.854Z" fill="#055AAB"/>
<path d="M6.01321 38.7297C7.30144 38.7297 8.34576 37.6862 8.34576 36.3989C8.34576 35.1117 7.30144 34.0681 6.01321 34.0681C4.72498 34.0681 3.68066 35.1117 3.68066 36.3989C3.68066 37.6862 4.72498 38.7297 6.01321 38.7297Z" fill="#055AAB"/>
<path d="M6.27653 23.6663H5.37939V36.1271H6.27653V23.6663Z" fill="#055AAB"/>
<rect x="80" y="116.059" width="231" height="34" rx="8.4186" fill="#066AC9"/>
<path d="M90.5898 133.495C90.5898 132.412 90.8395 131.439 91.339 130.578C91.8491 129.718 92.5345 129.048 93.3953 128.57C94.2666 128.081 95.2177 127.837 96.2485 127.837C97.4281 127.837 98.4748 128.129 99.3887 128.713C100.313 129.287 100.983 130.106 101.397 131.168H99.2134C98.9265 130.584 98.528 130.148 98.0179 129.861C97.5078 129.574 96.918 129.431 96.2485 129.431C95.5153 129.431 94.8617 129.595 94.2879 129.925C93.7141 130.254 93.2624 130.727 92.933 131.344C92.6142 131.96 92.4548 132.677 92.4548 133.495C92.4548 134.314 92.6142 135.031 92.933 135.647C93.2624 136.264 93.7141 136.742 94.2879 137.082C94.8617 137.411 95.5153 137.576 96.2485 137.576C96.918 137.576 97.5078 137.433 98.0179 137.146C98.528 136.859 98.9265 136.423 99.2134 135.839H101.397C100.983 136.901 100.313 137.72 99.3887 138.293C98.4748 138.867 97.4281 139.154 96.2485 139.154C95.2071 139.154 94.256 138.915 93.3953 138.437C92.5345 137.948 91.8491 137.273 91.339 136.413C90.8395 135.552 90.5898 134.579 90.5898 133.495ZM111.765 139.17C110.734 139.17 109.783 138.931 108.912 138.453C108.051 137.964 107.366 137.289 106.856 136.428C106.356 135.557 106.107 134.579 106.107 133.495C106.107 132.412 106.356 131.439 106.856 130.578C107.366 129.718 108.051 129.048 108.912 128.57C109.783 128.081 110.734 127.837 111.765 127.837C112.807 127.837 113.758 128.081 114.619 128.57C115.49 129.048 116.175 129.718 116.675 130.578C117.174 131.439 117.424 132.412 117.424 133.495C117.424 134.579 117.174 135.557 116.675 136.428C116.175 137.289 115.49 137.964 114.619 138.453C113.758 138.931 112.807 139.17 111.765 139.17ZM111.765 137.592C112.499 137.592 113.152 137.427 113.726 137.098C114.3 136.758 114.746 136.28 115.065 135.663C115.394 135.036 115.559 134.314 115.559 133.495C115.559 132.677 115.394 131.96 115.065 131.344C114.746 130.727 114.3 130.254 113.726 129.925C113.152 129.595 112.499 129.431 111.765 129.431C111.032 129.431 110.378 129.595 109.805 129.925C109.231 130.254 108.779 130.727 108.45 131.344C108.131 131.96 107.972 132.677 107.972 133.495C107.972 134.314 108.131 135.036 108.45 135.663C108.779 136.28 109.231 136.758 109.805 137.098C110.378 137.427 111.032 137.592 111.765 137.592ZM124.217 137.592H127.963V139.059H122.4V127.98H124.217V137.592ZM134.488 137.592H138.234V139.059H132.671V127.98H134.488V137.592ZM144.759 129.447V132.698H148.585V134.181H144.759V137.576H149.063V139.059H142.942V127.964H149.063V129.447H144.759ZM162.507 131.168C162.22 130.616 161.822 130.201 161.311 129.925C160.801 129.638 160.212 129.495 159.542 129.495C158.809 129.495 158.155 129.659 157.581 129.989C157.008 130.318 156.556 130.786 156.227 131.391C155.908 131.997 155.748 132.698 155.748 133.495C155.748 134.292 155.908 134.999 156.227 135.616C156.556 136.221 157.008 136.689 157.581 137.018C158.155 137.348 158.809 137.512 159.542 137.512C160.53 137.512 161.333 137.236 161.949 136.684C162.565 136.131 162.943 135.382 163.081 134.436H158.92V132.985H165.026V134.404C164.909 135.265 164.6 136.057 164.101 136.779C163.612 137.502 162.969 138.081 162.172 138.517C161.386 138.942 160.509 139.154 159.542 139.154C158.501 139.154 157.55 138.915 156.689 138.437C155.828 137.948 155.143 137.273 154.633 136.413C154.133 135.552 153.883 134.579 153.883 133.495C153.883 132.412 154.133 131.439 154.633 130.578C155.143 129.718 155.828 129.048 156.689 128.57C157.56 128.081 158.511 127.837 159.542 127.837C160.722 127.837 161.768 128.129 162.682 128.713C163.607 129.287 164.276 130.106 164.691 131.168H162.507ZM171.823 129.447V132.698H175.649V134.181H171.823V137.576H176.127V139.059H170.006V127.964H176.127V129.447H171.823ZM196.629 131.28C196.629 131.843 196.496 132.374 196.23 132.874C195.965 133.373 195.539 133.782 194.955 134.101C194.371 134.409 193.621 134.563 192.707 134.563H190.699V139.059H188.882V127.98H192.707C193.558 127.98 194.275 128.129 194.859 128.427C195.454 128.713 195.895 129.107 196.182 129.606C196.48 130.106 196.629 130.663 196.629 131.28ZM192.707 133.081C193.398 133.081 193.914 132.927 194.254 132.619C194.594 132.3 194.764 131.854 194.764 131.28C194.764 130.068 194.078 129.463 192.707 129.463H190.699V133.081H192.707ZM207.304 139.059L204.754 134.627H203.367V139.059H201.55V127.98H205.376C206.226 127.98 206.943 128.129 207.527 128.427C208.123 128.724 208.564 129.123 208.85 129.622C209.148 130.121 209.297 130.679 209.297 131.296C209.297 132.018 209.084 132.677 208.659 133.272C208.245 133.857 207.602 134.255 206.73 134.468L209.472 139.059H207.304ZM203.367 133.177H205.376C206.056 133.177 206.566 133.007 206.906 132.667C207.256 132.327 207.432 131.87 207.432 131.296C207.432 130.722 207.262 130.276 206.922 129.957C206.582 129.627 206.066 129.463 205.376 129.463H203.367V133.177ZM216.627 129.447V132.698H220.452V134.181H216.627V137.576H220.93V139.059H214.809V127.964H220.93V129.447H216.627ZM229.975 127.98C231.155 127.98 232.186 128.209 233.068 128.666C233.96 129.112 234.646 129.76 235.124 130.61C235.613 131.45 235.857 132.433 235.857 133.559C235.857 134.686 235.613 135.663 235.124 136.492C234.646 137.321 233.96 137.959 233.068 138.405C232.186 138.841 231.155 139.059 229.975 139.059H226.357V127.98H229.975ZM229.975 137.576C231.272 137.576 232.265 137.225 232.956 136.524C233.647 135.823 233.992 134.834 233.992 133.559C233.992 132.273 233.647 131.269 232.956 130.547C232.265 129.824 231.272 129.463 229.975 129.463H228.174V137.576H229.975ZM242.663 127.98V139.059H240.846V127.98H242.663ZM247.631 133.495C247.631 132.412 247.881 131.439 248.381 130.578C248.891 129.718 249.576 129.048 250.437 128.57C251.308 128.081 252.259 127.837 253.29 127.837C254.47 127.837 255.516 128.129 256.43 128.713C257.355 129.287 258.024 130.106 258.439 131.168H256.255C255.968 130.584 255.57 130.148 255.059 129.861C254.549 129.574 253.96 129.431 253.29 129.431C252.557 129.431 251.903 129.595 251.329 129.925C250.756 130.254 250.304 130.727 249.975 131.344C249.656 131.96 249.496 132.677 249.496 133.495C249.496 134.314 249.656 135.031 249.975 135.647C250.304 136.264 250.756 136.742 251.329 137.082C251.903 137.411 252.557 137.576 253.29 137.576C253.96 137.576 254.549 137.433 255.059 137.146C255.57 136.859 255.968 136.423 256.255 135.839H258.439C258.024 136.901 257.355 137.72 256.43 138.293C255.516 138.867 254.47 139.154 253.29 139.154C252.249 139.154 251.298 138.915 250.437 138.437C249.576 137.948 248.891 137.273 248.381 136.413C247.881 135.552 247.631 134.579 247.631 133.495ZM270.911 127.98V129.463H267.962V139.059H266.145V129.463H263.18V127.98H270.911ZM280.992 139.17C279.962 139.17 279.01 138.931 278.139 138.453C277.278 137.964 276.593 137.289 276.083 136.428C275.583 135.557 275.334 134.579 275.334 133.495C275.334 132.412 275.583 131.439 276.083 130.578C276.593 129.718 277.278 129.048 278.139 128.57C279.01 128.081 279.962 127.837 280.992 127.837C282.034 127.837 282.985 128.081 283.846 128.57C284.717 129.048 285.402 129.718 285.902 130.578C286.401 131.439 286.651 132.412 286.651 133.495C286.651 134.579 286.401 135.557 285.902 136.428C285.402 137.289 284.717 137.964 283.846 138.453C282.985 138.931 282.034 139.17 280.992 139.17ZM280.992 137.592C281.726 137.592 282.379 137.427 282.953 137.098C283.527 136.758 283.973 136.28 284.292 135.663C284.621 135.036 284.786 134.314 284.786 133.495C284.786 132.677 284.621 131.96 284.292 131.344C283.973 130.727 283.527 130.254 282.953 129.925C282.379 129.595 281.726 129.431 280.992 129.431C280.259 129.431 279.606 129.595 279.032 129.925C278.458 130.254 278.006 130.727 277.677 131.344C277.358 131.96 277.199 132.677 277.199 133.495C277.199 134.314 277.358 135.036 277.677 135.663C278.006 136.28 278.458 136.758 279.032 137.098C279.606 137.427 280.259 137.592 280.992 137.592ZM297.382 139.059L294.831 134.627H293.444V139.059H291.627V127.98H295.453C296.303 127.98 297.02 128.129 297.605 128.427C298.2 128.724 298.641 129.123 298.928 129.622C299.225 130.121 299.374 130.679 299.374 131.296C299.374 132.018 299.162 132.677 298.737 133.272C298.322 133.857 297.679 134.255 296.808 134.468L299.55 139.059H297.382ZM293.444 133.177H295.453C296.133 133.177 296.643 133.007 296.983 132.667C297.334 132.327 297.509 131.87 297.509 131.296C297.509 130.722 297.339 130.276 296.999 129.957C296.659 129.627 296.144 129.463 295.453 129.463H293.444V133.177Z" fill="white"/>
</svg>
