<svg width="46" height="46" viewBox="0 0 46 46" fill="none" xmlns="http://www.w3.org/2000/svg">
<circle cx="23" cy="23" r="23" fill="#FFF5E7"/>
<path d="M21.05 13.53L15.03 17.46C13.1 18.72 13.1 21.54 15.03 22.8L21.05 26.73C22.13 27.44 23.91 27.44 24.99 26.73L30.98 22.8C32.9 21.54 32.9 18.73 30.98 17.47L24.99 13.54C23.91 12.82 22.13 12.82 21.05 13.53Z" stroke="#FF9E0C" stroke-width="1.5" stroke-linecap="round" stroke-linejoin="round"/>
<path d="M16.63 24.08L16.62 28.77C16.62 30.04 17.6 31.4 18.8 31.8L21.99 32.86C22.54 33.04 23.45 33.04 24.01 32.86L27.2 31.8C28.4 31.4 29.38 30.04 29.38 28.77V24.13" stroke="#FF9E0C" stroke-width="1.5" stroke-linecap="round" stroke-linejoin="round"/>
<path d="M32.4 26V20" stroke="#FF9E0C" stroke-width="1.5" stroke-linecap="round" stroke-linejoin="round"/>
</svg>
