<svg width="46" height="46" viewBox="0 0 46 46" fill="none" xmlns="http://www.w3.org/2000/svg">
<circle cx="23" cy="23" r="23" fill="#F6F1FF"/>
<path d="M13.07 15.6C13.87 12.14 19.08 12.14 19.87 15.6C20.34 17.63 19.05 19.35 17.93 20.42C17.11 21.2 15.82 21.19 15 20.42C13.89 19.35 12.6 17.63 13.07 15.6Z" stroke="#A175FF" stroke-width="1.5"/>
<path d="M26.07 27.6C26.87 24.14 32.11 24.14 32.91 27.6C33.38 29.63 32.09 31.35 30.96 32.42C30.14 33.2 28.84 33.19 28.02 32.42C26.89 31.35 25.6 29.63 26.07 27.6Z" stroke="#A175FF" stroke-width="1.5"/>
<path d="M23 16H25.68C27.53 16 28.39 18.29 27 19.51L19.01 26.5C17.62 27.71 18.48 30 20.32 30H23" stroke="#A175FF" stroke-width="1.5" stroke-linecap="round" stroke-linejoin="round"/>
<path d="M16.4862 16.5H16.4978" stroke="#A175FF" stroke-width="2" stroke-linecap="round" stroke-linejoin="round"/>
<path d="M29.4862 28.5H29.4978" stroke="#A175FF" stroke-width="2" stroke-linecap="round" stroke-linejoin="round"/>
</svg>
