<svg width="200" height="232" viewBox="0 0 200 232" fill="none" xmlns="http://www.w3.org/2000/svg">
<g clip-path="url(#clip0_434_1296)">
<path d="M53.6189 70.6542C52.1946 71.1968 50.7402 71.6567 49.2629 72.0318C47.3116 72.5073 46.2098 72.7278 44.3264 71.9968C44.2603 71.9711 44.1971 71.9458 44.1376 71.9208C40.5676 70.4029 37.516 67.88 35.354 64.6591C33.192 61.4382 32.013 57.6583 31.9605 53.7794C31.9511 53.6464 31.9511 53.5065 31.9511 53.37C31.9492 52.7126 31.9807 52.0555 32.0452 51.4013C32.1278 50.5102 32.2703 49.6256 32.4719 48.7536L32.4531 48.7502C30.9282 47.1909 30.3415 45.0551 30.536 42.9089C30.6693 41.454 31.1311 40.0482 31.8865 38.7976C32.642 37.547 33.6714 36.4842 34.8973 35.6893C36.8185 34.4814 38.9847 33.7168 41.2384 33.451C41.8436 33.3812 42.4522 33.3459 43.0614 33.3452H48.7844C49.9664 33.0685 51.1671 32.8792 52.3769 32.7788H52.3863C63.9045 31.8235 72.9879 39.4595 72.1407 48.7502C72.1344 48.7605 72.125 48.7707 72.1188 48.7809C71.874 49.1801 71.6575 49.5588 71.4661 49.9205C71.281 50.2583 71.1241 50.5824 70.9892 50.8895C69.9381 53.2642 74.9332 90.108 73.1416 90.6675C72.1219 90.9848 68.0116 63.5684 68.749 68.7818C69.6777 75.3225 58.9253 68.6927 53.6189 70.6542Z" fill="#2F2E41"/>
<path d="M70.9704 137.257L86.9368 171.272L25.5176 165.051L38.3385 132.398L70.9704 137.257Z" fill="#FFB6B6"/>
<path d="M103.022 205.455C92.3413 209.01 81.0858 210.518 69.8463 209.899L64.9588 201.973C64.9588 201.973 64.7541 204.925 64.4489 209.438C59.0985 208.817 53.818 207.698 48.6763 206.094C38.9256 203.045 29.7854 198.32 20.5202 193.963C18.6436 182.776 17.9395 165.526 28.3146 155.484L84.1585 165.717C84.1585 165.717 93.1183 172.419 90.7214 174.819C88.3245 177.216 87.9533 176.845 89.5282 178.42C91.103 179.995 94.5059 182.1 94.5406 183.477C94.5544 184.015 98.3735 193.766 103.022 205.455Z" fill="#2F2E41"/>
<path d="M61.2187 71.5281L47.7269 72.4694L39.0067 80.8958L35.9527 81.4409C33.2076 81.9303 30.7374 83.4101 29.0108 85.5997C27.2841 87.7892 26.4209 90.5363 26.5849 93.3199C27.2131 103.963 28.6196 119.866 31.5594 125.025C36.1178 133.025 39.8829 130.515 36.1178 133.025C32.3527 135.535 29.8249 133.563 31.5594 137.53C33.2939 141.497 29.2151 146.585 29.2151 146.585L27.5913 148.209L29.3135 148.915L84.1883 156.055C84.1883 156.055 79.4435 134.721 82.4109 129.481C85.3783 124.24 92.573 108.398 86.1518 102.2L79.8733 80.1059L69.0737 76.9207L61.2187 71.5281Z" fill="#066AC9"/>
<path d="M142.89 159.088C141.987 159.059 141.101 158.835 140.294 158.43C139.486 158.025 138.776 157.45 138.213 156.744C137.649 156.038 137.246 155.218 137.03 154.34C136.815 153.463 136.793 152.549 136.965 151.663L111.225 134.23L114.296 125.925L144.717 146.853C146.188 147.255 147.461 148.182 148.294 149.459C149.127 150.736 149.463 152.274 149.238 153.782C149.013 155.29 148.242 156.663 147.072 157.641C145.902 158.619 144.414 159.134 142.89 159.088V159.088Z" fill="#FFB6B6"/>
<path d="M70.1857 79.0624L66.4453 80.5434L86.3983 119.513L127.704 147.668L133.658 137.605L102.216 110.447L89.6277 86.3043C87.8562 82.9068 84.8885 80.2862 81.2978 78.9487C77.7072 77.6112 73.7483 77.6517 70.1857 79.0624Z" fill="#066AC9"/>
<path d="M53.7707 68.1008C61.2529 68.1008 67.3183 62.0353 67.3183 54.5532C67.3183 47.0711 61.2529 41.0056 53.7707 41.0056C46.2886 41.0056 40.2231 47.0711 40.2231 54.5532C40.2231 62.0353 46.2886 68.1008 53.7707 68.1008Z" fill="#FFB6B6"/>
<path d="M65.5517 48.8243C65.3258 48.9435 65.103 49.0534 64.8771 49.1632C64.6418 49.2761 64.4065 49.3891 64.168 49.4958C59.6342 51.5509 55.9412 51.78 53.701 48.8243C53.6397 47.2694 53.2896 45.7394 52.6687 44.3124C52.7784 45.9071 52.3582 47.4932 51.4733 48.8243H46.9614C42.3146 51.9086 39.93 54.7419 43.1554 64.8669C43.3657 65.5321 44.8058 89.1646 45.2169 90.9812C38.1823 88.2829 32.1142 59.6334 31.9605 52.0843C31.951 51.9619 31.951 51.8333 31.951 51.7078C31.9492 51.103 31.9806 50.4987 32.0452 49.8974C32.128 49.0765 32.2706 48.2627 32.4719 47.4626L32.4531 47.4595C31.7373 46.7752 31.1913 45.9332 30.8585 45.0007C30.5257 44.0681 30.4152 43.0707 30.536 42.0879C31.7161 40.5427 33.1764 39.2335 34.8408 38.2286C36.3542 37.4958 37.9317 36.9034 39.5535 36.459C39.5943 36.4496 39.6288 36.4402 39.6696 36.4308C40.1653 36.2958 40.6736 36.1735 41.1819 36.0668C42.2294 35.8471 43.2884 35.6869 44.354 35.5868C44.4325 35.5836 44.5077 35.5773 44.5768 35.5773C45.003 35.5776 45.4213 35.6925 45.7879 35.9099C45.791 35.9099 45.791 35.9131 45.7973 35.9131C46.1495 36.1235 46.4417 36.4211 46.6455 36.7772C46.8494 37.1333 46.9582 37.5359 46.9614 37.9462H51.9878C52.1729 37.9462 52.3581 37.9525 52.5432 37.9619C59.5432 38.2411 65.1689 41.2345 65.5298 48.1152C65.5454 48.3537 65.5517 48.5859 65.5517 48.8243Z" fill="#2F2E41"/>
<path d="M35.8344 49.369C40.7637 49.369 44.7596 45.373 44.7596 40.4437C44.7596 35.5145 40.7637 31.5185 35.8344 31.5185C30.9051 31.5185 26.9092 35.5145 26.9092 40.4437C26.9092 45.373 30.9051 49.369 35.8344 49.369Z" fill="#2F2E41"/>
<path d="M48.0877 36.3155C47.0738 41.1394 42.0711 44.0244 37.2852 42.8443C34.9869 42.2775 33.0079 40.821 31.7835 38.7951C30.5592 36.7693 30.1897 34.34 30.7564 32.0417C31.9366 27.2558 37.7449 28.6355 41.559 25.513C46.9545 21.0956 49.4552 29.8102 48.0877 36.3155Z" fill="#2F2E41"/>
<path d="M28.2571 170.593C35.8639 139.573 50.9361 112.91 75.8976 92.0201C76.8637 90.4309 78.4207 89.2898 80.227 88.8471C82.0334 88.4044 83.9415 88.6963 85.5329 89.6587L144.873 125.638C146.462 126.604 147.603 128.161 148.046 129.967C148.489 131.774 148.197 133.682 147.234 135.273C137.707 167.103 123.437 194.724 99.5937 213.846C98.6277 215.435 97.0707 216.576 95.2644 217.019C93.4581 217.462 91.5499 217.17 89.9585 216.207L30.6186 180.228C29.0294 179.262 27.8883 177.705 27.4455 175.899C27.0028 174.092 27.2947 172.184 28.2571 170.593Z" fill="#D9D9D9"/>
<path opacity="0.2" d="M38.8044 181.047C37.2152 180.081 36.0741 178.524 35.6314 176.718C35.1887 174.911 35.4806 173.003 36.443 171.412C44.0498 140.391 59.122 113.729 84.0834 92.8391C84.7229 91.7988 85.6258 90.9459 86.7008 90.3667L85.5331 89.6586C83.9417 88.6962 82.0336 88.4043 80.2272 88.847C78.4209 89.2897 76.8639 90.4308 75.8978 92.0199C50.9364 112.91 35.8642 139.572 28.2574 170.593C27.295 172.184 27.0031 174.092 27.4458 175.899C27.8885 177.705 29.0296 179.262 30.6188 180.228L89.9586 216.207C91.0148 216.843 92.2202 217.188 93.4526 217.207C94.6851 217.227 95.9008 216.92 96.9766 216.318L38.8044 181.047Z" fill="black"/>
<path d="M108.395 163.716L68.5632 139.716C67.9304 139.334 67.4752 138.716 67.2977 137.998C67.1202 137.28 67.2348 136.521 67.6164 135.888C67.9979 135.255 68.6153 134.799 69.3328 134.62C70.0504 134.442 70.8094 134.555 71.4432 134.936L111.275 158.936C111.906 159.319 112.36 159.937 112.536 160.654C112.713 161.371 112.598 162.129 112.217 162.761C111.836 163.394 111.22 163.85 110.503 164.029C109.787 164.207 109.029 164.095 108.395 163.716L108.395 163.716Z" fill="white"/>
<path d="M85.223 131.89L76.4601 126.61C75.825 126.23 75.3669 125.613 75.1865 124.895C75.0061 124.178 75.1182 123.418 75.4981 122.783C75.878 122.148 76.4946 121.689 77.2123 121.509C77.93 121.329 78.6899 121.441 79.325 121.821L79.3401 121.83L88.103 127.11C88.7345 127.493 89.1883 128.111 89.365 128.828C89.5417 129.545 89.4269 130.303 89.0458 130.935C88.6646 131.568 88.0481 132.024 87.3316 132.203C86.615 132.381 85.8567 132.269 85.223 131.89Z" fill="white"/>
<path d="M102.064 174.223L62.2324 150.223C61.5988 149.841 61.1427 149.224 60.9641 148.506C60.7856 147.788 60.8993 147.029 61.2802 146.395C61.6611 145.761 62.2781 145.305 62.9956 145.125C63.7131 144.946 64.4724 145.059 65.1067 145.439L65.1123 145.443L104.944 169.443C105.575 169.826 106.029 170.444 106.206 171.161C106.382 171.878 106.267 172.636 105.886 173.268C105.505 173.901 104.889 174.356 104.172 174.535C103.456 174.714 102.698 174.602 102.064 174.223L102.064 174.223Z" fill="white"/>
<path d="M113.453 118.463C119.878 118.463 125.087 113.254 125.087 106.829C125.087 100.404 119.878 95.1952 113.453 95.1952C107.028 95.1952 101.819 100.404 101.819 106.829C101.819 113.254 107.028 118.463 113.453 118.463Z" fill="#3F3D56"/>
<path d="M93.3992 231.491C107.132 231.491 118.265 220.359 118.265 206.625C118.265 192.892 107.132 181.76 93.3992 181.76C79.6661 181.76 68.5332 192.892 68.5332 206.625C68.5332 220.359 79.6661 231.491 93.3992 231.491Z" fill="white"/>
<path d="M93.3991 231.838C88.4125 231.838 83.5379 230.36 79.3916 227.589C75.2454 224.819 72.0138 220.881 70.1055 216.274C68.1972 211.667 67.6979 206.598 68.6707 201.707C69.6436 196.816 72.0448 192.324 75.5709 188.797C79.097 185.271 83.5894 182.87 88.4802 181.897C93.3711 180.924 98.4405 181.424 103.048 183.332C107.655 185.24 111.592 188.472 114.363 192.618C117.133 196.764 118.612 201.639 118.612 206.625C118.604 213.31 115.946 219.719 111.219 224.445C106.492 229.172 100.084 231.831 93.3991 231.838ZM93.3991 182.106C88.5497 182.106 83.8092 183.545 79.777 186.239C75.7449 188.933 72.6022 192.762 70.7464 197.243C68.8906 201.723 68.4051 206.653 69.3512 211.409C70.2973 216.165 72.6325 220.534 76.0616 223.963C79.4906 227.392 83.8596 229.728 88.6158 230.674C93.3721 231.62 98.302 231.134 102.782 229.278C107.263 227.422 111.092 224.28 113.786 220.248C116.48 216.215 117.918 211.475 117.918 206.625C117.911 200.125 115.325 193.893 110.729 189.296C106.132 184.699 99.8997 182.114 93.3991 182.106Z" fill="#3F3D56"/>
<path d="M90.007 219.567C89.5776 219.567 89.1541 219.467 88.7701 219.275C88.386 219.083 88.052 218.804 87.7945 218.46L81.0106 209.415C80.7923 209.125 80.6334 208.794 80.543 208.442C80.4526 208.09 80.4324 207.724 80.4837 207.364C80.5349 207.004 80.6566 206.658 80.8417 206.345C81.0268 206.032 81.2718 205.759 81.5625 205.541C81.8533 205.323 82.1841 205.164 82.5362 205.074C82.8883 204.984 83.2547 204.964 83.6144 205.016C83.9742 205.067 84.3202 205.189 84.6328 205.375C84.9454 205.56 85.2184 205.805 85.4362 206.096L89.8744 212.013L101.273 194.915C101.475 194.613 101.734 194.353 102.036 194.151C102.338 193.949 102.676 193.808 103.032 193.737C103.389 193.666 103.755 193.666 104.112 193.736C104.468 193.807 104.807 193.947 105.109 194.148C105.411 194.35 105.671 194.609 105.873 194.91C106.075 195.212 106.216 195.551 106.287 195.907C106.358 196.263 106.359 196.63 106.288 196.986C106.218 197.343 106.078 197.682 105.876 197.984L92.3087 218.335C92.0633 218.703 91.7332 219.007 91.3461 219.221C90.959 219.436 90.5262 219.554 90.084 219.566C90.0583 219.567 90.0327 219.567 90.007 219.567Z" fill="#066AC9"/>
<path d="M173.704 80.6162C174.692 80.5317 175.446 79.9059 175.387 79.2186C175.328 78.5312 174.479 78.0424 173.491 78.1269C172.503 78.2114 171.75 78.8371 171.809 79.5245C171.867 80.2119 172.716 80.7007 173.704 80.6162Z" fill="white"/>
<path d="M184.822 76.8447C185.81 76.7602 186.563 76.1345 186.504 75.4471C186.446 74.7598 185.597 74.271 184.609 74.3555C183.621 74.44 182.867 75.0657 182.926 75.7531C182.985 76.4405 183.834 76.9292 184.822 76.8447Z" fill="#3F3D56"/>
<path d="M168.434 72.1341C169.422 72.0496 170.176 71.4239 170.117 70.7365C170.058 70.0491 169.209 69.5604 168.221 69.6449C167.233 69.7294 166.48 70.3551 166.539 71.0425C166.597 71.7298 167.446 72.2186 168.434 72.1341Z" fill="#FF6584"/>
<path d="M163.771 69.401C164.196 69.3049 164.429 68.7314 164.291 68.1201C164.153 67.5087 163.696 67.091 163.271 67.1871C162.845 67.2832 162.612 67.8567 162.751 68.468C162.889 69.0794 163.345 69.4971 163.771 69.401Z" fill="#D9D9D9"/>
<path d="M160.45 62.7657C160.876 62.6696 161.109 62.0961 160.97 61.4848C160.832 60.8734 160.376 60.4557 159.95 60.5518C159.525 60.6479 159.292 61.2214 159.43 61.8328C159.568 62.4441 160.025 62.8618 160.45 62.7657Z" fill="#3F3D56"/>
<path d="M176.38 72.0839C176.806 71.9878 177.038 71.4143 176.9 70.803C176.762 70.1916 176.305 69.7739 175.88 69.87C175.455 69.9661 175.222 70.5396 175.36 71.1509C175.498 71.7623 175.955 72.18 176.38 72.0839Z" fill="#D9D9D9"/>
<path d="M171.525 76.115C171.95 76.0189 172.183 75.4454 172.045 74.8341C171.906 74.2227 171.45 73.805 171.024 73.9011C170.599 73.9972 170.366 74.5707 170.505 75.1821C170.643 75.7934 171.099 76.2111 171.525 76.115Z" fill="#FF6584"/>
<path d="M180.365 79.3984C180.79 79.3023 181.023 78.7288 180.885 78.1175C180.747 77.5061 180.29 77.0884 179.865 77.1845C179.439 77.2806 179.207 77.8541 179.345 78.4655C179.483 79.0768 179.94 79.4945 180.365 79.3984Z" fill="#3F3D56"/>
<path d="M127.803 29.2181C127.973 28.5494 127.331 27.8097 126.369 27.5661C125.408 27.3225 124.491 27.6671 124.322 28.3359C124.153 29.0046 124.794 29.7442 125.756 29.9879C126.717 30.2315 127.634 29.8869 127.803 29.2181Z" fill="white"/>
<path d="M116.064 29.1424C116.233 28.4737 115.591 27.734 114.63 27.4904C113.669 27.2468 112.752 27.5914 112.583 28.2602C112.413 28.9289 113.055 29.6686 114.016 29.9122C114.978 30.1558 115.894 29.8112 116.064 29.1424Z" fill="#3F3D56"/>
<path d="M130.006 38.9579C130.176 38.2892 129.534 37.5495 128.573 37.3059C127.611 37.0623 126.695 37.4069 126.525 38.0757C126.356 38.7444 126.998 39.4841 127.959 39.7277C128.92 39.9713 129.837 39.6267 130.006 38.9579Z" fill="#FF6584"/>
<path d="M132.743 42.6306C132.813 42.0077 132.518 41.4635 132.084 41.4151C131.651 41.3667 131.243 41.8324 131.174 42.4552C131.104 43.0781 131.399 43.6223 131.832 43.6707C132.266 43.7192 132.673 43.2535 132.743 42.6306Z" fill="#D9D9D9"/>
<path d="M133.708 49.9871C133.778 49.3642 133.483 48.82 133.05 48.7716C132.616 48.7232 132.209 49.1889 132.139 49.8117C132.069 50.4346 132.364 50.9788 132.798 51.0272C133.231 51.0757 133.639 50.61 133.708 49.9871Z" fill="#3F3D56"/>
<path d="M121.706 35.9677C121.776 35.3448 121.481 34.8006 121.048 34.7522C120.614 34.7038 120.207 35.1695 120.137 35.7923C120.067 36.4152 120.362 36.9594 120.796 37.0078C121.229 37.0563 121.637 36.5906 121.706 35.9677Z" fill="#D9D9D9"/>
<path d="M127.614 33.7482C127.684 33.1253 127.389 32.5811 126.956 32.5327C126.522 32.4843 126.115 32.95 126.045 33.5729C125.975 34.1957 126.27 34.7399 126.704 34.7884C127.137 34.8368 127.545 34.3711 127.614 33.7482Z" fill="#FF6584"/>
<path d="M120.336 27.7519C120.405 27.129 120.111 26.5848 119.677 26.5364C119.244 26.4879 118.836 26.9536 118.767 27.5765C118.697 28.1994 118.992 28.7436 119.425 28.792C119.859 28.8404 120.266 28.3747 120.336 27.7519Z" fill="#3F3D56"/>
<path d="M31.9572 170.921C31.0706 170.558 30.2734 170.007 29.6209 169.305C28.9684 168.603 28.4761 167.768 28.1781 166.858C27.88 165.947 27.7833 164.982 27.8947 164.031C28.0061 163.079 28.3228 162.163 28.8231 161.346L9.70825 134.476L15.8404 127.362L38.3101 159.441C39.623 160.385 40.544 161.779 40.8984 163.357C41.2528 164.935 41.016 166.588 40.2329 168.003C39.4498 169.418 38.1749 170.497 36.6496 171.035C35.1244 171.573 33.4548 171.532 31.9572 170.921H31.9572Z" fill="#FFB6B6"/>
<path d="M32.3963 85.7728C31.4292 85.2038 30.291 84.9981 29.186 85.1927C28.081 85.3872 27.0815 85.9693 26.3669 86.8343L0.540283 122.954L24.4749 156.948L33.8406 146.889L19.2717 123.995L38.6338 105.56C40.2249 102.074 40.468 98.1226 39.316 94.4682C38.164 90.8138 35.6987 87.7159 32.3963 85.7728Z" fill="#066AC9"/>
</g>
<defs>
<clipPath id="clip0_434_1296">
<rect width="199.613" height="231.825" fill="white" transform="translate(0.193604 0.0134277)"/>
</clipPath>
</defs>
</svg>
