<svg width="41" height="41" viewBox="0 0 41 41" fill="none" xmlns="http://www.w3.org/2000/svg">
<rect width="41" height="41" rx="20.5" fill="#066AC9" fill-opacity="0.08"/>
<path fill-rule="evenodd" clip-rule="evenodd" d="M12.8373 20.5116C12.8373 16.4749 16.0633 12.8373 20.5153 12.8373C24.8678 12.8373 28.1627 16.4059 28.1627 20.4886C28.1627 25.2236 24.3007 28.1628 20.5 28.1628C19.2433 28.1628 17.8487 27.8251 16.7299 27.1651C16.3391 26.9272 16.0096 26.7507 15.5882 26.8889L14.0403 27.3493C13.6495 27.4721 13.297 27.1651 13.412 26.7507L13.9254 25.0317C14.0097 24.7938 13.9944 24.5406 13.8717 24.341C13.2128 23.1285 12.8373 21.8009 12.8373 20.5116ZM19.5039 20.5116C19.5039 21.0565 19.9406 21.4939 20.4847 21.5016C21.0287 21.5016 21.4655 21.0565 21.4655 20.5193C21.4655 19.9744 21.0287 19.537 20.4847 19.537C19.9483 19.5293 19.5039 19.9744 19.5039 20.5116ZM23.0364 20.5193C23.0364 21.0565 23.4732 21.5016 24.0172 21.5016C24.5613 21.5016 24.998 21.0565 24.998 20.5193C24.998 19.9744 24.5613 19.537 24.0172 19.537C23.4732 19.537 23.0364 19.9744 23.0364 20.5193ZM16.9522 21.5016C16.4158 21.5016 15.9713 21.0565 15.9713 20.5193C15.9713 19.9744 16.4081 19.537 16.9522 19.537C17.4962 19.537 17.933 19.9744 17.933 20.5193C17.933 21.0565 17.4962 21.4939 16.9522 21.5016Z" fill="#066AC9"/>
</svg>
