<svg width="20" height="22" viewBox="0 0 20 22" fill="none" xmlns="http://www.w3.org/2000/svg">
<path d="M9.521 10.9193C12.2602 10.9193 14.4806 8.69877 14.4806 5.95964C14.4806 3.22051 12.2602 1 9.521 1C6.7819 1 4.5614 3.22051 4.5614 5.95964C4.5614 8.69877 6.7819 10.9193 9.521 10.9193Z" stroke="#066AC9" stroke-width="2" stroke-linecap="round" stroke-linejoin="round"/>
<path d="M1 20.8397C1 17.001 4.81892 13.8962 9.52064 13.8962C10.4729 13.8962 11.3954 14.0252 12.2584 14.2633" stroke="#066AC9" stroke-width="2" stroke-linecap="round" stroke-linejoin="round"/>
<path d="M10.8066 20.3485C10.8066 20.5105 10.8427 20.677 10.9193 20.839C10.9959 21.001 11.0951 21.1539 11.2258 21.298C11.4466 21.541 11.69 21.7165 11.9648 21.8289C12.2353 21.9415 12.5283 22 12.8437 22C13.3034 22 13.7946 21.892 14.313 21.6715C14.8312 21.4509 15.3495 21.1539 15.8632 20.7805C16.3816 20.4025 16.8727 19.984 17.3415 19.5204C17.8056 19.0525 18.2248 18.562 18.5989 18.049C18.9684 17.536 19.2658 17.023 19.4822 16.5145C19.6985 16.0015 19.8066 15.511 19.8066 15.043C19.8066 14.7371 19.7526 14.4445 19.6444 14.1745C19.5362 13.9001 19.365 13.648 19.1262 13.423C18.8377 13.1395 18.5222 13 18.1887 13C18.0625 13 17.9364 13.027 17.8237 13.081C17.7066 13.135 17.6028 13.216 17.5217 13.3331L16.4762 14.8046C16.3951 14.917 16.3365 15.0206 16.2959 15.1195C16.2553 15.214 16.2328 15.3085 16.2328 15.394C16.2328 15.502 16.2643 15.61 16.3275 15.7135C16.386 15.817 16.4717 15.925 16.5798 16.033L16.9224 16.3885C16.9719 16.438 16.9944 16.4965 16.9944 16.5685C16.9944 16.6045 16.99 16.636 16.9809 16.672C16.9674 16.708 16.9539 16.735 16.9449 16.762C16.8638 16.9105 16.724 17.104 16.5257 17.338C16.3229 17.572 16.1066 17.8105 15.8722 18.049C15.6289 18.2875 15.3946 18.508 15.1556 18.7105C14.9214 18.9085 14.7275 19.0435 14.5743 19.1245C14.5518 19.1335 14.5247 19.147 14.4931 19.1605C14.4571 19.174 14.4211 19.1785 14.3806 19.1785C14.3039 19.1785 14.2453 19.1515 14.1957 19.102L13.8533 18.7645C13.7406 18.652 13.6324 18.5665 13.5288 18.5125C13.425 18.4495 13.3214 18.418 13.2087 18.418C13.1232 18.418 13.033 18.436 12.9339 18.4765C12.8347 18.517 12.7311 18.5755 12.6184 18.652L11.1266 19.7094C11.0094 19.7904 10.9283 19.8849 10.8788 19.9975C10.8337 20.11 10.8066 20.2224 10.8066 20.3485Z" fill="#066AC9"/>
</svg>
