<svg width="46" height="46" viewBox="0 0 46 46" fill="none" xmlns="http://www.w3.org/2000/svg">
<circle cx="23" cy="23" r="23" fill="#DEFCFF"/>
<path d="M19 22.4C19 23.17 19.6 23.8 20.33 23.8H21.83C22.47 23.8 22.99 23.25 22.99 22.58C22.99 21.85 22.67 21.59 22.2 21.42L19.8 20.58C19.32 20.41 19 20.15 19 19.42C19 18.75 19.52 18.2 20.16 18.2H21.66C22.4 18.21 23 18.83 23 19.6" stroke="#00A0B0" stroke-width="1.5" stroke-linecap="round" stroke-linejoin="round"/>
<path d="M21 23.85V24.59" stroke="#00A0B0" stroke-width="1.5" stroke-linecap="round" stroke-linejoin="round"/>
<path d="M21 17.41V18.19" stroke="#00A0B0" stroke-width="1.5" stroke-linecap="round" stroke-linejoin="round"/>
<path d="M20.99 28.98C25.4028 28.98 28.98 25.4028 28.98 20.99C28.98 16.5772 25.4028 13 20.99 13C16.5772 13 13 16.5772 13 20.99C13 25.4028 16.5772 28.98 20.99 28.98Z" stroke="#00A0B0" stroke-width="1.5" stroke-linecap="round" stroke-linejoin="round"/>
<path d="M23.98 30.88C24.88 32.15 26.35 32.98 28.03 32.98C30.76 32.98 32.98 30.76 32.98 28.03C32.98 26.37 32.16 24.9 30.91 24" stroke="#00A0B0" stroke-width="1.5" stroke-linecap="round" stroke-linejoin="round"/>
</svg>
