<svg width="21" height="20" viewBox="0 0 21 20" fill="none" xmlns="http://www.w3.org/2000/svg">
<path d="M3.91594 10.5522L3.90637 14.595C3.90637 15.6899 4.84409 16.8622 5.9923 17.2069L9.04464 18.1207C9.5709 18.2759 10.4416 18.2759 10.9775 18.1207L14.0298 17.2069C15.178 16.8622 16.1158 15.6899 16.1158 14.595V10.5954" stroke="white" stroke-width="2" stroke-linecap="round" stroke-linejoin="round"/>
<path d="M8.14525 1.45795L2.38503 4.84565C0.538322 5.93178 0.538322 8.36264 2.38503 9.44878L8.14525 12.8364C9.17865 13.4485 10.8818 13.4485 11.9152 12.8364L17.6467 9.44878C19.4839 8.36264 19.4839 5.94039 17.6467 4.85426L11.9152 1.46657C10.8818 0.845921 9.17865 0.845921 8.14525 1.45795Z" stroke="white" stroke-width="2" stroke-linecap="round" stroke-linejoin="round"/>
<path d="M19.0056 12.2072V7.03516" stroke="white" stroke-width="2" stroke-linecap="round" stroke-linejoin="round"/>
</svg>
