<svg width="375" height="162" viewBox="0 0 375 162" fill="none" xmlns="http://www.w3.org/2000/svg">
<path d="M89.3097 17.842C89.0297 17.842 88.7797 17.757 88.5597 17.587C88.3397 17.407 88.2297 17.187 88.2297 16.927V8.25704C88.2297 7.99704 88.3147 7.78204 88.4847 7.61204C88.6647 7.43204 88.8847 7.34204 89.1447 7.34204H93.4647C93.9847 7.34204 94.4697 7.48204 94.9197 7.76204C95.3797 8.03204 95.7497 8.41204 96.0297 8.90204C96.3097 9.38204 96.4497 9.93704 96.4497 10.567C96.4497 10.947 96.3697 11.317 96.2097 11.677C96.0597 12.037 95.8497 12.362 95.5797 12.652C95.3197 12.942 95.0247 13.167 94.6947 13.327L94.7097 12.982C94.9897 13.132 95.2197 13.312 95.3997 13.522C95.5897 13.722 95.7347 13.942 95.8347 14.182C95.9447 14.412 96.0097 14.662 96.0297 14.932C96.0697 15.182 96.0947 15.402 96.1047 15.592C96.1247 15.782 96.1547 15.942 96.1947 16.072C96.2447 16.202 96.3347 16.302 96.4647 16.372C96.6847 16.502 96.8197 16.692 96.8697 16.942C96.9297 17.182 96.8747 17.397 96.7047 17.587C96.5947 17.717 96.4547 17.802 96.2847 17.842C96.1147 17.872 95.9447 17.872 95.7747 17.842C95.6047 17.802 95.4647 17.752 95.3547 17.692C95.1847 17.592 95.0147 17.447 94.8447 17.257C94.6747 17.057 94.5347 16.792 94.4247 16.462C94.3247 16.132 94.2747 15.707 94.2747 15.187C94.2747 15.017 94.2447 14.862 94.1847 14.722C94.1247 14.572 94.0397 14.447 93.9297 14.347C93.8197 14.237 93.6797 14.157 93.5097 14.107C93.3397 14.047 93.1397 14.017 92.9097 14.017H89.8797L90.1047 13.672V16.927C90.1047 17.187 90.0347 17.407 89.8947 17.587C89.7547 17.757 89.5597 17.842 89.3097 17.842ZM89.8947 12.472H93.3897C93.5697 12.472 93.7447 12.392 93.9147 12.232C94.0847 12.062 94.2247 11.837 94.3347 11.557C94.4447 11.267 94.4997 10.952 94.4997 10.612C94.4997 10.172 94.3797 9.80704 94.1397 9.51704C93.9097 9.21704 93.6597 9.06704 93.3897 9.06704H89.9247L90.1047 8.58704V12.832L89.8947 12.472ZM102.084 17.992C101.234 17.992 100.494 17.817 99.8643 17.467C99.2443 17.107 98.7643 16.622 98.4243 16.012C98.0943 15.402 97.9293 14.712 97.9293 13.942C97.9293 13.042 98.1093 12.277 98.4693 11.647C98.8393 11.007 99.3193 10.517 99.9093 10.177C100.499 9.83704 101.124 9.66704 101.784 9.66704C102.294 9.66704 102.774 9.77204 103.224 9.98204C103.684 10.192 104.089 10.482 104.439 10.852C104.789 11.212 105.064 11.632 105.264 12.112C105.474 12.592 105.579 13.102 105.579 13.642C105.569 13.882 105.474 14.077 105.294 14.227C105.114 14.377 104.904 14.452 104.664 14.452H98.9343L98.4843 12.952H103.989L103.659 13.252V12.847C103.639 12.557 103.534 12.297 103.344 12.067C103.164 11.837 102.934 11.657 102.654 11.527C102.384 11.387 102.094 11.317 101.784 11.317C101.484 11.317 101.204 11.357 100.944 11.437C100.684 11.517 100.459 11.652 100.269 11.842C100.079 12.032 99.9293 12.287 99.8193 12.607C99.7093 12.927 99.6543 13.332 99.6543 13.822C99.6543 14.362 99.7643 14.822 99.9843 15.202C100.214 15.572 100.504 15.857 100.854 16.057C101.214 16.247 101.594 16.342 101.994 16.342C102.364 16.342 102.659 16.312 102.879 16.252C103.099 16.192 103.274 16.122 103.404 16.042C103.544 15.952 103.669 15.877 103.779 15.817C103.959 15.727 104.129 15.682 104.289 15.682C104.509 15.682 104.689 15.757 104.829 15.907C104.979 16.057 105.054 16.232 105.054 16.432C105.054 16.702 104.914 16.947 104.634 17.167C104.374 17.387 104.009 17.582 103.539 17.752C103.069 17.912 102.584 17.992 102.084 17.992ZM110.409 9.66704C110.829 9.66704 111.214 9.73204 111.564 9.86204C111.914 9.99204 112.214 10.157 112.464 10.357C112.724 10.557 112.924 10.762 113.064 10.972C113.214 11.172 113.289 11.342 113.289 11.482L112.899 11.677V10.582C112.899 10.322 112.984 10.107 113.154 9.93704C113.324 9.75704 113.539 9.66704 113.799 9.66704C114.059 9.66704 114.274 9.75204 114.444 9.92204C114.614 10.092 114.699 10.312 114.699 10.582V17.257C114.699 18.127 114.509 18.822 114.129 19.342C113.759 19.872 113.269 20.252 112.659 20.482C112.049 20.722 111.394 20.842 110.694 20.842C110.494 20.842 110.234 20.817 109.914 20.767C109.594 20.717 109.289 20.657 108.999 20.587C108.709 20.517 108.489 20.452 108.339 20.392C108.039 20.262 107.829 20.097 107.709 19.897C107.599 19.707 107.579 19.502 107.649 19.282C107.739 18.992 107.884 18.792 108.084 18.682C108.284 18.582 108.494 18.572 108.714 18.652C108.814 18.682 108.979 18.742 109.209 18.832C109.439 18.922 109.689 19.002 109.959 19.072C110.239 19.152 110.484 19.192 110.694 19.192C111.444 19.192 111.999 19.042 112.359 18.742C112.719 18.442 112.899 18.027 112.899 17.497V16.192L113.079 16.327C113.079 16.457 113.009 16.617 112.869 16.807C112.739 16.987 112.554 17.167 112.314 17.347C112.084 17.527 111.809 17.682 111.489 17.812C111.169 17.932 110.829 17.992 110.469 17.992C109.759 17.992 109.119 17.817 108.549 17.467C107.979 17.107 107.529 16.617 107.199 15.997C106.869 15.367 106.704 14.647 106.704 13.837C106.704 13.017 106.869 12.297 107.199 11.677C107.529 11.047 107.974 10.557 108.534 10.207C109.094 9.84704 109.719 9.66704 110.409 9.66704ZM110.694 11.317C110.244 11.317 109.849 11.427 109.509 11.647C109.169 11.867 108.904 12.167 108.714 12.547C108.524 12.927 108.429 13.357 108.429 13.837C108.429 14.307 108.524 14.732 108.714 15.112C108.904 15.492 109.169 15.792 109.509 16.012C109.849 16.232 110.244 16.342 110.694 16.342C111.154 16.342 111.554 16.232 111.894 16.012C112.234 15.792 112.499 15.492 112.689 15.112C112.879 14.732 112.974 14.307 112.974 13.837C112.974 13.357 112.879 12.927 112.689 12.547C112.499 12.167 112.234 11.867 111.894 11.647C111.554 11.427 111.154 11.317 110.694 11.317ZM118.339 16.927C118.339 17.187 118.254 17.407 118.084 17.587C117.914 17.757 117.699 17.842 117.439 17.842C117.179 17.842 116.964 17.757 116.794 17.587C116.624 17.407 116.539 17.187 116.539 16.927V10.732C116.539 10.472 116.624 10.257 116.794 10.087C116.964 9.90704 117.179 9.81704 117.439 9.81704C117.699 9.81704 117.914 9.90704 118.084 10.087C118.254 10.257 118.339 10.472 118.339 10.732V16.927ZM117.424 8.84204C117.084 8.84204 116.844 8.78704 116.704 8.67704C116.564 8.56704 116.494 8.37204 116.494 8.09204V7.80704C116.494 7.51704 116.569 7.32204 116.719 7.22204C116.879 7.11204 117.119 7.05704 117.439 7.05704C117.789 7.05704 118.034 7.11204 118.174 7.22204C118.314 7.33204 118.384 7.52704 118.384 7.80704V8.09204C118.384 8.38204 118.309 8.58204 118.159 8.69204C118.009 8.79204 117.764 8.84204 117.424 8.84204ZM119.724 16.597C119.624 16.457 119.579 16.277 119.589 16.057C119.599 15.837 119.729 15.647 119.979 15.487C120.139 15.387 120.309 15.347 120.489 15.367C120.669 15.377 120.844 15.467 121.014 15.637C121.304 15.927 121.609 16.152 121.929 16.312C122.249 16.472 122.649 16.552 123.129 16.552C123.279 16.542 123.444 16.522 123.624 16.492C123.804 16.452 123.959 16.372 124.089 16.252C124.229 16.122 124.299 15.927 124.299 15.667C124.299 15.447 124.224 15.272 124.074 15.142C123.924 15.012 123.724 14.902 123.474 14.812C123.234 14.722 122.964 14.637 122.664 14.557C122.354 14.467 122.034 14.367 121.704 14.257C121.384 14.147 121.089 14.007 120.819 13.837C120.549 13.657 120.329 13.422 120.159 13.132C119.989 12.842 119.904 12.477 119.904 12.037C119.904 11.537 120.044 11.112 120.324 10.762C120.604 10.412 120.964 10.142 121.404 9.95204C121.854 9.76204 122.324 9.66704 122.814 9.66704C123.124 9.66704 123.449 9.70704 123.789 9.78704C124.129 9.85704 124.454 9.97704 124.764 10.147C125.074 10.307 125.334 10.522 125.544 10.792C125.654 10.942 125.719 11.122 125.739 11.332C125.759 11.542 125.664 11.732 125.454 11.902C125.304 12.022 125.129 12.077 124.929 12.067C124.729 12.047 124.564 11.977 124.434 11.857C124.264 11.637 124.034 11.462 123.744 11.332C123.464 11.202 123.139 11.137 122.769 11.137C122.619 11.137 122.454 11.157 122.274 11.197C122.104 11.227 121.954 11.302 121.824 11.422C121.694 11.532 121.629 11.712 121.629 11.962C121.629 12.192 121.704 12.377 121.854 12.517C122.004 12.647 122.204 12.757 122.454 12.847C122.714 12.927 122.989 13.007 123.279 13.087C123.579 13.167 123.884 13.262 124.194 13.372C124.504 13.482 124.789 13.627 125.049 13.807C125.309 13.987 125.519 14.222 125.679 14.512C125.839 14.792 125.919 15.152 125.919 15.592C125.919 16.102 125.769 16.537 125.469 16.897C125.169 17.257 124.794 17.532 124.344 17.722C123.894 17.902 123.434 17.992 122.964 17.992C122.374 17.992 121.784 17.892 121.194 17.692C120.604 17.482 120.114 17.117 119.724 16.597ZM127.515 9.96704H131.07C131.31 9.96704 131.51 10.047 131.67 10.207C131.83 10.367 131.91 10.567 131.91 10.807C131.91 11.037 131.83 11.232 131.67 11.392C131.51 11.542 131.31 11.617 131.07 11.617H127.515C127.275 11.617 127.075 11.537 126.915 11.377C126.755 11.217 126.675 11.017 126.675 10.777C126.675 10.547 126.755 10.357 126.915 10.207C127.075 10.047 127.275 9.96704 127.515 9.96704ZM129.12 8.09204C129.38 8.09204 129.59 8.18204 129.75 8.36204C129.92 8.53204 130.005 8.74704 130.005 9.00704V15.682C130.005 15.822 130.03 15.937 130.08 16.027C130.14 16.117 130.215 16.182 130.305 16.222C130.405 16.262 130.51 16.282 130.62 16.282C130.74 16.282 130.85 16.262 130.95 16.222C131.05 16.172 131.165 16.147 131.295 16.147C131.435 16.147 131.56 16.212 131.67 16.342C131.79 16.472 131.85 16.652 131.85 16.882C131.85 17.162 131.695 17.392 131.385 17.572C131.085 17.752 130.76 17.842 130.41 17.842C130.2 17.842 129.965 17.827 129.705 17.797C129.455 17.757 129.215 17.672 128.985 17.542C128.765 17.402 128.58 17.192 128.43 16.912C128.28 16.632 128.205 16.247 128.205 15.757V9.00704C128.205 8.74704 128.29 8.53204 128.46 8.36204C128.64 8.18204 128.86 8.09204 129.12 8.09204ZM137.27 17.992C136.42 17.992 135.68 17.817 135.05 17.467C134.43 17.107 133.95 16.622 133.61 16.012C133.28 15.402 133.115 14.712 133.115 13.942C133.115 13.042 133.295 12.277 133.655 11.647C134.025 11.007 134.505 10.517 135.095 10.177C135.685 9.83704 136.31 9.66704 136.97 9.66704C137.48 9.66704 137.96 9.77204 138.41 9.98204C138.87 10.192 139.275 10.482 139.625 10.852C139.975 11.212 140.25 11.632 140.45 12.112C140.66 12.592 140.765 13.102 140.765 13.642C140.755 13.882 140.66 14.077 140.48 14.227C140.3 14.377 140.09 14.452 139.85 14.452H134.12L133.67 12.952H139.175L138.845 13.252V12.847C138.825 12.557 138.72 12.297 138.53 12.067C138.35 11.837 138.12 11.657 137.84 11.527C137.57 11.387 137.28 11.317 136.97 11.317C136.67 11.317 136.39 11.357 136.13 11.437C135.87 11.517 135.645 11.652 135.455 11.842C135.265 12.032 135.115 12.287 135.005 12.607C134.895 12.927 134.84 13.332 134.84 13.822C134.84 14.362 134.95 14.822 135.17 15.202C135.4 15.572 135.69 15.857 136.04 16.057C136.4 16.247 136.78 16.342 137.18 16.342C137.55 16.342 137.845 16.312 138.065 16.252C138.285 16.192 138.46 16.122 138.59 16.042C138.73 15.952 138.855 15.877 138.965 15.817C139.145 15.727 139.315 15.682 139.475 15.682C139.695 15.682 139.875 15.757 140.015 15.907C140.165 16.057 140.24 16.232 140.24 16.432C140.24 16.702 140.1 16.947 139.82 17.167C139.56 17.387 139.195 17.582 138.725 17.752C138.255 17.912 137.77 17.992 137.27 17.992ZM143.238 17.842C142.978 17.842 142.763 17.757 142.593 17.587C142.423 17.407 142.338 17.187 142.338 16.927V10.732C142.338 10.472 142.423 10.257 142.593 10.087C142.763 9.90704 142.978 9.81704 143.238 9.81704C143.498 9.81704 143.713 9.90704 143.883 10.087C144.053 10.257 144.138 10.472 144.138 10.732V12.142L144.033 11.137C144.143 10.897 144.283 10.687 144.453 10.507C144.633 10.317 144.833 10.162 145.053 10.042C145.273 9.91204 145.508 9.81704 145.758 9.75704C146.008 9.69704 146.258 9.66704 146.508 9.66704C146.808 9.66704 147.058 9.75204 147.258 9.92204C147.468 10.092 147.573 10.292 147.573 10.522C147.573 10.852 147.488 11.092 147.318 11.242C147.148 11.382 146.963 11.452 146.763 11.452C146.573 11.452 146.398 11.417 146.238 11.347C146.088 11.277 145.913 11.242 145.713 11.242C145.533 11.242 145.348 11.287 145.158 11.377C144.978 11.457 144.808 11.587 144.648 11.767C144.498 11.947 144.373 12.172 144.273 12.442C144.183 12.702 144.138 13.012 144.138 13.372V16.927C144.138 17.187 144.053 17.407 143.883 17.587C143.713 17.757 143.498 17.842 143.238 17.842ZM161.161 7.34204C161.401 7.34204 161.596 7.42204 161.746 7.58204C161.896 7.74204 161.971 7.94204 161.971 8.18204V16.927C161.971 17.187 161.881 17.407 161.701 17.587C161.531 17.757 161.316 17.842 161.056 17.842C160.926 17.842 160.791 17.822 160.651 17.782C160.521 17.732 160.421 17.667 160.351 17.587L154.456 10.102L154.846 9.86204V17.002C154.846 17.242 154.766 17.442 154.606 17.602C154.456 17.762 154.256 17.842 154.006 17.842C153.766 17.842 153.571 17.762 153.421 17.602C153.271 17.442 153.196 17.242 153.196 17.002V8.25704C153.196 7.99704 153.281 7.78204 153.451 7.61204C153.631 7.43204 153.851 7.34204 154.111 7.34204C154.251 7.34204 154.396 7.37204 154.546 7.43204C154.696 7.48204 154.806 7.56204 154.876 7.67204L160.591 14.962L160.336 15.142V8.18204C160.336 7.94204 160.411 7.74204 160.561 7.58204C160.711 7.42204 160.911 7.34204 161.161 7.34204ZM171.861 13.837C171.861 14.657 171.676 15.382 171.306 16.012C170.946 16.632 170.456 17.117 169.836 17.467C169.226 17.817 168.541 17.992 167.781 17.992C167.021 17.992 166.331 17.817 165.711 17.467C165.101 17.117 164.611 16.632 164.241 16.012C163.881 15.382 163.701 14.657 163.701 13.837C163.701 13.017 163.881 12.297 164.241 11.677C164.611 11.047 165.101 10.557 165.711 10.207C166.331 9.84704 167.021 9.66704 167.781 9.66704C168.541 9.66704 169.226 9.84704 169.836 10.207C170.456 10.557 170.946 11.047 171.306 11.677C171.676 12.297 171.861 13.017 171.861 13.837ZM170.061 13.837C170.061 13.327 169.956 12.887 169.746 12.517C169.546 12.137 169.271 11.842 168.921 11.632C168.581 11.422 168.201 11.317 167.781 11.317C167.361 11.317 166.976 11.422 166.626 11.632C166.286 11.842 166.011 12.137 165.801 12.517C165.601 12.887 165.501 13.327 165.501 13.837C165.501 14.337 165.601 14.777 165.801 15.157C166.011 15.527 166.286 15.817 166.626 16.027C166.976 16.237 167.361 16.342 167.781 16.342C168.201 16.342 168.581 16.237 168.921 16.027C169.271 15.817 169.546 15.527 169.746 15.157C169.956 14.777 170.061 14.337 170.061 13.837ZM182.676 9.81704C182.906 9.81704 183.106 9.90704 183.276 10.087C183.446 10.257 183.531 10.477 183.531 10.747C183.531 10.817 183.526 10.882 183.516 10.942C183.506 10.992 183.491 11.042 183.471 11.092L181.176 17.272C181.106 17.472 180.981 17.627 180.801 17.737C180.621 17.837 180.431 17.872 180.231 17.842C179.891 17.822 179.636 17.632 179.466 17.272L177.981 12.997L178.371 13.012L176.976 17.272C176.806 17.632 176.551 17.822 176.211 17.842C176.021 17.872 175.831 17.837 175.641 17.737C175.461 17.627 175.336 17.472 175.266 17.272L172.971 11.092C172.931 10.982 172.911 10.867 172.911 10.747C172.911 10.507 172.991 10.292 173.151 10.102C173.311 9.91204 173.531 9.81704 173.811 9.81704C174.001 9.81704 174.171 9.86204 174.321 9.95204C174.471 10.042 174.576 10.187 174.636 10.387L176.451 15.307L176.076 15.277L177.441 11.572C177.601 11.202 177.876 11.017 178.266 11.017C178.486 11.017 178.651 11.067 178.761 11.167C178.881 11.257 178.976 11.392 179.046 11.572L180.411 15.277L179.961 15.337L181.806 10.387C181.926 10.007 182.216 9.81704 182.676 9.81704ZM195.724 9.66704C195.984 9.66704 196.199 9.75204 196.369 9.92204C196.539 10.092 196.624 10.312 196.624 10.582V16.927C196.624 17.187 196.539 17.407 196.369 17.587C196.199 17.757 195.984 17.842 195.724 17.842C195.464 17.842 195.249 17.757 195.079 17.587C194.909 17.407 194.824 17.187 194.824 16.927V16.192L195.154 16.327C195.154 16.457 195.084 16.617 194.944 16.807C194.804 16.987 194.614 17.167 194.374 17.347C194.134 17.527 193.849 17.682 193.519 17.812C193.199 17.932 192.849 17.992 192.469 17.992C191.779 17.992 191.154 17.817 190.594 17.467C190.034 17.107 189.589 16.617 189.259 15.997C188.939 15.367 188.779 14.647 188.779 13.837C188.779 13.017 188.939 12.297 189.259 11.677C189.589 11.047 190.029 10.557 190.579 10.207C191.129 9.84704 191.739 9.66704 192.409 9.66704C192.839 9.66704 193.234 9.73204 193.594 9.86204C193.954 9.99204 194.264 10.157 194.524 10.357C194.794 10.557 194.999 10.762 195.139 10.972C195.289 11.172 195.364 11.342 195.364 11.482L194.824 11.677V10.582C194.824 10.322 194.909 10.107 195.079 9.93704C195.249 9.75704 195.464 9.66704 195.724 9.66704ZM192.694 16.342C193.134 16.342 193.519 16.232 193.849 16.012C194.179 15.792 194.434 15.492 194.614 15.112C194.804 14.732 194.899 14.307 194.899 13.837C194.899 13.357 194.804 12.927 194.614 12.547C194.434 12.167 194.179 11.867 193.849 11.647C193.519 11.427 193.134 11.317 192.694 11.317C192.264 11.317 191.884 11.427 191.554 11.647C191.224 11.867 190.964 12.167 190.774 12.547C190.594 12.927 190.504 13.357 190.504 13.837C190.504 14.307 190.594 14.732 190.774 15.112C190.964 15.492 191.224 15.792 191.554 16.012C191.884 16.232 192.264 16.342 192.694 16.342ZM202.863 9.66704C203.603 9.66704 204.163 9.82204 204.543 10.132C204.933 10.442 205.198 10.857 205.338 11.377C205.488 11.887 205.563 12.457 205.563 13.087V16.927C205.563 17.187 205.478 17.407 205.308 17.587C205.138 17.757 204.923 17.842 204.663 17.842C204.403 17.842 204.188 17.757 204.018 17.587C203.848 17.407 203.763 17.187 203.763 16.927V13.087C203.763 12.757 203.718 12.462 203.628 12.202C203.548 11.932 203.398 11.717 203.178 11.557C202.958 11.397 202.643 11.317 202.233 11.317C201.833 11.317 201.493 11.397 201.213 11.557C200.943 11.717 200.733 11.932 200.583 12.202C200.443 12.462 200.373 12.757 200.373 13.087V16.927C200.373 17.187 200.288 17.407 200.118 17.587C199.948 17.757 199.733 17.842 199.473 17.842C199.213 17.842 198.998 17.757 198.828 17.587C198.658 17.407 198.573 17.187 198.573 16.927V10.732C198.573 10.472 198.658 10.257 198.828 10.087C198.998 9.90704 199.213 9.81704 199.473 9.81704C199.733 9.81704 199.948 9.90704 200.118 10.087C200.288 10.257 200.373 10.472 200.373 10.732V11.377L200.148 11.332C200.238 11.162 200.368 10.982 200.538 10.792C200.708 10.592 200.908 10.407 201.138 10.237C201.368 10.067 201.628 9.93204 201.918 9.83204C202.208 9.72204 202.523 9.66704 202.863 9.66704ZM214.078 6.74204C214.338 6.74204 214.553 6.82704 214.723 6.99704C214.893 7.16704 214.978 7.38704 214.978 7.65704V16.927C214.978 17.187 214.893 17.407 214.723 17.587C214.553 17.757 214.338 17.842 214.078 17.842C213.818 17.842 213.603 17.757 213.433 17.587C213.263 17.407 213.178 17.187 213.178 16.927V16.192L213.508 16.327C213.508 16.457 213.438 16.617 213.298 16.807C213.158 16.987 212.968 17.167 212.728 17.347C212.488 17.527 212.203 17.682 211.873 17.812C211.553 17.932 211.203 17.992 210.823 17.992C210.133 17.992 209.508 17.817 208.948 17.467C208.388 17.107 207.943 16.617 207.613 15.997C207.293 15.367 207.133 14.647 207.133 13.837C207.133 13.017 207.293 12.297 207.613 11.677C207.943 11.047 208.383 10.557 208.933 10.207C209.483 9.84704 210.093 9.66704 210.763 9.66704C211.193 9.66704 211.588 9.73204 211.948 9.86204C212.308 9.99204 212.618 10.157 212.878 10.357C213.148 10.557 213.353 10.762 213.493 10.972C213.643 11.172 213.718 11.342 213.718 11.482L213.178 11.677V7.65704C213.178 7.39704 213.263 7.18204 213.433 7.01204C213.603 6.83204 213.818 6.74204 214.078 6.74204ZM211.048 16.342C211.488 16.342 211.873 16.232 212.203 16.012C212.533 15.792 212.788 15.492 212.968 15.112C213.158 14.732 213.253 14.307 213.253 13.837C213.253 13.357 213.158 12.927 212.968 12.547C212.788 12.167 212.533 11.867 212.203 11.647C211.873 11.427 211.488 11.317 211.048 11.317C210.618 11.317 210.238 11.427 209.908 11.647C209.578 11.867 209.318 12.167 209.128 12.547C208.948 12.927 208.858 13.357 208.858 13.837C208.858 14.307 208.948 14.732 209.128 15.112C209.318 15.492 209.578 15.792 209.908 16.012C210.238 16.232 210.618 16.342 211.048 16.342ZM226.231 17.992C225.471 17.992 224.761 17.852 224.101 17.572C223.441 17.292 222.861 16.907 222.361 16.417C221.861 15.917 221.466 15.342 221.176 14.692C220.896 14.042 220.756 13.342 220.756 12.592C220.756 11.842 220.896 11.142 221.176 10.492C221.466 9.84204 221.861 9.27204 222.361 8.78204C222.861 8.28204 223.441 7.89204 224.101 7.61204C224.761 7.33204 225.471 7.19204 226.231 7.19204C226.701 7.19204 227.156 7.24204 227.596 7.34204C228.036 7.44204 228.441 7.59204 228.811 7.79204C228.961 7.87204 229.071 7.98204 229.141 8.12204C229.221 8.25204 229.261 8.38704 229.261 8.52704C229.261 8.76704 229.181 8.98204 229.021 9.17204C228.861 9.36204 228.656 9.45704 228.406 9.45704C228.326 9.45704 228.241 9.44704 228.151 9.42704C228.071 9.40704 227.991 9.37704 227.911 9.33704C227.661 9.22704 227.396 9.14204 227.116 9.08204C226.836 9.02204 226.541 8.99204 226.231 8.99204C225.581 8.99204 224.986 9.15704 224.446 9.48704C223.916 9.80704 223.491 10.242 223.171 10.792C222.861 11.332 222.706 11.932 222.706 12.592C222.706 13.242 222.861 13.842 223.171 14.392C223.491 14.942 223.916 15.382 224.446 15.712C224.986 16.032 225.581 16.192 226.231 16.192C226.531 16.192 226.861 16.162 227.221 16.102C227.581 16.042 227.876 15.962 228.106 15.862L227.971 16.312V13.747L228.226 13.972H226.561C226.301 13.972 226.081 13.887 225.901 13.717C225.731 13.547 225.646 13.332 225.646 13.072C225.646 12.812 225.731 12.597 225.901 12.427C226.081 12.257 226.301 12.172 226.561 12.172H229.021C229.281 12.172 229.496 12.262 229.666 12.442C229.836 12.612 229.921 12.827 229.921 13.087V16.267C229.921 16.467 229.871 16.632 229.771 16.762C229.681 16.892 229.576 16.997 229.456 17.077C228.996 17.357 228.491 17.582 227.941 17.752C227.401 17.912 226.831 17.992 226.231 17.992ZM235.356 17.992C234.506 17.992 233.766 17.817 233.136 17.467C232.516 17.107 232.036 16.622 231.696 16.012C231.366 15.402 231.201 14.712 231.201 13.942C231.201 13.042 231.381 12.277 231.741 11.647C232.111 11.007 232.591 10.517 233.181 10.177C233.771 9.83704 234.396 9.66704 235.056 9.66704C235.566 9.66704 236.046 9.77204 236.496 9.98204C236.956 10.192 237.361 10.482 237.711 10.852C238.061 11.212 238.336 11.632 238.536 12.112C238.746 12.592 238.851 13.102 238.851 13.642C238.841 13.882 238.746 14.077 238.566 14.227C238.386 14.377 238.176 14.452 237.936 14.452H232.206L231.756 12.952H237.261L236.931 13.252V12.847C236.911 12.557 236.806 12.297 236.616 12.067C236.436 11.837 236.206 11.657 235.926 11.527C235.656 11.387 235.366 11.317 235.056 11.317C234.756 11.317 234.476 11.357 234.216 11.437C233.956 11.517 233.731 11.652 233.541 11.842C233.351 12.032 233.201 12.287 233.091 12.607C232.981 12.927 232.926 13.332 232.926 13.822C232.926 14.362 233.036 14.822 233.256 15.202C233.486 15.572 233.776 15.857 234.126 16.057C234.486 16.247 234.866 16.342 235.266 16.342C235.636 16.342 235.931 16.312 236.151 16.252C236.371 16.192 236.546 16.122 236.676 16.042C236.816 15.952 236.941 15.877 237.051 15.817C237.231 15.727 237.401 15.682 237.561 15.682C237.781 15.682 237.961 15.757 238.101 15.907C238.251 16.057 238.326 16.232 238.326 16.432C238.326 16.702 238.186 16.947 237.906 17.167C237.646 17.387 237.281 17.582 236.811 17.752C236.341 17.912 235.856 17.992 235.356 17.992ZM240.513 9.96704H244.068C244.308 9.96704 244.508 10.047 244.668 10.207C244.828 10.367 244.908 10.567 244.908 10.807C244.908 11.037 244.828 11.232 244.668 11.392C244.508 11.542 244.308 11.617 244.068 11.617H240.513C240.273 11.617 240.073 11.537 239.913 11.377C239.753 11.217 239.673 11.017 239.673 10.777C239.673 10.547 239.753 10.357 239.913 10.207C240.073 10.047 240.273 9.96704 240.513 9.96704ZM242.118 8.09204C242.378 8.09204 242.588 8.18204 242.748 8.36204C242.918 8.53204 243.003 8.74704 243.003 9.00704V15.682C243.003 15.822 243.028 15.937 243.078 16.027C243.138 16.117 243.213 16.182 243.303 16.222C243.403 16.262 243.508 16.282 243.618 16.282C243.738 16.282 243.848 16.262 243.948 16.222C244.048 16.172 244.163 16.147 244.293 16.147C244.433 16.147 244.558 16.212 244.668 16.342C244.788 16.472 244.848 16.652 244.848 16.882C244.848 17.162 244.693 17.392 244.383 17.572C244.083 17.752 243.758 17.842 243.408 17.842C243.198 17.842 242.963 17.827 242.703 17.797C242.453 17.757 242.213 17.672 241.983 17.542C241.763 17.402 241.578 17.192 241.428 16.912C241.278 16.632 241.203 16.247 241.203 15.757V9.00704C241.203 8.74704 241.288 8.53204 241.458 8.36204C241.638 8.18204 241.858 8.09204 242.118 8.09204Z" fill="#055AAB"/>
<path d="M251.86 17.842C251.58 17.842 251.35 17.757 251.17 17.587C251 17.407 250.915 17.187 250.915 16.927V8.25704C250.915 7.99704 251 7.78204 251.17 7.61204C251.35 7.43204 251.57 7.34204 251.83 7.34204H256.705C256.965 7.34204 257.18 7.42704 257.35 7.59704C257.53 7.75704 257.62 7.96704 257.62 8.22704C257.62 8.44704 257.53 8.64204 257.35 8.81204C257.18 8.98204 256.965 9.06704 256.705 9.06704H252.655L252.79 8.88704V11.902L252.685 11.707H256.03C256.29 11.707 256.505 11.792 256.675 11.962C256.855 12.122 256.945 12.332 256.945 12.592C256.945 12.812 256.855 13.007 256.675 13.177C256.505 13.347 256.29 13.432 256.03 13.432H252.655L252.79 13.297V16.927C252.79 17.187 252.695 17.407 252.505 17.587C252.325 17.757 252.11 17.842 251.86 17.842ZM260.418 17.842C260.138 17.842 259.888 17.757 259.668 17.587C259.448 17.407 259.338 17.187 259.338 16.927V8.25704C259.338 7.99704 259.423 7.78204 259.593 7.61204C259.773 7.43204 259.993 7.34204 260.253 7.34204H264.573C265.093 7.34204 265.578 7.48204 266.028 7.76204C266.488 8.03204 266.858 8.41204 267.138 8.90204C267.418 9.38204 267.558 9.93704 267.558 10.567C267.558 10.947 267.478 11.317 267.318 11.677C267.168 12.037 266.958 12.362 266.688 12.652C266.428 12.942 266.133 13.167 265.803 13.327L265.818 12.982C266.098 13.132 266.328 13.312 266.508 13.522C266.698 13.722 266.843 13.942 266.943 14.182C267.053 14.412 267.118 14.662 267.138 14.932C267.178 15.182 267.203 15.402 267.213 15.592C267.233 15.782 267.263 15.942 267.303 16.072C267.353 16.202 267.443 16.302 267.573 16.372C267.793 16.502 267.928 16.692 267.978 16.942C268.038 17.182 267.983 17.397 267.813 17.587C267.703 17.717 267.563 17.802 267.393 17.842C267.223 17.872 267.053 17.872 266.883 17.842C266.713 17.802 266.573 17.752 266.463 17.692C266.293 17.592 266.123 17.447 265.953 17.257C265.783 17.057 265.643 16.792 265.533 16.462C265.433 16.132 265.383 15.707 265.383 15.187C265.383 15.017 265.353 14.862 265.293 14.722C265.233 14.572 265.148 14.447 265.038 14.347C264.928 14.237 264.788 14.157 264.618 14.107C264.448 14.047 264.248 14.017 264.018 14.017H260.988L261.213 13.672V16.927C261.213 17.187 261.143 17.407 261.003 17.587C260.863 17.757 260.668 17.842 260.418 17.842ZM261.003 12.472H264.498C264.678 12.472 264.853 12.392 265.023 12.232C265.193 12.062 265.333 11.837 265.443 11.557C265.553 11.267 265.608 10.952 265.608 10.612C265.608 10.172 265.488 9.80704 265.248 9.51704C265.018 9.21704 264.768 9.06704 264.498 9.06704H261.033L261.213 8.58704V12.832L261.003 12.472ZM270.551 7.34204H275.576C275.836 7.34204 276.051 7.42704 276.221 7.59704C276.401 7.75704 276.491 7.96704 276.491 8.22704C276.491 8.47704 276.401 8.68204 276.221 8.84204C276.051 8.99204 275.836 9.06704 275.576 9.06704H271.376L271.511 8.81204V11.737L271.391 11.617H274.901C275.161 11.617 275.376 11.702 275.546 11.872C275.726 12.032 275.816 12.242 275.816 12.502C275.816 12.752 275.726 12.957 275.546 13.117C275.376 13.267 275.161 13.342 274.901 13.342H271.436L271.511 13.222V16.252L271.391 16.117H275.576C275.836 16.117 276.051 16.207 276.221 16.387C276.401 16.557 276.491 16.757 276.491 16.987C276.491 17.237 276.401 17.442 276.221 17.602C276.051 17.762 275.836 17.842 275.576 17.842H270.551C270.291 17.842 270.071 17.757 269.891 17.587C269.721 17.407 269.636 17.187 269.636 16.927V8.25704C269.636 7.99704 269.721 7.78204 269.891 7.61204C270.071 7.43204 270.291 7.34204 270.551 7.34204ZM279.135 7.34204H284.16C284.42 7.34204 284.635 7.42704 284.805 7.59704C284.985 7.75704 285.075 7.96704 285.075 8.22704C285.075 8.47704 284.985 8.68204 284.805 8.84204C284.635 8.99204 284.42 9.06704 284.16 9.06704H279.96L280.095 8.81204V11.737L279.975 11.617H283.485C283.745 11.617 283.96 11.702 284.13 11.872C284.31 12.032 284.4 12.242 284.4 12.502C284.4 12.752 284.31 12.957 284.13 13.117C283.96 13.267 283.745 13.342 283.485 13.342H280.02L280.095 13.222V16.252L279.975 16.117H284.16C284.42 16.117 284.635 16.207 284.805 16.387C284.985 16.557 285.075 16.757 285.075 16.987C285.075 17.237 284.985 17.442 284.805 17.602C284.635 17.762 284.42 17.842 284.16 17.842H279.135C278.875 17.842 278.655 17.757 278.475 17.587C278.305 17.407 278.22 17.187 278.22 16.927V8.25704C278.22 7.99704 278.305 7.78204 278.475 7.61204C278.655 7.43204 278.875 7.34204 279.135 7.34204Z" fill="#208A43"/>
<path d="M-3.99988 126.726C18.9887 105.004 39.7671 91.7599 74.8076 85.5619C126.518 76.4152 134.083 125.76 186.101 129.866C259.386 135.651 309.927 91.8431 373.193 64.3461" stroke="#DCE9F9" stroke-width="14.3909" stroke-linecap="round"/>
<g filter="url(#filter0_d_752_1053)">
<rect x="142.405" y="82.845" width="85.4458" height="59.1548" rx="8.79441" fill="#F7FFF5"/>
<rect x="142.79" y="83.2299" width="84.676" height="58.385" rx="8.40952" stroke="#51B53C" stroke-width="0.769782"/>
</g>
<path d="M156.99 120.223C157.357 120.223 157.687 120.313 157.98 120.493C158.273 120.673 158.503 120.92 158.67 121.233C158.843 121.546 158.93 121.903 158.93 122.303C158.93 122.696 158.843 123.053 158.67 123.373C158.503 123.693 158.273 123.946 157.98 124.133C157.687 124.32 157.357 124.413 156.99 124.413H154.96L155.03 124.293V126.813C155.03 126.926 154.993 127.023 154.92 127.103C154.847 127.183 154.753 127.223 154.64 127.223C154.52 127.223 154.423 127.183 154.35 127.103C154.283 127.023 154.25 126.926 154.25 126.813V120.623C154.25 120.51 154.287 120.416 154.36 120.343C154.44 120.263 154.537 120.223 154.65 120.223H156.99ZM156.99 123.643C157.21 123.643 157.403 123.583 157.57 123.463C157.737 123.343 157.87 123.18 157.97 122.973C158.07 122.766 158.12 122.543 158.12 122.303C158.12 122.05 158.07 121.826 157.97 121.633C157.87 121.44 157.737 121.286 157.57 121.173C157.403 121.053 157.21 120.993 156.99 120.993H154.96L155.03 120.883V123.743L154.96 123.643H156.99ZM160.496 127.223C160.383 127.223 160.286 127.183 160.206 127.103C160.133 127.023 160.096 126.926 160.096 126.813V122.453C160.096 122.34 160.133 122.246 160.206 122.173C160.286 122.093 160.383 122.053 160.496 122.053C160.616 122.053 160.713 122.093 160.786 122.173C160.86 122.246 160.896 122.34 160.896 122.453V123.773L160.776 123.563C160.816 123.356 160.886 123.156 160.986 122.963C161.093 122.763 161.226 122.586 161.386 122.433C161.546 122.273 161.73 122.15 161.936 122.063C162.143 121.97 162.37 121.923 162.616 121.923C162.763 121.923 162.896 121.96 163.016 122.033C163.143 122.1 163.206 122.196 163.206 122.323C163.206 122.463 163.17 122.566 163.096 122.633C163.023 122.7 162.94 122.733 162.846 122.733C162.76 122.733 162.676 122.716 162.596 122.683C162.516 122.643 162.416 122.623 162.296 122.623C162.13 122.623 161.963 122.67 161.796 122.763C161.636 122.85 161.486 122.976 161.346 123.143C161.213 123.31 161.103 123.5 161.016 123.713C160.936 123.92 160.896 124.143 160.896 124.383V126.813C160.896 126.926 160.856 127.023 160.776 127.103C160.703 127.183 160.61 127.223 160.496 127.223ZM166.275 127.323C165.742 127.323 165.275 127.21 164.875 126.983C164.475 126.756 164.162 126.446 163.935 126.053C163.715 125.653 163.605 125.193 163.605 124.673C163.605 124.093 163.719 123.6 163.945 123.193C164.179 122.78 164.479 122.466 164.845 122.253C165.219 122.033 165.612 121.923 166.025 121.923C166.332 121.923 166.629 121.98 166.915 122.093C167.202 122.206 167.455 122.373 167.675 122.593C167.895 122.806 168.072 123.066 168.205 123.373C168.339 123.673 168.409 124.01 168.415 124.383C168.415 124.49 168.375 124.58 168.295 124.653C168.215 124.726 168.122 124.763 168.015 124.763H164.065L163.885 124.073H167.735L167.575 124.213V123.993C167.549 123.72 167.455 123.486 167.295 123.293C167.142 123.093 166.952 122.94 166.725 122.833C166.505 122.726 166.272 122.673 166.025 122.673C165.825 122.673 165.625 122.71 165.425 122.783C165.232 122.85 165.055 122.963 164.895 123.123C164.742 123.276 164.615 123.476 164.515 123.723C164.422 123.97 164.375 124.266 164.375 124.613C164.375 125 164.452 125.34 164.605 125.633C164.765 125.926 164.985 126.16 165.265 126.333C165.545 126.5 165.872 126.583 166.245 126.583C166.479 126.583 166.682 126.553 166.855 126.493C167.029 126.433 167.179 126.36 167.305 126.273C167.432 126.18 167.539 126.086 167.625 125.993C167.712 125.933 167.795 125.903 167.875 125.903C167.975 125.903 168.055 125.936 168.115 126.003C168.182 126.07 168.215 126.15 168.215 126.243C168.215 126.356 168.162 126.456 168.055 126.543C167.869 126.75 167.615 126.933 167.295 127.093C166.975 127.246 166.635 127.323 166.275 127.323ZM169.828 124.513C169.715 124.513 169.618 124.476 169.538 124.403C169.465 124.323 169.428 124.223 169.428 124.103C169.428 123.99 169.465 123.896 169.538 123.823C169.618 123.75 169.715 123.713 169.828 123.713H171.848C171.961 123.713 172.055 123.753 172.128 123.833C172.208 123.913 172.248 124.01 172.248 124.123C172.248 124.236 172.208 124.33 172.128 124.403C172.055 124.476 171.961 124.513 171.848 124.513H169.828ZM203.676 127.223C203.556 127.223 203.456 127.183 203.376 127.103C203.296 127.023 203.256 126.926 203.256 126.813V120.633H204.106V126.813C204.106 126.926 204.066 127.023 203.986 127.103C203.906 127.183 203.803 127.223 203.676 127.223ZM201.356 120.983C201.243 120.983 201.146 120.95 201.066 120.883C200.993 120.81 200.956 120.716 200.956 120.603C200.956 120.49 200.993 120.4 201.066 120.333C201.146 120.26 201.243 120.223 201.356 120.223H206.006C206.119 120.223 206.216 120.26 206.296 120.333C206.376 120.4 206.416 120.49 206.416 120.603C206.416 120.723 206.376 120.816 206.296 120.883C206.216 120.95 206.119 120.983 206.006 120.983H201.356ZM208.668 127.323C208.135 127.323 207.668 127.21 207.268 126.983C206.868 126.756 206.555 126.446 206.328 126.053C206.108 125.653 205.998 125.193 205.998 124.673C205.998 124.093 206.111 123.6 206.338 123.193C206.571 122.78 206.871 122.466 207.238 122.253C207.611 122.033 208.005 121.923 208.418 121.923C208.725 121.923 209.021 121.98 209.308 122.093C209.595 122.206 209.848 122.373 210.068 122.593C210.288 122.806 210.465 123.066 210.598 123.373C210.731 123.673 210.801 124.01 210.808 124.383C210.808 124.49 210.768 124.58 210.688 124.653C210.608 124.726 210.515 124.763 210.408 124.763H206.458L206.278 124.073H210.128L209.968 124.213V123.993C209.941 123.72 209.848 123.486 209.688 123.293C209.535 123.093 209.345 122.94 209.118 122.833C208.898 122.726 208.665 122.673 208.418 122.673C208.218 122.673 208.018 122.71 207.818 122.783C207.625 122.85 207.448 122.963 207.288 123.123C207.135 123.276 207.008 123.476 206.908 123.723C206.815 123.97 206.768 124.266 206.768 124.613C206.768 125 206.845 125.34 206.998 125.633C207.158 125.926 207.378 126.16 207.658 126.333C207.938 126.5 208.265 126.583 208.638 126.583C208.871 126.583 209.075 126.553 209.248 126.493C209.421 126.433 209.571 126.36 209.698 126.273C209.825 126.18 209.931 126.086 210.018 125.993C210.105 125.933 210.188 125.903 210.268 125.903C210.368 125.903 210.448 125.936 210.508 126.003C210.575 126.07 210.608 126.15 210.608 126.243C210.608 126.356 210.555 126.456 210.448 126.543C210.261 126.75 210.008 126.933 209.688 127.093C209.368 127.246 209.028 127.323 208.668 127.323ZM211.72 126.403C211.66 126.316 211.634 126.226 211.64 126.133C211.647 126.033 211.704 125.946 211.81 125.873C211.877 125.826 211.954 125.806 212.04 125.813C212.134 125.82 212.217 125.863 212.29 125.943C212.477 126.163 212.69 126.34 212.93 126.473C213.17 126.6 213.464 126.663 213.81 126.663C213.97 126.656 214.13 126.63 214.29 126.583C214.45 126.536 214.584 126.456 214.69 126.343C214.804 126.223 214.86 126.066 214.86 125.873C214.86 125.686 214.804 125.54 214.69 125.433C214.577 125.32 214.43 125.23 214.25 125.163C214.07 125.09 213.874 125.026 213.66 124.973C213.44 124.913 213.224 124.846 213.01 124.773C212.797 124.693 212.604 124.596 212.43 124.483C212.264 124.363 212.127 124.216 212.02 124.043C211.92 123.863 211.87 123.646 211.87 123.393C211.87 123.093 211.95 122.833 212.11 122.613C212.277 122.393 212.497 122.223 212.77 122.103C213.05 121.983 213.354 121.923 213.68 121.923C213.867 121.923 214.06 121.946 214.26 121.993C214.467 122.033 214.667 122.106 214.86 122.213C215.054 122.313 215.224 122.453 215.37 122.633C215.43 122.7 215.464 122.783 215.47 122.883C215.477 122.983 215.434 123.073 215.34 123.153C215.267 123.206 215.184 123.23 215.09 123.223C215.004 123.216 214.93 123.183 214.87 123.123C214.73 122.956 214.554 122.83 214.34 122.743C214.134 122.65 213.904 122.603 213.65 122.603C213.49 122.603 213.334 122.626 213.18 122.673C213.027 122.72 212.897 122.8 212.79 122.913C212.69 123.02 212.64 123.17 212.64 123.363C212.647 123.543 212.707 123.69 212.82 123.803C212.934 123.916 213.087 124.01 213.28 124.083C213.474 124.15 213.687 124.216 213.92 124.283C214.134 124.336 214.337 124.4 214.53 124.473C214.73 124.54 214.91 124.63 215.07 124.743C215.23 124.856 215.357 125.003 215.45 125.183C215.544 125.356 215.59 125.576 215.59 125.843C215.59 126.15 215.504 126.416 215.33 126.643C215.157 126.863 214.927 127.033 214.64 127.153C214.36 127.266 214.057 127.323 213.73 127.323C213.364 127.323 213 127.253 212.64 127.113C212.287 126.973 211.98 126.736 211.72 126.403ZM216.547 122.083H218.897C219.003 122.083 219.09 122.12 219.157 122.193C219.23 122.266 219.267 122.353 219.267 122.453C219.267 122.56 219.23 122.65 219.157 122.723C219.09 122.79 219.003 122.823 218.897 122.823H216.547C216.447 122.823 216.36 122.786 216.287 122.713C216.213 122.64 216.177 122.55 216.177 122.443C216.177 122.343 216.213 122.26 216.287 122.193C216.36 122.12 216.447 122.083 216.547 122.083ZM217.597 120.723C217.71 120.723 217.803 120.763 217.877 120.843C217.95 120.916 217.987 121.01 217.987 121.123V125.953C217.987 126.113 218.01 126.233 218.057 126.313C218.103 126.393 218.163 126.45 218.237 126.483C218.317 126.51 218.393 126.523 218.467 126.523C218.533 126.523 218.59 126.513 218.637 126.493C218.69 126.466 218.75 126.453 218.817 126.453C218.883 126.453 218.943 126.486 218.997 126.553C219.057 126.613 219.087 126.693 219.087 126.793C219.087 126.913 219.017 127.016 218.877 127.103C218.737 127.183 218.58 127.223 218.407 127.223C218.313 127.223 218.197 127.216 218.057 127.203C217.923 127.19 217.79 127.146 217.657 127.073C217.523 127 217.41 126.88 217.317 126.713C217.23 126.54 217.187 126.3 217.187 125.993V121.123C217.187 121.01 217.227 120.916 217.307 120.843C217.387 120.763 217.483 120.723 217.597 120.723Z" fill="#292D32"/>
<path d="M174.654 126.713C174.647 126.86 174.591 126.983 174.484 127.083C174.384 127.176 174.264 127.223 174.124 127.223C173.971 127.223 173.844 127.176 173.744 127.083C173.651 126.983 173.604 126.86 173.604 126.713V120.733C173.604 120.586 173.654 120.466 173.754 120.373C173.854 120.273 173.984 120.223 174.144 120.223C174.277 120.223 174.394 120.273 174.494 120.373C174.601 120.466 174.654 120.586 174.654 120.733V126.713ZM176.78 120.223H180.24C180.38 120.223 180.497 120.27 180.59 120.363C180.69 120.456 180.74 120.573 180.74 120.713C180.74 120.853 180.69 120.966 180.59 121.053C180.497 121.14 180.38 121.183 180.24 121.183H177.22L177.32 121.013V123.253L177.23 123.153H179.79C179.93 123.153 180.047 123.2 180.14 123.293C180.24 123.386 180.29 123.506 180.29 123.653C180.29 123.793 180.24 123.906 180.14 123.993C180.047 124.08 179.93 124.123 179.79 124.123H177.25L177.32 124.033V126.343L177.25 126.263H180.24C180.38 126.263 180.497 126.313 180.59 126.413C180.69 126.506 180.74 126.616 180.74 126.743C180.74 126.883 180.69 127 180.59 127.093C180.497 127.18 180.38 127.223 180.24 127.223H176.78C176.64 127.223 176.52 127.176 176.42 127.083C176.32 126.983 176.27 126.86 176.27 126.713V120.733C176.27 120.586 176.32 120.466 176.42 120.373C176.52 120.273 176.64 120.223 176.78 120.223ZM185.853 126.243C185.993 126.243 186.109 126.29 186.203 126.383C186.303 126.476 186.353 126.593 186.353 126.733C186.353 126.873 186.303 126.99 186.203 127.083C186.109 127.176 185.993 127.223 185.853 127.223H182.493C182.346 127.223 182.223 127.176 182.123 127.083C182.029 126.983 181.983 126.86 181.983 126.713V120.733C181.983 120.586 182.033 120.466 182.133 120.373C182.233 120.273 182.363 120.223 182.523 120.223C182.656 120.223 182.773 120.273 182.873 120.373C182.979 120.466 183.033 120.586 183.033 120.733V126.413L182.823 126.243H185.853ZM188.921 127.223C188.761 127.223 188.631 127.176 188.531 127.083C188.438 126.983 188.391 126.86 188.391 126.713V120.723H189.461V126.713C189.461 126.86 189.408 126.983 189.301 127.083C189.201 127.176 189.074 127.223 188.921 127.223ZM186.651 121.183C186.511 121.183 186.391 121.14 186.291 121.053C186.191 120.96 186.141 120.84 186.141 120.693C186.141 120.553 186.191 120.44 186.291 120.353C186.391 120.266 186.511 120.223 186.651 120.223H191.201C191.341 120.223 191.458 120.27 191.551 120.363C191.651 120.45 191.701 120.563 191.701 120.703C191.701 120.85 191.651 120.966 191.551 121.053C191.458 121.14 191.341 121.183 191.201 121.183H186.651ZM194.982 127.323C194.502 127.323 194.076 127.256 193.702 127.123C193.329 126.99 192.972 126.77 192.632 126.463C192.559 126.41 192.502 126.346 192.462 126.273C192.429 126.193 192.412 126.113 192.412 126.033C192.412 125.906 192.459 125.793 192.552 125.693C192.646 125.593 192.762 125.543 192.902 125.543C193.009 125.543 193.109 125.58 193.202 125.653C193.456 125.886 193.719 126.063 193.992 126.183C194.272 126.303 194.599 126.363 194.972 126.363C195.239 126.363 195.482 126.32 195.702 126.233C195.929 126.146 196.109 126.03 196.242 125.883C196.376 125.736 196.442 125.566 196.442 125.373C196.442 125.133 196.372 124.936 196.232 124.783C196.099 124.623 195.902 124.493 195.642 124.393C195.389 124.286 195.082 124.196 194.722 124.123C194.389 124.063 194.089 123.98 193.822 123.873C193.562 123.766 193.339 123.633 193.152 123.473C192.966 123.306 192.822 123.11 192.722 122.883C192.622 122.656 192.572 122.393 192.572 122.093C192.572 121.686 192.679 121.336 192.892 121.043C193.106 120.75 193.396 120.523 193.762 120.363C194.129 120.203 194.542 120.123 195.002 120.123C195.422 120.123 195.816 120.19 196.182 120.323C196.549 120.45 196.846 120.623 197.072 120.843C197.232 120.983 197.312 121.133 197.312 121.293C197.312 121.413 197.262 121.526 197.162 121.633C197.069 121.733 196.959 121.783 196.832 121.783C196.739 121.783 196.659 121.756 196.592 121.703C196.486 121.59 196.342 121.49 196.162 121.403C195.982 121.31 195.789 121.233 195.582 121.173C195.382 121.113 195.189 121.083 195.002 121.083C194.702 121.083 194.446 121.126 194.232 121.213C194.019 121.293 193.856 121.406 193.742 121.553C193.629 121.693 193.572 121.86 193.572 122.053C193.572 122.28 193.636 122.466 193.762 122.613C193.896 122.76 194.079 122.88 194.312 122.973C194.546 123.06 194.812 123.14 195.112 123.213C195.479 123.293 195.806 123.383 196.092 123.483C196.386 123.583 196.632 123.713 196.832 123.873C197.032 124.026 197.186 124.22 197.292 124.453C197.399 124.686 197.452 124.976 197.452 125.323C197.452 125.723 197.339 126.073 197.112 126.373C196.886 126.673 196.586 126.906 196.212 127.073C195.846 127.24 195.436 127.323 194.982 127.323Z" fill="#D80027"/>
<circle cx="184.728" cy="91.6389" r="17.9886" fill="#F7FFF5" stroke="#51B53C" stroke-width="0.799492"/>
<path d="M185.013 89.2372H189.054" stroke="#51B53C" stroke-width="1.15467" stroke-linecap="round" stroke-linejoin="round"/>
<path d="M180.402 89.2371L180.979 89.8145L182.711 88.0825" stroke="#51B53C" stroke-width="1.15467" stroke-linecap="round" stroke-linejoin="round"/>
<path d="M185.013 94.6256H189.054" stroke="#51B53C" stroke-width="1.15467" stroke-linecap="round" stroke-linejoin="round"/>
<path d="M180.402 94.6256L180.979 95.203L182.711 93.4709" stroke="#51B53C" stroke-width="1.15467" stroke-linecap="round" stroke-linejoin="round"/>
<path d="M182.419 99.3367H187.037C190.886 99.3367 192.426 97.7971 192.426 93.9482V89.3295C192.426 85.4806 190.886 83.941 187.037 83.941H182.419C178.57 83.941 177.03 85.4806 177.03 89.3295V93.9482C177.03 97.7971 178.57 99.3367 182.419 99.3367Z" stroke="#51B53C" stroke-width="1.15467" stroke-linecap="round" stroke-linejoin="round"/>
<g filter="url(#filter1_d_752_1053)">
<rect x="253.69" y="60.4597" width="85.4458" height="59.1548" rx="8.79441" fill="#F7FFF5"/>
<rect x="254.075" y="60.8445" width="84.676" height="58.385" rx="8.40952" stroke="#51B53C" stroke-width="0.769782"/>
</g>
<path d="M264.521 105C264.401 105 264.301 104.96 264.221 104.88C264.141 104.8 264.101 104.703 264.101 104.59V98.8999L264.221 99.0399L263.091 99.8199C263.024 99.8666 262.947 99.8899 262.861 99.8899C262.747 99.8899 262.651 99.8499 262.571 99.7699C262.491 99.6833 262.451 99.5866 262.451 99.4799C262.451 99.3333 262.521 99.2166 262.661 99.1299L264.251 98.0799C264.304 98.0466 264.357 98.0233 264.411 98.0099C264.464 97.9966 264.517 97.9933 264.571 97.9999C264.691 97.9999 264.784 98.0399 264.851 98.1199C264.924 98.1933 264.961 98.2866 264.961 98.3999V104.59C264.961 104.703 264.917 104.8 264.831 104.88C264.751 104.96 264.647 105 264.521 105ZM266.93 102.29C266.817 102.29 266.72 102.253 266.64 102.18C266.567 102.1 266.53 102 266.53 101.88C266.53 101.767 266.567 101.673 266.64 101.6C266.72 101.527 266.817 101.49 266.93 101.49H268.95C269.064 101.49 269.157 101.53 269.23 101.61C269.31 101.69 269.35 101.787 269.35 101.9C269.35 102.013 269.31 102.107 269.23 102.18C269.157 102.253 269.064 102.29 268.95 102.29H266.93ZM271.747 105C271.627 105 271.527 104.96 271.447 104.88C271.367 104.8 271.327 104.703 271.327 104.59V98.8999L271.447 99.0399L270.317 99.8199C270.251 99.8666 270.174 99.8899 270.087 99.8899C269.974 99.8899 269.877 99.8499 269.797 99.7699C269.717 99.6833 269.677 99.5866 269.677 99.4799C269.677 99.3333 269.747 99.2166 269.887 99.1299L271.477 98.0799C271.531 98.0466 271.584 98.0233 271.637 98.0099C271.691 97.9966 271.744 97.9933 271.797 97.9999C271.917 97.9999 272.011 98.0399 272.077 98.1199C272.151 98.1933 272.187 98.2866 272.187 98.3999V104.59C272.187 104.703 272.144 104.8 272.057 104.88C271.977 104.96 271.874 105 271.747 105ZM281.881 98.4599C281.994 98.5199 282.058 98.6099 282.071 98.7299C282.091 98.8499 282.061 98.9599 281.981 99.0599C281.921 99.1466 281.844 99.1933 281.751 99.1999C281.658 99.2066 281.564 99.1866 281.471 99.1399C281.251 99.0066 281.014 98.9033 280.761 98.8299C280.508 98.7499 280.241 98.7099 279.961 98.7099C279.568 98.7099 279.208 98.7799 278.881 98.9199C278.554 99.0533 278.271 99.2433 278.031 99.4899C277.791 99.7366 277.604 100.03 277.471 100.37C277.338 100.71 277.271 101.087 277.271 101.5C277.271 101.94 277.341 102.333 277.481 102.68C277.621 103.027 277.811 103.323 278.051 103.57C278.298 103.81 278.581 103.993 278.901 104.12C279.228 104.247 279.581 104.31 279.961 104.31C280.234 104.31 280.498 104.273 280.751 104.2C281.004 104.127 281.244 104.02 281.471 103.88C281.564 103.833 281.658 103.817 281.751 103.83C281.844 103.843 281.924 103.89 281.991 103.97C282.071 104.077 282.101 104.19 282.081 104.31C282.061 104.423 281.998 104.507 281.891 104.56C281.724 104.66 281.534 104.753 281.321 104.84C281.108 104.92 280.884 104.983 280.651 105.03C280.424 105.077 280.194 105.1 279.961 105.1C279.481 105.1 279.028 105.017 278.601 104.85C278.174 104.683 277.798 104.443 277.471 104.13C277.144 103.817 276.884 103.44 276.691 103C276.504 102.553 276.411 102.053 276.411 101.5C276.411 100.98 276.501 100.503 276.681 100.07C276.861 99.6366 277.111 99.2599 277.431 98.9399C277.758 98.6199 278.134 98.3699 278.561 98.1899C278.994 98.0099 279.461 97.9199 279.961 97.9199C280.308 97.9199 280.644 97.9666 280.971 98.0599C281.304 98.1533 281.608 98.2866 281.881 98.4599ZM288.056 102.4C288.056 102.92 287.94 103.383 287.706 103.79C287.48 104.197 287.17 104.517 286.776 104.75C286.39 104.983 285.953 105.1 285.466 105.1C284.98 105.1 284.54 104.983 284.146 104.75C283.753 104.517 283.44 104.197 283.206 103.79C282.98 103.383 282.866 102.92 282.866 102.4C282.866 101.88 282.98 101.417 283.206 101.01C283.44 100.603 283.753 100.283 284.146 100.05C284.54 99.8166 284.98 99.6999 285.466 99.6999C285.953 99.6999 286.39 99.8166 286.776 100.05C287.17 100.283 287.48 100.603 287.706 101.01C287.94 101.417 288.056 101.88 288.056 102.4ZM287.256 102.4C287.256 102.013 287.176 101.673 287.016 101.38C286.863 101.087 286.65 100.857 286.376 100.69C286.11 100.523 285.806 100.44 285.466 100.44C285.126 100.44 284.82 100.523 284.546 100.69C284.28 100.857 284.066 101.087 283.906 101.38C283.746 101.673 283.666 102.013 283.666 102.4C283.666 102.78 283.746 103.117 283.906 103.41C284.066 103.703 284.28 103.937 284.546 104.11C284.82 104.277 285.126 104.36 285.466 104.36C285.806 104.36 286.11 104.277 286.376 104.11C286.65 103.937 286.863 103.703 287.016 103.41C287.176 103.117 287.256 102.78 287.256 102.4ZM293.13 99.8299C293.25 99.8299 293.346 99.8699 293.42 99.9499C293.493 100.023 293.53 100.117 293.53 100.23V102.96C293.53 103.633 293.34 104.157 292.96 104.53C292.586 104.897 292.063 105.08 291.39 105.08C290.723 105.08 290.2 104.897 289.82 104.53C289.446 104.157 289.26 103.633 289.26 102.96V100.23C289.26 100.117 289.296 100.023 289.37 99.9499C289.45 99.8699 289.546 99.8299 289.66 99.8299C289.78 99.8299 289.876 99.8699 289.95 99.9499C290.023 100.023 290.06 100.117 290.06 100.23V102.96C290.06 103.413 290.176 103.757 290.41 103.99C290.643 104.223 290.97 104.34 291.39 104.34C291.823 104.34 292.153 104.223 292.38 103.99C292.613 103.757 292.73 103.413 292.73 102.96V100.23C292.73 100.117 292.766 100.023 292.84 99.9499C292.92 99.8699 293.016 99.8299 293.13 99.8299ZM297.581 99.6999C298.035 99.6999 298.391 99.7933 298.651 99.9799C298.911 100.167 299.095 100.417 299.201 100.73C299.315 101.043 299.371 101.393 299.371 101.78V104.59C299.371 104.703 299.331 104.8 299.251 104.88C299.178 104.96 299.085 105 298.971 105C298.858 105 298.761 104.96 298.681 104.88C298.608 104.8 298.571 104.703 298.571 104.59V101.8C298.571 101.547 298.531 101.32 298.451 101.12C298.378 100.913 298.251 100.75 298.071 100.63C297.898 100.503 297.658 100.44 297.351 100.44C297.071 100.44 296.815 100.503 296.581 100.63C296.348 100.75 296.161 100.913 296.021 101.12C295.881 101.32 295.811 101.547 295.811 101.8V104.59C295.811 104.703 295.771 104.8 295.691 104.88C295.618 104.96 295.525 105 295.411 105C295.298 105 295.201 104.96 295.121 104.88C295.048 104.8 295.011 104.703 295.011 104.59V100.23C295.011 100.117 295.048 100.023 295.121 99.9499C295.201 99.8699 295.298 99.8299 295.411 99.8299C295.531 99.8299 295.628 99.8699 295.701 99.9499C295.775 100.023 295.811 100.117 295.811 100.23V100.94L295.611 101.16C295.645 100.987 295.721 100.813 295.841 100.64C295.961 100.46 296.111 100.3 296.291 100.16C296.471 100.02 296.671 99.9099 296.891 99.8299C297.111 99.7433 297.341 99.6999 297.581 99.6999ZM300.561 104.18C300.501 104.093 300.475 104.003 300.481 103.91C300.488 103.81 300.545 103.723 300.651 103.65C300.718 103.603 300.795 103.583 300.881 103.59C300.975 103.597 301.058 103.64 301.131 103.72C301.318 103.94 301.531 104.117 301.771 104.25C302.011 104.377 302.305 104.44 302.651 104.44C302.811 104.433 302.971 104.407 303.131 104.36C303.291 104.313 303.425 104.233 303.531 104.12C303.645 104 303.701 103.843 303.701 103.65C303.701 103.463 303.645 103.317 303.531 103.21C303.418 103.097 303.271 103.007 303.091 102.94C302.911 102.867 302.715 102.803 302.501 102.75C302.281 102.69 302.065 102.623 301.851 102.55C301.638 102.47 301.445 102.373 301.271 102.26C301.105 102.14 300.968 101.993 300.861 101.82C300.761 101.64 300.711 101.423 300.711 101.17C300.711 100.87 300.791 100.61 300.951 100.39C301.118 100.17 301.338 99.9999 301.611 99.8799C301.891 99.7599 302.195 99.6999 302.521 99.6999C302.708 99.6999 302.901 99.7233 303.101 99.7699C303.308 99.8099 303.508 99.8833 303.701 99.9899C303.895 100.09 304.065 100.23 304.211 100.41C304.271 100.477 304.305 100.56 304.311 100.66C304.318 100.76 304.275 100.85 304.181 100.93C304.108 100.983 304.025 101.007 303.931 101C303.845 100.993 303.771 100.96 303.711 100.9C303.571 100.733 303.395 100.607 303.181 100.52C302.975 100.427 302.745 100.38 302.491 100.38C302.331 100.38 302.175 100.403 302.021 100.45C301.868 100.497 301.738 100.577 301.631 100.69C301.531 100.797 301.481 100.947 301.481 101.14C301.488 101.32 301.548 101.467 301.661 101.58C301.775 101.693 301.928 101.787 302.121 101.86C302.315 101.927 302.528 101.993 302.761 102.06C302.975 102.113 303.178 102.177 303.371 102.25C303.571 102.317 303.751 102.407 303.911 102.52C304.071 102.633 304.198 102.78 304.291 102.96C304.385 103.133 304.431 103.353 304.431 103.62C304.431 103.927 304.345 104.193 304.171 104.42C303.998 104.64 303.768 104.81 303.481 104.93C303.201 105.043 302.898 105.1 302.571 105.1C302.205 105.1 301.841 105.03 301.481 104.89C301.128 104.75 300.821 104.513 300.561 104.18ZM307.978 105.1C307.444 105.1 306.978 104.987 306.578 104.76C306.178 104.533 305.864 104.223 305.638 103.83C305.418 103.43 305.308 102.97 305.308 102.45C305.308 101.87 305.421 101.377 305.648 100.97C305.881 100.557 306.181 100.243 306.548 100.03C306.921 99.8099 307.314 99.6999 307.728 99.6999C308.034 99.6999 308.331 99.7566 308.618 99.8699C308.904 99.9833 309.158 100.15 309.378 100.37C309.598 100.583 309.774 100.843 309.908 101.15C310.041 101.45 310.111 101.787 310.118 102.16C310.118 102.267 310.078 102.357 309.998 102.43C309.918 102.503 309.824 102.54 309.718 102.54H305.768L305.588 101.85H309.438L309.278 101.99V101.77C309.251 101.497 309.158 101.263 308.998 101.07C308.844 100.87 308.654 100.717 308.428 100.61C308.208 100.503 307.974 100.45 307.728 100.45C307.528 100.45 307.328 100.487 307.128 100.56C306.934 100.627 306.758 100.74 306.598 100.9C306.444 101.053 306.318 101.253 306.218 101.5C306.124 101.747 306.078 102.043 306.078 102.39C306.078 102.777 306.154 103.117 306.308 103.41C306.468 103.703 306.688 103.937 306.968 104.11C307.248 104.277 307.574 104.36 307.948 104.36C308.181 104.36 308.384 104.33 308.558 104.27C308.731 104.21 308.881 104.137 309.008 104.05C309.134 103.957 309.241 103.863 309.328 103.77C309.414 103.71 309.498 103.68 309.578 103.68C309.678 103.68 309.758 103.713 309.818 103.78C309.884 103.847 309.918 103.927 309.918 104.02C309.918 104.133 309.864 104.233 309.758 104.32C309.571 104.527 309.318 104.71 308.998 104.87C308.678 105.023 308.338 105.1 307.978 105.1ZM312.2 104.59C312.2 104.703 312.16 104.8 312.08 104.88C312 104.96 311.903 105 311.79 105C311.677 105 311.583 104.96 311.51 104.88C311.437 104.8 311.4 104.703 311.4 104.59V97.9999C311.4 97.8866 311.437 97.7933 311.51 97.7199C311.59 97.6399 311.687 97.5999 311.8 97.5999C311.92 97.5999 312.017 97.6399 312.09 97.7199C312.163 97.7933 312.2 97.8866 312.2 97.9999V104.59ZM314.632 104.59C314.632 104.703 314.592 104.8 314.512 104.88C314.432 104.96 314.335 105 314.222 105C314.108 105 314.015 104.96 313.942 104.88C313.868 104.8 313.832 104.703 313.832 104.59V97.9999C313.832 97.8866 313.868 97.7933 313.942 97.7199C314.022 97.6399 314.118 97.5999 314.232 97.5999C314.352 97.5999 314.448 97.6399 314.522 97.7199C314.595 97.7933 314.632 97.8866 314.632 97.9999V104.59ZM316.953 104.59C316.953 104.703 316.913 104.8 316.833 104.88C316.76 104.96 316.667 105 316.553 105C316.433 105 316.337 104.96 316.263 104.88C316.19 104.8 316.153 104.703 316.153 104.59V100.15C316.153 100.037 316.19 99.9433 316.263 99.8699C316.343 99.7899 316.44 99.7499 316.553 99.7499C316.667 99.7499 316.76 99.7899 316.833 99.8699C316.913 99.9433 316.953 100.037 316.953 100.15V104.59ZM316.553 99.0799C316.387 99.0799 316.263 99.0466 316.183 98.9799C316.103 98.9133 316.063 98.8099 316.063 98.6699V98.5299C316.063 98.3899 316.107 98.2866 316.193 98.2199C316.28 98.1533 316.403 98.1199 316.563 98.1199C316.723 98.1199 316.843 98.1533 316.923 98.2199C317.003 98.2866 317.043 98.3899 317.043 98.5299V98.6699C317.043 98.8099 317 98.9133 316.913 98.9799C316.833 99.0466 316.713 99.0799 316.553 99.0799ZM320.96 99.6999C321.414 99.6999 321.77 99.7933 322.03 99.9799C322.29 100.167 322.474 100.417 322.58 100.73C322.694 101.043 322.75 101.393 322.75 101.78V104.59C322.75 104.703 322.71 104.8 322.63 104.88C322.557 104.96 322.464 105 322.35 105C322.237 105 322.14 104.96 322.06 104.88C321.987 104.8 321.95 104.703 321.95 104.59V101.8C321.95 101.547 321.91 101.32 321.83 101.12C321.757 100.913 321.63 100.75 321.45 100.63C321.277 100.503 321.037 100.44 320.73 100.44C320.45 100.44 320.194 100.503 319.96 100.63C319.727 100.75 319.54 100.913 319.4 101.12C319.26 101.32 319.19 101.547 319.19 101.8V104.59C319.19 104.703 319.15 104.8 319.07 104.88C318.997 104.96 318.904 105 318.79 105C318.677 105 318.58 104.96 318.5 104.88C318.427 104.8 318.39 104.703 318.39 104.59V100.23C318.39 100.117 318.427 100.023 318.5 99.9499C318.58 99.8699 318.677 99.8299 318.79 99.8299C318.91 99.8299 319.007 99.8699 319.08 99.9499C319.154 100.023 319.19 100.117 319.19 100.23V100.94L318.99 101.16C319.024 100.987 319.1 100.813 319.22 100.64C319.34 100.46 319.49 100.3 319.67 100.16C319.85 100.02 320.05 99.9099 320.27 99.8299C320.49 99.7433 320.72 99.6999 320.96 99.6999ZM326.4 99.6999C326.687 99.6999 326.954 99.7499 327.2 99.8499C327.447 99.9433 327.66 100.067 327.84 100.22C328.027 100.373 328.17 100.533 328.27 100.7C328.377 100.867 328.43 101.023 328.43 101.17L328.24 101.05V100.18C328.24 100.067 328.277 99.9733 328.35 99.8999C328.424 99.8199 328.52 99.7799 328.64 99.7799C328.754 99.7799 328.847 99.8199 328.92 99.8999C329 99.9733 329.04 100.067 329.04 100.18V104.56C329.04 105.107 328.924 105.56 328.69 105.92C328.464 106.28 328.157 106.55 327.77 106.73C327.384 106.91 326.95 107 326.47 107C326.27 107 326.05 106.973 325.81 106.92C325.57 106.867 325.357 106.8 325.17 106.72C324.984 106.647 324.864 106.57 324.81 106.49C324.71 106.423 324.647 106.347 324.62 106.26C324.6 106.18 324.617 106.103 324.67 106.03C324.73 105.937 324.807 105.89 324.9 105.89C325 105.89 325.124 105.92 325.27 105.98C325.33 106 325.424 106.033 325.55 106.08C325.684 106.127 325.83 106.167 325.99 106.2C326.157 106.24 326.32 106.26 326.48 106.26C327.047 106.26 327.48 106.11 327.78 105.81C328.087 105.517 328.24 105.127 328.24 104.64V103.71L328.35 103.76C328.31 103.947 328.227 104.12 328.1 104.28C327.98 104.44 327.83 104.583 327.65 104.71C327.477 104.83 327.284 104.927 327.07 105C326.857 105.067 326.64 105.1 326.42 105.1C325.954 105.1 325.534 104.983 325.16 104.75C324.787 104.517 324.49 104.197 324.27 103.79C324.057 103.383 323.95 102.92 323.95 102.4C323.95 101.873 324.057 101.407 324.27 101C324.49 100.593 324.784 100.277 325.15 100.05C325.524 99.8166 325.94 99.6999 326.4 99.6999ZM326.5 100.44C326.16 100.44 325.854 100.527 325.58 100.7C325.314 100.867 325.104 101.097 324.95 101.39C324.804 101.683 324.73 102.02 324.73 102.4C324.73 102.767 324.804 103.1 324.95 103.4C325.104 103.693 325.314 103.927 325.58 104.1C325.854 104.273 326.16 104.36 326.5 104.36C326.847 104.36 327.154 104.277 327.42 104.11C327.687 103.937 327.897 103.703 328.05 103.41C328.204 103.117 328.28 102.78 328.28 102.4C328.28 102.013 328.204 101.673 328.05 101.38C327.897 101.087 327.687 100.857 327.42 100.69C327.154 100.523 326.847 100.44 326.5 100.44Z" fill="#292D32"/>
<circle cx="296.388" cy="69.2541" r="17.9886" fill="#F7FFF5" stroke="#51B53C" stroke-width="0.799492"/>
<path d="M294.202 68.3842C294.125 68.3765 294.033 68.3765 293.948 68.3842C292.116 68.3227 290.661 66.8216 290.661 64.9741C290.661 63.0881 292.185 61.5563 294.079 61.5563C295.965 61.5563 297.497 63.0881 297.497 64.9741C297.489 66.8216 296.034 68.3227 294.202 68.3842Z" stroke="#51B53C" stroke-width="1.15467" stroke-linecap="round" stroke-linejoin="round"/>
<path d="M299.783 63.0958C301.276 63.0958 302.477 64.3044 302.477 65.7901C302.477 67.245 301.323 68.4304 299.883 68.4843C299.822 68.4766 299.752 68.4766 299.683 68.4843" stroke="#51B53C" stroke-width="1.15467" stroke-linecap="round" stroke-linejoin="round"/>
<path d="M290.353 71.2247C288.49 72.4718 288.49 74.504 290.353 75.7434C292.47 77.1598 295.942 77.1598 298.059 75.7434C299.922 74.4963 299.922 72.4641 298.059 71.2247C295.95 69.816 292.478 69.816 290.353 71.2247Z" stroke="#51B53C" stroke-width="1.15467" stroke-linecap="round" stroke-linejoin="round"/>
<path d="M301.269 75.4124C301.823 75.2969 302.346 75.0737 302.777 74.7427C303.978 73.842 303.978 72.3564 302.777 71.4557C302.354 71.1324 301.838 70.9169 301.292 70.7937" stroke="#51B53C" stroke-width="1.15467" stroke-linecap="round" stroke-linejoin="round"/>
<g filter="url(#filter2_d_752_1053)">
<rect x="32.1042" y="60.4597" width="85.4458" height="59.1548" rx="8.79441" fill="#F7FFF5"/>
<rect x="32.4891" y="60.8445" width="84.676" height="58.385" rx="8.40952" stroke="#51B53C" stroke-width="0.769782"/>
</g>
<path d="M50.51 98.0385C50.9967 98.0385 51.4234 98.1318 51.79 98.3185C52.1634 98.4985 52.4734 98.7518 52.72 99.0785C52.9667 99.4052 53.15 99.7818 53.27 100.209C53.3967 100.629 53.46 101.072 53.46 101.539C53.46 102.179 53.35 102.765 53.13 103.299C52.91 103.825 52.5834 104.249 52.15 104.569C51.7167 104.882 51.17 105.039 50.51 105.039H48.01C47.8967 105.039 47.8 104.999 47.72 104.919C47.6467 104.839 47.61 104.742 47.61 104.629V98.4385C47.61 98.3252 47.6467 98.2318 47.72 98.1585C47.8 98.0785 47.8967 98.0385 48.01 98.0385H50.51ZM50.41 104.259C50.9234 104.259 51.34 104.135 51.66 103.889C51.9867 103.642 52.2234 103.312 52.37 102.899C52.5234 102.485 52.6 102.032 52.6 101.539C52.6 101.179 52.5567 100.835 52.47 100.509C52.39 100.175 52.26 99.8818 52.08 99.6285C51.9067 99.3752 51.68 99.1752 51.4 99.0285C51.1267 98.8818 50.7967 98.8085 50.41 98.8085H48.36L48.44 98.7285V104.359L48.38 104.259H50.41ZM57.1159 105.139C56.5826 105.139 56.1159 105.025 55.7159 104.799C55.3159 104.572 55.0026 104.262 54.7759 103.869C54.5559 103.469 54.4459 103.009 54.4459 102.489C54.4459 101.909 54.5592 101.415 54.7859 101.009C55.0192 100.595 55.3192 100.282 55.6859 100.069C56.0592 99.8485 56.4526 99.7385 56.8659 99.7385C57.1726 99.7385 57.4692 99.7952 57.7559 99.9085C58.0426 100.022 58.2959 100.189 58.5159 100.409C58.7359 100.622 58.9126 100.882 59.0459 101.189C59.1792 101.489 59.2492 101.825 59.2559 102.199C59.2559 102.305 59.2159 102.395 59.1359 102.469C59.0559 102.542 58.9626 102.579 58.8559 102.579H54.9059L54.7259 101.889H58.5759L58.4159 102.029V101.809C58.3892 101.535 58.2959 101.302 58.1359 101.109C57.9826 100.909 57.7926 100.755 57.5659 100.649C57.3459 100.542 57.1126 100.489 56.8659 100.489C56.6659 100.489 56.4659 100.525 56.2659 100.599C56.0726 100.665 55.8959 100.779 55.7359 100.939C55.5826 101.092 55.4559 101.292 55.3559 101.539C55.2626 101.785 55.2159 102.082 55.2159 102.429C55.2159 102.815 55.2926 103.155 55.4459 103.449C55.6059 103.742 55.8259 103.975 56.1059 104.149C56.3859 104.315 56.7126 104.399 57.0859 104.399C57.3192 104.399 57.5226 104.369 57.6959 104.309C57.8692 104.249 58.0192 104.175 58.1459 104.089C58.2726 103.995 58.3792 103.902 58.4659 103.809C58.5526 103.749 58.6359 103.719 58.7159 103.719C58.8159 103.719 58.8959 103.752 58.9559 103.819C59.0226 103.885 59.0559 103.965 59.0559 104.059C59.0559 104.172 59.0026 104.272 58.8959 104.359C58.7092 104.565 58.4559 104.749 58.1359 104.909C57.8159 105.062 57.4759 105.139 57.1159 105.139ZM62.9283 99.7885C63.3817 99.7885 63.7483 99.9052 64.0283 100.139C64.315 100.365 64.505 100.689 64.5983 101.109H64.4483L64.5183 100.929C64.5983 100.742 64.735 100.562 64.9283 100.389C65.1217 100.215 65.345 100.072 65.5983 99.9585C65.8517 99.8452 66.115 99.7885 66.3883 99.7885C66.8283 99.7885 67.175 99.8852 67.4283 100.079C67.6817 100.265 67.8617 100.519 67.9683 100.839C68.0817 101.152 68.1383 101.505 68.1383 101.899V104.629C68.1383 104.742 68.0983 104.839 68.0183 104.919C67.945 104.999 67.8517 105.039 67.7383 105.039C67.6183 105.039 67.5217 104.999 67.4483 104.919C67.375 104.839 67.3383 104.742 67.3383 104.629V101.919C67.3383 101.659 67.2983 101.425 67.2183 101.219C67.145 101.005 67.0217 100.839 66.8483 100.719C66.6817 100.592 66.4517 100.529 66.1583 100.529C65.885 100.529 65.635 100.592 65.4083 100.719C65.1817 100.839 65.0017 101.005 64.8683 101.219C64.735 101.425 64.6683 101.659 64.6683 101.919V104.629C64.6683 104.742 64.6317 104.839 64.5583 104.919C64.485 104.999 64.3883 105.039 64.2683 105.039C64.155 105.039 64.0583 104.999 63.9783 104.919C63.905 104.839 63.8683 104.742 63.8683 104.629V101.889C63.8683 101.635 63.8317 101.409 63.7583 101.209C63.6917 101.002 63.575 100.839 63.4083 100.719C63.2417 100.592 63.0117 100.529 62.7183 100.529C62.4517 100.529 62.2083 100.592 61.9883 100.719C61.7683 100.839 61.5917 101.002 61.4583 101.209C61.325 101.409 61.2583 101.635 61.2583 101.889V104.629C61.2583 104.742 61.2183 104.839 61.1383 104.919C61.065 104.999 60.9717 105.039 60.8583 105.039C60.745 105.039 60.6483 104.999 60.5683 104.919C60.495 104.839 60.4583 104.742 60.4583 104.629V100.269C60.4583 100.155 60.495 100.062 60.5683 99.9885C60.6483 99.9085 60.745 99.8685 60.8583 99.8685C60.9783 99.8685 61.075 99.9085 61.1483 99.9885C61.2217 100.062 61.2583 100.155 61.2583 100.269V101.029L61.0383 101.269C61.065 101.095 61.1317 100.922 61.2383 100.749C61.3517 100.575 61.495 100.415 61.6683 100.269C61.8417 100.122 62.035 100.005 62.2483 99.9185C62.4617 99.8318 62.6883 99.7885 62.9283 99.7885ZM74.5285 102.439C74.5285 102.959 74.4118 103.422 74.1785 103.829C73.9518 104.235 73.6418 104.555 73.2485 104.789C72.8618 105.022 72.4251 105.139 71.9385 105.139C71.4518 105.139 71.0118 105.022 70.6185 104.789C70.2251 104.555 69.9118 104.235 69.6785 103.829C69.4518 103.422 69.3385 102.959 69.3385 102.439C69.3385 101.919 69.4518 101.455 69.6785 101.049C69.9118 100.642 70.2251 100.322 70.6185 100.089C71.0118 99.8552 71.4518 99.7385 71.9385 99.7385C72.4251 99.7385 72.8618 99.8552 73.2485 100.089C73.6418 100.322 73.9518 100.642 74.1785 101.049C74.4118 101.455 74.5285 101.919 74.5285 102.439ZM73.7285 102.439C73.7285 102.052 73.6485 101.712 73.4885 101.419C73.3351 101.125 73.1218 100.895 72.8485 100.729C72.5818 100.562 72.2785 100.479 71.9385 100.479C71.5985 100.479 71.2918 100.562 71.0185 100.729C70.7518 100.895 70.5385 101.125 70.3785 101.419C70.2185 101.712 70.1385 102.052 70.1385 102.439C70.1385 102.819 70.2185 103.155 70.3785 103.449C70.5385 103.742 70.7518 103.975 71.0185 104.149C71.2918 104.315 71.5985 104.399 71.9385 104.399C72.2785 104.399 72.5818 104.315 72.8485 104.149C73.1218 103.975 73.3351 103.742 73.4885 103.449C73.6485 103.155 73.7285 102.819 73.7285 102.439ZM83.6657 98.4985C83.779 98.5585 83.8423 98.6485 83.8557 98.7685C83.8757 98.8885 83.8457 98.9985 83.7657 99.0985C83.7057 99.1852 83.629 99.2318 83.5357 99.2385C83.4423 99.2452 83.349 99.2252 83.2557 99.1785C83.0357 99.0452 82.799 98.9418 82.5457 98.8685C82.2923 98.7885 82.0257 98.7485 81.7457 98.7485C81.3523 98.7485 80.9923 98.8185 80.6657 98.9585C80.339 99.0918 80.0557 99.2818 79.8157 99.5285C79.5757 99.7752 79.389 100.069 79.2557 100.409C79.1223 100.749 79.0557 101.125 79.0557 101.539C79.0557 101.979 79.1257 102.372 79.2657 102.719C79.4057 103.065 79.5957 103.362 79.8357 103.609C80.0823 103.849 80.3657 104.032 80.6857 104.159C81.0123 104.285 81.3657 104.349 81.7457 104.349C82.019 104.349 82.2823 104.312 82.5357 104.239C82.789 104.165 83.029 104.059 83.2557 103.919C83.349 103.872 83.4423 103.855 83.5357 103.869C83.629 103.882 83.709 103.929 83.7757 104.009C83.8557 104.115 83.8857 104.229 83.8657 104.349C83.8457 104.462 83.7823 104.545 83.6757 104.599C83.509 104.699 83.319 104.792 83.1057 104.879C82.8923 104.959 82.669 105.022 82.4357 105.069C82.209 105.115 81.979 105.139 81.7457 105.139C81.2657 105.139 80.8123 105.055 80.3857 104.889C79.959 104.722 79.5823 104.482 79.2557 104.169C78.929 103.855 78.669 103.479 78.4757 103.039C78.289 102.592 78.1957 102.092 78.1957 101.539C78.1957 101.019 78.2857 100.542 78.4657 100.109C78.6457 99.6752 78.8957 99.2985 79.2157 98.9785C79.5423 98.6585 79.919 98.4085 80.3457 98.2285C80.779 98.0485 81.2457 97.9585 81.7457 97.9585C82.0923 97.9585 82.429 98.0052 82.7557 98.0985C83.089 98.1918 83.3923 98.3252 83.6657 98.4985ZM85.811 104.629C85.811 104.742 85.771 104.839 85.691 104.919C85.611 104.999 85.5143 105.039 85.401 105.039C85.2876 105.039 85.1943 104.999 85.121 104.919C85.0476 104.839 85.011 104.742 85.011 104.629V98.0385C85.011 97.9252 85.0476 97.8318 85.121 97.7585C85.201 97.6785 85.2976 97.6385 85.411 97.6385C85.531 97.6385 85.6276 97.6785 85.701 97.7585C85.7743 97.8318 85.811 97.9252 85.811 98.0385V104.629ZM91.6226 99.8185C91.736 99.8185 91.8293 99.8585 91.9026 99.9385C91.9826 100.012 92.0226 100.105 92.0226 100.219V104.629C92.0226 104.742 91.9826 104.839 91.9026 104.919C91.8293 104.999 91.736 105.039 91.6226 105.039C91.5026 105.039 91.406 104.999 91.3326 104.919C91.2593 104.839 91.2226 104.742 91.2226 104.629V103.679L91.4126 103.659C91.4126 103.805 91.3626 103.965 91.2626 104.139C91.1626 104.312 91.026 104.475 90.8526 104.629C90.6793 104.775 90.4726 104.899 90.2326 104.999C89.9993 105.092 89.746 105.139 89.4726 105.139C89.0193 105.139 88.6126 105.022 88.2526 104.789C87.8926 104.549 87.606 104.225 87.3926 103.819C87.186 103.412 87.0826 102.949 87.0826 102.429C87.0826 101.902 87.186 101.439 87.3926 101.039C87.606 100.632 87.8926 100.315 88.2526 100.089C88.6126 99.8552 89.0126 99.7385 89.4526 99.7385C89.7393 99.7385 90.006 99.7852 90.2526 99.8785C90.4993 99.9718 90.7126 100.099 90.8926 100.259C91.0793 100.419 91.2226 100.595 91.3226 100.789C91.4293 100.982 91.4826 101.175 91.4826 101.369L91.2226 101.309V100.219C91.2226 100.105 91.2593 100.012 91.3326 99.9385C91.406 99.8585 91.5026 99.8185 91.6226 99.8185ZM89.5626 104.399C89.896 104.399 90.1893 104.312 90.4426 104.139C90.7026 103.965 90.9026 103.732 91.0426 103.439C91.1893 103.139 91.2626 102.802 91.2626 102.429C91.2626 102.062 91.1893 101.732 91.0426 101.439C90.9026 101.139 90.7026 100.905 90.4426 100.739C90.1893 100.565 89.896 100.479 89.5626 100.479C89.236 100.479 88.9426 100.562 88.6826 100.729C88.4293 100.895 88.2293 101.125 88.0826 101.419C87.936 101.712 87.8626 102.049 87.8626 102.429C87.8626 102.802 87.9326 103.139 88.0726 103.439C88.2193 103.732 88.4193 103.965 88.6726 104.139C88.9326 104.312 89.2293 104.399 89.5626 104.399ZM93.2152 104.219C93.1552 104.132 93.1285 104.042 93.1352 103.949C93.1419 103.849 93.1985 103.762 93.3052 103.689C93.3719 103.642 93.4485 103.622 93.5352 103.629C93.6285 103.635 93.7119 103.679 93.7852 103.759C93.9719 103.979 94.1852 104.155 94.4252 104.289C94.6652 104.415 94.9585 104.479 95.3052 104.479C95.4652 104.472 95.6252 104.445 95.7852 104.399C95.9452 104.352 96.0785 104.272 96.1852 104.159C96.2985 104.039 96.3552 103.882 96.3552 103.689C96.3552 103.502 96.2985 103.355 96.1852 103.249C96.0719 103.135 95.9252 103.045 95.7452 102.979C95.5652 102.905 95.3685 102.842 95.1552 102.789C94.9352 102.729 94.7185 102.662 94.5052 102.589C94.2919 102.509 94.0985 102.412 93.9252 102.299C93.7585 102.179 93.6219 102.032 93.5152 101.859C93.4152 101.679 93.3652 101.462 93.3652 101.209C93.3652 100.909 93.4452 100.649 93.6052 100.429C93.7719 100.209 93.9919 100.039 94.2652 99.9185C94.5452 99.7985 94.8485 99.7385 95.1752 99.7385C95.3619 99.7385 95.5552 99.7618 95.7552 99.8085C95.9619 99.8485 96.1619 99.9218 96.3552 100.029C96.5485 100.129 96.7185 100.269 96.8652 100.449C96.9252 100.515 96.9585 100.599 96.9652 100.699C96.9719 100.799 96.9285 100.889 96.8352 100.969C96.7619 101.022 96.6785 101.045 96.5852 101.039C96.4985 101.032 96.4252 100.999 96.3652 100.939C96.2252 100.772 96.0485 100.645 95.8352 100.559C95.6285 100.465 95.3985 100.419 95.1452 100.419C94.9852 100.419 94.8285 100.442 94.6752 100.489C94.5219 100.535 94.3919 100.615 94.2852 100.729C94.1852 100.835 94.1352 100.985 94.1352 101.179C94.1419 101.359 94.2019 101.505 94.3152 101.619C94.4285 101.732 94.5819 101.825 94.7752 101.899C94.9685 101.965 95.1819 102.032 95.4152 102.099C95.6285 102.152 95.8319 102.215 96.0252 102.289C96.2252 102.355 96.4052 102.445 96.5652 102.559C96.7252 102.672 96.8519 102.819 96.9452 102.999C97.0385 103.172 97.0852 103.392 97.0852 103.659C97.0852 103.965 96.9985 104.232 96.8252 104.459C96.6519 104.679 96.4219 104.849 96.1352 104.969C95.8552 105.082 95.5519 105.139 95.2252 105.139C94.8585 105.139 94.4952 105.069 94.1352 104.929C93.7819 104.789 93.4752 104.552 93.2152 104.219ZM97.9515 104.219C97.8915 104.132 97.8649 104.042 97.8715 103.949C97.8782 103.849 97.9349 103.762 98.0415 103.689C98.1082 103.642 98.1849 103.622 98.2715 103.629C98.3649 103.635 98.4482 103.679 98.5215 103.759C98.7082 103.979 98.9215 104.155 99.1615 104.289C99.4015 104.415 99.6949 104.479 100.042 104.479C100.202 104.472 100.362 104.445 100.522 104.399C100.682 104.352 100.815 104.272 100.922 104.159C101.035 104.039 101.092 103.882 101.092 103.689C101.092 103.502 101.035 103.355 100.922 103.249C100.808 103.135 100.662 103.045 100.482 102.979C100.302 102.905 100.105 102.842 99.8915 102.789C99.6715 102.729 99.4549 102.662 99.2415 102.589C99.0282 102.509 98.8349 102.412 98.6615 102.299C98.4949 102.179 98.3582 102.032 98.2515 101.859C98.1515 101.679 98.1015 101.462 98.1015 101.209C98.1015 100.909 98.1815 100.649 98.3415 100.429C98.5082 100.209 98.7282 100.039 99.0015 99.9185C99.2815 99.7985 99.5849 99.7385 99.9115 99.7385C100.098 99.7385 100.292 99.7618 100.492 99.8085C100.698 99.8485 100.898 99.9218 101.092 100.029C101.285 100.129 101.455 100.269 101.602 100.449C101.662 100.515 101.695 100.599 101.702 100.699C101.708 100.799 101.665 100.889 101.572 100.969C101.498 101.022 101.415 101.045 101.322 101.039C101.235 101.032 101.162 100.999 101.102 100.939C100.962 100.772 100.785 100.645 100.572 100.559C100.365 100.465 100.135 100.419 99.8815 100.419C99.7215 100.419 99.5649 100.442 99.4115 100.489C99.2582 100.535 99.1282 100.615 99.0215 100.729C98.9215 100.835 98.8715 100.985 98.8715 101.179C98.8782 101.359 98.9382 101.505 99.0515 101.619C99.1649 101.732 99.3182 101.825 99.5115 101.899C99.7049 101.965 99.9182 102.032 100.152 102.099C100.365 102.152 100.568 102.215 100.762 102.289C100.962 102.355 101.142 102.445 101.302 102.559C101.462 102.672 101.588 102.819 101.682 102.999C101.775 103.172 101.822 103.392 101.822 103.659C101.822 103.965 101.735 104.232 101.562 104.459C101.388 104.679 101.158 104.849 100.872 104.969C100.592 105.082 100.288 105.139 99.9615 105.139C99.5949 105.139 99.2315 105.069 98.8715 104.929C98.5182 104.789 98.2115 104.552 97.9515 104.219Z" fill="#292D32"/>
<circle cx="74.0842" cy="69.2541" r="17.9886" fill="#F7FFF5" stroke="#51B53C" stroke-width="0.799492"/>
<path d="M81.782 71.5634V66.9447C81.782 63.0958 80.2424 61.5563 76.3935 61.5563H71.7748C67.9259 61.5563 66.3864 63.0958 66.3864 66.9447V71.5634C66.3864 75.4124 67.9259 76.9519 71.7748 76.9519H76.3935C80.2424 76.9519 81.782 75.4124 81.782 71.5634Z" stroke="#51B53C" stroke-width="1.15467" stroke-linecap="round" stroke-linejoin="round"/>
<path d="M66.7866 65.4899H81.3817" stroke="#51B53C" stroke-width="1.15467" stroke-linecap="round" stroke-linejoin="round"/>
<path d="M71.4054 61.6409V65.3821" stroke="#51B53C" stroke-width="1.15467" stroke-linecap="round" stroke-linejoin="round"/>
<path d="M76.7631 61.6409V65.0357" stroke="#51B53C" stroke-width="1.15467" stroke-linecap="round" stroke-linejoin="round"/>
<path d="M72.3522 71.1401V70.2164C72.3522 69.0309 73.1912 68.5459 74.215 69.1387L75.0156 69.6005L75.8162 70.0624C76.84 70.6551 76.84 71.6251 75.8162 72.2178L75.0156 72.6797L74.215 73.1415C73.1912 73.7343 72.3522 73.2493 72.3522 72.0638V71.1401V71.1401Z" stroke="#51B53C" stroke-width="1.15467" stroke-miterlimit="10" stroke-linecap="round" stroke-linejoin="round"/>
<path d="M81.0233 14.2106C71.5367 15.1814 52.8683 24.2226 54.0876 52.6208" stroke="#779ACB" stroke-width="1.53956"/>
<path d="M48.3119 49.5775L54.5904 53.5716L58.6306 47.2205" stroke="#779ACB" stroke-width="1.53956" stroke-linecap="round" stroke-linejoin="round"/>
<path d="M289.943 13.3073C300.267 14.0987 320.671 23.4289 319.695 54.4175" stroke="#779ACB" stroke-width="1.53956"/>
<path d="M314.745 48.3529L319.099 54.3875L325.203 49.9833" stroke="#779ACB" stroke-width="1.53956" stroke-linecap="round" stroke-linejoin="round"/>
<defs>
<filter id="filter0_d_752_1053" x="126.415" y="70.0532" width="117.425" height="91.1345" filterUnits="userSpaceOnUse" color-interpolation-filters="sRGB">
<feFlood flood-opacity="0" result="BackgroundImageFix"/>
<feColorMatrix in="SourceAlpha" type="matrix" values="0 0 0 0 0 0 0 0 0 0 0 0 0 0 0 0 0 0 127 0" result="hardAlpha"/>
<feOffset dy="3.19797"/>
<feGaussianBlur stdDeviation="7.99492"/>
<feComposite in2="hardAlpha" operator="out"/>
<feColorMatrix type="matrix" values="0 0 0 0 0 0 0 0 0 0 0 0 0 0 0 0 0 0 0.15 0"/>
<feBlend mode="normal" in2="BackgroundImageFix" result="effect1_dropShadow_752_1053"/>
<feBlend mode="normal" in="SourceGraphic" in2="effect1_dropShadow_752_1053" result="shape"/>
</filter>
<filter id="filter1_d_752_1053" x="237.7" y="47.6678" width="117.425" height="91.1345" filterUnits="userSpaceOnUse" color-interpolation-filters="sRGB">
<feFlood flood-opacity="0" result="BackgroundImageFix"/>
<feColorMatrix in="SourceAlpha" type="matrix" values="0 0 0 0 0 0 0 0 0 0 0 0 0 0 0 0 0 0 127 0" result="hardAlpha"/>
<feOffset dy="3.19797"/>
<feGaussianBlur stdDeviation="7.99492"/>
<feComposite in2="hardAlpha" operator="out"/>
<feColorMatrix type="matrix" values="0 0 0 0 0 0 0 0 0 0 0 0 0 0 0 0 0 0 0.15 0"/>
<feBlend mode="normal" in2="BackgroundImageFix" result="effect1_dropShadow_752_1053"/>
<feBlend mode="normal" in="SourceGraphic" in2="effect1_dropShadow_752_1053" result="shape"/>
</filter>
<filter id="filter2_d_752_1053" x="16.1144" y="47.6678" width="117.425" height="91.1345" filterUnits="userSpaceOnUse" color-interpolation-filters="sRGB">
<feFlood flood-opacity="0" result="BackgroundImageFix"/>
<feColorMatrix in="SourceAlpha" type="matrix" values="0 0 0 0 0 0 0 0 0 0 0 0 0 0 0 0 0 0 127 0" result="hardAlpha"/>
<feOffset dy="3.19797"/>
<feGaussianBlur stdDeviation="7.99492"/>
<feComposite in2="hardAlpha" operator="out"/>
<feColorMatrix type="matrix" values="0 0 0 0 0 0 0 0 0 0 0 0 0 0 0 0 0 0 0.15 0"/>
<feBlend mode="normal" in2="BackgroundImageFix" result="effect1_dropShadow_752_1053"/>
<feBlend mode="normal" in="SourceGraphic" in2="effect1_dropShadow_752_1053" result="shape"/>
</filter>
</defs>
</svg>
