<svg width="295" height="295" viewBox="0 0 295 295" fill="none" xmlns="http://www.w3.org/2000/svg">
<path d="M165.79 122.495C165.79 122.495 165.094 127.328 158.828 129.729C158.828 129.729 162.309 126.112 162.185 122.649L165.79 122.495Z" fill="#066AC9"/>
<path opacity="0.7" d="M165.79 122.495C165.79 122.495 165.094 127.328 158.828 129.729C158.828 129.729 162.309 126.112 162.185 122.649L165.79 122.495Z" fill="white"/>
<path d="M180.398 126.114C198.607 126.114 213.368 116.068 213.368 103.676C213.368 91.2839 198.607 81.2382 180.398 81.2382C162.19 81.2382 147.429 91.2839 147.429 103.676C147.429 116.068 162.19 126.114 180.398 126.114Z" fill="#066AC9"/>
<path opacity="0.7" d="M180.398 126.114C198.607 126.114 213.368 116.068 213.368 103.676C213.368 91.2839 198.607 81.2382 180.398 81.2382C162.19 81.2382 147.429 91.2839 147.429 103.676C147.429 116.068 162.19 126.114 180.398 126.114Z" fill="white"/>
<path d="M172.28 73.5258V115.357C172.28 116.452 172.715 117.503 173.49 118.277C174.264 119.052 175.315 119.487 176.41 119.487H195.644C196.438 119.485 197.215 119.264 197.892 118.85C197.296 118.479 196.805 117.963 196.465 117.349C196.124 116.736 195.945 116.046 195.945 115.345V73.514L172.28 73.5258Z" fill="#066AC9"/>
<path opacity="0.4" d="M172.28 73.5258V115.357C172.28 116.452 172.715 117.503 173.49 118.277C174.264 119.052 175.315 119.487 176.41 119.487H195.644C196.438 119.485 197.215 119.264 197.892 118.85C197.296 118.479 196.805 117.963 196.465 117.349C196.124 116.736 195.945 116.046 195.945 115.345V73.514L172.28 73.5258Z" fill="white"/>
<path d="M192.729 77.0782H178.947V77.7803H192.729V77.0782Z" fill="#066AC9"/>
<path d="M192.729 78.96H175.59V79.6621H192.729V78.96Z" fill="#066AC9"/>
<path d="M192.729 80.8361H175.59V81.5382H192.729V80.8361Z" fill="#066AC9"/>
<path d="M192.729 82.7178H175.59V83.4199H192.729V82.7178Z" fill="#066AC9"/>
<path d="M192.729 84.6007H175.59V85.3028H192.729V84.6007Z" fill="#066AC9"/>
<path d="M184.93 86.4825H175.59V87.1846H184.93V86.4825Z" fill="#066AC9"/>
<path d="M192.729 101.008H178.947V101.71H192.729V101.008Z" fill="#066AC9"/>
<path d="M192.729 102.891H175.59V103.593H192.729V102.891Z" fill="#066AC9"/>
<path d="M192.729 104.767H175.59V105.469H192.729V104.767Z" fill="#066AC9"/>
<path d="M192.729 106.649H175.59V107.351H192.729V106.649Z" fill="#066AC9"/>
<path d="M192.729 108.53H175.59V109.232H192.729V108.53Z" fill="#066AC9"/>
<path d="M190.181 110.413H175.59V111.115H190.181V110.413Z" fill="#066AC9"/>
<path d="M192.729 90.2402H178.947V90.9423H192.729V90.2402Z" fill="#066AC9"/>
<path d="M192.729 92.1232H175.59V92.8253H192.729V92.1232Z" fill="#066AC9"/>
<path d="M192.729 94.005H175.59V94.7071H192.729V94.005Z" fill="#066AC9"/>
<path d="M192.729 95.881H175.59V96.5831H192.729V95.881Z" fill="#066AC9"/>
<path d="M184.93 97.5035H175.59V98.2056H184.93V97.5035Z" fill="#066AC9"/>
<path d="M166.592 76.8124L164.362 71.7325L164.38 71.7266L164.043 70.9478L164.014 70.9596L163.105 71.3431L160.503 72.4405L160.846 73.2134L163.448 72.116L165.678 77.2018L166.592 76.8124Z" fill="#263238"/>
<path opacity="0.5" d="M166.592 76.8124L164.362 71.7325L164.38 71.7266L164.043 70.9478L164.014 70.9596L163.105 71.3431L160.503 72.4405L160.846 73.2134L163.448 72.116L165.678 77.2018L166.592 76.8124Z" fill="white"/>
<path d="M165.507 90.9254C161.18 85.5642 158.637 79.7744 157.878 73.5558L161.418 72.069C165.308 77.1685 167.924 83.1237 169.047 89.4386L165.507 90.9254Z" fill="#263238"/>
<path d="M172.728 107.38L176.687 111.617L176.268 105.894L172.728 107.38Z" fill="#263238"/>
<path opacity="0.3" d="M172.728 107.38L175.472 110.319L176.687 111.617L176.268 105.894L172.728 107.38Z" fill="white"/>
<path d="M175.542 110.396L176.333 111.239L176.687 111.617L176.563 109.965L175.542 110.396Z" fill="#263238"/>
<path d="M172.728 107.38L165.507 90.925L169.041 89.4382L176.268 105.893L172.728 107.38Z" fill="#263238"/>
<path opacity="0.1" d="M172.728 107.38L165.507 90.925L169.041 89.4382L176.268 105.893L172.728 107.38Z" fill="white"/>
<path d="M157.878 73.5551L161.418 72.0683C161.418 72.0683 161.082 70.8175 159.241 71.5255C157.4 72.2335 157.878 73.5551 157.878 73.5551Z" fill="#263238"/>
<path opacity="0.1" d="M157.878 73.5551L161.418 72.0683C161.418 72.0683 161.082 70.8175 159.241 71.5255C157.4 72.2335 157.878 73.5551 157.878 73.5551Z" fill="white"/>
<path d="M196.576 227.74H241.634V237.18H196.558C196.969 234.047 196.975 230.874 196.576 227.74Z" fill="#066AC9"/>
<path opacity="0.7" d="M196.576 227.74H241.634V237.18H196.558C196.969 234.047 196.975 230.874 196.576 227.74Z" fill="white"/>
<path d="M234.265 236.808C235.433 235.639 236.089 234.053 236.089 232.401C236.089 230.748 235.433 229.163 234.265 227.993L233.421 227.15H247.581L247.729 227.291C249.082 228.646 249.842 230.483 249.842 232.398C249.842 234.313 249.082 236.149 247.729 237.504L247.581 237.652H233.421L234.265 236.808Z" fill="#066AC9"/>
<g opacity="0.3">
<path d="M234.265 236.808C235.433 235.638 236.089 234.053 236.089 232.401C236.089 230.748 235.433 229.163 234.265 227.993L233.421 227.15H247.581L247.729 227.291C249.082 228.646 249.842 230.483 249.842 232.398C249.842 234.312 249.082 236.149 247.729 237.504L247.581 237.652H233.421L234.265 236.808Z" fill="black"/>
</g>
<path d="M196.116 237.652H234.36L234.401 237.61C235.738 236.297 236.529 234.527 236.613 232.654C236.651 231.663 236.484 230.675 236.121 229.752C235.759 228.83 235.209 227.992 234.507 227.291L234.36 227.15H196.116C196.051 227.149 195.987 227.161 195.927 227.185C195.866 227.21 195.812 227.245 195.766 227.291C195.72 227.337 195.683 227.391 195.658 227.451C195.633 227.51 195.62 227.575 195.62 227.639C195.619 227.705 195.632 227.77 195.656 227.83C195.681 227.89 195.717 227.945 195.764 227.992C195.81 228.038 195.865 228.074 195.925 228.099C195.986 228.124 196.05 228.136 196.116 228.135H233.947C235.03 229.29 235.633 230.814 235.633 232.398C235.633 233.981 235.03 235.506 233.947 236.66H196.116C195.984 236.66 195.858 236.713 195.765 236.806C195.672 236.899 195.62 237.025 195.62 237.156C195.62 237.288 195.672 237.414 195.765 237.507C195.858 237.599 195.984 237.652 196.116 237.652Z" fill="#066AC9"/>
<path d="M200.11 231.28H202.275C202.374 231.28 202.468 231.241 202.538 231.171C202.608 231.101 202.647 231.007 202.647 230.908C202.647 230.809 202.608 230.715 202.538 230.645C202.468 230.576 202.374 230.536 202.275 230.536H200.11C200.011 230.536 199.917 230.576 199.847 230.645C199.777 230.715 199.738 230.809 199.738 230.908C199.738 231.007 199.777 231.101 199.847 231.171C199.917 231.241 200.011 231.28 200.11 231.28Z" fill="white"/>
<path d="M205.119 231.28H225.179C225.278 231.28 225.372 231.241 225.442 231.171C225.512 231.101 225.551 231.007 225.551 230.908C225.551 230.809 225.512 230.715 225.442 230.645C225.372 230.576 225.278 230.536 225.179 230.536H205.119C205.02 230.536 204.926 230.576 204.856 230.645C204.786 230.715 204.747 230.809 204.747 230.908C204.747 231.007 204.786 231.101 204.856 231.171C204.926 231.241 205.02 231.28 205.119 231.28Z" fill="white"/>
<path d="M227.929 231.28H232.377C232.476 231.28 232.57 231.241 232.64 231.171C232.71 231.101 232.749 231.007 232.749 230.908C232.749 230.809 232.71 230.715 232.64 230.645C232.57 230.576 232.476 230.536 232.377 230.536H227.929C227.83 230.536 227.735 230.576 227.666 230.645C227.596 230.715 227.557 230.809 227.557 230.908C227.557 231.007 227.596 231.101 227.666 231.171C227.735 231.241 227.83 231.28 227.929 231.28Z" fill="white"/>
<path d="M200.11 234.395H219.149C219.248 234.395 219.342 234.355 219.412 234.286C219.482 234.216 219.521 234.121 219.521 234.023C219.521 233.924 219.482 233.83 219.412 233.76C219.342 233.69 219.248 233.651 219.149 233.651H200.11C200.011 233.651 199.917 233.69 199.847 233.76C199.777 233.83 199.738 233.924 199.738 234.023C199.738 234.121 199.777 234.216 199.847 234.286C199.917 234.355 200.011 234.395 200.11 234.395Z" fill="white"/>
<path d="M221.934 234.395H232.377C232.476 234.395 232.57 234.355 232.64 234.286C232.71 234.216 232.749 234.121 232.749 234.023C232.749 233.924 232.71 233.83 232.64 233.76C232.57 233.69 232.476 233.651 232.377 233.651H221.934C221.836 233.651 221.741 233.69 221.671 233.76C221.602 233.83 221.562 233.924 221.562 234.023C221.563 234.121 221.602 234.216 221.671 234.286C221.741 234.355 221.836 234.395 221.934 234.395Z" fill="white"/>
<path d="M197.768 208.795H238.318V217.25H197.756C198.123 214.444 198.127 211.602 197.768 208.795Z" fill="#066AC9"/>
<path opacity="0.8" d="M197.768 208.795H238.318V217.25H197.756C198.123 214.444 198.127 211.602 197.768 208.795Z" fill="white"/>
<path d="M231.693 216.937C232.744 215.884 233.334 214.457 233.334 212.969C233.334 211.481 232.744 210.054 231.693 209.001L230.932 208.27H243.67L243.8 208.399C244.404 209.002 244.884 209.719 245.212 210.507C245.539 211.296 245.707 212.142 245.707 212.996C245.707 213.849 245.539 214.695 245.212 215.484C244.884 216.272 244.404 216.989 243.8 217.592L243.67 217.71H230.926L231.693 216.937Z" fill="#066AC9"/>
<g opacity="0.2">
<path d="M231.693 216.937C232.744 215.884 233.334 214.457 233.334 212.969C233.334 211.482 232.744 210.055 231.693 209.002L230.932 208.27H243.67L243.8 208.4C244.404 209.003 244.884 209.719 245.212 210.508C245.539 211.297 245.707 212.142 245.707 212.996C245.707 213.85 245.539 214.696 245.212 215.484C244.884 216.273 244.404 216.989 243.8 217.592L243.67 217.71H230.926L231.693 216.937Z" fill="white"/>
</g>
<path d="M197.355 217.71H231.775L231.811 217.675C233.016 216.496 233.728 214.904 233.805 213.22C233.84 212.327 233.689 211.436 233.362 210.605C233.035 209.773 232.539 209.018 231.905 208.388L231.775 208.258H197.355C197.236 208.258 197.122 208.305 197.038 208.39C196.954 208.474 196.906 208.588 196.906 208.707C196.908 208.824 196.956 208.937 197.04 209.02C197.124 209.103 197.237 209.149 197.355 209.149H231.404C232.376 210.189 232.917 211.56 232.917 212.984C232.917 214.408 232.376 215.779 231.404 216.819H197.355C197.296 216.818 197.238 216.829 197.184 216.851C197.129 216.873 197.08 216.905 197.038 216.947C196.996 216.988 196.963 217.037 196.941 217.091C196.918 217.145 196.906 217.203 196.906 217.262C196.905 217.321 196.917 217.379 196.939 217.434C196.961 217.489 196.994 217.539 197.036 217.58C197.078 217.622 197.127 217.655 197.182 217.677C197.237 217.7 197.296 217.711 197.355 217.71Z" fill="#066AC9"/>
<g opacity="0.4">
<path d="M197.355 217.71H231.775L231.811 217.674C233.016 216.495 233.728 214.904 233.805 213.22C233.84 212.327 233.689 211.436 233.362 210.604C233.035 209.772 232.539 209.018 231.905 208.388L231.775 208.258H197.355C197.236 208.258 197.122 208.305 197.038 208.389C196.954 208.473 196.906 208.587 196.906 208.706C196.908 208.824 196.956 208.937 197.04 209.019C197.124 209.102 197.237 209.149 197.355 209.149H231.404C232.376 210.189 232.917 211.56 232.917 212.984C232.917 214.408 232.376 215.778 231.404 216.819H197.355C197.296 216.818 197.238 216.829 197.184 216.851C197.129 216.873 197.08 216.905 197.038 216.946C196.996 216.987 196.963 217.036 196.941 217.09C196.918 217.145 196.906 217.203 196.906 217.261C196.905 217.32 196.917 217.379 196.939 217.434C196.961 217.488 196.994 217.538 197.036 217.58C197.078 217.622 197.127 217.655 197.182 217.677C197.237 217.699 197.296 217.71 197.355 217.71Z" fill="white"/>
</g>
<path d="M200.954 211.945H202.901C202.988 211.945 203.072 211.91 203.134 211.848C203.196 211.786 203.231 211.702 203.231 211.615C203.232 211.571 203.224 211.527 203.208 211.486C203.191 211.446 203.167 211.409 203.136 211.377C203.106 211.346 203.069 211.321 203.029 211.304C202.988 211.287 202.945 211.278 202.901 211.278H200.954C200.865 211.278 200.779 211.314 200.716 211.377C200.653 211.44 200.617 211.526 200.617 211.615C200.619 211.703 200.655 211.787 200.718 211.849C200.781 211.911 200.866 211.945 200.954 211.945Z" fill="white"/>
<path d="M205.461 211.945H223.539C223.627 211.945 223.712 211.911 223.775 211.849C223.838 211.787 223.874 211.703 223.875 211.615C223.875 211.526 223.84 211.44 223.777 211.377C223.714 211.314 223.628 211.278 223.539 211.278H205.461C205.417 211.278 205.373 211.286 205.332 211.302C205.291 211.319 205.253 211.344 205.222 211.375C205.19 211.407 205.166 211.444 205.149 211.485C205.132 211.526 205.124 211.57 205.125 211.615C205.125 211.659 205.134 211.702 205.151 211.743C205.168 211.783 205.193 211.82 205.224 211.851C205.255 211.881 205.292 211.906 205.333 211.922C205.374 211.938 205.417 211.946 205.461 211.945Z" fill="white"/>
<path d="M225.97 211.945H229.976C230.064 211.945 230.148 211.91 230.21 211.848C230.272 211.786 230.306 211.702 230.306 211.615C230.307 211.571 230.299 211.527 230.283 211.486C230.267 211.446 230.242 211.409 230.212 211.377C230.181 211.346 230.144 211.321 230.104 211.304C230.063 211.287 230.02 211.278 229.976 211.278H225.97C225.881 211.278 225.795 211.314 225.732 211.377C225.669 211.44 225.634 211.526 225.634 211.615C225.635 211.703 225.671 211.787 225.734 211.849C225.797 211.911 225.882 211.945 225.97 211.945Z" fill="white"/>
<path d="M200.954 214.76H218.064C218.153 214.76 218.238 214.725 218.302 214.662C218.365 214.599 218.4 214.513 218.4 214.424C218.398 214.336 218.362 214.252 218.299 214.19C218.237 214.128 218.152 214.094 218.064 214.094H200.954C200.866 214.094 200.781 214.128 200.718 214.19C200.655 214.252 200.619 214.336 200.617 214.424C200.617 214.513 200.653 214.599 200.716 214.662C200.779 214.725 200.865 214.76 200.954 214.76Z" fill="white"/>
<path d="M220.589 214.76H229.994C230.037 214.76 230.081 214.752 230.121 214.735C230.162 214.718 230.199 214.693 230.229 214.661C230.26 214.63 230.284 214.593 230.301 214.552C230.317 214.512 230.325 214.468 230.324 214.424C230.324 214.336 230.289 214.252 230.227 214.19C230.165 214.128 230.081 214.094 229.994 214.094H220.589C220.501 214.094 220.417 214.128 220.355 214.19C220.293 214.252 220.259 214.336 220.259 214.424C220.258 214.468 220.266 214.512 220.282 214.552C220.298 214.593 220.322 214.63 220.353 214.661C220.384 214.693 220.421 214.718 220.461 214.735C220.502 214.752 220.545 214.76 220.589 214.76Z" fill="white"/>
<path d="M196.34 218.247H236.891V226.701H196.328C196.695 223.895 196.699 221.054 196.34 218.247Z" fill="#066AC9"/>
<path opacity="0.7" d="M196.34 218.247H236.891V226.701H196.328C196.695 223.895 196.699 221.054 196.34 218.247Z" fill="white"/>
<path d="M230.265 226.388C231.316 225.335 231.906 223.908 231.906 222.421C231.906 220.933 231.316 219.506 230.265 218.453L229.51 217.71H242.254L242.384 217.845C242.987 218.448 243.466 219.164 243.793 219.952C244.12 220.74 244.288 221.585 244.288 222.438C244.288 223.292 244.12 224.137 243.793 224.925C243.466 225.713 242.987 226.429 242.384 227.032L242.254 227.167H229.51L230.265 226.388Z" fill="#066AC9"/>
<path d="M195.927 227.15H230.348L230.383 227.109C231.588 225.93 232.3 224.338 232.377 222.654C232.413 221.762 232.262 220.872 231.935 220.041C231.608 219.21 231.112 218.457 230.477 217.828L230.348 217.692H195.927C195.808 217.692 195.694 217.74 195.61 217.824C195.526 217.908 195.479 218.022 195.479 218.141C195.479 218.199 195.49 218.257 195.513 218.311C195.535 218.366 195.569 218.415 195.61 218.456C195.652 218.497 195.701 218.529 195.756 218.551C195.81 218.573 195.868 218.584 195.927 218.583H229.976C230.948 219.624 231.489 220.994 231.489 222.418C231.489 223.842 230.948 225.213 229.976 226.253H195.927C195.868 226.253 195.81 226.263 195.756 226.285C195.701 226.307 195.652 226.34 195.61 226.381C195.569 226.422 195.535 226.471 195.513 226.525C195.49 226.579 195.479 226.637 195.479 226.696C195.478 226.755 195.489 226.814 195.511 226.869C195.533 226.924 195.566 226.974 195.608 227.017C195.649 227.059 195.699 227.092 195.754 227.115C195.809 227.138 195.868 227.15 195.927 227.15Z" fill="#066AC9"/>
<g opacity="0.3">
<path d="M195.927 227.15H230.348L230.383 227.109C231.588 225.93 232.3 224.338 232.377 222.655C232.413 221.762 232.262 220.872 231.935 220.042C231.608 219.211 231.112 218.457 230.477 217.828L230.348 217.693H195.927C195.808 217.693 195.694 217.74 195.61 217.824C195.526 217.908 195.479 218.022 195.479 218.141C195.479 218.2 195.49 218.258 195.513 218.312C195.535 218.366 195.569 218.415 195.61 218.456C195.652 218.497 195.701 218.53 195.756 218.552C195.81 218.574 195.868 218.584 195.927 218.584H229.976C230.948 219.624 231.489 220.995 231.489 222.419C231.489 223.843 230.948 225.213 229.976 226.254H195.927C195.868 226.253 195.81 226.264 195.756 226.286C195.701 226.308 195.652 226.34 195.61 226.381C195.569 226.422 195.535 226.471 195.513 226.525C195.49 226.58 195.479 226.638 195.479 226.696C195.478 226.756 195.489 226.814 195.511 226.87C195.533 226.925 195.566 226.975 195.608 227.017C195.649 227.059 195.699 227.093 195.754 227.116C195.809 227.139 195.868 227.15 195.927 227.15Z" fill="white"/>
</g>
<path d="M228.566 223.551H226.619C226.531 223.551 226.446 223.586 226.383 223.647C226.32 223.709 226.284 223.793 226.282 223.881C226.282 223.97 226.318 224.056 226.381 224.119C226.444 224.182 226.53 224.218 226.619 224.218H228.566C228.61 224.218 228.653 224.209 228.694 224.192C228.734 224.175 228.771 224.15 228.802 224.119C228.832 224.087 228.856 224.05 228.873 224.01C228.889 223.969 228.897 223.925 228.896 223.881C228.896 223.794 228.861 223.71 228.799 223.648C228.737 223.586 228.653 223.551 228.566 223.551Z" fill="white"/>
<path d="M224.058 223.551H205.981C205.937 223.55 205.893 223.558 205.852 223.574C205.812 223.591 205.774 223.615 205.743 223.646C205.712 223.676 205.687 223.713 205.67 223.754C205.653 223.794 205.644 223.837 205.644 223.881C205.644 223.926 205.652 223.97 205.668 224.011C205.685 224.052 205.71 224.09 205.741 224.121C205.772 224.152 205.81 224.177 205.851 224.194C205.892 224.21 205.936 224.218 205.981 224.218H224.058C224.147 224.218 224.233 224.182 224.296 224.119C224.359 224.056 224.395 223.971 224.395 223.881C224.393 223.793 224.357 223.709 224.294 223.647C224.231 223.586 224.146 223.551 224.058 223.551Z" fill="white"/>
<path d="M203.55 223.551H199.544C199.455 223.551 199.371 223.586 199.308 223.647C199.245 223.709 199.209 223.793 199.207 223.881C199.207 223.97 199.243 224.056 199.306 224.119C199.369 224.182 199.454 224.218 199.544 224.218H203.55C203.594 224.218 203.637 224.209 203.677 224.192C203.718 224.175 203.755 224.15 203.785 224.119C203.816 224.087 203.84 224.05 203.857 224.01C203.873 223.969 203.881 223.925 203.88 223.881C203.88 223.794 203.845 223.71 203.783 223.648C203.721 223.586 203.637 223.551 203.55 223.551Z" fill="white"/>
<path d="M228.566 220.731H211.456C211.411 220.73 211.367 220.738 211.326 220.755C211.285 220.772 211.248 220.796 211.216 220.828C211.185 220.859 211.16 220.897 211.143 220.938C211.127 220.979 211.119 221.023 211.119 221.067C211.119 221.111 211.128 221.155 211.145 221.195C211.162 221.236 211.187 221.272 211.218 221.303C211.25 221.334 211.287 221.358 211.327 221.374C211.368 221.391 211.412 221.399 211.456 221.398H228.566C228.653 221.398 228.737 221.363 228.799 221.301C228.861 221.239 228.896 221.155 228.896 221.067C228.897 221.024 228.889 220.98 228.873 220.939C228.856 220.898 228.832 220.861 228.801 220.83C228.771 220.799 228.734 220.774 228.694 220.757C228.653 220.74 228.61 220.731 228.566 220.731Z" fill="white"/>
<path d="M208.925 220.731H199.526C199.437 220.731 199.351 220.767 199.288 220.83C199.225 220.893 199.19 220.978 199.19 221.067C199.191 221.156 199.227 221.24 199.29 221.301C199.353 221.363 199.438 221.398 199.526 221.398H208.925C208.969 221.399 209.012 221.391 209.053 221.374C209.094 221.358 209.131 221.334 209.162 221.303C209.193 221.272 209.218 221.236 209.235 221.195C209.252 221.155 209.261 221.111 209.261 221.067C209.262 221.023 209.254 220.979 209.237 220.938C209.22 220.897 209.196 220.859 209.164 220.828C209.133 220.796 209.095 220.772 209.054 220.755C209.013 220.738 208.969 220.73 208.925 220.731Z" fill="white"/>
<path d="M150.556 170.592L158.857 174.781C161.648 176.167 164.445 177.542 167.241 178.852C170.038 180.162 172.834 181.406 175.596 182.557C176.982 183.147 178.357 183.654 179.726 184.132C181.094 184.61 182.392 185.035 183.59 185.312C184.18 185.466 184.741 185.578 185.207 185.649C185.443 185.684 185.207 185.649 185.089 185.684C185.03 185.688 184.972 185.702 184.918 185.725C184.876 185.725 184.918 185.725 184.918 185.755C184.967 185.759 185.016 185.759 185.065 185.755C185.487 185.668 185.9 185.541 186.298 185.377C186.863 185.15 187.414 184.892 187.95 184.604C189.13 184.014 190.31 183.241 191.567 182.457C192.824 181.672 194.039 180.811 195.272 179.914C200.234 176.374 205.178 172.35 210.105 168.468L215.574 173.524C213.651 176.279 211.633 178.834 209.497 181.353C207.361 183.873 205.125 186.315 202.73 188.699C200.252 191.197 197.566 193.479 194.7 195.519C193.885 196.09 193.042 196.62 192.175 197.106C191.154 197.685 190.081 198.167 188.971 198.546C188.67 198.658 188.298 198.758 187.962 198.853C187.626 198.947 187.224 199.03 186.782 199.095C186.331 199.171 185.876 199.221 185.419 199.242C184.923 199.242 184.239 199.242 184.097 199.242C182.971 199.177 181.944 199.053 180.965 198.9C179.135 198.608 177.323 198.214 175.537 197.72C173.833 197.236 172.176 196.721 170.563 196.174C167.324 195.083 164.226 193.814 161.164 192.552C158.102 191.289 155.117 189.885 152.167 188.422C150.692 187.702 149.217 186.976 147.765 186.209C146.314 185.442 144.892 184.681 143.382 183.849L150.556 170.592Z" fill="#FFBDA7"/>
<path opacity="0.2" d="M223.462 152.514L224.979 151.895L225.191 151.452L223.462 152.514Z" fill="black"/>
<path d="M226.996 150.851L222.123 153.529L217.816 155.948L226.271 162.946C226.271 162.946 228.631 158.816 228.991 157.146C229.162 156.308 226.996 150.851 226.996 150.851Z" fill="#FFBDA7"/>
<path d="M216.719 155.17C217.301 153.966 217.953 152.798 218.672 151.671C219.085 151.264 225.569 151.458 225.569 151.458L224.519 152.22L221.899 154.58L219.256 156.969L216.719 155.17Z" fill="#FFBDA7"/>
<path d="M209.981 168.828L216.719 155.17L226.489 162.12C226.489 162.12 224.2 173.1 215.35 173.566L209.981 168.828Z" fill="#FFBDA7"/>
<path d="M228.459 148.883L200.851 165.772L201.679 167.127L229.287 150.237L228.459 148.883Z" fill="#263238"/>
<path d="M230.295 150.195L233.026 147.587L229.463 148.838L230.295 150.195Z" fill="#263238"/>
<path opacity="0.3" d="M230.295 150.195L232.188 148.39L233.026 147.587L229.463 148.838L230.295 150.195Z" fill="white"/>
<path d="M232.241 148.342L232.784 147.817L233.026 147.587L232 147.947L232.241 148.342Z" fill="#263238"/>
<path opacity="0.2" d="M215.668 157.282L214.353 159.955L213.515 160.468L214.683 157.89L215.668 157.282Z" fill="black"/>
<path opacity="0.2" d="M220.471 154.344L219.91 156.568L219.256 156.969L216.07 158.025L216.459 156.798L220.471 154.344Z" fill="black"/>
<path opacity="0.2" d="M219.256 156.968L216.388 157.983L214.258 160.933L216.618 167.807C219.456 165.37 219.344 163.24 217.651 161.275L216.648 160.095C218.2 159.458 219.651 158.774 220.335 157.735L223.592 154.673C225.952 153.623 227.309 152.673 227.504 152.16L227.468 151.965L223.397 154.455L219.256 156.968Z" fill="black"/>
<path d="M209.981 168.827C209.981 168.827 209.521 164.39 210.187 162.337C210.854 160.284 214.388 157.293 214.978 156.638C215.568 155.983 219.521 155.358 219.521 155.358C219.321 156.284 218.931 157.051 218.029 157.34L216.388 158.007L214.258 160.957C214.258 160.957 217.798 163.075 217.846 164.739C217.893 166.402 213.674 172.131 213.674 172.131L209.981 168.827Z" fill="#FFBDA7"/>
<path d="M120.731 168.355C122.879 188.297 155.235 194.563 155.235 194.563L161.89 173.659C161.89 173.659 151.299 165.399 140.473 158.709C129.133 151.7 119.599 157.853 120.731 168.355Z" fill="#066AC9"/>
<path opacity="0.2" d="M152.108 193.821C148.131 190.204 145.376 184.865 143.482 178.321L141.263 190.074C144.78 191.59 148.405 192.842 152.108 193.821Z" fill="black"/>
<path d="M138.904 157.434C138.904 157.434 150.981 188.563 139.299 246.46L84.2047 246.324C83.8448 237.869 87.6739 198.28 79.6145 158.414C79.6145 158.414 81.8742 155.653 99.6745 154.479C106.701 154.012 116.903 153.959 123.092 154.538C128.43 155.09 133.716 156.059 138.904 157.434Z" fill="#066AC9"/>
<path opacity="0.6" d="M144.267 205.674C144.196 207.78 144.09 209.945 143.942 212.164C143.824 213.975 143.688 215.834 143.523 217.733C143.319 219.999 143.073 222.328 142.786 224.719C142.562 226.672 142.302 228.66 142.019 230.69C141.669 233.14 141.275 235.646 140.839 238.206C140.386 240.885 139.875 243.638 139.305 246.466L84.2106 246.337C84.1339 244.496 84.2519 241.18 84.4053 236.714C84.4702 234.944 84.5351 232.95 84.5941 230.814C84.6413 229.262 84.6826 227.61 84.7121 225.893C84.7534 223.982 84.7888 221.97 84.8006 219.863C84.8006 218.231 84.8006 216.544 84.8006 214.801C84.8006 212.789 84.7652 210.712 84.7239 208.583C84.7239 207.001 84.6472 205.397 84.5941 203.762C84.4053 197.951 84.0513 191.797 83.479 185.431C82.6779 176.365 81.3879 167.348 79.6145 158.421C79.6145 158.421 81.8742 155.66 99.6745 154.485C106.707 154.019 116.903 153.96 123.092 154.544C128.437 155.099 133.732 156.067 138.927 157.441C138.927 157.441 145.364 174.079 144.267 205.674Z" fill="#FAFAFA"/>
<path opacity="0.2" d="M90.3407 182.899C90.3407 182.899 89.851 196.044 84.5941 203.767C84.4053 197.956 84.0513 191.802 83.479 185.436C85.6266 183.79 87.9689 182.816 90.3407 182.899Z" fill="black"/>
<path d="M98.9368 130.177C101.114 137.546 103.869 151.151 99.0902 156.65C106.565 159.01 111.94 160.603 118.56 165.5C120.295 160.691 122.413 154.455 122.413 154.455C113.858 153.24 113.492 147.015 114.407 141.05L98.9368 130.177Z" fill="#FFBDA7"/>
<path opacity="0.2" d="M105.244 134.62L114.389 141.057C114.157 142.445 114.047 143.851 114.059 145.258C110.819 145.098 106.099 142.001 105.45 138.685C105.132 137.354 105.062 135.976 105.244 134.62Z" fill="black"/>
<path d="M92.6829 155.039L97.9634 150.078L112.106 154.933L118.289 164.438L120.602 154.803L123.794 151.918L129.393 155.346L128.531 161.453L124.478 159.47L119.593 167.477L108.654 161.057L105.61 163.984L92.6829 155.039Z" fill="#066AC9"/>
<path opacity="0.2" d="M119.593 167.476L122.442 157.47L128.531 161.452L124.478 159.47L119.593 167.476Z" fill="black"/>
<path opacity="0.2" d="M119.593 167.477L109.952 158.037L105.61 163.984L108.654 161.058L119.593 167.477Z" fill="black"/>
<path d="M102.453 179.578L108.353 186.752C110.359 189.141 112.365 191.519 114.401 193.832C116.436 196.145 118.501 198.422 120.566 200.587C121.605 201.673 122.649 202.702 123.699 203.673C124.744 204.647 125.776 205.579 126.755 206.328C127.239 206.706 127.705 207.03 128.101 207.284C128.307 207.414 128.101 207.284 127.977 207.284C127.923 207.261 127.864 207.249 127.806 207.249C127.758 207.249 127.806 207.249 127.806 207.278C127.806 207.308 127.865 207.313 127.947 207.325C128.369 207.412 128.797 207.46 129.228 207.467C129.835 207.487 130.444 207.475 131.051 207.431C132.366 207.343 133.782 207.131 135.228 206.906C136.673 206.682 138.178 206.393 139.641 206.069C145.606 204.818 151.925 203.709 157.996 202.11L160.804 208.37C157.931 210.14 155.064 211.638 152.096 213.09C149.128 214.541 146.096 215.88 142.945 217.096C139.673 218.392 136.296 219.405 132.85 220.122C131.918 220.299 130.944 220.453 129.9 220.559C128.724 220.68 127.539 220.692 126.36 220.594C126.042 220.594 125.658 220.512 125.31 220.465C124.962 220.417 124.567 220.335 124.13 220.217C123.688 220.105 123.252 219.967 122.826 219.804C122.423 219.639 122.03 219.454 121.646 219.249C120.709 218.773 119.797 218.25 118.914 217.68C117.359 216.672 115.862 215.577 114.43 214.399C113.054 213.274 111.742 212.136 110.495 210.983C107.964 208.688 105.622 206.299 103.338 203.903C101.055 201.508 98.872 199.03 96.748 196.522C95.686 195.272 94.6299 194.015 93.6092 192.729C92.5885 191.442 91.5855 190.174 90.5471 188.793L102.453 179.578Z" fill="#FFBDA7"/>
<path d="M75.6025 164.84C69.5668 183.967 96.6832 202.7 96.6832 202.7L111.174 186.221C111.174 186.221 104.79 174.421 97.5564 163.937C89.9808 152.957 78.7826 154.768 75.6025 164.84Z" fill="#066AC9"/>
<path d="M157.176 202.369C157.176 202.369 159.907 198.138 161.046 197.472C162.185 196.805 167.082 193.708 167.082 193.708L172.221 197.059L171.253 198.091L167.123 197.902L164.114 198.982L163.093 203.897L158.739 209.048L157.176 202.369Z" fill="#FFBDA7"/>
<path opacity="0.2" d="M169.058 195.95L168.669 195.82L167.253 196.398L168.108 196.457L169.058 195.95Z" fill="black"/>
<path d="M176.492 176.003L178.121 173.702C185.632 176.262 196.806 178.357 197.555 180.935C197.036 178.717 203.214 177.926 206.936 176.469L208.175 176.947L197.898 190.918L176.492 176.003Z" fill="#066AC9"/>
<path opacity="0.6" d="M176.492 176.003L178.121 173.702C185.632 176.262 196.806 178.357 197.555 180.935C197.036 178.717 203.214 177.926 206.936 176.469L208.175 176.947L197.898 190.918L176.492 176.003Z" fill="white"/>
<path d="M174.681 173.625L159.548 213.172L180.398 222.789L184.493 222.488L193.632 216.193L208.937 176.185L199.986 182.008L196.08 181.814L174.681 173.625Z" fill="#263238"/>
<path opacity="0.3" d="M174.681 173.625L159.548 213.172L180.398 222.789L196.08 181.814L174.681 173.625Z" fill="white"/>
<path opacity="0.3" d="M199.986 182.008L184.493 222.488L193.632 216.193L208.936 176.185L199.986 182.008Z" fill="white"/>
<path opacity="0.1" d="M180.398 222.79L184.493 222.489L199.986 182.009L196.08 181.814L180.398 222.79Z" fill="white"/>
<path d="M179.749 199.49C179.749 199.461 179.749 199.396 179.608 199.26C179.018 198.67 174.014 193.738 173.613 193.738C173.212 193.738 157.176 202.369 157.176 202.369L158.739 209.089C165.961 213.68 173.855 206.187 173.855 206.187L175.92 204.505C175.92 204.505 177.613 205.473 178.121 205.425C178.398 205.378 180.121 200.351 179.749 199.49ZM171.277 198.753L171.914 200.582L173.295 204.564L171.277 198.753Z" fill="#FFBDA7"/>
<path d="M126.26 96.7596C126.26 96.7596 132.248 112.235 125.08 120.277C117.911 128.319 111.339 98.5296 111.339 98.5296L126.26 96.7596Z" fill="#263238"/>
<path d="M103.25 138.478C108.69 143.493 115.764 143.552 121.192 140.408C124.842 138.296 127.549 134.871 128.761 130.832C128.937 130.272 129.08 129.703 129.192 129.127C131.204 118.407 128.732 100.996 116.961 96.8716C114.365 95.9483 111.575 95.7047 108.858 96.1641C106.141 96.6235 103.587 97.7707 101.438 99.4963C99.2896 101.222 97.6185 103.469 96.5837 106.023C95.549 108.577 95.1851 111.353 95.5266 114.088C96.7597 125.811 96.9721 132.75 103.25 138.478Z" fill="#FFBDA7"/>
<path d="M113.545 116.501C113.545 117.451 114.135 118.206 114.767 118.177C115.398 118.147 115.864 117.333 115.823 116.377C115.781 115.421 115.233 114.672 114.601 114.701C113.97 114.731 113.504 115.527 113.545 116.501Z" fill="#263238"/>
<path d="M124.39 115.964C124.39 116.919 124.98 117.675 125.611 117.639C126.242 117.604 126.702 116.801 126.661 115.869C126.62 114.937 126.071 114.158 125.44 114.194C124.808 114.229 124.348 115.049 124.39 115.964Z" fill="#263238"/>
<path d="M120.95 116.607C122.235 119.483 123.913 122.168 125.935 124.583C125.299 125.087 124.561 125.445 123.773 125.634C122.984 125.822 122.163 125.836 121.369 125.675L120.95 116.607Z" fill="#DE5753"/>
<path d="M110.011 113.155C110.115 113.165 110.219 113.147 110.313 113.103C110.407 113.06 110.488 112.992 110.548 112.907C110.932 112.313 111.449 111.817 112.058 111.458C112.668 111.1 113.353 110.889 114.059 110.842C114.177 110.804 114.28 110.728 114.352 110.628C114.425 110.527 114.465 110.406 114.465 110.282C114.465 110.158 114.425 110.036 114.352 109.936C114.28 109.835 114.177 109.76 114.059 109.721C113.166 109.759 112.296 110.01 111.52 110.452C110.744 110.894 110.085 111.516 109.598 112.264C109.518 112.387 109.486 112.535 109.508 112.681C109.531 112.826 109.608 112.957 109.722 113.049C109.811 113.103 109.909 113.139 110.011 113.155Z" fill="#263238"/>
<path d="M128.862 111.999C128.971 112.031 129.088 112.031 129.198 111.999C129.324 111.923 129.418 111.804 129.46 111.663C129.503 111.522 129.491 111.37 129.428 111.238C129.014 110.446 128.415 109.764 127.683 109.251C126.952 108.738 126.107 108.407 125.221 108.288C125.076 108.287 124.936 108.339 124.827 108.435C124.719 108.531 124.649 108.663 124.631 108.807C124.63 108.951 124.682 109.091 124.776 109.199C124.871 109.308 125.002 109.378 125.145 109.397C125.844 109.511 126.507 109.788 127.08 110.205C127.653 110.622 128.119 111.168 128.443 111.798C128.495 111.858 128.56 111.907 128.632 111.941C128.704 111.976 128.782 111.995 128.862 111.999Z" fill="#263238"/>
<path d="M103.427 98.9664L104.56 104.082C103.726 104.584 103.113 105.383 102.841 106.318C102.57 107.253 102.661 108.255 103.096 109.126C105.185 113.315 103.374 120.301 100.3 123.322C100.3 123.322 100.011 121.445 98.4649 122.047C96.9191 122.649 98.3115 132.419 101.869 136.797C101.869 136.797 96.7657 133.015 93.1136 122.968C89.7329 113.675 88.6591 105.763 90.258 101.887L103.427 98.9664Z" fill="#263238"/>
<path d="M90.8596 123.994C92.2961 126.595 94.7068 128.52 97.562 129.345C101.344 130.413 103.25 127.026 102.211 123.445C101.261 120.271 98.1579 115.775 94.3465 116.33C90.5351 116.884 89.0896 120.784 90.8596 123.994Z" fill="#FFBDA7"/>
<path d="M104.56 104.081C104.56 104.081 124.921 107.326 128.266 98.1048C131.611 88.8831 117.793 83.5318 115.61 84.641C113.427 85.7502 116.259 87.8919 116.259 87.8919C116.259 87.8919 103.214 84.4109 101.043 86.4169C98.872 88.4229 103.94 88.9952 103.94 88.9952C103.94 88.9952 82.5526 92.5352 89.55 105.562C94.2091 103.268 99.5421 102.742 104.56 104.081Z" fill="#263238"/>
<path d="M121.009 128.997C120.22 130.593 119.547 132.243 118.997 133.936C118.69 133.894 118.377 133.847 118.07 133.788C113.87 133.098 112.17 131.387 111.516 129.699C111.224 128.871 111.137 127.984 111.262 127.115C111.313 126.619 111.434 126.132 111.622 125.67C113.634 127.369 117.522 128.319 119.581 128.738C120.454 128.926 121.009 128.997 121.009 128.997Z" fill="#263238"/>
<path d="M119.581 128.738L118.95 130.177C114.997 129.516 112.3 128.519 111.28 127.115C111.331 126.619 111.452 126.132 111.639 125.67C113.634 127.369 117.498 128.319 119.581 128.738Z" fill="white"/>
<path d="M118.071 133.788C113.87 133.098 112.171 131.387 111.516 129.699C113.109 129.995 114.637 130.57 116.029 131.399C116.942 131.963 117.656 132.798 118.071 133.788Z" fill="#DD5753"/>
<path d="M114.885 122.365C114.448 122.45 114.001 122.476 113.557 122.442C112.348 122.343 111.222 121.79 110.405 120.893C109.589 119.996 109.142 118.823 109.157 117.61C109.171 116.397 109.645 115.235 110.483 114.358C111.321 113.481 112.46 112.954 113.671 112.884C114.882 112.814 116.074 113.206 117.007 113.981C117.941 114.756 118.545 115.856 118.699 117.059C118.853 118.262 118.545 119.479 117.837 120.463C117.129 121.448 116.074 122.128 114.885 122.365ZM113.038 113.179C112.279 113.333 111.573 113.679 110.985 114.182C110.187 114.864 109.65 115.801 109.466 116.835C109.281 117.868 109.461 118.933 109.974 119.849C110.487 120.765 111.302 121.474 112.279 121.857C113.257 122.239 114.336 122.271 115.335 121.946C116.333 121.622 117.188 120.961 117.754 120.077C118.319 119.193 118.561 118.14 118.438 117.098C118.315 116.056 117.834 115.088 117.077 114.361C116.321 113.633 115.335 113.191 114.289 113.108C113.871 113.072 113.449 113.096 113.038 113.179Z" fill="#263238"/>
<path d="M127.263 121.451C126.83 121.539 126.387 121.564 125.947 121.528C124.67 121.428 123.485 120.826 122.653 119.852C121.82 118.879 121.408 117.615 121.507 116.338C121.607 115.062 122.209 113.877 123.183 113.044C124.156 112.211 125.42 111.799 126.697 111.899C127.974 112 129.158 112.603 129.991 113.576C130.824 114.55 131.237 115.813 131.139 117.091C131.057 118.141 130.633 119.135 129.933 119.922C129.234 120.709 128.296 121.246 127.263 121.451ZM125.428 112.265C124.295 112.488 123.288 113.133 122.612 114.069C121.935 115.006 121.639 116.164 121.784 117.31C121.928 118.456 122.502 119.505 123.39 120.244C124.278 120.983 125.413 121.358 126.566 121.293C127.72 121.228 128.805 120.727 129.604 119.892C130.403 119.058 130.855 117.951 130.869 116.796C130.883 115.641 130.459 114.523 129.681 113.669C128.903 112.815 127.83 112.287 126.679 112.194C126.261 112.164 125.84 112.188 125.428 112.265Z" fill="#263238"/>
<path d="M121.67 116.973C121.641 116.979 121.612 116.976 121.585 116.966C121.557 116.955 121.534 116.937 121.516 116.914C121.421 116.747 121.289 116.604 121.131 116.496C120.973 116.388 120.792 116.317 120.602 116.289C119.687 116.182 118.684 117.103 118.673 117.109C118.645 117.136 118.608 117.151 118.569 117.151C118.531 117.151 118.494 117.136 118.466 117.109C118.452 117.095 118.441 117.079 118.433 117.062C118.425 117.044 118.421 117.025 118.421 117.005C118.421 116.986 118.425 116.967 118.433 116.949C118.441 116.931 118.452 116.915 118.466 116.902C118.513 116.855 119.581 115.876 120.631 116.005C120.864 116.037 121.086 116.12 121.281 116.25C121.476 116.38 121.64 116.552 121.758 116.755C121.779 116.788 121.786 116.828 121.779 116.866C121.771 116.905 121.749 116.939 121.717 116.961C121.703 116.969 121.686 116.973 121.67 116.973Z" fill="#263238"/>
<path d="M109.297 117.41H109.262L98.9488 117.315C98.9097 117.315 98.8721 117.3 98.8445 117.272C98.8168 117.244 98.8013 117.207 98.8013 117.168C98.8013 117.129 98.8168 117.091 98.8445 117.063C98.8721 117.036 98.9097 117.02 98.9488 117.02L109.262 117.115C109.301 117.115 109.339 117.13 109.366 117.158C109.394 117.186 109.409 117.223 109.409 117.262C109.408 117.295 109.397 117.327 109.377 117.354C109.357 117.38 109.329 117.4 109.297 117.41Z" fill="#263238"/>
<path d="M247.216 237.138H47.2175V246.46H247.216V237.138Z" fill="#066AC9"/>
<path opacity="0.2" d="M247.216 237.138H47.2175V246.46H247.216V237.138Z" fill="#FAFAFA"/>
<path d="M250.201 237.138H44.7985C44.1776 237.138 43.5818 237.383 43.14 237.819C42.6983 238.255 42.4462 238.848 42.4385 239.469C42.4462 240.089 42.6983 240.682 43.14 241.118C43.5818 241.555 44.1776 241.799 44.7985 241.799H250.201C250.817 241.792 251.405 241.544 251.841 241.108C252.276 240.673 252.524 240.084 252.532 239.469C252.524 238.853 252.276 238.265 251.841 237.829C251.405 237.394 250.817 237.146 250.201 237.138Z" fill="#066AC9"/>
<path opacity="0.4" d="M250.201 237.138H44.7985C44.1776 237.138 43.5818 237.383 43.14 237.819C42.6983 238.255 42.4462 238.848 42.4385 239.469C42.4462 240.089 42.6983 240.682 43.14 241.118C43.5818 241.555 44.1776 241.799 44.7985 241.799H250.201C250.817 241.792 251.405 241.544 251.841 241.108C252.276 240.673 252.524 240.084 252.532 239.469C252.524 238.853 252.276 238.265 251.841 237.829C251.405 237.394 250.817 237.146 250.201 237.138Z" fill="#FAFAFA"/>
<path d="M49.7488 236.879V220.666H109.168V237.221L49.7488 236.879Z" fill="#066AC9"/>
<path opacity="0.7" d="M49.7488 236.879V220.666H109.168V237.221L49.7488 236.879Z" fill="white"/>
<path opacity="0.2" d="M109.168 220.666H79.8506V237.221H109.168V220.666Z" fill="black"/>
<path d="M49.7488 222.99L47.1174 223.798H75.8327L49.7488 222.99Z" fill="#066AC9"/>
<path d="M49.7488 228.943L79.8506 229.71H105.315L80.4052 231.09L49.7488 228.943Z" fill="#066AC9"/>
<path d="M75.8327 233.952H49.7488L47.1174 234.731L75.8327 233.952Z" fill="#066AC9"/>
<path d="M82.5764 223.392L109.168 223.114L110.613 223.799L82.5764 223.392Z" fill="#066AC9"/>
<path d="M87.2019 233.186H109.168L110.613 234.732L87.2019 233.186Z" fill="#066AC9"/>
<path opacity="0.5" d="M49.7488 222.99L47.1174 223.798H75.8327L49.7488 222.99Z" fill="white"/>
<path opacity="0.7" d="M49.7488 228.943L79.8506 229.71H105.315L80.4052 231.09L49.7488 228.943Z" fill="white"/>
<path opacity="0.5" d="M75.8327 233.952H49.7488L47.1174 234.731L75.8327 233.952Z" fill="white"/>
<path opacity="0.7" d="M82.5764 223.392L109.168 223.114L110.613 223.799L82.5764 223.392Z" fill="white"/>
<path opacity="0.7" d="M110.613 234.732L87.2019 233.186H109.168" fill="white"/>
</svg>
