<svg width="336" height="250" viewBox="0 0 336 250" fill="none" xmlns="http://www.w3.org/2000/svg">
<path d="M291.639 138.02H279.22V215.93H291.639V138.02Z" fill="#F0F0F0"/>
<path d="M289.25 215.931H152.438V219.695H289.25V215.931Z" fill="#F0F0F0"/>
<path d="M279.213 138.027H150.056V215.937H279.213V138.027Z" fill="#F5F5F5"/>
<path d="M291.639 134.739H279.22V138.027H291.639V134.739Z" fill="#E6E6E6"/>
<path d="M279.213 134.739H150.056V138.027H279.213V134.739Z" fill="#F0F0F0"/>
<path d="M274.758 165.254H154.525V144.958H274.758V165.254ZM155.33 164.415H273.919V145.756H155.357L155.33 164.415Z" fill="#E0E0E0"/>
<path d="M274.758 209.033H154.525V170.239H274.758V209.033ZM155.33 208.201H273.919V171.091H155.357L155.33 208.201Z" fill="#E0E0E0"/>
<path d="M258.555 145.347H170.721V148.017H258.555V145.347Z" fill="#E0E0E0"/>
<path d="M258.555 170.655H170.721V173.326H258.555V170.655Z" fill="#E0E0E0"/>
<path d="M245.035 133.317H197.304V134.739H245.035V133.317Z" fill="#E0E0E0"/>
<path d="M245.035 133.317H197.304L201.893 105.989H249.624L245.035 133.317Z" fill="#E0E0E0"/>
<path d="M244.149 133.317H196.418L201.008 105.989H248.739L244.149 133.317Z" fill="#EBEBEB"/>
<path d="M198.23 131.17L202.135 107.936C202.157 107.792 202.231 107.662 202.342 107.568C202.453 107.474 202.594 107.424 202.739 107.426H246.35C246.43 107.424 246.509 107.438 246.583 107.467C246.657 107.496 246.724 107.54 246.781 107.596C246.838 107.651 246.883 107.718 246.914 107.791C246.945 107.865 246.961 107.943 246.961 108.023C246.967 108.061 246.967 108.099 246.961 108.137L243.056 131.372C243.033 131.515 242.96 131.645 242.849 131.739C242.738 131.833 242.597 131.883 242.452 131.882H198.841C198.761 131.883 198.682 131.869 198.608 131.84C198.534 131.811 198.466 131.767 198.41 131.711C198.353 131.656 198.308 131.589 198.277 131.516C198.246 131.443 198.23 131.364 198.23 131.284C198.223 131.247 198.223 131.208 198.23 131.17Z" fill="#FAFAFA"/>
<path d="M247.92 15.8011H87.5513C82.5525 15.8011 78.5002 19.8534 78.5002 24.8522V86.2166C78.5002 91.2153 82.5525 95.2676 87.5513 95.2676H247.92C252.919 95.2676 256.971 91.2153 256.971 86.2166V24.8522C256.971 19.8534 252.919 15.8011 247.92 15.8011Z" fill="#066AC9"/>
<path opacity="0.6" d="M247.92 15.8011H87.5513C82.5525 15.8011 78.5002 19.8534 78.5002 24.8522V86.2166C78.5002 91.2153 82.5525 95.2676 87.5513 95.2676H247.92C252.919 95.2676 256.971 91.2153 256.971 86.2166V24.8522C256.971 19.8534 252.919 15.8011 247.92 15.8011Z" fill="white"/>
<path opacity="0.9" d="M247.92 17.814H87.5514C83.6643 17.814 80.5132 20.9651 80.5132 24.8522V86.2166C80.5132 90.1037 83.6643 93.2548 87.5514 93.2548H247.92C251.807 93.2548 254.958 90.1037 254.958 86.2166V24.8522C254.958 20.9651 251.807 17.814 247.92 17.814Z" fill="white"/>
<path d="M151.801 49.6834V44.8795H153.646C153.891 44.8717 154.135 44.8875 154.377 44.9264C154.587 44.9597 154.788 45.0351 154.968 45.1479C155.133 45.2662 155.265 45.4258 155.35 45.6108C155.453 45.8193 155.503 46.0495 155.498 46.2818C155.507 46.6656 155.367 47.0382 155.109 47.3217C154.914 47.483 154.689 47.6035 154.447 47.6761C154.205 47.7488 153.951 47.772 153.7 47.7444H152.465V49.6834H151.801ZM152.431 47.1607H153.646C153.956 47.1891 154.267 47.1084 154.525 46.9326C154.614 46.8466 154.684 46.7418 154.728 46.6258C154.772 46.5097 154.79 46.3854 154.78 46.2616C154.785 46.0783 154.733 45.898 154.632 45.745C154.535 45.6066 154.393 45.5069 154.23 45.4632C154.033 45.424 153.833 45.4083 153.632 45.4162H152.405L152.431 47.1607Z" fill="#263238"/>
<path d="M156.189 49.6838V46.2016H156.725V46.7317C156.813 46.5444 156.939 46.3775 157.094 46.2419C157.208 46.1681 157.341 46.1285 157.477 46.1278C157.692 46.1323 157.901 46.1974 158.081 46.3157L157.879 46.8591C157.747 46.7805 157.597 46.7367 157.443 46.7317C157.319 46.7298 157.197 46.7727 157.101 46.8524C156.993 46.9319 156.915 47.0453 156.88 47.1745C156.813 47.3918 156.779 47.618 156.779 47.8454V49.6838H156.189Z" fill="#263238"/>
<path d="M158.215 47.9533C158.191 47.6891 158.227 47.4229 158.32 47.1743C158.413 46.9258 158.56 46.7013 158.752 46.5175C159.057 46.2599 159.446 46.1237 159.845 46.1351C160.063 46.1277 160.28 46.1656 160.482 46.2464C160.684 46.3273 160.867 46.4493 161.019 46.6047C161.337 46.959 161.501 47.4246 161.476 47.8996C161.49 48.2637 161.421 48.6261 161.274 48.9597C161.137 49.21 160.933 49.4168 160.684 49.5569C160.427 49.6983 160.139 49.7722 159.845 49.7716C159.627 49.7791 159.409 49.7412 159.206 49.6604C159.002 49.5796 158.818 49.4575 158.664 49.3019C158.343 48.929 158.182 48.4445 158.215 47.9533ZM158.819 47.9533C158.792 48.3104 158.894 48.6653 159.107 48.953C159.199 49.0585 159.312 49.1427 159.44 49.1995C159.567 49.2563 159.706 49.2844 159.845 49.2818C159.985 49.2855 160.123 49.2572 160.25 49.199C160.377 49.1409 160.488 49.0544 160.577 48.9463C160.791 48.6542 160.894 48.2946 160.865 47.9332C160.891 47.5814 160.786 47.2325 160.57 46.9536C160.482 46.8468 160.371 46.7612 160.246 46.7031C160.12 46.645 159.984 46.616 159.845 46.6181C159.705 46.6173 159.567 46.6468 159.439 46.7047C159.312 46.7626 159.199 46.8476 159.107 46.9536C158.891 47.2396 158.788 47.5959 158.819 47.9533Z" fill="#263238"/>
<path d="M162.053 49.9795L162.63 50.06C162.633 50.1355 162.653 50.2095 162.688 50.2766C162.722 50.3438 162.771 50.4027 162.831 50.4491C163.005 50.5711 163.216 50.6302 163.428 50.6169C163.651 50.6291 163.872 50.5704 164.059 50.4491C164.207 50.3347 164.313 50.1742 164.361 49.9929C164.403 49.7426 164.419 49.4884 164.408 49.2347C164.29 49.3776 164.143 49.4926 163.976 49.5715C163.809 49.6504 163.626 49.6912 163.442 49.691C163.228 49.6997 163.016 49.6574 162.822 49.5675C162.628 49.4777 162.459 49.3429 162.328 49.1743C162.064 48.8151 161.927 48.3785 161.939 47.9331C161.934 47.6174 161.996 47.3044 162.12 47.0139C162.224 46.7435 162.406 46.5101 162.643 46.343C162.88 46.1881 163.158 46.1085 163.442 46.1149C163.639 46.1106 163.834 46.1534 164.011 46.2398C164.189 46.3261 164.343 46.4535 164.461 46.6113V46.1886H165.005V49.2012C165.03 49.5911 164.973 49.982 164.837 50.3485C164.723 50.5776 164.54 50.7653 164.314 50.8852C164.043 51.0262 163.74 51.0933 163.435 51.0798C163.079 51.0947 162.727 50.9986 162.428 50.8047C162.303 50.7088 162.202 50.5833 162.137 50.4393C162.071 50.2953 162.042 50.1373 162.053 49.9795ZM162.542 47.8861C162.514 48.2413 162.611 48.5953 162.818 48.8858C162.899 48.9848 163.002 49.0645 163.118 49.119C163.234 49.1735 163.36 49.2016 163.489 49.2012C163.617 49.2021 163.744 49.1742 163.86 49.1196C163.976 49.0651 164.078 48.9852 164.159 48.8858C164.366 48.603 164.464 48.2552 164.435 47.9063C164.461 47.5628 164.361 47.2214 164.153 46.9468C164.073 46.845 163.971 46.7627 163.855 46.706C163.739 46.6494 163.611 46.62 163.482 46.62C163.352 46.62 163.225 46.6494 163.109 46.706C162.992 46.7627 162.891 46.845 162.811 46.9468C162.612 47.2179 162.517 47.551 162.542 47.8861Z" fill="#263238"/>
<path d="M165.891 49.6838V46.2016H166.394V46.7317C166.481 46.5426 166.61 46.3754 166.77 46.2419C166.881 46.1672 167.011 46.1275 167.145 46.1278C167.361 46.1292 167.571 46.1946 167.749 46.3157L167.548 46.8591C167.418 46.7797 167.27 46.7357 167.118 46.7317C166.992 46.7305 166.868 46.7732 166.77 46.8524C166.665 46.9354 166.588 47.0475 166.548 47.1745C166.487 47.3929 166.455 47.6186 166.454 47.8454V49.6838H165.891Z" fill="#263238"/>
<path d="M170.513 48.5696L171.124 48.6434C171.044 48.9734 170.855 49.2666 170.587 49.4753C170.252 49.6958 169.852 49.7978 169.452 49.765C169.052 49.7321 168.675 49.5664 168.38 49.2942C168.22 49.1111 168.098 48.8983 168.021 48.6681C167.944 48.4378 167.913 48.1946 167.93 47.9523C167.906 47.4633 168.069 46.9834 168.386 46.6104C168.537 46.4512 168.719 46.3258 168.921 46.2425C169.124 46.1592 169.342 46.12 169.56 46.1273C169.773 46.1201 169.985 46.1582 170.181 46.2392C170.378 46.3201 170.555 46.4421 170.701 46.597C171.009 46.9743 171.164 47.4529 171.137 47.9389V48.0932H168.541C168.541 48.4162 168.658 48.7283 168.869 48.9721C168.962 49.0711 169.074 49.1491 169.199 49.2012C169.324 49.2533 169.459 49.2781 169.594 49.2741C169.793 49.2804 169.989 49.2215 170.151 49.1063C170.319 48.9647 170.445 48.7788 170.513 48.5696ZM168.574 47.637H170.52C170.519 47.3944 170.439 47.1586 170.292 46.966C170.206 46.8568 170.095 46.7691 169.97 46.7097C169.844 46.6504 169.706 46.621 169.567 46.6238C169.443 46.6221 169.32 46.6449 169.205 46.6909C169.09 46.737 168.985 46.8054 168.896 46.8922C168.695 47.0884 168.579 47.356 168.574 47.637Z" fill="#263238"/>
<path d="M171.627 48.6503L172.211 48.5563C172.23 48.7626 172.326 48.9542 172.479 49.0931C172.665 49.2085 172.878 49.2696 173.097 49.2696C173.315 49.2696 173.529 49.2085 173.714 49.0931C173.773 49.0466 173.821 48.9876 173.855 48.9203C173.888 48.853 173.907 48.7792 173.908 48.704C173.908 48.641 173.892 48.5791 173.861 48.524C173.831 48.4689 173.787 48.4223 173.734 48.3886C173.542 48.2956 173.339 48.2279 173.13 48.1873C172.822 48.1209 172.522 48.0266 172.231 47.9055C172.074 47.8381 171.943 47.7231 171.855 47.5768C171.767 47.4359 171.721 47.2731 171.721 47.1071C171.722 46.9583 171.758 46.8119 171.827 46.68C171.896 46.5481 171.995 46.4346 172.117 46.3489C172.232 46.2708 172.359 46.2119 172.493 46.1745C172.659 46.1287 172.83 46.1061 173.003 46.1074C173.249 46.1015 173.495 46.1401 173.727 46.2215C173.907 46.2833 174.065 46.395 174.183 46.5435C174.29 46.7048 174.359 46.8884 174.385 47.0803L173.808 47.1608C173.786 46.9966 173.705 46.846 173.58 46.7381C173.425 46.6297 173.238 46.5776 173.05 46.5905C172.846 46.577 172.643 46.6237 172.466 46.7247C172.414 46.7601 172.372 46.807 172.341 46.8617C172.311 46.9165 172.294 46.9775 172.291 47.04C172.291 47.1138 172.317 47.1852 172.365 47.2413C172.423 47.3172 172.503 47.3734 172.593 47.4023C172.654 47.4023 172.821 47.4761 173.11 47.5499C173.408 47.6253 173.701 47.7172 173.989 47.825C174.142 47.891 174.275 47.9977 174.371 48.1336C174.468 48.2832 174.517 48.4587 174.512 48.6369C174.511 48.8348 174.453 49.0282 174.345 49.1937C174.223 49.3749 174.05 49.5153 173.848 49.5963C173.615 49.6953 173.363 49.7456 173.11 49.7439C172.744 49.7706 172.379 49.6712 172.077 49.4621C171.835 49.2536 171.676 48.9657 171.627 48.6503Z" fill="#263238"/>
<path d="M174.982 48.6503L175.566 48.5563C175.585 48.7626 175.68 48.9542 175.834 49.0931C176.019 49.2085 176.233 49.2696 176.451 49.2696C176.67 49.2696 176.883 49.2085 177.069 49.0931C177.128 49.0466 177.176 48.9876 177.209 48.9203C177.243 48.853 177.261 48.7792 177.263 48.704C177.263 48.641 177.247 48.5791 177.216 48.524C177.186 48.4689 177.142 48.4223 177.089 48.3886C176.897 48.2956 176.694 48.2279 176.485 48.1873C176.177 48.1209 175.876 48.0266 175.586 47.9055C175.429 47.8381 175.298 47.7231 175.21 47.5768C175.122 47.4359 175.076 47.2731 175.076 47.1071C175.077 46.9583 175.113 46.8119 175.182 46.68C175.251 46.5481 175.35 46.4346 175.472 46.3489C175.587 46.2708 175.714 46.2119 175.847 46.1745C176.014 46.1287 176.185 46.1061 176.357 46.1074C176.604 46.1015 176.849 46.1401 177.082 46.2215C177.262 46.2833 177.42 46.395 177.538 46.5435C177.645 46.7048 177.714 46.8884 177.74 47.0803L177.162 47.1608C177.141 46.9966 177.06 46.846 176.934 46.7381C176.78 46.6297 176.593 46.5776 176.404 46.5905C176.201 46.577 175.998 46.6237 175.821 46.7247C175.769 46.7601 175.726 46.807 175.696 46.8617C175.666 46.9165 175.649 46.9775 175.646 47.04C175.646 47.1138 175.672 47.1852 175.72 47.2413C175.778 47.3172 175.857 47.3734 175.948 47.4023C176.008 47.4023 176.176 47.4761 176.465 47.5499C176.763 47.6253 177.056 47.7172 177.344 47.825C177.497 47.891 177.629 47.9977 177.726 48.1336C177.823 48.2832 177.872 48.4587 177.867 48.6369C177.866 48.8348 177.808 49.0282 177.699 49.1937C177.578 49.3749 177.405 49.5153 177.203 49.5963C176.969 49.6953 176.718 49.7456 176.465 49.7439C176.098 49.7706 175.734 49.6712 175.431 49.4621C175.19 49.2536 175.03 48.9657 174.982 48.6503Z" fill="#263238"/>
<path d="M178.739 49.6838V49.0128H179.41V49.6838H178.739Z" fill="#263238"/>
<path d="M180.604 49.6838V49.0128H181.275V49.6838H180.604Z" fill="#263238"/>
<path d="M182.496 49.6838V49.0128H183.167V49.6838H182.496Z" fill="#263238"/>
<path opacity="0.7" d="M247.92 17.814H87.5648C85.6957 17.814 83.9032 18.556 82.5809 19.877C81.2587 21.1979 80.515 22.9898 80.5132 24.8589V32.4003H254.958V24.8589C254.955 22.9927 254.212 21.2039 252.893 19.8836C251.574 18.5634 249.786 17.8193 247.92 17.814Z" fill="#066AC9"/>
<path d="M94.4888 25.1077C94.4888 24.6034 94.3393 24.1105 94.0591 23.6912C93.779 23.2719 93.3808 22.9452 92.9149 22.7522C92.449 22.5592 91.9364 22.5087 91.4418 22.6071C90.9473 22.7055 90.493 22.9483 90.1364 23.3049C89.7798 23.6614 89.537 24.1157 89.4386 24.6103C89.3403 25.1049 89.3908 25.6175 89.5837 26.0834C89.7767 26.5492 90.1035 26.9474 90.5228 27.2276C90.942 27.5077 91.435 27.6573 91.9392 27.6573C92.6154 27.6573 93.2639 27.3887 93.7421 26.9105C94.2202 26.4324 94.4888 25.7839 94.4888 25.1077Z" fill="white"/>
<path d="M104.553 25.1077C104.553 24.6034 104.404 24.1105 104.123 23.6912C103.843 23.2719 103.445 22.9452 102.979 22.7522C102.513 22.5592 102.001 22.5087 101.506 22.6071C101.011 22.7055 100.557 22.9483 100.201 23.3049C99.844 23.6614 99.6012 24.1157 99.5028 24.6103C99.4045 25.1049 99.455 25.6175 99.6479 26.0834C99.8409 26.5492 100.168 26.9474 100.587 27.2276C101.006 27.5077 101.499 27.6573 102.003 27.6573C102.68 27.6573 103.328 27.3887 103.806 26.9105C104.284 26.4324 104.553 25.7839 104.553 25.1077Z" fill="white"/>
<path d="M114.617 25.1077C114.617 24.6034 114.467 24.1105 114.187 23.6912C113.907 23.2719 113.509 22.9452 113.043 22.7522C112.577 22.5592 112.065 22.5087 111.57 22.6071C111.075 22.7055 110.621 22.9483 110.265 23.3049C109.908 23.6614 109.665 24.1157 109.567 24.6103C109.468 25.1049 109.519 25.6175 109.712 26.0834C109.905 26.5492 110.232 26.9474 110.651 27.2276C111.07 27.5077 111.563 27.6573 112.067 27.6573C112.744 27.6573 113.392 27.3887 113.87 26.9105C114.348 26.4324 114.617 25.7839 114.617 25.1077Z" fill="white"/>
<path opacity="0.1" d="M243.109 65.3436H92.3619C91.7705 65.3436 91.2033 65.1091 90.7844 64.6916C90.3656 64.274 90.1295 63.7075 90.1277 63.1161C90.1295 62.5241 90.3654 61.9568 90.784 61.5382C91.2026 61.1196 91.7699 60.8836 92.3619 60.8818H243.109C243.701 60.8836 244.269 61.1196 244.687 61.5382C245.106 61.9568 245.342 62.5241 245.344 63.1161C245.342 63.7075 245.106 64.274 244.687 64.6916C244.268 65.1091 243.701 65.3436 243.109 65.3436Z" fill="#066AC9"/>
<path d="M204.309 65.3436H92.3619C91.7705 65.3436 91.2033 65.1091 90.7844 64.6916C90.3656 64.274 90.1295 63.7075 90.1277 63.1161C90.1295 62.5241 90.3654 61.9568 90.784 61.5382C91.2026 61.1196 91.7699 60.8836 92.3619 60.8818H204.309C204.9 60.8836 205.467 61.1198 205.884 61.5386C206.302 61.9574 206.536 62.5247 206.536 63.1161C206.536 63.7069 206.302 64.2734 205.884 64.6912C205.466 65.1089 204.9 65.3436 204.309 65.3436Z" fill="#066AC9"/>
<path d="M215.373 75.334H209.656L206.556 72.2275L203.457 75.334H197.727C197.078 75.3375 196.458 75.5967 195.999 76.0552C195.541 76.5137 195.281 77.1345 195.278 77.7829V84.8815C195.281 85.5299 195.541 86.1508 195.999 86.6093C196.458 87.0678 197.078 87.3269 197.727 87.3305H215.373C216.021 87.3269 216.642 87.0678 217.1 86.6093C217.559 86.1508 217.818 85.5299 217.822 84.8815V77.7829C217.818 77.1345 217.559 76.5137 217.1 76.0552C216.642 75.5967 216.021 75.3375 215.373 75.334Z" fill="#263238"/>
<path d="M200.431 79.313H203.598V80.0443C203.342 80.2842 203.116 80.5546 202.927 80.8494C202.701 81.217 202.523 81.6115 202.397 82.0236C202.287 82.4114 202.217 82.8093 202.189 83.2112H201.108C201.174 82.6639 201.309 82.1273 201.511 81.6143C201.738 81.1159 202.029 80.649 202.376 80.2255H200.451L200.431 79.313Z" fill="white"/>
<path d="M204.49 79.313H207.06V80.1785H205.308L205.215 80.7622C205.331 80.7088 205.452 80.6661 205.577 80.6347C205.691 80.6077 205.808 80.5942 205.926 80.5945C206.099 80.5861 206.273 80.6134 206.435 80.6745C206.598 80.7357 206.747 80.8295 206.872 80.9501C206.991 81.0639 207.086 81.2015 207.15 81.354C207.213 81.5065 207.244 81.6706 207.241 81.8357C207.239 82.0912 207.174 82.3423 207.053 82.5671C206.934 82.7934 206.749 82.9782 206.523 83.0971C206.246 83.2277 205.943 83.2898 205.637 83.2783C205.411 83.284 205.186 83.2592 204.966 83.2045C204.797 83.164 204.638 83.0911 204.497 82.9898C204.375 82.8972 204.269 82.7863 204.181 82.661C204.094 82.5187 204.026 82.3652 203.98 82.2048L205.08 82.084C205.095 82.2356 205.162 82.3776 205.268 82.4866C205.364 82.5733 205.488 82.6211 205.617 82.6207C205.688 82.6218 205.758 82.6066 205.822 82.5764C205.886 82.5461 205.942 82.5016 205.986 82.4463C206.094 82.2991 206.146 82.1185 206.134 81.9364C206.153 81.7537 206.1 81.5707 205.986 81.4265C205.935 81.3729 205.874 81.3309 205.806 81.3031C205.737 81.2753 205.664 81.2625 205.59 81.2654C205.485 81.2661 205.382 81.2913 205.288 81.3392C205.196 81.3913 205.115 81.4595 205.047 81.5405L204.128 81.413L204.49 79.313Z" fill="white"/>
<path d="M207.724 80.2718C207.724 80.0934 207.763 79.9171 207.838 79.7552C207.919 79.5966 208.045 79.4658 208.2 79.3794C208.379 79.2885 208.577 79.2425 208.777 79.2452C208.918 79.2385 209.059 79.26 209.191 79.3084C209.324 79.3568 209.445 79.4311 209.549 79.527C209.73 79.7328 209.83 79.9976 209.83 80.2718C209.83 80.5459 209.73 80.8107 209.549 81.0165C209.445 81.1125 209.324 81.1868 209.191 81.2352C209.059 81.2836 208.918 81.305 208.777 81.2983C208.577 81.3011 208.379 81.255 208.2 81.1641C208.045 81.0778 207.919 80.947 207.838 80.7884C207.763 80.6265 207.724 80.4502 207.724 80.2718ZM208.469 80.2718C208.456 80.4377 208.493 80.6037 208.576 80.7481C208.596 80.7752 208.621 80.7979 208.65 80.815C208.679 80.8321 208.711 80.8432 208.744 80.8476C208.777 80.852 208.811 80.8496 208.843 80.8406C208.875 80.8315 208.905 80.8161 208.932 80.7951C208.949 80.7812 208.965 80.7654 208.979 80.7481C209.057 80.6022 209.094 80.4374 209.086 80.2718C209.098 80.1037 209.061 79.9358 208.979 79.7887C208.955 79.7637 208.926 79.7439 208.894 79.7303C208.863 79.7167 208.829 79.7097 208.794 79.7097C208.76 79.7097 208.725 79.7167 208.694 79.7303C208.662 79.7439 208.633 79.7637 208.61 79.7887C208.61 79.7887 208.61 79.7887 208.576 79.7887C208.491 79.9372 208.454 80.1081 208.469 80.2785V80.2718ZM211.032 79.2385H211.595L209.334 83.4118H208.777L211.032 79.2385ZM210.535 82.3718C210.548 82.2028 210.596 82.0383 210.676 81.8888C210.757 81.7302 210.883 81.5994 211.038 81.513C211.216 81.4191 211.415 81.3729 211.615 81.3788C211.756 81.3721 211.897 81.3936 212.03 81.442C212.162 81.4903 212.284 81.5647 212.387 81.6606C212.568 81.8664 212.668 82.1312 212.668 82.4054C212.668 82.6795 212.568 82.9443 212.387 83.1501C212.284 83.2461 212.162 83.3204 212.03 83.3688C211.897 83.4172 211.756 83.4386 211.615 83.4319C211.415 83.4388 211.215 83.3925 211.038 83.2977C210.878 83.2175 210.75 83.0849 210.676 82.922C210.589 82.7535 210.541 82.5679 210.535 82.3785V82.3718ZM211.28 82.3718C211.268 82.5377 211.305 82.7034 211.387 82.8482C211.406 82.8748 211.431 82.8973 211.459 82.9144C211.487 82.9315 211.518 82.9429 211.55 82.9479C211.583 82.9528 211.616 82.9514 211.648 82.9435C211.68 82.9356 211.71 82.9214 211.736 82.9019C211.757 82.8875 211.775 82.8693 211.79 82.8482C211.875 82.7049 211.913 82.538 211.897 82.3718C211.913 82.2036 211.875 82.0347 211.79 81.8888C211.766 81.8585 211.735 81.8343 211.7 81.818C211.665 81.8017 211.627 81.7938 211.588 81.7948C211.549 81.7921 211.51 81.8 211.474 81.8177C211.439 81.8354 211.409 81.8622 211.387 81.8955C211.302 82.044 211.265 82.2149 211.28 82.3852V82.3718Z" fill="white"/>
<path opacity="0.1" d="M167.528 89.7517L168.199 86.927C168.233 86.8213 168.247 86.7098 168.238 86.5989C168.229 86.488 168.199 86.3799 168.148 86.2808C168.098 86.1817 168.028 86.0936 167.944 86.0214C167.859 85.9492 167.761 85.8944 167.655 85.8602C167.561 85.8267 167.46 85.813 167.36 85.8199H157.155C155.484 76.6414 149.547 69.8985 151.257 58.7474C154.612 53.4738 142.535 33.8755 133.766 45.6573C122.407 46.4021 132.914 67.7112 111.303 73.166C95.4082 77.1916 86.6926 86.397 83.1836 94.1396C84.519 94.8839 86.0226 95.2742 87.5514 95.2735H87.954C89.3211 92.2237 91.1874 89.4232 93.4759 86.9874C92.2865 89.6846 91.2625 92.4518 90.4096 95.2735H168.514L168.709 90.899C168.722 90.7605 168.707 90.6209 168.666 90.4882C168.624 90.3554 168.557 90.2322 168.468 90.1255C168.379 90.0188 168.269 89.9309 168.146 89.8667C168.023 89.8026 167.888 89.7635 167.749 89.7517C167.676 89.745 167.601 89.745 167.528 89.7517Z" fill="#066AC9"/>
<path d="M143.957 93.7169C142.616 103.915 141.099 124.03 113.181 126.023C94.7438 127.331 86.659 109.806 75.0517 104.09C76.0782 95.7163 79.9227 87.3161 80.0569 86.9807C75.9793 91.4072 73.2066 96.876 72.0458 102.781C70.702 102.279 69.3199 101.887 67.9128 101.607C67.9128 93.7169 76.2661 78.6073 97.8839 73.1592C119.502 67.7112 108.988 46.402 120.347 45.6506C129.13 33.8688 141.193 53.4671 137.839 58.7407C135.678 72.8372 145.735 79.8754 143.957 93.7169Z" fill="#263238"/>
<path d="M154.498 94.1057C154.445 93.7483 154.297 93.4118 154.069 93.1315C153.841 92.8511 153.542 92.6373 153.203 92.5124C152.864 92.3875 152.498 92.3562 152.142 92.4216C151.787 92.4871 151.456 92.647 151.184 92.8846L147.829 95.7294C147.637 95.9824 147.508 96.2773 147.452 96.5898C147.396 96.9023 147.415 97.2236 147.507 97.5275L148.104 99.4799C149.677 99.5803 151.254 99.3518 152.734 98.809C153.413 98.5809 153.99 98.1178 154.359 97.5028C154.728 96.8879 154.865 96.1615 154.746 95.4543L154.498 94.1057Z" fill="#FFB573"/>
<path d="M135.53 82.3713C135.665 83.1093 135.846 84.0151 136.02 84.8538C136.195 85.6924 136.389 86.5512 136.59 87.3966C136.993 89.0941 137.456 90.7513 137.932 92.4287C138.409 94.1061 139.013 95.6761 139.63 97.2461C140.26 98.7547 140.984 100.222 141.797 101.641L140.066 100.265C140.424 100.494 140.855 100.58 141.274 100.507C142.056 100.388 142.809 100.124 143.494 99.7286C144.373 99.2593 145.21 98.7162 145.997 98.1049C146.822 97.4876 147.674 96.763 148.426 96.0921L148.587 95.9579C148.936 95.6581 149.378 95.4871 149.838 95.4735C150.298 95.4598 150.749 95.6044 151.116 95.883C151.482 96.1616 151.742 96.5575 151.852 97.0045C151.962 97.4516 151.916 97.9228 151.72 98.3397C151.16 99.521 150.486 100.645 149.707 101.694C148.921 102.778 148.022 103.774 147.024 104.667C145.875 105.699 144.538 106.498 143.085 107.022C142.223 107.329 141.317 107.499 140.401 107.525C139.409 107.55 138.419 107.405 137.476 107.096C136.836 106.884 136.281 106.472 135.893 105.921L135.745 105.72C134.563 104.044 133.518 102.276 132.618 100.433C131.76 98.647 131 96.8148 130.344 94.9447C129.696 93.1064 129.14 91.2366 128.68 89.3424C128.452 88.4031 128.23 87.457 128.009 86.5043C127.788 85.5515 127.66 84.6256 127.513 83.5521C127.386 82.5184 127.666 81.476 128.292 80.6439C128.918 79.8118 129.842 79.2547 130.871 79.0897C131.899 78.9247 132.951 79.1646 133.806 79.759C134.661 80.3534 135.253 81.256 135.457 82.2773L135.53 82.3713Z" fill="#FFB573"/>
<path d="M88.7793 223.015C87.7393 218.318 88.001 217.211 87.1556 214.628C86.7121 213.166 86.0759 211.769 85.2635 210.475C84.5255 209.133 85.9345 208.012 87.33 207.831C88.4237 207.697 89.5777 207.65 90.9196 207.435L93.818 212.843C92.2883 214.782 91.0672 219.553 91.6106 223.162C91.9864 225.765 89.1953 224.9 88.7793 223.015Z" fill="#066AC9"/>
<path d="M135.53 111.121C135.53 111.121 136.295 150.888 137.107 172.922C139.241 185.958 94.4083 213.104 94.4083 213.104C93.4489 213.561 90.906 208.589 90.9463 207.435C90.9463 207.435 110.229 179.034 121.716 172.177C108.968 136.986 112.457 111.121 112.457 111.121H135.53Z" fill="#263238"/>
<path opacity="0.2" d="M112.43 111.121H126.983C126.983 111.121 124.071 149.995 120.83 169.735C109.136 135.798 112.43 111.121 112.43 111.121Z" fill="black"/>
<path opacity="0.2" d="M103.433 190.58C108.954 183.69 115.342 176.491 120.475 172.975C119.743 179.792 118.992 188.017 118.415 196.458C113.591 200.276 108.585 203.838 104.399 206.663C103.705 201.331 103.382 195.957 103.433 190.58Z" fill="black"/>
<path d="M97.1928 212.124C96.609 212.54 95.5691 213.299 94.8176 213.882C94.7593 213.929 94.6922 213.964 94.6203 213.985C94.5484 214.005 94.473 214.011 94.3987 214.003C94.3244 213.994 94.2526 213.971 94.1874 213.934C94.1222 213.897 94.0651 213.848 94.0192 213.788C92.5778 211.806 91.3223 209.695 90.2686 207.482C90.213 207.372 90.1941 207.248 90.2146 207.127C90.2352 207.006 90.2941 206.895 90.3827 206.811L92.2613 204.945C92.3705 204.838 92.5175 204.778 92.6706 204.778C92.8237 204.778 92.9707 204.838 93.0799 204.945L93.1403 205.019L97.3337 211.313C97.3785 211.375 97.4104 211.445 97.4275 211.52C97.4447 211.595 97.4468 211.673 97.4337 211.748C97.4206 211.824 97.3925 211.896 97.3511 211.961C97.3098 212.025 97.2559 212.081 97.1928 212.124Z" fill="#066AC9"/>
<path opacity="0.3" d="M97.1928 212.124C96.609 212.54 95.5691 213.299 94.8176 213.882C94.7593 213.929 94.6922 213.964 94.6203 213.985C94.5484 214.005 94.473 214.011 94.3987 214.003C94.3244 213.994 94.2526 213.971 94.1874 213.934C94.1222 213.897 94.0651 213.848 94.0192 213.788C92.5778 211.806 91.3223 209.695 90.2686 207.482C90.213 207.372 90.1941 207.248 90.2146 207.127C90.2352 207.006 90.2941 206.895 90.3827 206.811L92.2613 204.945C92.3705 204.838 92.5175 204.778 92.6706 204.778C92.8237 204.778 92.9707 204.838 93.0799 204.945L93.1403 205.019L97.3337 211.313C97.3785 211.375 97.4104 211.445 97.4275 211.52C97.4447 211.595 97.4468 211.673 97.4337 211.748C97.4206 211.824 97.3925 211.896 97.3511 211.961C97.3098 212.025 97.2559 212.081 97.1928 212.124Z" fill="white"/>
<path d="M118.804 245.759C113.906 245.759 114.248 245.685 111.484 245.591C109.122 245.504 108.579 245.799 106.68 245.759C105.097 245.725 105.016 244.209 105.338 242.465C105.506 241.586 105.788 240.519 106.009 239.11H113.456C114.134 240.152 115.035 241.029 116.095 241.678C117.155 242.327 118.346 242.731 119.582 242.86C122.246 243.203 120.77 245.759 118.804 245.759Z" fill="#066AC9"/>
<path d="M128.579 111.121C128.579 111.121 120.877 153.525 118.052 172.747C115.093 192.929 111.437 225.691 113.45 239.103C112.363 239.774 108.324 239.808 106.002 239.103C106.002 239.103 94.2272 193.07 104.063 173.639C98.4675 126.398 106.747 123.943 109.028 111.121H128.579Z" fill="#263238"/>
<path d="M113.758 236.305C113.861 237.235 114.031 238.157 114.268 239.063C114.292 239.129 114.302 239.2 114.297 239.271C114.292 239.342 114.273 239.411 114.24 239.474C114.207 239.537 114.162 239.592 114.107 239.637C114.051 239.682 113.988 239.715 113.919 239.734C113.895 239.737 113.87 239.737 113.846 239.734C111.162 240.17 107.136 239.539 105.881 239.311C105.763 239.285 105.654 239.228 105.565 239.145C105.476 239.063 105.412 238.958 105.378 238.841L104.741 236.258C104.717 236.192 104.707 236.122 104.711 236.052C104.715 235.982 104.733 235.913 104.764 235.85C104.796 235.788 104.84 235.732 104.893 235.687C104.947 235.641 105.009 235.607 105.076 235.587C105.137 235.581 105.197 235.581 105.257 235.587L113.148 235.735C113.299 235.747 113.442 235.81 113.553 235.913C113.664 236.017 113.736 236.155 113.758 236.305Z" fill="#066AC9"/>
<path opacity="0.3" d="M113.758 236.305C113.861 237.235 114.031 238.157 114.268 239.063C114.292 239.129 114.302 239.2 114.297 239.271C114.292 239.342 114.273 239.411 114.24 239.474C114.207 239.537 114.162 239.592 114.107 239.637C114.051 239.682 113.988 239.715 113.919 239.734C113.895 239.737 113.87 239.737 113.846 239.734C111.162 240.17 107.136 239.539 105.881 239.311C105.763 239.285 105.654 239.228 105.565 239.145C105.476 239.063 105.412 238.958 105.378 238.841L104.741 236.258C104.717 236.192 104.707 236.122 104.711 236.052C104.715 235.982 104.733 235.913 104.764 235.85C104.796 235.788 104.84 235.732 104.893 235.687C104.947 235.641 105.009 235.607 105.076 235.587C105.137 235.581 105.197 235.581 105.257 235.587L113.148 235.735C113.299 235.747 113.442 235.81 113.553 235.913C113.664 236.017 113.736 236.155 113.758 236.305Z" fill="white"/>
<path d="M129.257 73.978C134.142 74.8972 135.175 76.8966 138.771 84.3105C137.684 89.195 131.847 93.4823 131.847 93.4823C131.847 93.4823 121.199 80.2849 129.257 73.978Z" fill="white"/>
<path d="M109.028 111.121C104.446 117.374 99.4538 127.364 99.4136 148.835C123.232 159.57 134.564 159.57 140.227 156.886C136.141 140.327 135.53 111.121 135.53 111.121C131.726 106.934 109.028 111.121 109.028 111.121Z" fill="#066AC9"/>
<path opacity="0.2" d="M125.091 129.974C123.004 137.69 125.144 145.406 126.983 147.117C125.721 142.662 125.091 129.974 125.091 129.974Z" fill="black"/>
<path d="M137 83.2293C137.08 85.8325 136.825 88.9792 136.242 95.1788C135.846 100.426 137.154 110.402 135.504 111.134C131.33 112.301 120.374 111.764 109.028 111.134C108.498 103.619 108.693 98.4395 103.943 81.666C103.435 80.1116 103.565 78.4191 104.305 76.9608C105.044 75.5025 106.333 74.3978 107.888 73.8897C108.323 73.7478 108.773 73.6555 109.23 73.6147C110.283 73.5073 111.397 73.4134 112.537 73.3597C116.538 73.0712 120.554 73.0712 124.554 73.3597C125.862 73.4805 127.238 73.6415 128.512 73.8226C130.799 74.1627 132.895 75.2871 134.444 77.0031C135.992 78.7192 136.896 80.9202 137 83.2293Z" fill="white"/>
<path d="M116.791 61.7268C117.462 65.6787 115.697 70.8047 113.181 73.3811C113.181 73.3811 116.845 72.8309 124.621 77.6416C126.875 74.4143 125.205 73.3811 125.205 73.3811C123.118 72.9785 123.118 71.4555 123.937 68.5167L116.791 61.7268Z" fill="#FFB573"/>
<path d="M122.991 76.6677C120.428 77.03 119.636 80.9014 119.636 80.9014C119.636 80.9014 113.483 76.547 111.538 73.4807C112.311 73.044 113.062 72.567 113.785 72.0516C113.785 72.0516 121.494 75.1782 122.991 76.6677Z" fill="#066AC9"/>
<path d="M125.426 76.2518C125.426 76.2518 127.439 76.6947 128.479 79.526C129.063 73.8834 126.392 73.3668 126.392 73.3668C126.056 73.1276 125.673 72.9612 125.269 72.878C124.865 72.7948 124.447 72.7968 124.044 72.8837C126.077 73.9572 125.426 76.2518 125.426 76.2518Z" fill="#066AC9"/>
<path opacity="0.2" d="M123.937 68.5099L119.743 64.5245C119.817 65.1955 119.931 66.0342 120.085 66.846C120.564 68.9234 121.779 70.7568 123.507 72.0055C123.306 71.2004 123.507 70.0531 123.937 68.5099Z" fill="black"/>
<path d="M118.415 52.6561C116.771 58.7952 115.946 61.3784 117.864 65.5919C120.75 71.9726 128.425 72.9723 131.807 67.5712C134.859 62.68 137.033 53.4814 132.122 48.825C131.102 47.7918 129.824 47.0505 128.42 46.6778C127.017 46.3051 125.539 46.3147 124.141 46.7055C122.742 47.0964 121.474 47.8543 120.467 48.9006C119.46 49.947 118.751 51.2436 118.415 52.6561Z" fill="#FFB573"/>
<path d="M120.89 46.6776C121.843 54.0177 131.505 49.7371 137.375 58.2379C136.819 50.9917 129.707 40.7062 120.89 46.6776Z" fill="#263238"/>
<path d="M121.494 46.4025C129.747 51.9176 120.716 56.3861 114.617 56.0573C112.604 49.9652 121.494 46.4025 121.494 46.4025Z" fill="#263238"/>
<path opacity="0.2" d="M125.661 57.2723C125.405 56.9403 125.085 56.6622 124.722 56.4538C124.358 56.2454 123.956 56.1109 123.541 56.0579C124.164 56.5933 124.883 57.0054 125.661 57.2723Z" fill="black"/>
<path opacity="0.2" d="M125.339 57.7339C125.047 57.4879 124.704 57.3083 124.336 57.2075C123.968 57.1067 123.582 57.0871 123.205 57.1502C123.867 57.4932 124.594 57.6921 125.339 57.7339Z" fill="black"/>
<path d="M126.882 57.8684C126.721 58.3783 126.848 58.8949 127.164 59.0157C127.479 59.1365 127.868 58.8279 128.029 58.3448C128.19 57.8617 128.063 57.3249 127.748 57.1975C127.432 57.07 127.043 57.3652 126.882 57.8684Z" fill="#263238"/>
<path d="M132.8 60.2908C132.639 60.8007 132.766 61.3106 133.082 61.4381C133.397 61.5656 133.752 61.2502 133.94 60.7671C134.128 60.2841 133.974 59.7406 133.659 59.6198C133.343 59.4991 132.954 59.7809 132.8 60.2908Z" fill="#263238"/>
<path d="M133.518 59.5659L134.786 59.6666C134.786 59.6666 133.887 60.418 133.518 59.5659Z" fill="#263238"/>
<path d="M130.881 60.4779C130.936 61.8095 131.161 63.1286 131.552 64.4029C131.241 64.4901 130.914 64.5052 130.597 64.447C130.28 64.3889 129.98 64.2591 129.72 64.0674L130.881 60.4779Z" fill="#ED893E"/>
<path d="M126.379 64.8596C126.628 65.0132 126.891 65.1435 127.164 65.2487C127.18 65.2565 127.198 65.261 127.216 65.2618C127.234 65.2627 127.252 65.2599 127.269 65.2536C127.286 65.2474 127.301 65.2378 127.314 65.2254C127.327 65.213 127.338 65.1981 127.345 65.1816C127.358 65.1424 127.356 65.0997 127.338 65.0622C127.321 65.0247 127.29 64.9954 127.251 64.9803C126.632 64.7389 126.075 64.3616 125.621 63.8762C125.167 63.3908 124.827 62.8098 124.628 62.1758C124.618 62.1366 124.594 62.1025 124.561 62.0801C124.527 62.0578 124.486 62.0488 124.447 62.055C124.408 62.0688 124.376 62.0961 124.356 62.132C124.336 62.1678 124.33 62.2096 124.339 62.2496C124.68 63.3384 125.405 64.2662 126.379 64.8596Z" fill="#263238"/>
<path d="M115.402 56.7412C115.389 57.3478 115.502 57.9506 115.733 58.5116C115.964 59.0727 116.308 59.5801 116.744 60.002C117.878 60.9883 119.18 59.7672 119.475 58.063C119.75 56.5265 119.475 54.1581 118.046 53.8562C116.617 53.5542 115.402 55.1041 115.402 56.7412Z" fill="#FFB573"/>
<path d="M126.701 54.5479C126.741 54.5583 126.782 54.5601 126.823 54.5531C126.863 54.5462 126.902 54.5307 126.936 54.5076C127.248 54.2958 127.609 54.1642 127.984 54.1244C128.36 54.0846 128.739 54.1379 129.089 54.2795C129.123 54.2968 129.16 54.3073 129.198 54.3102C129.236 54.3132 129.274 54.3086 129.311 54.2968C129.347 54.2849 129.38 54.266 129.409 54.2412C129.438 54.2164 129.462 54.1861 129.479 54.152C129.507 54.0733 129.506 53.9867 129.475 53.9088C129.444 53.8309 129.386 53.767 129.311 53.7293C128.871 53.5417 128.391 53.4673 127.916 53.513C127.44 53.5587 126.983 53.7231 126.587 53.991C126.521 54.0405 126.477 54.1133 126.463 54.1944C126.45 54.2755 126.467 54.3587 126.513 54.4271C126.559 54.4889 126.626 54.5319 126.701 54.5479Z" fill="#263238"/>
<path d="M135.638 58.2102C135.672 58.2268 135.71 58.2354 135.748 58.2354C135.787 58.2354 135.825 58.2268 135.859 58.2102C135.896 58.1935 135.93 58.1696 135.957 58.14C135.985 58.1104 136.007 58.0756 136.021 58.0376C136.036 57.9995 136.042 57.9591 136.041 57.9184C136.04 57.8778 136.03 57.8379 136.013 57.8009C135.834 57.3328 135.55 56.9121 135.182 56.5712C134.815 56.2304 134.374 55.9785 133.893 55.835C133.82 55.819 133.744 55.8327 133.681 55.8729C133.618 55.9132 133.574 55.9768 133.558 56.0497C133.545 56.132 133.564 56.216 133.61 56.2854C133.655 56.3549 133.725 56.4048 133.806 56.4254C134.184 56.5465 134.53 56.7511 134.818 57.0241C135.106 57.297 135.329 57.6313 135.47 58.0022C135.482 58.0466 135.503 58.0881 135.532 58.124C135.561 58.1598 135.597 58.1892 135.638 58.2102Z" fill="#263238"/>
<path d="M127.593 57.1442L128.868 57.2515C128.868 57.2515 127.969 57.9694 127.593 57.1442Z" fill="#263238"/>
<path d="M107.894 83.6522L105.882 87.812C105.211 89.2143 104.54 90.6233 103.929 92.0255C103.319 93.4278 102.715 94.8435 102.198 96.2323C101.694 97.5466 101.273 98.8911 100.937 100.258L100.809 98.6008C100.867 98.8868 100.986 99.157 101.158 99.3925C101.436 99.8393 101.757 100.257 102.118 100.64C102.955 101.574 103.851 102.452 104.801 103.271C105.781 104.143 106.814 104.995 107.888 105.84C108.961 106.686 110.062 107.524 111.115 108.343L111.182 108.39C111.568 108.678 111.837 109.095 111.942 109.565C112.046 110.036 111.979 110.528 111.752 110.952C111.524 111.377 111.152 111.706 110.703 111.879C110.254 112.053 109.757 112.06 109.303 111.899C107.909 111.422 106.541 110.874 105.204 110.255C103.857 109.636 102.542 108.949 101.265 108.195C99.9174 107.407 98.6361 106.509 97.4344 105.511C96.7652 104.944 96.1415 104.325 95.5692 103.66C94.8354 102.816 94.2624 101.845 93.8784 100.795C93.7181 100.353 93.6629 99.8796 93.7174 99.4126V99.1308C93.9542 97.3306 94.3402 95.5532 94.8714 93.8169C95.3478 92.1396 95.9181 90.5495 96.5286 88.9727C97.1392 87.396 97.8034 85.8663 98.4945 84.3499C99.1856 82.8336 99.9169 81.371 100.769 79.8479C101.278 78.9301 102.125 78.2473 103.13 77.945C104.135 77.6426 105.218 77.7447 106.149 78.2293C107.08 78.714 107.784 79.5429 108.113 80.5396C108.442 81.5362 108.368 82.6218 107.908 83.5649L107.894 83.6522Z" fill="#FFB573"/>
<path d="M108.974 73.6558C104.613 73.6558 102.701 74.6756 97.8838 82.6799C98.9573 86.1219 105.868 90.3354 105.868 90.3354C105.868 90.3354 113.322 80.7275 108.974 73.6558Z" fill="white"/>
<path d="M116.254 113.731L116.033 111.772C115.99 111.408 115.861 111.059 115.657 110.755C115.453 110.45 115.179 110.199 114.859 110.021L111.819 108.337C111.221 108.006 110.553 107.823 109.87 107.805C109.187 107.786 108.509 107.932 107.894 108.229L107.116 108.598C107.27 111.879 109.847 115.308 109.847 115.308L110.477 116.368C110.726 116.811 111.14 117.139 111.629 117.278C112.118 117.418 112.642 117.358 113.087 117.112L115.201 115.898C115.568 115.678 115.863 115.356 116.05 114.971C116.238 114.587 116.308 114.155 116.254 113.731Z" fill="#FFB573"/>
<path d="M150.17 101.607H127.17C127.059 101.612 126.949 101.594 126.844 101.556C126.74 101.517 126.644 101.459 126.563 101.384C126.481 101.308 126.415 101.217 126.369 101.116C126.322 101.015 126.296 100.906 126.292 100.795C126.291 100.698 126.305 100.601 126.332 100.507L129.579 86.927C129.66 86.6261 129.833 86.3579 130.074 86.1595C130.314 85.9612 130.61 85.8425 130.921 85.8199H153.921C154.032 85.8154 154.143 85.8329 154.247 85.8712C154.351 85.9096 154.447 85.9682 154.529 86.0436C154.61 86.119 154.676 86.2098 154.723 86.3107C154.769 86.4116 154.796 86.5207 154.8 86.6317C154.807 86.7319 154.793 86.8324 154.76 86.927L151.506 100.507C151.427 100.807 151.256 101.076 151.016 101.273C150.776 101.471 150.48 101.588 150.17 101.607Z" fill="#066AC9"/>
<path d="M127.258 100.513C127.236 100.509 127.216 100.5 127.197 100.487C127.179 100.474 127.164 100.458 127.152 100.439C127.14 100.421 127.132 100.4 127.128 100.378C127.125 100.356 127.125 100.334 127.13 100.312L130.163 87.6447C130.252 87.3021 130.448 86.9971 130.724 86.7749C130.999 86.5526 131.339 86.4247 131.693 86.4102H153.585C153.63 86.4102 153.673 86.4278 153.704 86.4593C153.736 86.4907 153.753 86.5334 153.753 86.5779C153.753 86.6224 153.736 86.6651 153.704 86.6965C153.673 86.728 153.63 86.7456 153.585 86.7456H131.659C131.382 86.7628 131.117 86.8657 130.9 87.0399C130.684 87.2142 130.527 87.4513 130.451 87.7185L127.425 100.386C127.415 100.423 127.393 100.455 127.363 100.478C127.333 100.501 127.296 100.513 127.258 100.513Z" fill="white"/>
<path d="M153.733 89.8454L153.431 89.9863C152.967 90.1964 152.566 90.5254 152.269 90.9401C151.972 91.3548 151.79 91.8404 151.74 92.348L151.559 95.2129C151.537 95.4764 151.567 95.7416 151.648 95.9935C151.728 96.2453 151.857 96.4788 152.028 96.6807C152.199 96.8826 152.408 97.0488 152.643 97.17C152.878 97.2911 153.134 97.3648 153.398 97.3868H153.8C154.128 97.3676 154.438 97.2286 154.671 96.9961C154.903 96.7635 155.042 96.4537 155.062 96.1254L155.29 90.8854C155.312 90.6019 155.222 90.3211 155.038 90.1038C154.855 89.8865 154.593 89.7502 154.31 89.7246C154.111 89.7136 153.912 89.7553 153.733 89.8454Z" fill="#FFB573"/>
</svg>
