<svg width="163" height="147" viewBox="0 0 163 147" fill="none" xmlns="http://www.w3.org/2000/svg">
<g clip-path="url(#clip0_434_2339)">
<path d="M112.639 146.63H66.3889C59.4518 146.63 53.8081 141.017 53.8081 134.117V12.5127C53.8081 5.61322 59.4518 0 66.3889 0H112.64C119.576 0 125.22 5.61322 125.22 12.5127C126.081 61.3452 127.549 116.03 125.22 134.117C125.22 141.017 119.576 146.63 112.64 146.63H112.639Z" fill="#3F3D56"/>
<path d="M125.865 44.73C125.572 44.73 125.333 44.9674 125.333 45.2594V62.1986C125.333 62.4905 125.572 62.7279 125.865 62.7279C126.159 62.7279 126.397 62.4905 126.397 62.1986V45.2594C126.397 44.9674 126.159 44.73 125.865 44.73Z" fill="#3F3D56"/>
<path d="M124.023 12.5128V134.115C124.023 140.12 119.323 145.033 113.381 145.414H113.378C113.29 145.419 113.203 145.424 113.112 145.427C112.955 145.435 112.798 145.438 112.638 145.438C112.638 145.438 112.053 145.395 110.983 145.316C109.903 145.236 108.33 145.117 106.369 144.961C105.781 144.916 105.161 144.866 104.506 144.813C103.202 144.707 101.77 144.591 100.235 144.458C99.6228 144.408 98.9894 144.352 98.3428 144.297C95.0376 144.014 91.336 143.683 87.4321 143.307C86.7722 143.246 86.1069 143.183 85.4363 143.116C85.2606 143.098 55.0057 135.534 55.0057 134.115V12.5128C55.0057 6.25858 60.1018 1.19006 66.3901 1.19006H73.1866C74.2724 1.19006 75.1452 2.03173 75.2384 3.10895C75.2463 3.18042 75.2543 3.25187 75.2676 3.32334C75.4645 4.40587 76.4625 5.16018 77.5695 5.16018H101.459C102.566 5.16018 103.564 4.40587 103.761 3.32334C103.774 3.25187 103.782 3.18042 103.79 3.10895C103.883 2.03173 104.756 1.19006 105.842 1.19006H112.638C118.927 1.19006 124.023 6.25858 124.023 12.5128H124.023Z" fill="white"/>
<path d="M53.542 32.0256C53.2485 32.0256 53.0098 32.263 53.0098 32.555V36.7898C53.0098 37.0817 53.2485 37.3191 53.542 37.3191C53.8355 37.3191 54.0742 37.0817 54.0742 36.7898V32.555C54.0742 32.263 53.8355 32.0256 53.542 32.0256Z" fill="#3F3D56"/>
<path d="M53.542 44.73C53.2485 44.73 53.0098 44.9675 53.0098 45.2594V53.4643C53.0098 53.7562 53.2485 53.9936 53.542 53.9936C53.8355 53.9936 54.0742 53.7562 54.0742 53.4643V45.2594C54.0742 44.9674 53.8355 44.73 53.542 44.73V44.73Z" fill="#3F3D56"/>
<path d="M53.542 56.3757C53.2485 56.3757 53.0098 56.6131 53.0098 56.9051V65.11C53.0098 65.4019 53.2485 65.6393 53.542 65.6393C53.8355 65.6393 54.0742 65.4019 54.0742 65.11V56.9051C54.0742 56.6131 53.8355 56.3757 53.542 56.3757Z" fill="#3F3D56"/>
<path d="M73.0118 3.04382H62.8124C62.763 3.04382 62.7229 3.08368 62.7229 3.13284V4.27818C62.7229 4.32734 62.763 4.36719 62.8124 4.36719H73.0118C73.0613 4.36719 73.1013 4.32734 73.1013 4.27818V3.13284C73.1013 3.08368 73.0613 3.04382 73.0118 3.04382Z" fill="#E6E6E6"/>
<path d="M107.524 4.36715C108.111 4.36715 108.588 3.89316 108.588 3.30845C108.588 2.72375 108.111 2.24976 107.524 2.24976C106.936 2.24976 106.459 2.72375 106.459 3.30845C106.459 3.89316 106.936 4.36715 107.524 4.36715Z" fill="#E6E6E6"/>
<path d="M110.451 4.36715C111.039 4.36715 111.515 3.89316 111.515 3.30845C111.515 2.72375 111.039 2.24976 110.451 2.24976C109.863 2.24976 109.386 2.72375 109.386 3.30845C109.386 3.89316 109.863 4.36715 110.451 4.36715Z" fill="#E6E6E6"/>
<path d="M113.378 4.36715C113.966 4.36715 114.443 3.89316 114.443 3.30845C114.443 2.72375 113.966 2.24976 113.378 2.24976C112.79 2.24976 112.314 2.72375 112.314 3.30845C112.314 3.89316 112.79 4.36715 113.378 4.36715Z" fill="#E6E6E6"/>
<path d="M4.12976 146.659C4.12976 146.848 4.28268 147 4.4731 147H162.657C162.847 147 163 146.848 163 146.659C163 146.469 162.847 146.317 162.657 146.317H4.4731C4.28268 146.317 4.12976 146.469 4.12976 146.659Z" fill="#CCCCCC"/>
<path d="M54.5657 144.416L51.3218 144.416L49.7787 131.971L54.5663 131.971L54.5657 144.416Z" fill="#FFB6B6"/>
<path d="M43.4518 144.343C43.3508 144.512 43.2975 145.058 43.2975 145.255C43.2975 145.859 43.7904 146.35 44.3985 146.35H54.4443C54.8591 146.35 55.1954 146.015 55.1954 145.603V145.187C55.1954 145.187 55.6924 143.936 54.6692 142.395C54.6692 142.395 53.3976 143.602 51.4974 141.712L50.9371 140.703L46.881 143.653L44.6328 143.928C44.1409 143.988 43.7048 143.919 43.4518 144.343H43.4518V144.343H43.4518Z" fill="#2F2E41"/>
<path d="M36.6266 127.131L33.3828 127.12L31.8794 114.671L36.667 114.686L36.6266 127.131Z" fill="#FFB6B6"/>
<path d="M25.513 127.023C25.4115 127.191 25.3565 127.737 25.3558 127.934C25.3539 128.539 25.8453 129.031 26.4533 129.033L36.4991 129.064C36.9139 129.066 37.2513 128.732 37.2526 128.32L37.2539 127.904C37.2539 127.904 37.7549 126.655 36.7366 125.111C36.7366 125.111 35.4612 126.313 33.567 124.418L33.0099 123.406L28.9445 126.344L26.6954 126.612C26.2033 126.671 25.7674 126.6 25.5131 127.023H25.513V127.023Z" fill="#2F2E41"/>
<path d="M49.8344 68.8664L45.7954 69.1533C45.7954 69.1533 32.1216 76.8857 30.9676 78.6074C29.8136 80.3291 28.2268 82.7681 29.6693 85.3506C31.1118 87.9331 30.014 119.202 30.014 119.202L36.9071 117.651L41.3236 84.9352L50.5557 83.644C50.5557 83.644 53.7292 90.4538 52.5752 96.0876C51.4212 101.721 50.8442 105.165 50.8442 105.165L49.4017 138.45L55.0275 138.307L60.0763 107.46L68.7314 83.0701L57.4798 69.8707L49.8344 68.8664Z" fill="#2F2E41"/>
<path d="M31.2103 66.0986C29.5677 66.9902 28.6986 68.5557 29.2691 69.5953C29.8396 70.6349 31.6336 70.7549 33.2762 69.8633C33.9952 69.473 34.5659 68.9536 34.9326 68.4057L41.845 64.5408L39.9524 61.3532L33.339 65.5015C32.6773 65.5119 31.9293 65.7083 31.2103 66.0986H31.2103Z" fill="#FFB6B6"/>
<path d="M69.7413 33.5724L61.3747 34.4332L60.5092 37.3027L52.4311 41.6068L55.0276 59.6842L53.0081 62.8406L53.8736 65.997C53.8736 65.997 51.5656 66.2839 51.8541 68.0056L46.661 68.8664C46.661 68.8664 53.5487 70.265 55.0094 77.1697C56.4701 84.0744 68.5873 84.9352 68.5873 84.9352L78.1079 55.3801L78.9734 37.8765L72.3378 36.1549L69.7413 33.5724Z" fill="#E6E6E6"/>
<path d="M54.5209 41.7407C54.5209 41.7407 51.8112 40.7146 50.8777 41.9497C49.9441 43.1849 43.7768 58.1721 43.7768 58.1721L34.7281 62.8722L37.2727 67.2793L48.9246 63.421L56.6122 49.4373L54.5209 41.7407Z" fill="#E6E6E6"/>
<path d="M139.967 90.9604V121.376C139.967 124.066 137.767 126.254 135.063 126.254H59.4748C56.7703 126.254 54.5702 124.066 54.5702 121.376V90.9604C54.5702 88.2706 56.7703 86.0824 59.4748 86.0824H135.063C137.767 86.0824 139.967 88.2706 139.967 90.9604Z" fill="white"/>
<path d="M139.967 90.9604V121.376C139.967 124.066 137.767 126.254 135.063 126.254H59.4748C56.7703 126.254 54.5702 124.066 54.5702 121.376V90.9604C54.5702 88.2706 56.7703 86.0824 59.4748 86.0824H135.063C137.767 86.0824 139.967 88.2706 139.967 90.9604ZM135.063 125.681C137.453 125.681 139.39 123.754 139.39 121.376V106.042C139.39 95.3355 130.664 86.6563 119.899 86.6563H59.4748C57.0847 86.6563 55.1472 88.5833 55.1472 90.9604V121.376C55.1472 123.754 57.0847 125.681 59.4748 125.681H135.063Z" fill="#3F3D56"/>
<path d="M88.5012 104.459H78.6284C78.3795 104.459 78.177 104.66 78.177 104.908C78.177 105.155 78.3795 105.357 78.6284 105.357H88.5012C88.7501 105.357 88.9525 105.155 88.9525 104.908C88.9525 104.66 88.7501 104.459 88.5012 104.459Z" fill="#066AC9"/>
<path d="M103.503 104.459H93.6306C93.3817 104.459 93.1792 104.66 93.1792 104.908C93.1792 105.155 93.3817 105.357 93.6306 105.357H103.503C103.752 105.357 103.955 105.155 103.955 104.908C103.955 104.66 103.752 104.459 103.503 104.459Z" fill="#066AC9"/>
<path d="M88.5012 109.367H78.6284C78.3795 109.367 78.177 109.569 78.177 109.816C78.177 110.064 78.3795 110.265 78.6284 110.265H88.5012C88.7501 110.265 88.9525 110.064 88.9525 109.816C88.9525 109.569 88.7501 109.367 88.5012 109.367Z" fill="#066AC9"/>
<path d="M103.503 109.367H93.6306C93.3817 109.367 93.1792 109.569 93.1792 109.816C93.1792 110.064 93.3817 110.265 93.6306 110.265H103.503C103.752 110.265 103.955 110.064 103.955 109.816C103.955 109.569 103.752 109.367 103.503 109.367Z" fill="#066AC9"/>
<path d="M118.957 109.816C118.957 109.569 118.754 109.367 118.506 109.367H108.633C108.384 109.367 108.181 109.569 108.181 109.816C108.181 110.064 108.384 110.265 108.633 110.265H118.506C118.754 110.265 118.957 110.064 118.957 109.816Z" fill="#066AC9"/>
<path d="M82.7312 100.539C82.9801 100.539 83.1825 100.338 83.1825 100.09C83.1825 99.8429 82.9801 99.6415 82.7312 99.6415H72.8584C72.6095 99.6415 72.407 99.8429 72.407 100.09C72.407 100.338 72.6095 100.539 72.8584 100.539H82.7312Z" fill="#066AC9"/>
<path d="M111.806 100.357H121.679C121.928 100.357 122.131 100.155 122.131 99.9078C122.131 99.6603 121.928 99.4589 121.679 99.4589H111.806C111.558 99.4589 111.355 99.6603 111.355 99.9078C111.355 100.155 111.558 100.357 111.806 100.357Z" fill="#066AC9"/>
<path d="M86.8903 100.451H107.359C107.608 100.451 107.81 100.25 107.81 100.002C107.81 99.7547 107.608 99.5534 107.359 99.5534H86.8903C86.6414 99.5534 86.4388 99.7547 86.4388 100.002C86.4388 100.25 86.6414 100.451 86.8903 100.451Z" fill="#066AC9"/>
<path d="M94.9436 113.827H85.0708C84.8219 113.827 84.6194 114.028 84.6194 114.276C84.6194 114.523 84.8219 114.725 85.0708 114.725H94.9436C95.1925 114.725 95.3949 114.523 95.3949 114.276C95.3949 114.028 95.1925 113.827 94.9436 113.827Z" fill="#066AC9"/>
<path d="M126.829 90.7311V121.147C126.829 123.837 124.629 126.025 121.925 126.025H91.3434C88.639 126.025 86.4388 123.837 86.4388 121.147V90.7311C86.4388 88.0413 88.639 85.8531 91.3434 85.8531H121.925C124.629 85.8531 126.829 88.0413 126.829 90.7311Z" fill="white"/>
<path d="M126.829 90.7311V121.147C126.829 123.837 124.629 126.025 121.925 126.025H91.3434C88.639 126.025 86.4388 123.837 86.4388 121.147V90.7311C86.4388 88.0413 88.639 85.8531 91.3434 85.8531H121.925C124.629 85.8531 126.829 88.0413 126.829 90.7311ZM120.028 125.451C123.465 125.451 126.252 122.679 126.252 119.26V105.813C126.252 95.1062 117.526 86.427 106.761 86.427H91.3434C88.9534 86.427 87.0159 88.354 87.0159 90.7311V116.903C87.0159 121.624 90.8637 125.451 95.6102 125.451H120.028V125.451H120.028Z" fill="#3F3D56"/>
<path d="M110.705 98.2755H100.832C100.583 98.2755 100.381 98.0741 100.381 97.8265C100.381 97.579 100.583 97.3776 100.832 97.3776H110.705C110.954 97.3776 111.156 97.579 111.156 97.8265C111.156 98.0741 110.954 98.2755 110.705 98.2755V98.2755Z" fill="#066AC9"/>
<path d="M110.705 107.849H100.832C100.583 107.849 100.381 107.648 100.381 107.4C100.381 107.152 100.583 106.951 100.832 106.951H110.705C110.954 106.951 111.156 107.152 111.156 107.4C111.156 107.648 110.954 107.849 110.705 107.849V107.849Z" fill="#066AC9"/>
<path d="M105.801 121.048H95.9277C95.6788 121.048 95.4763 120.847 95.4763 120.599C95.4763 120.352 95.6788 120.151 95.9277 120.151H105.801C106.049 120.151 106.252 120.352 106.252 120.599C106.252 120.847 106.049 121.048 105.801 121.048V121.048Z" fill="#066AC9"/>
<path d="M116.003 103.065H95.5344C95.2855 103.065 95.083 102.864 95.083 102.616C95.083 102.369 95.2855 102.167 95.5344 102.167H116.003C116.252 102.167 116.454 102.369 116.454 102.616C116.454 102.864 116.252 103.065 116.003 103.065V103.065Z" fill="#066AC9"/>
<path d="M121.075 73.8769C121.075 64.3885 113.012 59.1688 103.801 56.6966C91.9928 53.527 83.3443 59.9408 86.5278 73.8769C87.2493 77.0354 88.975 80.7243 91.1111 83.8798H108.062C113.724 80.2134 121.075 81.2416 121.075 73.8769H121.075Z" fill="#066AC9"/>
<path d="M103.548 91.8137C104.512 89.9855 105.735 88.6665 107.082 87.6625H91.2051C95.2913 93.4679 100.71 97.1938 103.548 91.8137Z" fill="#066AC9"/>
<path d="M101.716 63.7193C102.735 63.7193 103.561 64.5411 103.561 65.5548V69.2258H99.8704V65.5548C99.8704 64.5411 100.697 63.7193 101.716 63.7193ZM104.484 69.2258V65.5548C104.484 64.0342 103.245 62.8015 101.716 62.8015C100.187 62.8015 98.9477 64.0342 98.9477 65.5548V69.2258C97.9284 69.2258 97.1022 70.0476 97.1022 71.0614V75.6501C97.1022 76.6639 97.9284 77.4857 98.9477 77.4857H104.484C105.503 77.4857 106.33 76.6639 106.33 75.6501V71.0614C106.33 70.0476 105.503 69.2258 104.484 69.2258H104.484ZM98.9477 70.1436H104.484C104.994 70.1436 105.407 70.5545 105.407 71.0613V75.6501C105.407 76.157 104.994 76.5679 104.484 76.5679H98.9477C98.4381 76.5679 98.0249 76.157 98.0249 75.6501V71.0613C98.0249 70.5545 98.4381 70.1436 98.9477 70.1436Z" fill="white"/>
<path d="M75.3429 85.0911C75.1204 86.9391 75.8985 88.5513 77.0808 88.6921C78.2632 88.8329 79.4021 87.4491 79.6246 85.6011C79.722 84.7922 79.6276 84.0285 79.3916 83.4136L80.2357 75.5716L76.5272 75.256L76.0887 83.0202C75.7133 83.5623 75.4403 84.2822 75.3429 85.0911Z" fill="#FFB6B6"/>
<path d="M16.8775 93.354C26.1986 93.354 33.7549 85.8386 33.7549 76.5679C33.7549 67.2971 26.1986 59.7817 16.8775 59.7817C7.5563 59.7817 0 67.2971 0 76.5679C0 85.8386 7.5563 93.354 16.8775 93.354Z" fill="#066AC9"/>
<path d="M16.8775 69.0531C18.0697 69.0531 19.0362 70.0144 19.0362 71.2002V75.4943H14.7187V71.2002C14.7187 70.0144 15.6852 69.0531 16.8775 69.0531ZM20.1156 75.4943V71.2002C20.1156 69.4215 18.6658 67.9796 16.8775 67.9796C15.0891 67.9796 13.6393 69.4215 13.6393 71.2002V75.4943C12.4471 75.4943 11.4806 76.4556 11.4806 77.6414V83.0091C11.4806 84.1949 12.4471 85.1561 13.6393 85.1561H20.1156C21.3078 85.1561 22.2743 84.1948 22.2743 83.0091V77.6414C22.2743 76.4556 21.3078 75.4943 20.1156 75.4943H20.1156ZM13.6393 76.5678H20.1156C20.7117 76.5678 21.1949 77.0485 21.1949 77.6414V83.009C21.1949 83.6019 20.7117 84.0826 20.1156 84.0826H13.6393C13.0432 84.0826 12.56 83.6019 12.56 83.009V77.6414C12.56 77.0485 13.0432 76.5678 13.6393 76.5678Z" fill="white"/>
<path d="M76.2326 38.3069C76.2326 38.3069 80.2716 37.1591 81.1371 38.8808C82.0026 40.6025 84.0222 63.271 84.0222 63.271L80.1274 81.3654L75.6555 80.2006L77.9636 61.8363L74.79 48.063L76.2326 38.3069Z" fill="#E6E6E6"/>
<path d="M65.3319 32.4835C68.924 32.4835 71.8359 29.5873 71.8359 26.0147C71.8359 22.442 68.924 19.5458 65.3319 19.5458C61.7398 19.5458 58.8279 22.442 58.8279 26.0147C58.8279 29.5873 61.7398 32.4835 65.3319 32.4835Z" fill="#FFB6B6"/>
<path d="M61.9516 31.8507C61.9516 31.8507 56.1815 31.5638 56.7585 26.9727C55.3304 22.0837 56.5945 18.9093 61.0861 17.7905C61.0861 17.7905 62.2401 17.5035 62.5286 17.5035C66.3233 17.5035 68.2987 18.6513 68.2987 18.6513C68.2987 18.6513 68.0102 17.5148 68.2987 17.7961C68.5872 18.0774 68.8757 18.6513 68.8757 18.6513C68.8757 18.6513 71.7607 20.086 71.7607 22.9555C71.7607 25.8249 71.7607 24.6771 71.7607 24.6771C71.7607 24.6771 71.1837 24.6771 70.6067 22.9555C70.0297 21.2338 66.2939 22.3816 66.2939 22.3816L66.5677 22.9555L65.7021 22.6685L64.8366 23.5294L64.2596 23.2424C64.2596 23.2424 61.9516 23.2424 62.2401 23.2424C62.5286 23.2424 62.3276 25.1925 62.3276 25.1925L60.2206 27.5466L62.5286 31.8507H61.9516Z" fill="#2F2E41"/>
</g>
<defs>
<clipPath id="clip0_434_2339">
<rect width="163" height="147" fill="white"/>
</clipPath>
</defs>
</svg>
